<?xml version="1.0" encoding="UTF-8"?>
<svg xmlns="http://www.w3.org/2000/svg" xmlns:xlink="http://www.w3.org/1999/xlink" width="246.048pt" height="186.52pt" viewBox="0 0 246.048 186.52">
<path fill-rule="nonzero" fill="rgb(0%, 0%, 0%)" fill-opacity="1" d="M 5.101562 182.550781 C 5.101562 181.925781 4.59375 181.417969 3.96875 181.417969 C 3.34375 181.417969 2.835938 181.925781 2.835938 182.550781 C 2.835938 183.179688 3.34375 183.6875 3.96875 183.6875 C 4.59375 183.6875 5.101562 183.179688 5.101562 182.550781 Z M 5.101562 182.550781 "/>
<path fill-rule="nonzero" fill="rgb(0%, 0%, 0%)" fill-opacity="1" d="M 5.101562 123.023438 C 5.101562 122.398438 4.59375 121.890625 3.96875 121.890625 C 3.34375 121.890625 2.835938 122.398438 2.835938 123.023438 C 2.835938 123.648438 3.34375 124.15625 3.96875 124.15625 C 4.59375 124.15625 5.101562 123.648438 5.101562 123.023438 Z M 5.101562 123.023438 "/>
<path fill-rule="nonzero" fill="rgb(0%, 0%, 0%)" fill-opacity="1" d="M 5.101562 63.496094 C 5.101562 62.867188 4.59375 62.359375 3.96875 62.359375 C 3.34375 62.359375 2.835938 62.867188 2.835938 63.496094 C 2.835938 64.121094 3.34375 64.628906 3.96875 64.628906 C 4.59375 64.628906 5.101562 64.121094 5.101562 63.496094 Z M 5.101562 63.496094 "/>
<path fill-rule="nonzero" fill="rgb(0%, 0%, 0%)" fill-opacity="1" d="M 5.101562 3.964844 C 5.101562 3.339844 4.59375 2.832031 3.96875 2.832031 C 3.34375 2.832031 2.835938 3.339844 2.835938 3.964844 C 2.835938 4.59375 3.34375 5.101562 3.96875 5.101562 C 4.59375 5.101562 5.101562 4.59375 5.101562 3.964844 Z M 5.101562 3.964844 "/>
<path fill-rule="nonzero" fill="rgb(0%, 0%, 0%)" fill-opacity="1" d="M 64.628906 182.550781 C 64.628906 181.925781 64.121094 181.417969 63.496094 181.417969 C 62.871094 181.417969 62.363281 181.925781 62.363281 182.550781 C 62.363281 183.179688 62.871094 183.6875 63.496094 183.6875 C 64.121094 183.6875 64.628906 183.179688 64.628906 182.550781 Z M 64.628906 182.550781 "/>
<path fill-rule="nonzero" fill="rgb(0%, 0%, 0%)" fill-opacity="1" d="M 64.628906 123.023438 C 64.628906 122.398438 64.121094 121.890625 63.496094 121.890625 C 62.871094 121.890625 62.363281 122.398438 62.363281 123.023438 C 62.363281 123.648438 62.871094 124.15625 63.496094 124.15625 C 64.121094 124.15625 64.628906 123.648438 64.628906 123.023438 Z M 64.628906 123.023438 "/>
<path fill-rule="nonzero" fill="rgb(0%, 0%, 0%)" fill-opacity="1" d="M 64.628906 63.496094 C 64.628906 62.867188 64.121094 62.359375 63.496094 62.359375 C 62.871094 62.359375 62.363281 62.867188 62.363281 63.496094 C 62.363281 64.121094 62.871094 64.628906 63.496094 64.628906 C 64.121094 64.628906 64.628906 64.121094 64.628906 63.496094 Z M 64.628906 63.496094 "/>
<path fill-rule="nonzero" fill="rgb(0%, 0%, 0%)" fill-opacity="1" d="M 64.628906 3.964844 C 64.628906 3.339844 64.121094 2.832031 63.496094 2.832031 C 62.871094 2.832031 62.363281 3.339844 62.363281 3.964844 C 62.363281 4.59375 62.871094 5.101562 63.496094 5.101562 C 64.121094 5.101562 64.628906 4.59375 64.628906 3.964844 Z M 64.628906 3.964844 "/>
<path fill-rule="nonzero" fill="rgb(0%, 0%, 0%)" fill-opacity="1" d="M 124.160156 182.550781 C 124.160156 181.925781 123.652344 181.417969 123.023438 181.417969 C 122.398438 181.417969 121.890625 181.925781 121.890625 182.550781 C 121.890625 183.179688 122.398438 183.6875 123.023438 183.6875 C 123.652344 183.6875 124.160156 183.179688 124.160156 182.550781 Z M 124.160156 182.550781 "/>
<path fill-rule="nonzero" fill="rgb(0%, 0%, 0%)" fill-opacity="1" d="M 124.160156 123.023438 C 124.160156 122.398438 123.652344 121.890625 123.023438 121.890625 C 122.398438 121.890625 121.890625 122.398438 121.890625 123.023438 C 121.890625 123.648438 122.398438 124.15625 123.023438 124.15625 C 123.652344 124.15625 124.160156 123.648438 124.160156 123.023438 Z M 124.160156 123.023438 "/>
<path fill-rule="nonzero" fill="rgb(0%, 0%, 0%)" fill-opacity="1" d="M 124.160156 63.496094 C 124.160156 62.867188 123.652344 62.359375 123.023438 62.359375 C 122.398438 62.359375 121.890625 62.867188 121.890625 63.496094 C 121.890625 64.121094 122.398438 64.628906 123.023438 64.628906 C 123.652344 64.628906 124.160156 64.121094 124.160156 63.496094 Z M 124.160156 63.496094 "/>
<path fill-rule="nonzero" fill="rgb(0%, 0%, 0%)" fill-opacity="1" d="M 124.160156 3.964844 C 124.160156 3.339844 123.652344 2.832031 123.023438 2.832031 C 122.398438 2.832031 121.890625 3.339844 121.890625 3.964844 C 121.890625 4.59375 122.398438 5.101562 123.023438 5.101562 C 123.652344 5.101562 124.160156 4.59375 124.160156 3.964844 Z M 124.160156 3.964844 "/>
<path fill-rule="nonzero" fill="rgb(0%, 0%, 0%)" fill-opacity="1" d="M 183.6875 182.550781 C 183.6875 181.925781 183.179688 181.417969 182.554688 181.417969 C 181.925781 181.417969 181.417969 181.925781 181.417969 182.550781 C 181.417969 183.179688 181.925781 183.6875 182.554688 183.6875 C 183.179688 183.6875 183.6875 183.179688 183.6875 182.550781 Z M 183.6875 182.550781 "/>
<path fill-rule="nonzero" fill="rgb(0%, 0%, 0%)" fill-opacity="1" d="M 183.6875 123.023438 C 183.6875 122.398438 183.179688 121.890625 182.554688 121.890625 C 181.925781 121.890625 181.417969 122.398438 181.417969 123.023438 C 181.417969 123.648438 181.925781 124.15625 182.554688 124.15625 C 183.179688 124.15625 183.6875 123.648438 183.6875 123.023438 Z M 183.6875 123.023438 "/>
<path fill-rule="nonzero" fill="rgb(0%, 0%, 0%)" fill-opacity="1" d="M 183.6875 63.496094 C 183.6875 62.867188 183.179688 62.359375 182.554688 62.359375 C 181.925781 62.359375 181.417969 62.867188 181.417969 63.496094 C 181.417969 64.121094 181.925781 64.628906 182.554688 64.628906 C 183.179688 64.628906 183.6875 64.121094 183.6875 63.496094 Z M 183.6875 63.496094 "/>
<path fill-rule="nonzero" fill="rgb(0%, 0%, 0%)" fill-opacity="1" d="M 183.6875 3.964844 C 183.6875 3.339844 183.179688 2.832031 182.554688 2.832031 C 181.925781 2.832031 181.417969 3.339844 181.417969 3.964844 C 181.417969 4.59375 181.925781 5.101562 182.554688 5.101562 C 183.179688 5.101562 183.6875 4.59375 183.6875 3.964844 Z M 183.6875 3.964844 "/>
<path fill-rule="nonzero" fill="rgb(0%, 0%, 0%)" fill-opacity="1" d="M 243.214844 182.550781 C 243.214844 181.925781 242.707031 181.417969 242.082031 181.417969 C 241.457031 181.417969 240.949219 181.925781 240.949219 182.550781 C 240.949219 183.179688 241.457031 183.6875 242.082031 183.6875 C 242.707031 183.6875 243.214844 183.179688 243.214844 182.550781 Z M 243.214844 182.550781 "/>
<path fill-rule="nonzero" fill="rgb(0%, 0%, 0%)" fill-opacity="1" d="M 243.214844 123.023438 C 243.214844 122.398438 242.707031 121.890625 242.082031 121.890625 C 241.457031 121.890625 240.949219 122.398438 240.949219 123.023438 C 240.949219 123.648438 241.457031 124.15625 242.082031 124.15625 C 242.707031 124.15625 243.214844 123.648438 243.214844 123.023438 Z M 243.214844 123.023438 "/>
<path fill-rule="nonzero" fill="rgb(0%, 0%, 0%)" fill-opacity="1" d="M 243.214844 63.496094 C 243.214844 62.867188 242.707031 62.359375 242.082031 62.359375 C 241.457031 62.359375 240.949219 62.867188 240.949219 63.496094 C 240.949219 64.121094 241.457031 64.628906 242.082031 64.628906 C 242.707031 64.628906 243.214844 64.121094 243.214844 63.496094 Z M 243.214844 63.496094 "/>
<path fill-rule="nonzero" fill="rgb(0%, 0%, 0%)" fill-opacity="1" d="M 243.214844 3.964844 C 243.214844 3.339844 242.707031 2.832031 242.082031 2.832031 C 241.457031 2.832031 240.949219 3.339844 240.949219 3.964844 C 240.949219 4.59375 241.457031 5.101562 242.082031 5.101562 C 242.707031 5.101562 243.214844 4.59375 243.214844 3.964844 Z M 243.214844 3.964844 "/>
<path fill="none" stroke-width="0.29887" stroke-linecap="butt" stroke-linejoin="miter" stroke="rgb(0%, 0%, 0%)" stroke-opacity="1" stroke-miterlimit="10" d="M 0.00075 0.00121875 L 0.00075 178.587156 " transform="matrix(1, 0, 0, -1, 3.968, 182.552)"/>
<path fill="none" stroke-width="0.29887" stroke-linecap="butt" stroke-linejoin="miter" stroke="rgb(0%, 0%, 0%)" stroke-opacity="1" stroke-miterlimit="10" d="M 238.114031 0.00121875 L 238.114031 178.587156 " transform="matrix(1, 0, 0, -1, 3.968, 182.552)"/>
<path fill="none" stroke-width="0.29887" stroke-linecap="butt" stroke-linejoin="miter" stroke="rgb(0%, 0%, 0%)" stroke-opacity="1" stroke-miterlimit="10" d="M 0.00075 0.00121875 L 238.114031 0.00121875 " transform="matrix(1, 0, 0, -1, 3.968, 182.552)"/>
<path fill="none" stroke-width="0.29887" stroke-linecap="butt" stroke-linejoin="miter" stroke="rgb(0%, 0%, 0%)" stroke-opacity="1" stroke-miterlimit="10" d="M 0.00075 178.587156 L 238.114031 178.587156 " transform="matrix(1, 0, 0, -1, 3.968, 182.552)"/>
<path fill="none" stroke-width="0.29887" stroke-linecap="butt" stroke-linejoin="miter" stroke="rgb(0%, 0%, 0%)" stroke-opacity="1" stroke-dasharray="2.98883 2.98883" stroke-miterlimit="10" d="M 59.528094 0.00121875 L 59.528094 178.587156 " transform="matrix(1, 0, 0, -1, 3.968, 182.552)"/>
<path fill="none" stroke-width="0.29887" stroke-linecap="butt" stroke-linejoin="miter" stroke="rgb(0%, 0%, 0%)" stroke-opacity="1" stroke-dasharray="2.98883 2.98883" stroke-miterlimit="10" d="M 119.055437 0.00121875 L 119.055437 178.587156 " transform="matrix(1, 0, 0, -1, 3.968, 182.552)"/>
<path fill="none" stroke-width="0.29887" stroke-linecap="butt" stroke-linejoin="miter" stroke="rgb(0%, 0%, 0%)" stroke-opacity="1" stroke-dasharray="2.98883 2.98883" stroke-miterlimit="10" d="M 178.586688 0.00121875 L 178.586688 178.587156 " transform="matrix(1, 0, 0, -1, 3.968, 182.552)"/>
<path fill="none" stroke-width="0.29887" stroke-linecap="butt" stroke-linejoin="miter" stroke="rgb(0%, 0%, 0%)" stroke-opacity="1" stroke-dasharray="2.98883 2.98883" stroke-miterlimit="10" d="M 0.00075 59.528563 L 238.114031 59.528563 " transform="matrix(1, 0, 0, -1, 3.968, 182.552)"/>
<path fill="none" stroke-width="0.29887" stroke-linecap="butt" stroke-linejoin="miter" stroke="rgb(0%, 0%, 0%)" stroke-opacity="1" stroke-dasharray="2.98883 2.98883" stroke-miterlimit="10" d="M 0.00075 119.055906 L 238.114031 119.055906 " transform="matrix(1, 0, 0, -1, 3.968, 182.552)"/>
</svg>
