<?xml version="1.0" encoding="UTF-8"?>
<svg xmlns="http://www.w3.org/2000/svg" xmlns:xlink="http://www.w3.org/1999/xlink" width="148.832pt" height="148.832pt" viewBox="0 0 148.832 148.832">
<path fill="none" stroke-width="0.29887" stroke-linecap="butt" stroke-linejoin="miter" stroke="rgb(0%, 0%, 0%)" stroke-opacity="1" stroke-miterlimit="10" d="M 0.000375 0.00034375 L 0.000375 142.863625 " transform="matrix(1, 0, 0, -1, 2.984, 145.848)"/>
<path fill="none" stroke-width="0.29887" stroke-linecap="butt" stroke-linejoin="miter" stroke="rgb(0%, 0%, 0%)" stroke-opacity="1" stroke-miterlimit="10" d="M 142.863656 0.00034375 L 142.863656 142.863625 " transform="matrix(1, 0, 0, -1, 2.984, 145.848)"/>
<path fill="none" stroke-width="0.29887" stroke-linecap="butt" stroke-linejoin="miter" stroke="rgb(0%, 0%, 0%)" stroke-opacity="1" stroke-miterlimit="10" d="M 0.000375 0.00034375 L 142.863656 0.00034375 " transform="matrix(1, 0, 0, -1, 2.984, 145.848)"/>
<path fill="none" stroke-width="0.29887" stroke-linecap="butt" stroke-linejoin="miter" stroke="rgb(0%, 0%, 0%)" stroke-opacity="1" stroke-miterlimit="10" d="M 0.000375 142.863625 L 142.863656 142.863625 " transform="matrix(1, 0, 0, -1, 2.984, 145.848)"/>
<path fill="none" stroke-width="0.29887" stroke-linecap="butt" stroke-linejoin="miter" stroke="rgb(0%, 0%, 0%)" stroke-opacity="1" stroke-dasharray="2.98883 2.98883" stroke-miterlimit="10" d="M 23.812875 0.00034375 L 23.812875 142.867531 " transform="matrix(1, 0, 0, -1, 2.984, 145.848)"/>
<path fill="none" stroke-width="0.29887" stroke-linecap="butt" stroke-linejoin="miter" stroke="rgb(0%, 0%, 0%)" stroke-opacity="1" stroke-dasharray="2.98883 2.98883" stroke-miterlimit="10" d="M 47.621469 0.00034375 L 47.621469 142.867531 " transform="matrix(1, 0, 0, -1, 2.984, 145.848)"/>
<path fill="none" stroke-width="0.29887" stroke-linecap="butt" stroke-linejoin="miter" stroke="rgb(0%, 0%, 0%)" stroke-opacity="1" stroke-dasharray="2.98883 2.98883" stroke-miterlimit="10" d="M 71.433969 0.00034375 L 71.433969 142.867531 " transform="matrix(1, 0, 0, -1, 2.984, 145.848)"/>
<path fill="none" stroke-width="0.29887" stroke-linecap="butt" stroke-linejoin="miter" stroke="rgb(0%, 0%, 0%)" stroke-opacity="1" stroke-dasharray="2.98883 2.98883" stroke-miterlimit="10" d="M 95.242563 0.00034375 L 95.242563 142.867531 " transform="matrix(1, 0, 0, -1, 2.984, 145.848)"/>
<path fill="none" stroke-width="0.29887" stroke-linecap="butt" stroke-linejoin="miter" stroke="rgb(0%, 0%, 0%)" stroke-opacity="1" stroke-dasharray="2.98883 2.98883" stroke-miterlimit="10" d="M 119.055063 0.00034375 L 119.055063 142.867531 " transform="matrix(1, 0, 0, -1, 2.984, 145.848)"/>
<path fill="none" stroke-width="0.29887" stroke-linecap="butt" stroke-linejoin="miter" stroke="rgb(0%, 0%, 0%)" stroke-opacity="1" stroke-dasharray="2.98883 2.98883" stroke-miterlimit="10" d="M 0.000375 23.812844 L 142.867562 23.812844 " transform="matrix(1, 0, 0, -1, 2.984, 145.848)"/>
<path fill="none" stroke-width="0.29887" stroke-linecap="butt" stroke-linejoin="miter" stroke="rgb(0%, 0%, 0%)" stroke-opacity="1" stroke-dasharray="2.98883 2.98883" stroke-miterlimit="10" d="M 0.000375 47.621438 L 142.867562 47.621438 " transform="matrix(1, 0, 0, -1, 2.984, 145.848)"/>
<path fill="none" stroke-width="0.29887" stroke-linecap="butt" stroke-linejoin="miter" stroke="rgb(0%, 0%, 0%)" stroke-opacity="1" stroke-dasharray="2.98883 2.98883" stroke-miterlimit="10" d="M 0.000375 71.433938 L 142.867562 71.433938 " transform="matrix(1, 0, 0, -1, 2.984, 145.848)"/>
<path fill="none" stroke-width="0.29887" stroke-linecap="butt" stroke-linejoin="miter" stroke="rgb(0%, 0%, 0%)" stroke-opacity="1" stroke-dasharray="2.98883 2.98883" stroke-miterlimit="10" d="M 0.000375 95.242531 L 142.867562 95.242531 " transform="matrix(1, 0, 0, -1, 2.984, 145.848)"/>
<path fill="none" stroke-width="0.29887" stroke-linecap="butt" stroke-linejoin="miter" stroke="rgb(0%, 0%, 0%)" stroke-opacity="1" stroke-dasharray="2.98883 2.98883" stroke-miterlimit="10" d="M 0.000375 119.055031 L 142.867562 119.055031 " transform="matrix(1, 0, 0, -1, 2.984, 145.848)"/>
</svg>
