<?xml version="1.0" encoding="UTF-8"?>
<svg xmlns="http://www.w3.org/2000/svg" xmlns:xlink="http://www.w3.org/1999/xlink" width="121.323pt" height="234.708pt" viewBox="0 0 121.323 234.708">
<path fill-rule="nonzero" fill="rgb(0%, 0%, 0%)" fill-opacity="1" d="M 5.101562 117.355469 C 5.101562 116.726562 4.59375 116.21875 3.96875 116.21875 C 3.34375 116.21875 2.835938 116.726562 2.835938 117.355469 C 2.835938 117.980469 3.34375 118.488281 3.96875 118.488281 C 4.59375 118.488281 5.101562 117.980469 5.101562 117.355469 Z M 5.101562 117.355469 "/>
<path fill-rule="nonzero" fill="rgb(0%, 0%, 0%)" fill-opacity="1" d="M 118.488281 117.355469 C 118.488281 116.726562 117.980469 116.21875 117.355469 116.21875 C 116.730469 116.21875 116.222656 116.726562 116.222656 117.355469 C 116.222656 117.980469 116.730469 118.488281 117.355469 118.488281 C 117.980469 118.488281 118.488281 117.980469 118.488281 117.355469 Z M 118.488281 117.355469 "/>
<path fill-rule="nonzero" fill="rgb(0%, 0%, 0%)" fill-opacity="1" d="M 90.140625 32.3125 C 90.140625 31.6875 89.632812 31.179688 89.007812 31.179688 C 88.382812 31.179688 87.875 31.6875 87.875 32.3125 C 87.875 32.941406 88.382812 33.449219 89.007812 33.449219 C 89.632812 33.449219 90.140625 32.941406 90.140625 32.3125 Z M 90.140625 32.3125 "/>
<path fill-rule="nonzero" fill="rgb(0%, 0%, 0%)" fill-opacity="1" d="M 61.796875 230.742188 C 61.796875 230.113281 61.289062 229.605469 60.660156 229.605469 C 60.035156 229.605469 59.527344 230.113281 59.527344 230.742188 C 59.527344 231.367188 60.035156 231.875 60.660156 231.875 C 61.289062 231.875 61.796875 231.367188 61.796875 230.742188 Z M 61.796875 230.742188 "/>
<path fill-rule="nonzero" fill="rgb(0%, 0%, 0%)" fill-opacity="1" d="M 61.796875 3.964844 C 61.796875 3.339844 61.289062 2.832031 60.660156 2.832031 C 60.035156 2.832031 59.527344 3.339844 59.527344 3.964844 C 59.527344 4.59375 60.035156 5.101562 60.660156 5.101562 C 61.289062 5.101562 61.796875 4.59375 61.796875 3.964844 Z M 61.796875 3.964844 "/>
</svg>
