<?xml version="1.0" encoding="UTF-8"?>
<svg xmlns="http://www.w3.org/2000/svg" xmlns:xlink="http://www.w3.org/1999/xlink" width="254.576pt" height="207.112pt" viewBox="0 0 254.576 207.112">
<defs>
<g>
<g id="glyph-0-0">
<path d="M 1.78125 -1.140625 C 1.390625 -0.484375 1 -0.34375 0.5625 -0.3125 C 0.4375 -0.296875 0.34375 -0.296875 0.34375 -0.109375 C 0.34375 -0.046875 0.40625 0 0.484375 0 C 0.75 0 1.0625 -0.03125 1.328125 -0.03125 C 1.671875 -0.03125 2.015625 0 2.328125 0 C 2.390625 0 2.515625 0 2.515625 -0.1875 C 2.515625 -0.296875 2.4375 -0.3125 2.359375 -0.3125 C 2.140625 -0.328125 1.890625 -0.40625 1.890625 -0.65625 C 1.890625 -0.78125 1.953125 -0.890625 2.03125 -1.03125 L 2.796875 -2.296875 L 5.296875 -2.296875 C 5.3125 -2.09375 5.453125 -0.734375 5.453125 -0.640625 C 5.453125 -0.34375 4.9375 -0.3125 4.734375 -0.3125 C 4.59375 -0.3125 4.5 -0.3125 4.5 -0.109375 C 4.5 0 4.609375 0 4.640625 0 C 5.046875 0 5.46875 -0.03125 5.875 -0.03125 C 6.125 -0.03125 6.765625 0 7.015625 0 C 7.0625 0 7.1875 0 7.1875 -0.203125 C 7.1875 -0.3125 7.09375 -0.3125 6.953125 -0.3125 C 6.34375 -0.3125 6.34375 -0.375 6.3125 -0.671875 L 5.703125 -6.890625 C 5.6875 -7.09375 5.6875 -7.140625 5.515625 -7.140625 C 5.359375 -7.140625 5.3125 -7.0625 5.25 -6.96875 Z M 2.984375 -2.609375 L 4.9375 -5.90625 L 5.265625 -2.609375 Z M 2.984375 -2.609375 "/>
</g>
<g id="glyph-0-1">
<path d="M 1.59375 -0.78125 C 1.5 -0.390625 1.46875 -0.3125 0.6875 -0.3125 C 0.515625 -0.3125 0.421875 -0.3125 0.421875 -0.109375 C 0.421875 0 0.515625 0 0.6875 0 L 4.25 0 C 5.828125 0 7 -1.171875 7 -2.15625 C 7 -2.875 6.421875 -3.453125 5.453125 -3.5625 C 6.484375 -3.75 7.53125 -4.484375 7.53125 -5.4375 C 7.53125 -6.171875 6.875 -6.8125 5.6875 -6.8125 L 2.328125 -6.8125 C 2.140625 -6.8125 2.046875 -6.8125 2.046875 -6.609375 C 2.046875 -6.5 2.140625 -6.5 2.328125 -6.5 C 2.34375 -6.5 2.53125 -6.5 2.703125 -6.484375 C 2.875 -6.453125 2.96875 -6.453125 2.96875 -6.3125 C 2.96875 -6.28125 2.953125 -6.25 2.9375 -6.125 Z M 3.09375 -3.65625 L 3.71875 -6.125 C 3.8125 -6.46875 3.828125 -6.5 4.25 -6.5 L 5.546875 -6.5 C 6.421875 -6.5 6.625 -5.90625 6.625 -5.46875 C 6.625 -4.59375 5.765625 -3.65625 4.5625 -3.65625 Z M 2.65625 -0.3125 C 2.515625 -0.3125 2.5 -0.3125 2.4375 -0.3125 C 2.328125 -0.328125 2.296875 -0.34375 2.296875 -0.421875 C 2.296875 -0.453125 2.296875 -0.46875 2.359375 -0.640625 L 3.046875 -3.421875 L 4.921875 -3.421875 C 5.875 -3.421875 6.078125 -2.6875 6.078125 -2.265625 C 6.078125 -1.28125 5.1875 -0.3125 4 -0.3125 Z M 2.65625 -0.3125 "/>
</g>
<g id="glyph-0-2">
<path d="M 7.578125 -6.921875 C 7.578125 -6.953125 7.5625 -7.03125 7.46875 -7.03125 C 7.4375 -7.03125 7.421875 -7.015625 7.3125 -6.90625 L 6.625 -6.140625 C 6.53125 -6.28125 6.078125 -7.03125 4.96875 -7.03125 C 2.734375 -7.03125 0.5 -4.828125 0.5 -2.515625 C 0.5 -0.875 1.671875 0.21875 3.203125 0.21875 C 4.0625 0.21875 4.828125 -0.171875 5.359375 -0.640625 C 6.28125 -1.453125 6.453125 -2.359375 6.453125 -2.390625 C 6.453125 -2.5 6.34375 -2.5 6.328125 -2.5 C 6.265625 -2.5 6.21875 -2.46875 6.203125 -2.390625 C 6.109375 -2.109375 5.875 -1.390625 5.1875 -0.8125 C 4.5 -0.265625 3.875 -0.09375 3.359375 -0.09375 C 2.46875 -0.09375 1.40625 -0.609375 1.40625 -2.15625 C 1.40625 -2.734375 1.609375 -4.34375 2.609375 -5.515625 C 3.21875 -6.21875 4.15625 -6.71875 5.046875 -6.71875 C 6.0625 -6.71875 6.65625 -5.953125 6.65625 -4.796875 C 6.65625 -4.390625 6.625 -4.390625 6.625 -4.28125 C 6.625 -4.1875 6.734375 -4.1875 6.765625 -4.1875 C 6.890625 -4.1875 6.890625 -4.203125 6.953125 -4.390625 Z M 7.578125 -6.921875 "/>
</g>
<g id="glyph-0-3">
<path d="M 7.375 -4.34375 C 7.375 -5.953125 6.3125 -7.03125 4.828125 -7.03125 C 2.6875 -7.03125 0.484375 -4.765625 0.484375 -2.4375 C 0.484375 -0.78125 1.609375 0.21875 3.046875 0.21875 C 5.15625 0.21875 7.375 -1.96875 7.375 -4.34375 Z M 3.09375 -0.046875 C 2.109375 -0.046875 1.421875 -0.84375 1.421875 -2.15625 C 1.421875 -2.609375 1.5625 -4.0625 2.328125 -5.21875 C 3.015625 -6.265625 3.984375 -6.78125 4.78125 -6.78125 C 5.59375 -6.78125 6.484375 -6.21875 6.484375 -4.734375 C 6.484375 -4.015625 6.21875 -2.46875 5.234375 -1.234375 C 4.75 -0.625 3.9375 -0.046875 3.09375 -0.046875 Z M 3.09375 -0.046875 "/>
</g>
<g id="glyph-0-4">
<path d="M 3.015625 -3.15625 L 4.71875 -3.15625 C 6.125 -3.15625 7.515625 -4.1875 7.515625 -5.296875 C 7.515625 -6.078125 6.859375 -6.8125 5.546875 -6.8125 L 2.328125 -6.8125 C 2.140625 -6.8125 2.03125 -6.8125 2.03125 -6.625 C 2.03125 -6.5 2.109375 -6.5 2.3125 -6.5 C 2.4375 -6.5 2.625 -6.484375 2.734375 -6.484375 C 2.90625 -6.453125 2.953125 -6.4375 2.953125 -6.3125 C 2.953125 -6.28125 2.953125 -6.25 2.921875 -6.125 L 1.578125 -0.78125 C 1.484375 -0.390625 1.46875 -0.3125 0.671875 -0.3125 C 0.515625 -0.3125 0.40625 -0.3125 0.40625 -0.125 C 0.40625 0 0.515625 0 0.546875 0 C 0.828125 0 1.53125 -0.03125 1.8125 -0.03125 C 2.03125 -0.03125 2.25 -0.015625 2.453125 -0.015625 C 2.671875 -0.015625 2.890625 0 3.09375 0 C 3.171875 0 3.296875 0 3.296875 -0.203125 C 3.296875 -0.3125 3.203125 -0.3125 3.015625 -0.3125 C 2.65625 -0.3125 2.375 -0.3125 2.375 -0.484375 C 2.375 -0.546875 2.390625 -0.59375 2.40625 -0.65625 Z M 3.734375 -6.125 C 3.828125 -6.46875 3.84375 -6.5 4.28125 -6.5 L 5.234375 -6.5 C 6.0625 -6.5 6.59375 -6.234375 6.59375 -5.546875 C 6.59375 -5.15625 6.390625 -4.296875 6 -3.9375 C 5.5 -3.484375 4.90625 -3.40625 4.46875 -3.40625 L 3.0625 -3.40625 Z M 3.734375 -6.125 "/>
</g>
<g id="glyph-0-5">
<path d="M 6.4375 -6.921875 C 6.4375 -6.953125 6.40625 -7.03125 6.3125 -7.03125 C 6.265625 -7.03125 6.265625 -7.015625 6.140625 -6.875 L 5.65625 -6.3125 C 5.40625 -6.78125 4.890625 -7.03125 4.234375 -7.03125 C 2.96875 -7.03125 1.78125 -5.875 1.78125 -4.671875 C 1.78125 -3.875 2.296875 -3.40625 2.8125 -3.265625 L 3.875 -2.984375 C 4.25 -2.890625 4.796875 -2.734375 4.796875 -1.921875 C 4.796875 -1.03125 3.984375 -0.09375 3 -0.09375 C 2.359375 -0.09375 1.25 -0.3125 1.25 -1.546875 C 1.25 -1.78125 1.3125 -2.03125 1.3125 -2.078125 C 1.328125 -2.125 1.328125 -2.140625 1.328125 -2.15625 C 1.328125 -2.25 1.265625 -2.265625 1.21875 -2.265625 C 1.171875 -2.265625 1.140625 -2.25 1.109375 -2.21875 C 1.078125 -2.1875 0.515625 0.09375 0.515625 0.125 C 0.515625 0.171875 0.5625 0.21875 0.625 0.21875 C 0.671875 0.21875 0.6875 0.203125 0.8125 0.0625 L 1.296875 -0.5 C 1.71875 0.078125 2.40625 0.21875 2.984375 0.21875 C 4.34375 0.21875 5.515625 -1.109375 5.515625 -2.34375 C 5.515625 -3.03125 5.171875 -3.375 5.03125 -3.515625 C 4.796875 -3.734375 4.640625 -3.78125 3.765625 -4 C 3.53125 -4.0625 3.1875 -4.171875 3.09375 -4.1875 C 2.828125 -4.28125 2.484375 -4.5625 2.484375 -5.09375 C 2.484375 -5.90625 3.28125 -6.75 4.234375 -6.75 C 5.046875 -6.75 5.65625 -6.3125 5.65625 -5.203125 C 5.65625 -4.890625 5.625 -4.703125 5.625 -4.640625 C 5.625 -4.640625 5.625 -4.546875 5.734375 -4.546875 C 5.84375 -4.546875 5.859375 -4.578125 5.890625 -4.75 Z M 6.4375 -6.921875 "/>
</g>
<g id="glyph-0-6">
<path d="M 4.25 -6.046875 C 4.328125 -6.328125 4.359375 -6.390625 4.484375 -6.421875 C 4.578125 -6.4375 4.90625 -6.4375 5.109375 -6.4375 C 6.125 -6.4375 6.5625 -6.40625 6.5625 -5.625 C 6.5625 -5.46875 6.53125 -5.078125 6.484375 -4.828125 C 6.484375 -4.78125 6.453125 -4.671875 6.453125 -4.640625 C 6.453125 -4.578125 6.484375 -4.5 6.578125 -4.5 C 6.6875 -4.5 6.703125 -4.578125 6.734375 -4.734375 L 7 -6.46875 C 7.015625 -6.515625 7.015625 -6.609375 7.015625 -6.640625 C 7.015625 -6.75 6.921875 -6.75 6.75 -6.75 L 1.21875 -6.75 C 0.984375 -6.75 0.96875 -6.734375 0.890625 -6.546875 L 0.296875 -4.796875 C 0.296875 -4.78125 0.234375 -4.640625 0.234375 -4.609375 C 0.234375 -4.5625 0.296875 -4.5 0.359375 -4.5 C 0.453125 -4.5 0.46875 -4.5625 0.53125 -4.71875 C 1.0625 -6.265625 1.328125 -6.4375 2.796875 -6.4375 L 3.1875 -6.4375 C 3.46875 -6.4375 3.46875 -6.40625 3.46875 -6.3125 C 3.46875 -6.265625 3.4375 -6.140625 3.421875 -6.109375 L 2.09375 -0.78125 C 2 -0.421875 1.96875 -0.3125 0.90625 -0.3125 C 0.546875 -0.3125 0.484375 -0.3125 0.484375 -0.125 C 0.484375 0 0.59375 0 0.65625 0 C 0.921875 0 1.203125 -0.015625 1.46875 -0.015625 C 1.75 -0.015625 2.046875 -0.03125 2.328125 -0.03125 C 2.609375 -0.03125 2.875 -0.015625 3.15625 -0.015625 C 3.4375 -0.015625 3.734375 0 4.015625 0 C 4.109375 0 4.234375 0 4.234375 -0.203125 C 4.234375 -0.3125 4.15625 -0.3125 3.890625 -0.3125 C 3.65625 -0.3125 3.515625 -0.3125 3.265625 -0.328125 C 2.96875 -0.359375 2.890625 -0.390625 2.890625 -0.546875 C 2.890625 -0.5625 2.890625 -0.609375 2.9375 -0.75 Z M 4.25 -6.046875 "/>
</g>
<g id="glyph-0-7">
<path d="M 2.375 -6.8125 C 2.375 -6.8125 2.375 -6.921875 2.25 -6.921875 C 2.03125 -6.921875 1.296875 -6.84375 1.03125 -6.8125 C 0.953125 -6.8125 0.84375 -6.796875 0.84375 -6.625 C 0.84375 -6.5 0.9375 -6.5 1.09375 -6.5 C 1.5625 -6.5 1.578125 -6.4375 1.578125 -6.328125 C 1.578125 -6.265625 1.5 -5.921875 1.453125 -5.71875 L 0.625 -2.46875 C 0.515625 -1.96875 0.46875 -1.796875 0.46875 -1.453125 C 0.46875 -0.515625 1 0.109375 1.734375 0.109375 C 2.90625 0.109375 4.140625 -1.375 4.140625 -2.8125 C 4.140625 -3.71875 3.609375 -4.40625 2.8125 -4.40625 C 2.359375 -4.40625 1.9375 -4.109375 1.640625 -3.8125 Z M 1.453125 -3.046875 C 1.5 -3.265625 1.5 -3.28125 1.59375 -3.390625 C 2.078125 -4.03125 2.53125 -4.1875 2.796875 -4.1875 C 3.15625 -4.1875 3.421875 -3.890625 3.421875 -3.25 C 3.421875 -2.65625 3.09375 -1.515625 2.90625 -1.140625 C 2.578125 -0.46875 2.125 -0.109375 1.734375 -0.109375 C 1.390625 -0.109375 1.0625 -0.375 1.0625 -1.109375 C 1.0625 -1.3125 1.0625 -1.5 1.21875 -2.125 Z M 1.453125 -3.046875 "/>
</g>
<g id="glyph-0-8">
<path d="M 5.140625 -6.8125 C 5.140625 -6.8125 5.140625 -6.921875 5.015625 -6.921875 C 4.859375 -6.921875 3.921875 -6.828125 3.75 -6.8125 C 3.671875 -6.796875 3.609375 -6.75 3.609375 -6.625 C 3.609375 -6.5 3.703125 -6.5 3.84375 -6.5 C 4.328125 -6.5 4.34375 -6.4375 4.34375 -6.328125 L 4.3125 -6.125 L 3.71875 -3.765625 C 3.53125 -4.140625 3.25 -4.40625 2.796875 -4.40625 C 1.640625 -4.40625 0.40625 -2.9375 0.40625 -1.484375 C 0.40625 -0.546875 0.953125 0.109375 1.71875 0.109375 C 1.921875 0.109375 2.421875 0.0625 3.015625 -0.640625 C 3.09375 -0.21875 3.453125 0.109375 3.921875 0.109375 C 4.28125 0.109375 4.5 -0.125 4.671875 -0.4375 C 4.828125 -0.796875 4.96875 -1.40625 4.96875 -1.421875 C 4.96875 -1.53125 4.875 -1.53125 4.84375 -1.53125 C 4.75 -1.53125 4.734375 -1.484375 4.703125 -1.34375 C 4.53125 -0.703125 4.359375 -0.109375 3.953125 -0.109375 C 3.671875 -0.109375 3.65625 -0.375 3.65625 -0.5625 C 3.65625 -0.8125 3.671875 -0.875 3.703125 -1.046875 Z M 3.078125 -1.1875 C 3.015625 -1 3.015625 -0.984375 2.875 -0.8125 C 2.4375 -0.265625 2.03125 -0.109375 1.75 -0.109375 C 1.25 -0.109375 1.109375 -0.65625 1.109375 -1.046875 C 1.109375 -1.546875 1.421875 -2.765625 1.65625 -3.234375 C 1.96875 -3.8125 2.40625 -4.1875 2.8125 -4.1875 C 3.453125 -4.1875 3.59375 -3.375 3.59375 -3.3125 C 3.59375 -3.25 3.578125 -3.1875 3.5625 -3.140625 Z M 3.078125 -1.1875 "/>
</g>
<g id="glyph-1-0">
<path d="M 3.4375 -0.875 C 3.359375 -0.953125 3.3125 -1.046875 3.3125 -1.171875 C 3.3125 -1.328125 3.375 -1.546875 3.546875 -1.78125 C 3.703125 -2.015625 3.90625 -2.25 4.171875 -2.4375 C 4.390625 -2.578125 4.609375 -2.6875 4.78125 -2.6875 C 5.125 -2.6875 5.3125 -2.515625 5.328125 -2.265625 L 5.328125 -2.21875 C 5.328125 -1.90625 5.125 -1.515625 4.828125 -1.09375 C 4.625 -0.8125 4.390625 -0.53125 4.0625 -0.328125 C 3.765625 -0.125 3.4375 -0.03125 3.203125 -0.03125 C 2.609375 -0.03125 2.34375 -0.375 2.34375 -0.859375 L 2.34375 -0.96875 C 2.40625 -1.71875 2.96875 -2.65625 3.625 -3.5625 C 4.234375 -3.65625 4.890625 -3.8125 5.578125 -4.09375 C 6.375 -4.390625 7.25 -4.875 7.71875 -5.546875 C 7.953125 -5.875 8.09375 -6.203125 8.09375 -6.484375 C 8.09375 -6.53125 8.09375 -6.578125 8.078125 -6.625 C 8.03125 -6.9375 7.765625 -7.125 7.375 -7.125 C 6.703125 -7.125 5.828125 -6.625 5.09375 -6.0625 C 4.171875 -5.359375 3.40625 -4.53125 2.8125 -3.71875 C 2.703125 -3.703125 2.59375 -3.703125 2.484375 -3.703125 C 1.765625 -3.703125 1.171875 -3.875 0.890625 -4.25 C 0.8125 -4.359375 0.765625 -4.5 0.765625 -4.671875 C 0.765625 -4.921875 0.875 -5.21875 1.09375 -5.53125 C 1.28125 -5.796875 1.5625 -6.0625 1.875 -6.234375 C 2.25 -6.4375 2.625 -6.515625 2.9375 -6.515625 C 2.953125 -6.515625 2.984375 -6.53125 3 -6.546875 C 3.015625 -6.59375 3.046875 -6.625 3.046875 -6.65625 C 3.046875 -6.703125 3.015625 -6.734375 2.96875 -6.734375 C 2.5625 -6.734375 2.09375 -6.65625 1.59375 -6.421875 C 1.203125 -6.234375 0.796875 -5.96875 0.5625 -5.625 C 0.34375 -5.328125 0.265625 -5.03125 0.265625 -4.78125 C 0.265625 -4.53125 0.359375 -4.28125 0.515625 -4.109375 C 0.921875 -3.65625 1.640625 -3.484375 2.4375 -3.484375 L 2.65625 -3.484375 C 2.078125 -2.671875 1.71875 -1.84375 1.71875 -1.15625 C 1.71875 -1.078125 1.71875 -1 1.734375 -0.9375 C 1.796875 -0.25 2.296875 0.1875 3.15625 0.1875 C 3.515625 0.1875 3.9375 0.0625 4.359375 -0.15625 C 4.75 -0.375 5.109375 -0.671875 5.34375 -1 C 5.609375 -1.390625 5.765625 -1.78125 5.765625 -2.109375 C 5.765625 -2.1875 5.765625 -2.25 5.734375 -2.328125 C 5.640625 -2.703125 5.296875 -2.90625 4.8125 -2.90625 C 4.578125 -2.90625 4.28125 -2.765625 4.03125 -2.609375 C 3.734375 -2.390625 3.484375 -2.140625 3.296875 -1.875 C 3.125 -1.625 3.03125 -1.375 3.03125 -1.171875 C 3.03125 -0.984375 3.109375 -0.8125 3.28125 -0.703125 C 3.296875 -0.703125 3.296875 -0.703125 3.3125 -0.703125 C 3.3125 -0.703125 3.34375 -0.703125 3.34375 -0.703125 L 3.421875 -0.734375 L 3.453125 -0.75 C 3.453125 -0.78125 3.46875 -0.78125 3.46875 -0.8125 C 3.46875 -0.84375 3.453125 -0.859375 3.4375 -0.875 Z M 3.453125 -0.75 C 3.453125 -0.765625 3.46875 -0.78125 3.46875 -0.8125 C 3.46875 -0.8125 3.46875 -0.828125 3.453125 -0.84375 C 3.453125 -0.84375 3.453125 -0.828125 3.453125 -0.75 Z M 7.34375 -6.890625 C 7.640625 -6.890625 7.796875 -6.765625 7.828125 -6.5625 L 7.828125 -6.46875 C 7.828125 -6.234375 7.703125 -5.953125 7.484375 -5.625 C 7.046875 -5.03125 6.234375 -4.5625 5.46875 -4.265625 C 4.890625 -4.046875 4.328125 -3.890625 3.796875 -3.8125 C 4.3125 -4.53125 4.859375 -5.25 5.609375 -5.90625 C 6.1875 -6.421875 6.84375 -6.890625 7.34375 -6.890625 Z M 7.34375 -6.890625 "/>
</g>
</g>
</defs>
<path fill-rule="nonzero" fill="rgb(0%, 0%, 0%)" fill-opacity="1" d="M 15.191406 170.53125 C 15.191406 169.902344 14.683594 169.394531 14.054688 169.394531 C 13.429688 169.394531 12.921875 169.902344 12.921875 170.53125 C 12.921875 171.15625 13.429688 171.664062 14.054688 171.664062 C 14.683594 171.664062 15.191406 171.15625 15.191406 170.53125 Z M 15.191406 170.53125 "/>
<path fill-rule="nonzero" fill="rgb(0%, 0%, 0%)" fill-opacity="1" d="M 245.527344 190.679688 C 245.527344 190.054688 245.019531 189.546875 244.394531 189.546875 C 243.769531 189.546875 243.261719 190.054688 243.261719 190.679688 C 243.261719 191.308594 243.769531 191.816406 244.394531 191.816406 C 245.019531 191.816406 245.527344 191.308594 245.527344 190.679688 Z M 245.527344 190.679688 "/>
<path fill-rule="nonzero" fill="rgb(0%, 0%, 0%)" fill-opacity="1" d="M 71.277344 16.429688 C 71.277344 15.804688 70.769531 15.296875 70.144531 15.296875 C 69.515625 15.296875 69.011719 15.804688 69.011719 16.429688 C 69.011719 17.054688 69.515625 17.5625 70.144531 17.5625 C 70.769531 17.5625 71.277344 17.054688 71.277344 16.429688 Z M 71.277344 16.429688 "/>
<path fill-rule="nonzero" fill="rgb(0%, 0%, 0%)" fill-opacity="1" d="M 94.269531 120.148438 C 94.269531 119.523438 93.761719 119.015625 93.136719 119.015625 C 92.511719 119.015625 92.003906 119.523438 92.003906 120.148438 C 92.003906 120.773438 92.511719 121.28125 93.136719 121.28125 C 93.761719 121.28125 94.269531 120.773438 94.269531 120.148438 Z M 94.269531 120.148438 "/>
<path fill-rule="nonzero" fill="rgb(0%, 0%, 0%)" fill-opacity="1" d="M 89.292969 177.011719 C 89.292969 176.386719 88.785156 175.878906 88.15625 175.878906 C 87.53125 175.878906 87.023438 176.386719 87.023438 177.011719 C 87.023438 177.636719 87.53125 178.144531 88.15625 178.144531 C 88.785156 178.144531 89.292969 177.636719 89.292969 177.011719 Z M 89.292969 177.011719 "/>
<path fill-rule="nonzero" fill="rgb(0%, 0%, 0%)" fill-opacity="1" d="M 134.632812 79.785156 C 134.632812 79.160156 134.125 78.652344 133.5 78.652344 C 132.871094 78.652344 132.363281 79.160156 132.363281 79.785156 C 132.363281 80.410156 132.871094 80.917969 133.5 80.917969 C 134.125 80.917969 134.632812 80.410156 134.632812 79.785156 Z M 134.632812 79.785156 "/>
<path fill-rule="nonzero" fill="rgb(0%, 0%, 0%)" fill-opacity="1" d="M 40.632812 100.625 C 40.632812 100 40.125 99.492188 39.5 99.492188 C 38.875 99.492188 38.367188 100 38.367188 100.625 C 38.367188 101.25 38.875 101.757812 39.5 101.757812 C 40.125 101.757812 40.632812 101.25 40.632812 100.625 Z M 40.632812 100.625 "/>
<path fill="none" stroke-width="0.29887" stroke-linecap="butt" stroke-linejoin="miter" stroke="rgb(0%, 0%, 0%)" stroke-opacity="1" stroke-miterlimit="10" d="M -119.869313 -43.63025 L 110.470531 -63.778688 L -63.779469 110.471312 Z M -119.869313 -43.63025 " transform="matrix(1, 0, 0, -1, 133.924, 126.901)"/>
<path fill="none" stroke-width="0.29887" stroke-linecap="butt" stroke-linejoin="miter" stroke="rgb(0%, 0%, 0%)" stroke-opacity="1" stroke-miterlimit="10" d="M -119.869313 -43.63025 L 69.798656 77.205687 " transform="matrix(1, 0, 0, -1, 133.924, 126.901)"/>
<path fill="none" stroke-width="0.29887" stroke-linecap="butt" stroke-linejoin="miter" stroke="rgb(0%, 0%, 0%)" stroke-opacity="1" stroke-miterlimit="10" d="M 110.470531 -63.778688 L -130.939625 48.791625 " transform="matrix(1, 0, 0, -1, 133.924, 126.901)"/>
<path fill="none" stroke-width="0.29887" stroke-linecap="butt" stroke-linejoin="miter" stroke="rgb(0%, 0%, 0%)" stroke-opacity="1" stroke-dasharray="2.98883 2.98883" stroke-miterlimit="10" d="M -40.787281 6.752562 L -45.76775 -50.110719 " transform="matrix(1, 0, 0, -1, 133.924, 126.901)"/>
<path fill="none" stroke-width="0.29887" stroke-linecap="butt" stroke-linejoin="miter" stroke="rgb(0%, 0%, 0%)" stroke-opacity="1" stroke-dasharray="2.98883 2.98883" stroke-miterlimit="10" d="M -40.787281 6.752562 L -0.424 47.115844 " transform="matrix(1, 0, 0, -1, 133.924, 126.901)"/>
<path fill="none" stroke-width="0.29887" stroke-linecap="butt" stroke-linejoin="miter" stroke="rgb(0%, 0%, 0%)" stroke-opacity="1" stroke-dasharray="2.98883 2.98883" stroke-miterlimit="10" d="M -40.787281 6.752562 L -94.424 26.276 " transform="matrix(1, 0, 0, -1, 133.924, 126.901)"/>
<path fill="none" stroke-width="0.29887" stroke-linecap="butt" stroke-linejoin="miter" stroke="rgb(0%, 0%, 0%)" stroke-opacity="1" stroke-miterlimit="10" d="M 16.259594 6.752562 C 16.259594 38.260375 -9.279469 63.803344 -40.787281 63.803344 C -72.295094 63.803344 -97.838063 38.260375 -97.838063 6.752562 C -97.838063 -24.75525 -72.295094 -50.298219 -40.787281 -50.298219 C -9.279469 -50.298219 16.259594 -24.75525 16.259594 6.752562 Z M 16.259594 6.752562 " transform="matrix(1, 0, 0, -1, 133.924, 126.901)"/>
<g fill="rgb(0%, 0%, 0%)" fill-opacity="1">
<use xlink:href="#glyph-0-0" x="10.321" y="180.806"/>
</g>
<g fill="rgb(0%, 0%, 0%)" fill-opacity="1">
<use xlink:href="#glyph-0-1" x="240.365" y="200.958"/>
</g>
<g fill="rgb(0%, 0%, 0%)" fill-opacity="1">
<use xlink:href="#glyph-0-2" x="66.228" y="12.962"/>
</g>
<g fill="rgb(0%, 0%, 0%)" fill-opacity="1">
<use xlink:href="#glyph-0-3" x="89.198" y="115.683"/>
</g>
<g fill="rgb(0%, 0%, 0%)" fill-opacity="1">
<use xlink:href="#glyph-0-4" x="84.268" y="187.289"/>
</g>
<g fill="rgb(0%, 0%, 0%)" fill-opacity="1">
<use xlink:href="#glyph-0-5" x="136.968" y="76.317"/>
</g>
<g fill="rgb(0%, 0%, 0%)" fill-opacity="1">
<use xlink:href="#glyph-0-6" x="27.542" y="111.5"/>
</g>
<g fill="rgb(0%, 0%, 0%)" fill-opacity="1">
<use xlink:href="#glyph-0-7" x="177.008" y="58.312"/>
</g>
<g fill="rgb(0%, 0%, 0%)" fill-opacity="1">
<use xlink:href="#glyph-0-8" x="12.463" y="80.27"/>
</g>
<path fill="none" stroke-width="0.29887" stroke-linecap="butt" stroke-linejoin="miter" stroke="rgb(0%, 0%, 0%)" stroke-opacity="1" stroke-miterlimit="10" d="M -41.341969 -22.446656 L -45.314625 -22.099 M -41.240406 -21.25525 L -45.209156 -20.907594 " transform="matrix(1, 0, 0, -1, 133.924, 126.901)"/>
<path fill="none" stroke-width="0.29887" stroke-linecap="butt" stroke-linejoin="miter" stroke="rgb(0%, 0%, 0%)" stroke-opacity="1" stroke-miterlimit="10" d="M -21.627125 28.729125 L -18.810719 25.912719 M -22.474781 27.885375 L -19.654469 25.068969 " transform="matrix(1, 0, 0, -1, 133.924, 126.901)"/>
<path fill="none" stroke-width="0.29887" stroke-linecap="butt" stroke-linejoin="miter" stroke="rgb(0%, 0%, 0%)" stroke-opacity="1" stroke-miterlimit="10" d="M -68.834156 14.842406 L -67.470875 18.584594 M -67.713063 14.43225 L -66.349781 18.178344 " transform="matrix(1, 0, 0, -1, 133.924, 126.901)"/>
<g fill="rgb(0%, 0%, 0%)" fill-opacity="1">
<use xlink:href="#glyph-1-0" x="139.216" y="165.792"/>
</g>
<path fill="none" stroke-width="0.29887" stroke-linecap="butt" stroke-linejoin="miter" stroke="rgb(0%, 0%, 0%)" stroke-opacity="1" stroke-miterlimit="10" d="M -38.818531 -50.720094 L -38.209156 -43.770875 L -45.158375 -43.165406 " transform="matrix(1, 0, 0, -1, 133.924, 126.901)"/>
<path fill="none" stroke-width="0.29887" stroke-linecap="butt" stroke-linejoin="miter" stroke="rgb(0%, 0%, 0%)" stroke-opacity="1" stroke-miterlimit="10" d="M -5.357594 52.045531 L -10.287281 47.115844 L -5.357594 42.186156 " transform="matrix(1, 0, 0, -1, 133.924, 126.901)"/>
</svg>
