<?xml version="1.0" encoding="UTF-8"?>
<svg xmlns="http://www.w3.org/2000/svg" xmlns:xlink="http://www.w3.org/1999/xlink" width="357.464pt" height="387.347pt" viewBox="0 0 357.464 387.347">
<defs>
<g>
<g id="glyph-0-0">
<path d="M 7.375 -4.34375 C 7.375 -5.953125 6.3125 -7.03125 4.828125 -7.03125 C 2.6875 -7.03125 0.484375 -4.765625 0.484375 -2.4375 C 0.484375 -0.78125 1.609375 0.21875 3.046875 0.21875 C 5.15625 0.21875 7.375 -1.96875 7.375 -4.34375 Z M 3.09375 -0.046875 C 2.109375 -0.046875 1.421875 -0.84375 1.421875 -2.15625 C 1.421875 -2.609375 1.5625 -4.0625 2.328125 -5.21875 C 3.015625 -6.265625 3.984375 -6.78125 4.78125 -6.78125 C 5.59375 -6.78125 6.484375 -6.21875 6.484375 -4.734375 C 6.484375 -4.015625 6.21875 -2.46875 5.234375 -1.234375 C 4.75 -0.625 3.9375 -0.046875 3.09375 -0.046875 Z M 3.09375 -0.046875 "/>
</g>
<g id="glyph-0-1">
<path d="M 3.015625 -3.15625 L 4.71875 -3.15625 C 6.125 -3.15625 7.515625 -4.1875 7.515625 -5.296875 C 7.515625 -6.078125 6.859375 -6.8125 5.546875 -6.8125 L 2.328125 -6.8125 C 2.140625 -6.8125 2.03125 -6.8125 2.03125 -6.625 C 2.03125 -6.5 2.109375 -6.5 2.3125 -6.5 C 2.4375 -6.5 2.625 -6.484375 2.734375 -6.484375 C 2.90625 -6.453125 2.953125 -6.4375 2.953125 -6.3125 C 2.953125 -6.28125 2.953125 -6.25 2.921875 -6.125 L 1.578125 -0.78125 C 1.484375 -0.390625 1.46875 -0.3125 0.671875 -0.3125 C 0.515625 -0.3125 0.40625 -0.3125 0.40625 -0.125 C 0.40625 0 0.515625 0 0.546875 0 C 0.828125 0 1.53125 -0.03125 1.8125 -0.03125 C 2.03125 -0.03125 2.25 -0.015625 2.453125 -0.015625 C 2.671875 -0.015625 2.890625 0 3.09375 0 C 3.171875 0 3.296875 0 3.296875 -0.203125 C 3.296875 -0.3125 3.203125 -0.3125 3.015625 -0.3125 C 2.65625 -0.3125 2.375 -0.3125 2.375 -0.484375 C 2.375 -0.546875 2.390625 -0.59375 2.40625 -0.65625 Z M 3.734375 -6.125 C 3.828125 -6.46875 3.84375 -6.5 4.28125 -6.5 L 5.234375 -6.5 C 6.0625 -6.5 6.59375 -6.234375 6.59375 -5.546875 C 6.59375 -5.15625 6.390625 -4.296875 6 -3.9375 C 5.5 -3.484375 4.90625 -3.40625 4.46875 -3.40625 L 3.0625 -3.40625 Z M 3.734375 -6.125 "/>
</g>
<g id="glyph-0-2">
<path d="M 3.734375 -6.046875 C 3.8125 -6.40625 3.84375 -6.5 4.640625 -6.5 C 4.875 -6.5 4.953125 -6.5 4.953125 -6.6875 C 4.953125 -6.8125 4.84375 -6.8125 4.8125 -6.8125 C 4.515625 -6.8125 3.78125 -6.78125 3.484375 -6.78125 C 3.1875 -6.78125 2.46875 -6.8125 2.15625 -6.8125 C 2.09375 -6.8125 1.96875 -6.8125 1.96875 -6.609375 C 1.96875 -6.5 2.046875 -6.5 2.25 -6.5 C 2.65625 -6.5 2.9375 -6.5 2.9375 -6.3125 C 2.9375 -6.265625 2.9375 -6.234375 2.90625 -6.15625 L 1.5625 -0.78125 C 1.46875 -0.40625 1.453125 -0.3125 0.65625 -0.3125 C 0.421875 -0.3125 0.34375 -0.3125 0.34375 -0.109375 C 0.34375 0 0.453125 0 0.484375 0 C 0.78125 0 1.5 -0.03125 1.796875 -0.03125 C 2.09375 -0.03125 2.828125 0 3.125 0 C 3.203125 0 3.328125 0 3.328125 -0.1875 C 3.328125 -0.3125 3.25 -0.3125 3.03125 -0.3125 C 2.84375 -0.3125 2.796875 -0.3125 2.609375 -0.328125 C 2.390625 -0.34375 2.359375 -0.390625 2.359375 -0.5 C 2.359375 -0.578125 2.375 -0.65625 2.390625 -0.734375 Z M 3.734375 -6.046875 "/>
</g>
<g id="glyph-0-3">
<path d="M 6.4375 -6.921875 C 6.4375 -6.953125 6.40625 -7.03125 6.3125 -7.03125 C 6.265625 -7.03125 6.265625 -7.015625 6.140625 -6.875 L 5.65625 -6.3125 C 5.40625 -6.78125 4.890625 -7.03125 4.234375 -7.03125 C 2.96875 -7.03125 1.78125 -5.875 1.78125 -4.671875 C 1.78125 -3.875 2.296875 -3.40625 2.8125 -3.265625 L 3.875 -2.984375 C 4.25 -2.890625 4.796875 -2.734375 4.796875 -1.921875 C 4.796875 -1.03125 3.984375 -0.09375 3 -0.09375 C 2.359375 -0.09375 1.25 -0.3125 1.25 -1.546875 C 1.25 -1.78125 1.3125 -2.03125 1.3125 -2.078125 C 1.328125 -2.125 1.328125 -2.140625 1.328125 -2.15625 C 1.328125 -2.25 1.265625 -2.265625 1.21875 -2.265625 C 1.171875 -2.265625 1.140625 -2.25 1.109375 -2.21875 C 1.078125 -2.1875 0.515625 0.09375 0.515625 0.125 C 0.515625 0.171875 0.5625 0.21875 0.625 0.21875 C 0.671875 0.21875 0.6875 0.203125 0.8125 0.0625 L 1.296875 -0.5 C 1.71875 0.078125 2.40625 0.21875 2.984375 0.21875 C 4.34375 0.21875 5.515625 -1.109375 5.515625 -2.34375 C 5.515625 -3.03125 5.171875 -3.375 5.03125 -3.515625 C 4.796875 -3.734375 4.640625 -3.78125 3.765625 -4 C 3.53125 -4.0625 3.1875 -4.171875 3.09375 -4.1875 C 2.828125 -4.28125 2.484375 -4.5625 2.484375 -5.09375 C 2.484375 -5.90625 3.28125 -6.75 4.234375 -6.75 C 5.046875 -6.75 5.65625 -6.3125 5.65625 -5.203125 C 5.65625 -4.890625 5.625 -4.703125 5.625 -4.640625 C 5.625 -4.640625 5.625 -4.546875 5.734375 -4.546875 C 5.84375 -4.546875 5.859375 -4.578125 5.890625 -4.75 Z M 6.4375 -6.921875 "/>
</g>
<g id="glyph-0-4">
<path d="M 3.71875 -3.765625 C 3.53125 -4.140625 3.25 -4.40625 2.796875 -4.40625 C 1.640625 -4.40625 0.40625 -2.9375 0.40625 -1.484375 C 0.40625 -0.546875 0.953125 0.109375 1.71875 0.109375 C 1.921875 0.109375 2.421875 0.0625 3.015625 -0.640625 C 3.09375 -0.21875 3.453125 0.109375 3.921875 0.109375 C 4.28125 0.109375 4.5 -0.125 4.671875 -0.4375 C 4.828125 -0.796875 4.96875 -1.40625 4.96875 -1.421875 C 4.96875 -1.53125 4.875 -1.53125 4.84375 -1.53125 C 4.75 -1.53125 4.734375 -1.484375 4.703125 -1.34375 C 4.53125 -0.703125 4.359375 -0.109375 3.953125 -0.109375 C 3.671875 -0.109375 3.65625 -0.375 3.65625 -0.5625 C 3.65625 -0.78125 3.671875 -0.875 3.78125 -1.3125 C 3.890625 -1.71875 3.90625 -1.828125 4 -2.203125 L 4.359375 -3.59375 C 4.421875 -3.875 4.421875 -3.890625 4.421875 -3.9375 C 4.421875 -4.109375 4.3125 -4.203125 4.140625 -4.203125 C 3.890625 -4.203125 3.75 -3.984375 3.71875 -3.765625 Z M 3.078125 -1.1875 C 3.015625 -1 3.015625 -0.984375 2.875 -0.8125 C 2.4375 -0.265625 2.03125 -0.109375 1.75 -0.109375 C 1.25 -0.109375 1.109375 -0.65625 1.109375 -1.046875 C 1.109375 -1.546875 1.421875 -2.765625 1.65625 -3.234375 C 1.96875 -3.8125 2.40625 -4.1875 2.8125 -4.1875 C 3.453125 -4.1875 3.59375 -3.375 3.59375 -3.3125 C 3.59375 -3.25 3.578125 -3.1875 3.5625 -3.140625 Z M 3.078125 -1.1875 "/>
</g>
<g id="glyph-0-5">
<path d="M 2.375 -6.8125 C 2.375 -6.8125 2.375 -6.921875 2.25 -6.921875 C 2.03125 -6.921875 1.296875 -6.84375 1.03125 -6.8125 C 0.953125 -6.8125 0.84375 -6.796875 0.84375 -6.625 C 0.84375 -6.5 0.9375 -6.5 1.09375 -6.5 C 1.5625 -6.5 1.578125 -6.4375 1.578125 -6.328125 C 1.578125 -6.265625 1.5 -5.921875 1.453125 -5.71875 L 0.625 -2.46875 C 0.515625 -1.96875 0.46875 -1.796875 0.46875 -1.453125 C 0.46875 -0.515625 1 0.109375 1.734375 0.109375 C 2.90625 0.109375 4.140625 -1.375 4.140625 -2.8125 C 4.140625 -3.71875 3.609375 -4.40625 2.8125 -4.40625 C 2.359375 -4.40625 1.9375 -4.109375 1.640625 -3.8125 Z M 1.453125 -3.046875 C 1.5 -3.265625 1.5 -3.28125 1.59375 -3.390625 C 2.078125 -4.03125 2.53125 -4.1875 2.796875 -4.1875 C 3.15625 -4.1875 3.421875 -3.890625 3.421875 -3.25 C 3.421875 -2.65625 3.09375 -1.515625 2.90625 -1.140625 C 2.578125 -0.46875 2.125 -0.109375 1.734375 -0.109375 C 1.390625 -0.109375 1.0625 -0.375 1.0625 -1.109375 C 1.0625 -1.3125 1.0625 -1.5 1.21875 -2.125 Z M 1.453125 -3.046875 "/>
</g>
<g id="glyph-0-6">
<path d="M 3.953125 -3.78125 C 3.78125 -3.78125 3.65625 -3.78125 3.515625 -3.65625 C 3.34375 -3.5 3.328125 -3.328125 3.328125 -3.265625 C 3.328125 -3.015625 3.515625 -2.90625 3.703125 -2.90625 C 3.984375 -2.90625 4.25 -3.15625 4.25 -3.546875 C 4.25 -4.03125 3.78125 -4.40625 3.078125 -4.40625 C 1.734375 -4.40625 0.40625 -2.984375 0.40625 -1.578125 C 0.40625 -0.671875 0.984375 0.109375 2.03125 0.109375 C 3.453125 0.109375 4.28125 -0.953125 4.28125 -1.0625 C 4.28125 -1.125 4.234375 -1.203125 4.171875 -1.203125 C 4.109375 -1.203125 4.09375 -1.171875 4.03125 -1.09375 C 3.25 -0.109375 2.15625 -0.109375 2.046875 -0.109375 C 1.421875 -0.109375 1.140625 -0.59375 1.140625 -1.203125 C 1.140625 -1.609375 1.34375 -2.578125 1.6875 -3.1875 C 2 -3.765625 2.546875 -4.1875 3.09375 -4.1875 C 3.421875 -4.1875 3.8125 -4.0625 3.953125 -3.78125 Z M 3.953125 -3.78125 "/>
</g>
<g id="glyph-0-7">
<path d="M 2.859375 -6.8125 C 2.859375 -6.8125 2.859375 -6.921875 2.734375 -6.921875 C 2.5 -6.921875 1.78125 -6.84375 1.515625 -6.8125 C 1.4375 -6.8125 1.328125 -6.796875 1.328125 -6.625 C 1.328125 -6.5 1.421875 -6.5 1.5625 -6.5 C 2.046875 -6.5 2.0625 -6.4375 2.0625 -6.328125 L 2.03125 -6.125 L 0.59375 -0.390625 C 0.546875 -0.25 0.546875 -0.234375 0.546875 -0.171875 C 0.546875 0.0625 0.75 0.109375 0.84375 0.109375 C 1 0.109375 1.15625 -0.015625 1.203125 -0.15625 L 1.390625 -0.90625 L 1.609375 -1.796875 C 1.671875 -2.03125 1.734375 -2.25 1.78125 -2.46875 C 1.796875 -2.53125 1.890625 -2.859375 1.890625 -2.921875 C 1.921875 -3.015625 2.234375 -3.5625 2.578125 -3.84375 C 2.796875 -4 3.09375 -4.1875 3.53125 -4.1875 C 3.953125 -4.1875 4.0625 -3.84375 4.0625 -3.484375 C 4.0625 -2.953125 3.6875 -1.859375 3.453125 -1.25 C 3.375 -1.03125 3.3125 -0.90625 3.3125 -0.703125 C 3.3125 -0.234375 3.671875 0.109375 4.140625 0.109375 C 5.078125 0.109375 5.4375 -1.34375 5.4375 -1.421875 C 5.4375 -1.53125 5.359375 -1.53125 5.328125 -1.53125 C 5.21875 -1.53125 5.21875 -1.5 5.171875 -1.34375 C 5.03125 -0.8125 4.703125 -0.109375 4.15625 -0.109375 C 3.984375 -0.109375 3.921875 -0.203125 3.921875 -0.4375 C 3.921875 -0.6875 4 -0.921875 4.09375 -1.140625 C 4.25 -1.578125 4.703125 -2.765625 4.703125 -3.34375 C 4.703125 -3.984375 4.3125 -4.40625 3.5625 -4.40625 C 2.9375 -4.40625 2.453125 -4.09375 2.078125 -3.640625 Z M 2.859375 -6.8125 "/>
</g>
<g id="glyph-0-8">
<path d="M 3.890625 -3.734375 C 3.625 -3.71875 3.421875 -3.5 3.421875 -3.28125 C 3.421875 -3.140625 3.515625 -2.984375 3.734375 -2.984375 C 3.953125 -2.984375 4.1875 -3.15625 4.1875 -3.546875 C 4.1875 -4 3.765625 -4.40625 3 -4.40625 C 1.6875 -4.40625 1.3125 -3.390625 1.3125 -2.953125 C 1.3125 -2.171875 2.046875 -2.03125 2.34375 -1.96875 C 2.859375 -1.859375 3.375 -1.75 3.375 -1.203125 C 3.375 -0.953125 3.15625 -0.109375 1.953125 -0.109375 C 1.8125 -0.109375 1.046875 -0.109375 0.8125 -0.640625 C 1.203125 -0.59375 1.453125 -0.890625 1.453125 -1.171875 C 1.453125 -1.390625 1.28125 -1.515625 1.078125 -1.515625 C 0.8125 -1.515625 0.515625 -1.3125 0.515625 -0.859375 C 0.515625 -0.296875 1.09375 0.109375 1.9375 0.109375 C 3.5625 0.109375 3.953125 -1.09375 3.953125 -1.546875 C 3.953125 -1.90625 3.765625 -2.15625 3.640625 -2.265625 C 3.375 -2.546875 3.078125 -2.609375 2.640625 -2.6875 C 2.28125 -2.765625 1.890625 -2.84375 1.890625 -3.296875 C 1.890625 -3.578125 2.125 -4.1875 3 -4.1875 C 3.25 -4.1875 3.75 -4.109375 3.890625 -3.734375 Z M 3.890625 -3.734375 "/>
</g>
<g id="glyph-0-9">
<path d="M 3.65625 -3.984375 L 4.515625 -3.984375 C 4.71875 -3.984375 4.8125 -3.984375 4.8125 -4.1875 C 4.8125 -4.296875 4.71875 -4.296875 4.546875 -4.296875 L 3.71875 -4.296875 L 3.921875 -5.4375 C 3.96875 -5.640625 4.109375 -6.34375 4.171875 -6.46875 C 4.25 -6.65625 4.421875 -6.8125 4.640625 -6.8125 C 4.671875 -6.8125 4.9375 -6.8125 5.125 -6.625 C 4.6875 -6.59375 4.578125 -6.234375 4.578125 -6.09375 C 4.578125 -5.859375 4.765625 -5.734375 4.953125 -5.734375 C 5.21875 -5.734375 5.5 -5.96875 5.5 -6.34375 C 5.5 -6.796875 5.046875 -7.03125 4.640625 -7.03125 C 4.296875 -7.03125 3.671875 -6.84375 3.375 -5.859375 C 3.3125 -5.65625 3.28125 -5.546875 3.046875 -4.296875 L 2.359375 -4.296875 C 2.15625 -4.296875 2.046875 -4.296875 2.046875 -4.109375 C 2.046875 -3.984375 2.140625 -3.984375 2.328125 -3.984375 L 2.984375 -3.984375 L 2.25 -0.046875 C 2.0625 0.921875 1.890625 1.828125 1.375 1.828125 C 1.328125 1.828125 1.09375 1.828125 0.890625 1.640625 C 1.359375 1.609375 1.453125 1.25 1.453125 1.109375 C 1.453125 0.875 1.265625 0.75 1.078125 0.75 C 0.8125 0.75 0.53125 0.984375 0.53125 1.359375 C 0.53125 1.796875 0.96875 2.046875 1.375 2.046875 C 1.921875 2.046875 2.328125 1.453125 2.5 1.078125 C 2.828125 0.453125 3.046875 -0.75 3.0625 -0.828125 Z M 3.65625 -3.984375 "/>
</g>
<g id="glyph-0-10">
<path d="M 4.75 -2.359375 C 4.75 -3.921875 3.828125 -4.40625 3.09375 -4.40625 C 1.71875 -4.40625 0.40625 -2.984375 0.40625 -1.578125 C 0.40625 -0.640625 1 0.109375 2.03125 0.109375 C 2.65625 0.109375 3.375 -0.125 4.125 -0.734375 C 4.25 -0.203125 4.578125 0.109375 5.03125 0.109375 C 5.5625 0.109375 5.875 -0.4375 5.875 -0.59375 C 5.875 -0.671875 5.8125 -0.703125 5.75 -0.703125 C 5.6875 -0.703125 5.65625 -0.671875 5.625 -0.59375 C 5.4375 -0.109375 5.078125 -0.109375 5.0625 -0.109375 C 4.75 -0.109375 4.75 -0.890625 4.75 -1.125 C 4.75 -1.328125 4.75 -1.359375 4.859375 -1.46875 C 5.796875 -2.65625 6 -3.8125 6 -3.8125 C 6 -3.84375 5.984375 -3.921875 5.875 -3.921875 C 5.78125 -3.921875 5.78125 -3.890625 5.734375 -3.703125 C 5.546875 -3.078125 5.21875 -2.328125 4.75 -1.734375 Z M 4.09375 -0.984375 C 3.203125 -0.21875 2.4375 -0.109375 2.046875 -0.109375 C 1.453125 -0.109375 1.140625 -0.5625 1.140625 -1.203125 C 1.140625 -1.6875 1.40625 -2.765625 1.71875 -3.265625 C 2.1875 -4 2.734375 -4.1875 3.078125 -4.1875 C 4.0625 -4.1875 4.0625 -2.875 4.0625 -2.109375 C 4.0625 -1.734375 4.0625 -1.15625 4.09375 -0.984375 Z M 4.09375 -0.984375 "/>
</g>
<g id="glyph-0-11">
<path d="M 5.734375 -5.671875 C 5.734375 -6.421875 5.1875 -7.03125 4.375 -7.03125 C 3.796875 -7.03125 3.515625 -6.875 3.171875 -6.625 C 2.625 -6.21875 2.078125 -5.25 1.890625 -4.5 L 0.296875 1.828125 C 0.296875 1.875 0.34375 1.9375 0.421875 1.9375 C 0.5 1.9375 0.53125 1.90625 0.53125 1.890625 L 1.234375 -0.875 C 1.421875 -0.265625 1.859375 0.09375 2.59375 0.09375 C 3.3125 0.09375 4.0625 -0.25 4.515625 -0.6875 C 5 -1.140625 5.3125 -1.78125 5.3125 -2.515625 C 5.3125 -3.234375 4.9375 -3.765625 4.578125 -4 C 5.15625 -4.34375 5.734375 -4.953125 5.734375 -5.671875 Z M 3.9375 -4.015625 C 3.8125 -3.96875 3.703125 -3.953125 3.453125 -3.953125 C 3.3125 -3.953125 3.125 -3.9375 3.015625 -3.984375 C 3.046875 -4.09375 3.40625 -4.0625 3.515625 -4.0625 C 3.71875 -4.0625 3.8125 -4.0625 3.9375 -4.015625 Z M 5.171875 -5.90625 C 5.171875 -5.203125 4.796875 -4.484375 4.28125 -4.171875 C 4 -4.28125 3.8125 -4.296875 3.515625 -4.296875 C 3.296875 -4.296875 2.734375 -4.3125 2.734375 -3.984375 C 2.734375 -3.703125 3.25 -3.734375 3.421875 -3.734375 C 3.796875 -3.734375 3.953125 -3.734375 4.25 -3.859375 C 4.625 -3.5 4.671875 -3.1875 4.6875 -2.734375 C 4.703125 -2.15625 4.46875 -1.40625 4.1875 -1.015625 C 3.796875 -0.484375 3.125 -0.125 2.5625 -0.125 C 1.796875 -0.125 1.421875 -0.703125 1.421875 -1.40625 C 1.421875 -1.5 1.421875 -1.65625 1.46875 -1.84375 L 2.109375 -4.359375 C 2.328125 -5.21875 3.046875 -6.8125 4.25 -6.8125 C 4.828125 -6.8125 5.171875 -6.5 5.171875 -5.90625 Z M 5.171875 -5.90625 "/>
</g>
<g id="glyph-1-0">
<path d="M 2.328125 -4.4375 C 2.328125 -4.625 2.328125 -4.625 2.125 -4.625 C 1.671875 -4.1875 1.046875 -4.1875 0.765625 -4.1875 L 0.765625 -3.9375 C 0.921875 -3.9375 1.390625 -3.9375 1.765625 -4.125 L 1.765625 -0.578125 C 1.765625 -0.34375 1.765625 -0.25 1.078125 -0.25 L 0.8125 -0.25 L 0.8125 0 C 0.9375 0 1.796875 -0.03125 2.046875 -0.03125 C 2.265625 -0.03125 3.140625 0 3.296875 0 L 3.296875 -0.25 L 3.03125 -0.25 C 2.328125 -0.25 2.328125 -0.34375 2.328125 -0.578125 Z M 2.328125 -4.4375 "/>
</g>
<g id="glyph-1-1">
<path d="M 3.515625 -1.265625 L 3.28125 -1.265625 C 3.265625 -1.109375 3.1875 -0.703125 3.09375 -0.640625 C 3.046875 -0.59375 2.515625 -0.59375 2.40625 -0.59375 L 1.125 -0.59375 C 1.859375 -1.234375 2.109375 -1.4375 2.515625 -1.765625 C 3.03125 -2.171875 3.515625 -2.609375 3.515625 -3.265625 C 3.515625 -4.109375 2.78125 -4.625 1.890625 -4.625 C 1.03125 -4.625 0.4375 -4.015625 0.4375 -3.375 C 0.4375 -3.03125 0.734375 -2.984375 0.8125 -2.984375 C 0.96875 -2.984375 1.171875 -3.109375 1.171875 -3.359375 C 1.171875 -3.484375 1.125 -3.734375 0.765625 -3.734375 C 0.984375 -4.21875 1.453125 -4.375 1.78125 -4.375 C 2.484375 -4.375 2.84375 -3.828125 2.84375 -3.265625 C 2.84375 -2.65625 2.40625 -2.1875 2.1875 -1.9375 L 0.515625 -0.265625 C 0.4375 -0.203125 0.4375 -0.1875 0.4375 0 L 3.3125 0 Z M 3.515625 -1.265625 "/>
</g>
<g id="glyph-1-2">
<path d="M 1.90625 -2.328125 C 2.453125 -2.328125 2.84375 -1.953125 2.84375 -1.203125 C 2.84375 -0.34375 2.328125 -0.078125 1.9375 -0.078125 C 1.65625 -0.078125 1.03125 -0.15625 0.75 -0.578125 C 1.078125 -0.578125 1.15625 -0.8125 1.15625 -0.96875 C 1.15625 -1.1875 0.984375 -1.34375 0.765625 -1.34375 C 0.578125 -1.34375 0.375 -1.21875 0.375 -0.9375 C 0.375 -0.28125 1.09375 0.140625 1.9375 0.140625 C 2.90625 0.140625 3.578125 -0.515625 3.578125 -1.203125 C 3.578125 -1.75 3.140625 -2.296875 2.375 -2.453125 C 3.09375 -2.71875 3.359375 -3.234375 3.359375 -3.671875 C 3.359375 -4.21875 2.734375 -4.625 1.953125 -4.625 C 1.1875 -4.625 0.59375 -4.25 0.59375 -3.6875 C 0.59375 -3.453125 0.75 -3.328125 0.953125 -3.328125 C 1.171875 -3.328125 1.3125 -3.484375 1.3125 -3.671875 C 1.3125 -3.875 1.171875 -4.03125 0.953125 -4.046875 C 1.203125 -4.34375 1.671875 -4.421875 1.9375 -4.421875 C 2.25 -4.421875 2.6875 -4.265625 2.6875 -3.671875 C 2.6875 -3.375 2.59375 -3.046875 2.40625 -2.84375 C 2.1875 -2.578125 1.984375 -2.5625 1.640625 -2.53125 C 1.46875 -2.515625 1.453125 -2.515625 1.421875 -2.515625 C 1.40625 -2.515625 1.34375 -2.5 1.34375 -2.421875 C 1.34375 -2.328125 1.40625 -2.328125 1.53125 -2.328125 Z M 1.90625 -2.328125 "/>
</g>
<g id="glyph-1-3">
<path d="M 3.6875 -1.140625 L 3.6875 -1.390625 L 2.90625 -1.390625 L 2.90625 -4.5 C 2.90625 -4.640625 2.90625 -4.703125 2.765625 -4.703125 C 2.671875 -4.703125 2.640625 -4.703125 2.578125 -4.59375 L 0.265625 -1.390625 L 0.265625 -1.140625 L 2.328125 -1.140625 L 2.328125 -0.578125 C 2.328125 -0.328125 2.328125 -0.25 1.75 -0.25 L 1.5625 -0.25 L 1.5625 0 C 1.921875 -0.015625 2.359375 -0.03125 2.609375 -0.03125 C 2.875 -0.03125 3.3125 -0.015625 3.671875 0 L 3.671875 -0.25 L 3.484375 -0.25 C 2.90625 -0.25 2.90625 -0.328125 2.90625 -0.578125 L 2.90625 -1.140625 Z M 2.375 -3.9375 L 2.375 -1.390625 L 0.53125 -1.390625 Z M 2.375 -3.9375 "/>
</g>
<g id="glyph-1-4">
<path d="M 1.078125 -3.890625 C 1.4375 -3.796875 1.640625 -3.796875 1.75 -3.796875 C 2.671875 -3.796875 3.21875 -4.421875 3.21875 -4.53125 C 3.21875 -4.609375 3.171875 -4.625 3.140625 -4.625 C 3.125 -4.625 3.109375 -4.625 3.078125 -4.609375 C 2.90625 -4.546875 2.546875 -4.40625 2.03125 -4.40625 C 1.828125 -4.40625 1.46875 -4.421875 1.015625 -4.59375 C 0.9375 -4.625 0.921875 -4.625 0.921875 -4.625 C 0.828125 -4.625 0.828125 -4.546875 0.828125 -4.4375 L 0.828125 -2.390625 C 0.828125 -2.265625 0.828125 -2.1875 0.9375 -2.1875 C 1 -2.1875 1.015625 -2.1875 1.078125 -2.28125 C 1.375 -2.65625 1.8125 -2.71875 2.046875 -2.71875 C 2.46875 -2.71875 2.65625 -2.390625 2.6875 -2.328125 C 2.8125 -2.09375 2.859375 -1.828125 2.859375 -1.421875 C 2.859375 -1.21875 2.859375 -0.8125 2.640625 -0.5 C 2.46875 -0.25 2.171875 -0.078125 1.828125 -0.078125 C 1.375 -0.078125 0.90625 -0.328125 0.734375 -0.796875 C 1 -0.78125 1.140625 -0.953125 1.140625 -1.140625 C 1.140625 -1.4375 0.875 -1.484375 0.78125 -1.484375 C 0.78125 -1.484375 0.4375 -1.484375 0.4375 -1.109375 C 0.4375 -0.484375 1.015625 0.140625 1.84375 0.140625 C 2.734375 0.140625 3.515625 -0.515625 3.515625 -1.40625 C 3.515625 -2.1875 2.921875 -2.90625 2.0625 -2.90625 C 1.75 -2.90625 1.390625 -2.84375 1.078125 -2.578125 Z M 1.078125 -3.890625 "/>
</g>
<g id="glyph-1-5">
<path d="M 1.046875 -2.28125 C 1.046875 -2.84375 1.09375 -3.359375 1.359375 -3.796875 C 1.59375 -4.171875 1.96875 -4.421875 2.421875 -4.421875 C 2.625 -4.421875 2.90625 -4.375 3.046875 -4.1875 C 2.875 -4.171875 2.71875 -4.046875 2.71875 -3.84375 C 2.71875 -3.671875 2.84375 -3.515625 3.046875 -3.515625 C 3.265625 -3.515625 3.390625 -3.65625 3.390625 -3.859375 C 3.390625 -4.265625 3.09375 -4.625 2.40625 -4.625 C 1.40625 -4.625 0.375 -3.703125 0.375 -2.203125 C 0.375 -0.40625 1.21875 0.140625 2 0.140625 C 2.84375 0.140625 3.578125 -0.515625 3.578125 -1.421875 C 3.578125 -2.3125 2.875 -2.96875 2.0625 -2.96875 C 1.5 -2.96875 1.203125 -2.59375 1.046875 -2.28125 Z M 2 -0.078125 C 1.640625 -0.078125 1.375 -0.28125 1.21875 -0.59375 C 1.125 -0.796875 1.0625 -1.15625 1.0625 -1.5625 C 1.0625 -2.25 1.46875 -2.765625 2.03125 -2.765625 C 2.34375 -2.765625 2.5625 -2.640625 2.734375 -2.390625 C 2.90625 -2.125 2.90625 -1.828125 2.90625 -1.421875 C 2.90625 -1.03125 2.90625 -0.734375 2.71875 -0.453125 C 2.5625 -0.21875 2.328125 -0.078125 2 -0.078125 Z M 2 -0.078125 "/>
</g>
<g id="glyph-2-0">
<path d="M 3.4375 -0.875 C 3.359375 -0.953125 3.3125 -1.046875 3.3125 -1.171875 C 3.3125 -1.328125 3.375 -1.546875 3.546875 -1.78125 C 3.703125 -2.015625 3.90625 -2.25 4.171875 -2.4375 C 4.390625 -2.578125 4.609375 -2.6875 4.78125 -2.6875 C 5.125 -2.6875 5.3125 -2.515625 5.328125 -2.265625 L 5.328125 -2.21875 C 5.328125 -1.90625 5.125 -1.515625 4.828125 -1.09375 C 4.625 -0.8125 4.390625 -0.53125 4.0625 -0.328125 C 3.765625 -0.125 3.4375 -0.03125 3.203125 -0.03125 C 2.609375 -0.03125 2.34375 -0.375 2.34375 -0.859375 L 2.34375 -0.96875 C 2.40625 -1.71875 2.96875 -2.65625 3.625 -3.5625 C 4.234375 -3.65625 4.890625 -3.8125 5.578125 -4.09375 C 6.375 -4.390625 7.25 -4.875 7.71875 -5.546875 C 7.953125 -5.875 8.09375 -6.203125 8.09375 -6.484375 C 8.09375 -6.53125 8.09375 -6.578125 8.078125 -6.625 C 8.03125 -6.9375 7.765625 -7.125 7.375 -7.125 C 6.703125 -7.125 5.828125 -6.625 5.09375 -6.0625 C 4.171875 -5.359375 3.40625 -4.53125 2.8125 -3.71875 C 2.703125 -3.703125 2.59375 -3.703125 2.484375 -3.703125 C 1.765625 -3.703125 1.171875 -3.875 0.890625 -4.25 C 0.8125 -4.359375 0.765625 -4.5 0.765625 -4.671875 C 0.765625 -4.921875 0.875 -5.21875 1.09375 -5.53125 C 1.28125 -5.796875 1.5625 -6.0625 1.875 -6.234375 C 2.25 -6.4375 2.625 -6.515625 2.9375 -6.515625 C 2.953125 -6.515625 2.984375 -6.53125 3 -6.546875 C 3.015625 -6.59375 3.046875 -6.625 3.046875 -6.65625 C 3.046875 -6.703125 3.015625 -6.734375 2.96875 -6.734375 C 2.5625 -6.734375 2.09375 -6.65625 1.59375 -6.421875 C 1.203125 -6.234375 0.796875 -5.96875 0.5625 -5.625 C 0.34375 -5.328125 0.265625 -5.03125 0.265625 -4.78125 C 0.265625 -4.53125 0.359375 -4.28125 0.515625 -4.109375 C 0.921875 -3.65625 1.640625 -3.484375 2.4375 -3.484375 L 2.65625 -3.484375 C 2.078125 -2.671875 1.71875 -1.84375 1.71875 -1.15625 C 1.71875 -1.078125 1.71875 -1 1.734375 -0.9375 C 1.796875 -0.25 2.296875 0.1875 3.15625 0.1875 C 3.515625 0.1875 3.9375 0.0625 4.359375 -0.15625 C 4.75 -0.375 5.109375 -0.671875 5.34375 -1 C 5.609375 -1.390625 5.765625 -1.78125 5.765625 -2.109375 C 5.765625 -2.1875 5.765625 -2.25 5.734375 -2.328125 C 5.640625 -2.703125 5.296875 -2.90625 4.8125 -2.90625 C 4.578125 -2.90625 4.28125 -2.765625 4.03125 -2.609375 C 3.734375 -2.390625 3.484375 -2.140625 3.296875 -1.875 C 3.125 -1.625 3.03125 -1.375 3.03125 -1.171875 C 3.03125 -0.984375 3.109375 -0.8125 3.28125 -0.703125 C 3.296875 -0.703125 3.296875 -0.703125 3.3125 -0.703125 C 3.3125 -0.703125 3.34375 -0.703125 3.34375 -0.703125 L 3.421875 -0.734375 L 3.453125 -0.75 C 3.453125 -0.78125 3.46875 -0.78125 3.46875 -0.8125 C 3.46875 -0.84375 3.453125 -0.859375 3.4375 -0.875 Z M 3.453125 -0.75 C 3.453125 -0.765625 3.46875 -0.78125 3.46875 -0.8125 C 3.46875 -0.8125 3.46875 -0.828125 3.453125 -0.84375 C 3.453125 -0.84375 3.453125 -0.828125 3.453125 -0.75 Z M 7.34375 -6.890625 C 7.640625 -6.890625 7.796875 -6.765625 7.828125 -6.5625 L 7.828125 -6.46875 C 7.828125 -6.234375 7.703125 -5.953125 7.484375 -5.625 C 7.046875 -5.03125 6.234375 -4.5625 5.46875 -4.265625 C 4.890625 -4.046875 4.328125 -3.890625 3.796875 -3.8125 C 4.3125 -4.53125 4.859375 -5.25 5.609375 -5.90625 C 6.1875 -6.421875 6.84375 -6.890625 7.34375 -6.890625 Z M 7.34375 -6.890625 "/>
</g>
<g id="glyph-3-0">
<path d="M 2.890625 -3.515625 C 3.703125 -3.78125 4.28125 -4.46875 4.28125 -5.265625 C 4.28125 -6.078125 3.40625 -6.640625 2.453125 -6.640625 C 1.453125 -6.640625 0.6875 -6.046875 0.6875 -5.28125 C 0.6875 -4.953125 0.90625 -4.765625 1.203125 -4.765625 C 1.5 -4.765625 1.703125 -4.984375 1.703125 -5.28125 C 1.703125 -5.765625 1.234375 -5.765625 1.09375 -5.765625 C 1.390625 -6.265625 2.046875 -6.390625 2.40625 -6.390625 C 2.828125 -6.390625 3.375 -6.171875 3.375 -5.28125 C 3.375 -5.15625 3.34375 -4.578125 3.09375 -4.140625 C 2.796875 -3.65625 2.453125 -3.625 2.203125 -3.625 C 2.125 -3.609375 1.890625 -3.59375 1.8125 -3.59375 C 1.734375 -3.578125 1.671875 -3.5625 1.671875 -3.46875 C 1.671875 -3.359375 1.734375 -3.359375 1.90625 -3.359375 L 2.34375 -3.359375 C 3.15625 -3.359375 3.53125 -2.6875 3.53125 -1.703125 C 3.53125 -0.34375 2.84375 -0.0625 2.40625 -0.0625 C 1.96875 -0.0625 1.21875 -0.234375 0.875 -0.8125 C 1.21875 -0.765625 1.53125 -0.984375 1.53125 -1.359375 C 1.53125 -1.71875 1.265625 -1.921875 0.984375 -1.921875 C 0.734375 -1.921875 0.421875 -1.78125 0.421875 -1.34375 C 0.421875 -0.4375 1.34375 0.21875 2.4375 0.21875 C 3.65625 0.21875 4.5625 -0.6875 4.5625 -1.703125 C 4.5625 -2.515625 3.921875 -3.296875 2.890625 -3.515625 Z M 2.890625 -3.515625 "/>
</g>
<g id="glyph-3-1">
<path d="M 4.578125 -3.1875 C 4.578125 -3.984375 4.53125 -4.78125 4.1875 -5.515625 C 3.734375 -6.484375 2.90625 -6.640625 2.5 -6.640625 C 1.890625 -6.640625 1.171875 -6.375 0.75 -5.453125 C 0.4375 -4.765625 0.390625 -3.984375 0.390625 -3.1875 C 0.390625 -2.4375 0.421875 -1.546875 0.84375 -0.78125 C 1.265625 0.015625 2 0.21875 2.484375 0.21875 C 3.015625 0.21875 3.78125 0.015625 4.21875 -0.9375 C 4.53125 -1.625 4.578125 -2.40625 4.578125 -3.1875 Z M 2.484375 0 C 2.09375 0 1.5 -0.25 1.328125 -1.203125 C 1.21875 -1.796875 1.21875 -2.71875 1.21875 -3.3125 C 1.21875 -3.953125 1.21875 -4.609375 1.296875 -5.140625 C 1.484375 -6.328125 2.234375 -6.421875 2.484375 -6.421875 C 2.8125 -6.421875 3.46875 -6.234375 3.65625 -5.25 C 3.765625 -4.6875 3.765625 -3.9375 3.765625 -3.3125 C 3.765625 -2.5625 3.765625 -1.890625 3.65625 -1.25 C 3.5 -0.296875 2.9375 0 2.484375 0 Z M 2.484375 0 "/>
</g>
<g id="glyph-3-2">
<path d="M 1.3125 -3.265625 L 1.3125 -3.515625 C 1.3125 -6.03125 2.546875 -6.390625 3.0625 -6.390625 C 3.296875 -6.390625 3.71875 -6.328125 3.9375 -5.984375 C 3.78125 -5.984375 3.390625 -5.984375 3.390625 -5.546875 C 3.390625 -5.234375 3.625 -5.078125 3.84375 -5.078125 C 4 -5.078125 4.3125 -5.171875 4.3125 -5.5625 C 4.3125 -6.15625 3.875 -6.640625 3.046875 -6.640625 C 1.765625 -6.640625 0.421875 -5.359375 0.421875 -3.15625 C 0.421875 -0.484375 1.578125 0.21875 2.5 0.21875 C 3.609375 0.21875 4.5625 -0.71875 4.5625 -2.03125 C 4.5625 -3.296875 3.671875 -4.25 2.5625 -4.25 C 1.890625 -4.25 1.515625 -3.75 1.3125 -3.265625 Z M 2.5 -0.0625 C 1.875 -0.0625 1.578125 -0.65625 1.515625 -0.8125 C 1.328125 -1.28125 1.328125 -2.078125 1.328125 -2.25 C 1.328125 -3.03125 1.65625 -4.03125 2.546875 -4.03125 C 2.71875 -4.03125 3.171875 -4.03125 3.484375 -3.40625 C 3.65625 -3.046875 3.65625 -2.53125 3.65625 -2.046875 C 3.65625 -1.5625 3.65625 -1.0625 3.484375 -0.703125 C 3.1875 -0.109375 2.734375 -0.0625 2.5 -0.0625 Z M 2.5 -0.0625 "/>
</g>
<g id="glyph-4-0">
<path d="M 3.53125 -1.734375 C 3.53125 -2.578125 2.859375 -3.234375 2.03125 -3.234375 C 1.203125 -3.234375 0.53125 -2.5625 0.53125 -1.75 C 0.53125 -0.90625 1.21875 -0.25 2.03125 -0.25 C 2.875 -0.25 3.53125 -0.921875 3.53125 -1.734375 Z M 2.03125 -0.59375 C 1.375 -0.59375 0.875 -1.125 0.875 -1.734375 C 0.875 -2.390625 1.390625 -2.90625 2.03125 -2.90625 C 2.6875 -2.90625 3.1875 -2.375 3.1875 -1.75 C 3.1875 -1.09375 2.671875 -0.59375 2.03125 -0.59375 Z M 2.03125 -0.59375 "/>
</g>
</g>
<clipPath id="clip-0">
<path clip-rule="nonzero" d="M 0 13 L 357.464844 13 L 357.464844 374 L 0 374 Z M 0 13 "/>
</clipPath>
</defs>
<path fill-rule="nonzero" fill="rgb(0%, 0%, 0%)" fill-opacity="1" d="M 179.867188 193.671875 C 179.867188 193.046875 179.359375 192.539062 178.730469 192.539062 C 178.105469 192.539062 177.597656 193.046875 177.597656 193.671875 C 177.597656 194.300781 178.105469 194.808594 178.730469 194.808594 C 179.359375 194.808594 179.867188 194.300781 179.867188 193.671875 Z M 179.867188 193.671875 "/>
<path fill-rule="nonzero" fill="rgb(0%, 0%, 0%)" fill-opacity="1" d="M 179.867188 17.921875 C 179.867188 17.296875 179.359375 16.789062 178.730469 16.789062 C 178.105469 16.789062 177.597656 17.296875 177.597656 17.921875 C 177.597656 18.550781 178.105469 19.058594 178.730469 19.058594 C 179.359375 19.058594 179.867188 18.550781 179.867188 17.921875 Z M 179.867188 17.921875 "/>
<path fill-rule="nonzero" fill="rgb(0%, 0%, 0%)" fill-opacity="1" d="M 27.660156 105.796875 C 27.660156 105.171875 27.152344 104.664062 26.527344 104.664062 C 25.902344 104.664062 25.394531 105.171875 25.394531 105.796875 C 25.394531 106.425781 25.902344 106.933594 26.527344 106.933594 C 27.152344 106.933594 27.660156 106.425781 27.660156 105.796875 Z M 27.660156 105.796875 "/>
<path fill-rule="nonzero" fill="rgb(0%, 0%, 0%)" fill-opacity="1" d="M 27.660156 281.546875 C 27.660156 280.921875 27.152344 280.414062 26.527344 280.414062 C 25.902344 280.414062 25.394531 280.921875 25.394531 281.546875 C 25.394531 282.175781 25.902344 282.683594 26.527344 282.683594 C 27.152344 282.683594 27.660156 282.175781 27.660156 281.546875 Z M 27.660156 281.546875 "/>
<path fill-rule="nonzero" fill="rgb(0%, 0%, 0%)" fill-opacity="1" d="M 179.867188 369.421875 C 179.867188 368.796875 179.359375 368.289062 178.730469 368.289062 C 178.105469 368.289062 177.597656 368.796875 177.597656 369.421875 C 177.597656 370.050781 178.105469 370.558594 178.730469 370.558594 C 179.359375 370.558594 179.867188 370.050781 179.867188 369.421875 Z M 179.867188 369.421875 "/>
<path fill-rule="nonzero" fill="rgb(0%, 0%, 0%)" fill-opacity="1" d="M 332.070312 281.546875 C 332.070312 280.921875 331.5625 280.414062 330.9375 280.414062 C 330.308594 280.414062 329.800781 280.921875 329.800781 281.546875 C 329.800781 282.175781 330.308594 282.683594 330.9375 282.683594 C 331.5625 282.683594 332.070312 282.175781 332.070312 281.546875 Z M 332.070312 281.546875 "/>
<path fill-rule="nonzero" fill="rgb(0%, 0%, 0%)" fill-opacity="1" d="M 332.070312 105.796875 C 332.070312 105.171875 331.5625 104.664062 330.9375 104.664062 C 330.308594 104.664062 329.800781 105.171875 329.800781 105.796875 C 329.800781 106.425781 330.308594 106.933594 330.9375 106.933594 C 331.5625 106.933594 332.070312 106.425781 332.070312 105.796875 Z M 332.070312 105.796875 "/>
<path fill-rule="nonzero" fill="rgb(0%, 0%, 0%)" fill-opacity="1" d="M 179.867188 105.796875 C 179.867188 105.171875 179.359375 104.664062 178.730469 104.664062 C 178.105469 104.664062 177.597656 105.171875 177.597656 105.796875 C 177.597656 106.425781 178.105469 106.933594 178.730469 106.933594 C 179.359375 106.933594 179.867188 106.425781 179.867188 105.796875 Z M 179.867188 105.796875 "/>
<path fill-rule="nonzero" fill="rgb(0%, 0%, 0%)" fill-opacity="1" d="M 103.761719 149.734375 C 103.761719 149.109375 103.253906 148.601562 102.628906 148.601562 C 102.003906 148.601562 101.496094 149.109375 101.496094 149.734375 C 101.496094 150.363281 102.003906 150.871094 102.628906 150.871094 C 103.253906 150.871094 103.761719 150.363281 103.761719 149.734375 Z M 103.761719 149.734375 "/>
<path fill-rule="nonzero" fill="rgb(0%, 0%, 0%)" fill-opacity="1" d="M 103.761719 237.609375 C 103.761719 236.984375 103.253906 236.476562 102.628906 236.476562 C 102.003906 236.476562 101.496094 236.984375 101.496094 237.609375 C 101.496094 238.238281 102.003906 238.746094 102.628906 238.746094 C 103.253906 238.746094 103.761719 238.238281 103.761719 237.609375 Z M 103.761719 237.609375 "/>
<path fill-rule="nonzero" fill="rgb(0%, 0%, 0%)" fill-opacity="1" d="M 179.867188 281.546875 C 179.867188 280.921875 179.359375 280.414062 178.730469 280.414062 C 178.105469 280.414062 177.597656 280.921875 177.597656 281.546875 C 177.597656 282.175781 178.105469 282.683594 178.730469 282.683594 C 179.359375 282.683594 179.867188 282.175781 179.867188 281.546875 Z M 179.867188 281.546875 "/>
<path fill-rule="nonzero" fill="rgb(0%, 0%, 0%)" fill-opacity="1" d="M 255.96875 237.609375 C 255.96875 236.984375 255.460938 236.476562 254.835938 236.476562 C 254.207031 236.476562 253.699219 236.984375 253.699219 237.609375 C 253.699219 238.238281 254.207031 238.746094 254.835938 238.746094 C 255.460938 238.746094 255.96875 238.238281 255.96875 237.609375 Z M 255.96875 237.609375 "/>
<path fill-rule="nonzero" fill="rgb(0%, 0%, 0%)" fill-opacity="1" d="M 255.96875 149.734375 C 255.96875 149.109375 255.460938 148.601562 254.835938 148.601562 C 254.207031 148.601562 253.699219 149.109375 253.699219 149.734375 C 253.699219 150.363281 254.207031 150.871094 254.835938 150.871094 C 255.460938 150.871094 255.96875 150.363281 255.96875 149.734375 Z M 255.96875 149.734375 "/>
<path fill-rule="nonzero" fill="rgb(0%, 0%, 0%)" fill-opacity="1" d="M 129.132812 105.796875 C 129.132812 105.171875 128.625 104.664062 127.996094 104.664062 C 127.371094 104.664062 126.863281 105.171875 126.863281 105.796875 C 126.863281 106.425781 127.371094 106.933594 127.996094 106.933594 C 128.625 106.933594 129.132812 106.425781 129.132812 105.796875 Z M 129.132812 105.796875 "/>
<path fill-rule="nonzero" fill="rgb(0%, 0%, 0%)" fill-opacity="1" d="M 78.394531 193.671875 C 78.394531 193.046875 77.890625 192.539062 77.261719 192.539062 C 76.636719 192.539062 76.128906 193.046875 76.128906 193.671875 C 76.128906 194.300781 76.636719 194.808594 77.261719 194.808594 C 77.890625 194.808594 78.394531 194.300781 78.394531 193.671875 Z M 78.394531 193.671875 "/>
<path fill-rule="nonzero" fill="rgb(0%, 0%, 0%)" fill-opacity="1" d="M 129.132812 281.546875 C 129.132812 280.921875 128.625 280.414062 127.996094 280.414062 C 127.371094 280.414062 126.863281 280.921875 126.863281 281.546875 C 126.863281 282.175781 127.371094 282.683594 127.996094 282.683594 C 128.625 282.683594 129.132812 282.175781 129.132812 281.546875 Z M 129.132812 281.546875 "/>
<path fill-rule="nonzero" fill="rgb(0%, 0%, 0%)" fill-opacity="1" d="M 230.601562 281.546875 C 230.601562 280.921875 230.09375 280.414062 229.46875 280.414062 C 228.839844 280.414062 228.332031 280.921875 228.332031 281.546875 C 228.332031 282.175781 228.839844 282.683594 229.46875 282.683594 C 230.09375 282.683594 230.601562 282.175781 230.601562 281.546875 Z M 230.601562 281.546875 "/>
<path fill-rule="nonzero" fill="rgb(0%, 0%, 0%)" fill-opacity="1" d="M 281.335938 193.671875 C 281.335938 193.046875 280.828125 192.539062 280.203125 192.539062 C 279.574219 192.539062 279.066406 193.046875 279.066406 193.671875 C 279.066406 194.300781 279.574219 194.808594 280.203125 194.808594 C 280.828125 194.808594 281.335938 194.300781 281.335938 193.671875 Z M 281.335938 193.671875 "/>
<path fill-rule="nonzero" fill="rgb(0%, 0%, 0%)" fill-opacity="1" d="M 230.601562 105.796875 C 230.601562 105.171875 230.09375 104.664062 229.46875 104.664062 C 228.839844 104.664062 228.332031 105.171875 228.332031 105.796875 C 228.332031 106.425781 228.839844 106.933594 229.46875 106.933594 C 230.09375 106.933594 230.601562 106.425781 230.601562 105.796875 Z M 230.601562 105.796875 "/>
<path fill="none" stroke-width="0.29887" stroke-linecap="butt" stroke-linejoin="miter" stroke="rgb(0%, 0%, 0%)" stroke-opacity="1" stroke-miterlimit="10" d="M -0.00153125 175.751125 L -152.204656 87.876125 L -152.204656 -87.873875 L -0.00153125 -175.748875 L 152.2055 -87.873875 L 152.2055 87.876125 Z M -0.00153125 175.751125 " transform="matrix(1, 0, 0, -1, 178.732, 193.673)"/>
<path fill="none" stroke-width="0.29887" stroke-linecap="butt" stroke-linejoin="miter" stroke="rgb(0%, 0%, 0%)" stroke-opacity="1" stroke-miterlimit="10" d="M -0.00153125 175.751125 L -152.204656 -87.873875 L 152.2055 -87.873875 Z M -0.00153125 175.751125 " transform="matrix(1, 0, 0, -1, 178.732, 193.673)"/>
<path fill="none" stroke-width="0.29887" stroke-linecap="butt" stroke-linejoin="miter" stroke="rgb(0%, 0%, 0%)" stroke-opacity="1" stroke-miterlimit="10" d="M -152.204656 87.876125 L -0.00153125 -175.748875 L 152.2055 87.876125 Z M -152.204656 87.876125 " transform="matrix(1, 0, 0, -1, 178.732, 193.673)"/>
<path fill="none" stroke-width="0.29887" stroke-linecap="butt" stroke-linejoin="miter" stroke="rgb(0%, 0%, 0%)" stroke-opacity="1" stroke-dasharray="2.98883 2.98883" stroke-miterlimit="10" d="M -0.00153125 0.001125 L -0.00153125 175.751125 " transform="matrix(1, 0, 0, -1, 178.732, 193.673)"/>
<path fill="none" stroke-width="0.29887" stroke-linecap="butt" stroke-linejoin="miter" stroke="rgb(0%, 0%, 0%)" stroke-opacity="1" stroke-dasharray="2.98883 2.98883" stroke-miterlimit="10" d="M -0.00153125 0.001125 L -152.204656 87.876125 " transform="matrix(1, 0, 0, -1, 178.732, 193.673)"/>
<path fill="none" stroke-width="0.29887" stroke-linecap="butt" stroke-linejoin="miter" stroke="rgb(0%, 0%, 0%)" stroke-opacity="1" stroke-dasharray="2.98883 2.98883" stroke-miterlimit="10" d="M -0.00153125 0.001125 L -152.204656 -87.873875 " transform="matrix(1, 0, 0, -1, 178.732, 193.673)"/>
<path fill="none" stroke-width="0.29887" stroke-linecap="butt" stroke-linejoin="miter" stroke="rgb(0%, 0%, 0%)" stroke-opacity="1" stroke-dasharray="2.98883 2.98883" stroke-miterlimit="10" d="M -0.00153125 0.001125 L -0.00153125 -175.748875 " transform="matrix(1, 0, 0, -1, 178.732, 193.673)"/>
<path fill="none" stroke-width="0.29887" stroke-linecap="butt" stroke-linejoin="miter" stroke="rgb(0%, 0%, 0%)" stroke-opacity="1" stroke-dasharray="2.98883 2.98883" stroke-miterlimit="10" d="M -0.00153125 0.001125 L 152.2055 -87.873875 " transform="matrix(1, 0, 0, -1, 178.732, 193.673)"/>
<path fill="none" stroke-width="0.29887" stroke-linecap="butt" stroke-linejoin="miter" stroke="rgb(0%, 0%, 0%)" stroke-opacity="1" stroke-dasharray="2.98883 2.98883" stroke-miterlimit="10" d="M -0.00153125 0.001125 L 152.2055 87.876125 " transform="matrix(1, 0, 0, -1, 178.732, 193.673)"/>
<path fill="none" stroke-width="0.29887" stroke-linecap="butt" stroke-linejoin="miter" stroke="rgb(0%, 0%, 0%)" stroke-opacity="1" stroke-dasharray="2.98883 2.98883" stroke-miterlimit="10" d="M -0.00153125 0.001125 L -50.735906 87.876125 " transform="matrix(1, 0, 0, -1, 178.732, 193.673)"/>
<path fill="none" stroke-width="0.29887" stroke-linecap="butt" stroke-linejoin="miter" stroke="rgb(0%, 0%, 0%)" stroke-opacity="1" stroke-dasharray="2.98883 2.98883" stroke-miterlimit="10" d="M -0.00153125 0.001125 L -101.470281 0.001125 " transform="matrix(1, 0, 0, -1, 178.732, 193.673)"/>
<path fill="none" stroke-width="0.29887" stroke-linecap="butt" stroke-linejoin="miter" stroke="rgb(0%, 0%, 0%)" stroke-opacity="1" stroke-dasharray="2.98883 2.98883" stroke-miterlimit="10" d="M -0.00153125 0.001125 L -50.735906 -87.873875 " transform="matrix(1, 0, 0, -1, 178.732, 193.673)"/>
<path fill="none" stroke-width="0.29887" stroke-linecap="butt" stroke-linejoin="miter" stroke="rgb(0%, 0%, 0%)" stroke-opacity="1" stroke-dasharray="2.98883 2.98883" stroke-miterlimit="10" d="M -0.00153125 0.001125 L 50.73675 -87.873875 " transform="matrix(1, 0, 0, -1, 178.732, 193.673)"/>
<path fill="none" stroke-width="0.29887" stroke-linecap="butt" stroke-linejoin="miter" stroke="rgb(0%, 0%, 0%)" stroke-opacity="1" stroke-dasharray="2.98883 2.98883" stroke-miterlimit="10" d="M -0.00153125 0.001125 L 101.471125 0.001125 " transform="matrix(1, 0, 0, -1, 178.732, 193.673)"/>
<path fill="none" stroke-width="0.29887" stroke-linecap="butt" stroke-linejoin="miter" stroke="rgb(0%, 0%, 0%)" stroke-opacity="1" stroke-dasharray="2.98883 2.98883" stroke-miterlimit="10" d="M -0.00153125 0.001125 L 50.73675 87.876125 " transform="matrix(1, 0, 0, -1, 178.732, 193.673)"/>
<g clip-path="url(#clip-0)">
<path fill="none" stroke-width="0.29887" stroke-linecap="butt" stroke-linejoin="miter" stroke="rgb(0%, 0%, 0%)" stroke-opacity="1" stroke-miterlimit="10" d="M 175.748469 0.001125 C 175.748469 97.063625 97.064875 175.751125 -0.00153125 175.751125 C -97.064031 175.751125 -175.751531 97.063625 -175.751531 0.001125 C -175.751531 -97.065281 -97.064031 -175.748875 -0.00153125 -175.748875 C 97.064875 -175.748875 175.748469 -97.065281 175.748469 0.001125 Z M 175.748469 0.001125 " transform="matrix(1, 0, 0, -1, 178.732, 193.673)"/>
</g>
<g fill="rgb(0%, 0%, 0%)" fill-opacity="1">
<use xlink:href="#glyph-0-0" x="165.002" y="203.631"/>
</g>
<g fill="rgb(0%, 0%, 0%)" fill-opacity="1">
<use xlink:href="#glyph-0-1" x="173.299" y="12.962"/>
</g>
<g fill="rgb(0%, 0%, 0%)" fill-opacity="1">
<use xlink:href="#glyph-1-0" x="179.695" y="14.456"/>
</g>
<g fill="rgb(0%, 0%, 0%)" fill-opacity="1">
<use xlink:href="#glyph-0-1" x="12.195" y="108.456"/>
</g>
<g fill="rgb(0%, 0%, 0%)" fill-opacity="1">
<use xlink:href="#glyph-1-1" x="18.591" y="109.951"/>
</g>
<g fill="rgb(0%, 0%, 0%)" fill-opacity="1">
<use xlink:href="#glyph-0-1" x="12.195" y="291.824"/>
</g>
<g fill="rgb(0%, 0%, 0%)" fill-opacity="1">
<use xlink:href="#glyph-1-2" x="18.591" y="293.318"/>
</g>
<g fill="rgb(0%, 0%, 0%)" fill-opacity="1">
<use xlink:href="#glyph-0-1" x="182.201" y="379.698"/>
</g>
<g fill="rgb(0%, 0%, 0%)" fill-opacity="1">
<use xlink:href="#glyph-1-3" x="188.597" y="381.193"/>
</g>
<g fill="rgb(0%, 0%, 0%)" fill-opacity="1">
<use xlink:href="#glyph-0-1" x="334.404" y="284.204"/>
</g>
<g fill="rgb(0%, 0%, 0%)" fill-opacity="1">
<use xlink:href="#glyph-1-4" x="340.8" y="285.698"/>
</g>
<g fill="rgb(0%, 0%, 0%)" fill-opacity="1">
<use xlink:href="#glyph-0-1" x="334.404" y="108.456"/>
</g>
<g fill="rgb(0%, 0%, 0%)" fill-opacity="1">
<use xlink:href="#glyph-1-5" x="340.8" y="109.951"/>
</g>
<g fill="rgb(0%, 0%, 0%)" fill-opacity="1">
<use xlink:href="#glyph-0-2" x="166.414" y="100.836"/>
</g>
<g fill="rgb(0%, 0%, 0%)" fill-opacity="1">
<use xlink:href="#glyph-1-0" x="170.793" y="102.331"/>
</g>
<g fill="rgb(0%, 0%, 0%)" fill-opacity="1">
<use xlink:href="#glyph-0-2" x="88.818" y="154.981"/>
</g>
<g fill="rgb(0%, 0%, 0%)" fill-opacity="1">
<use xlink:href="#glyph-1-1" x="93.198" y="156.476"/>
</g>
<g fill="rgb(0%, 0%, 0%)" fill-opacity="1">
<use xlink:href="#glyph-0-2" x="98.206" y="247.887"/>
</g>
<g fill="rgb(0%, 0%, 0%)" fill-opacity="1">
<use xlink:href="#glyph-1-2" x="102.585" y="249.382"/>
</g>
<g fill="rgb(0%, 0%, 0%)" fill-opacity="1">
<use xlink:href="#glyph-0-2" x="182.201" y="284.204"/>
</g>
<g fill="rgb(0%, 0%, 0%)" fill-opacity="1">
<use xlink:href="#glyph-1-3" x="186.58" y="285.698"/>
</g>
<g fill="rgb(0%, 0%, 0%)" fill-opacity="1">
<use xlink:href="#glyph-0-2" x="258.303" y="232.647"/>
</g>
<g fill="rgb(0%, 0%, 0%)" fill-opacity="1">
<use xlink:href="#glyph-1-4" x="262.682" y="234.141"/>
</g>
<g fill="rgb(0%, 0%, 0%)" fill-opacity="1">
<use xlink:href="#glyph-0-3" x="113.95" y="100.836"/>
</g>
<g fill="rgb(0%, 0%, 0%)" fill-opacity="1">
<use xlink:href="#glyph-1-0" x="120.059" y="102.331"/>
</g>
<g fill="rgb(0%, 0%, 0%)" fill-opacity="1">
<use xlink:href="#glyph-0-3" x="63.216" y="196.33"/>
</g>
<g fill="rgb(0%, 0%, 0%)" fill-opacity="1">
<use xlink:href="#glyph-1-1" x="69.325" y="197.824"/>
</g>
<g fill="rgb(0%, 0%, 0%)" fill-opacity="1">
<use xlink:href="#glyph-0-3" x="122.708" y="291.824"/>
</g>
<g fill="rgb(0%, 0%, 0%)" fill-opacity="1">
<use xlink:href="#glyph-1-2" x="128.817" y="293.318"/>
</g>
<g fill="rgb(0%, 0%, 0%)" fill-opacity="1">
<use xlink:href="#glyph-0-3" x="232.935" y="284.204"/>
</g>
<g fill="rgb(0%, 0%, 0%)" fill-opacity="1">
<use xlink:href="#glyph-1-3" x="239.044" y="285.698"/>
</g>
<g fill="rgb(0%, 0%, 0%)" fill-opacity="1">
<use xlink:href="#glyph-0-3" x="283.669" y="196.33"/>
</g>
<g fill="rgb(0%, 0%, 0%)" fill-opacity="1">
<use xlink:href="#glyph-1-4" x="289.778" y="197.824"/>
</g>
<g fill="rgb(0%, 0%, 0%)" fill-opacity="1">
<use xlink:href="#glyph-0-3" x="232.935" y="100.836"/>
</g>
<g fill="rgb(0%, 0%, 0%)" fill-opacity="1">
<use xlink:href="#glyph-1-5" x="239.044" y="102.331"/>
</g>
<g fill="rgb(0%, 0%, 0%)" fill-opacity="1">
<use xlink:href="#glyph-0-4" x="137.02" y="71.574"/>
</g>
<g fill="rgb(0%, 0%, 0%)" fill-opacity="1">
<use xlink:href="#glyph-0-4" x="50.771" y="170.676"/>
</g>
<g fill="rgb(0%, 0%, 0%)" fill-opacity="1">
<use xlink:href="#glyph-0-4" x="95.952" y="289.306"/>
</g>
<g fill="rgb(0%, 0%, 0%)" fill-opacity="1">
<use xlink:href="#glyph-0-4" x="215.178" y="320.062"/>
</g>
<g fill="rgb(0%, 0%, 0%)" fill-opacity="1">
<use xlink:href="#glyph-0-4" x="301.427" y="220.961"/>
</g>
<g fill="rgb(0%, 0%, 0%)" fill-opacity="1">
<use xlink:href="#glyph-0-4" x="262.348" y="102.331"/>
</g>
<g fill="rgb(0%, 0%, 0%)" fill-opacity="1">
<use xlink:href="#glyph-0-4" x="215.178" y="71.574"/>
</g>
<g fill="rgb(0%, 0%, 0%)" fill-opacity="1">
<use xlink:href="#glyph-0-4" x="89.85" y="102.331"/>
</g>
<g fill="rgb(0%, 0%, 0%)" fill-opacity="1">
<use xlink:href="#glyph-0-4" x="50.771" y="220.961"/>
</g>
<g fill="rgb(0%, 0%, 0%)" fill-opacity="1">
<use xlink:href="#glyph-0-4" x="137.02" y="320.062"/>
</g>
<g fill="rgb(0%, 0%, 0%)" fill-opacity="1">
<use xlink:href="#glyph-0-4" x="268.45" y="289.306"/>
</g>
<g fill="rgb(0%, 0%, 0%)" fill-opacity="1">
<use xlink:href="#glyph-0-4" x="301.427" y="170.676"/>
</g>
<g fill="rgb(0%, 0%, 0%)" fill-opacity="1">
<use xlink:href="#glyph-0-5" x="143.919" y="100.836"/>
</g>
<g fill="rgb(0%, 0%, 0%)" fill-opacity="1">
<use xlink:href="#glyph-1-0" x="148.194" y="102.331"/>
</g>
<g fill="rgb(0%, 0%, 0%)" fill-opacity="1">
<use xlink:href="#glyph-0-6" x="204.783" y="100.836"/>
</g>
<g fill="rgb(0%, 0%, 0%)" fill-opacity="1">
<use xlink:href="#glyph-1-0" x="209.094" y="102.331"/>
</g>
<g fill="rgb(0%, 0%, 0%)" fill-opacity="1">
<use xlink:href="#glyph-0-5" x="77.733" y="174.417"/>
</g>
<g fill="rgb(0%, 0%, 0%)" fill-opacity="1">
<use xlink:href="#glyph-1-1" x="82.009" y="175.911"/>
</g>
<g fill="rgb(0%, 0%, 0%)" fill-opacity="1">
<use xlink:href="#glyph-0-6" x="105.601" y="124.772"/>
</g>
<g fill="rgb(0%, 0%, 0%)" fill-opacity="1">
<use xlink:href="#glyph-1-1" x="109.912" y="126.266"/>
</g>
<g fill="rgb(0%, 0%, 0%)" fill-opacity="1">
<use xlink:href="#glyph-0-7" x="165.053" y="82.149"/>
</g>
<g fill="rgb(0%, 0%, 0%)" fill-opacity="1">
<use xlink:href="#glyph-1-0" x="170.793" y="83.644"/>
</g>
<g fill="rgb(0%, 0%, 0%)" fill-opacity="1">
<use xlink:href="#glyph-0-7" x="74.695" y="146.943"/>
</g>
<g fill="rgb(0%, 0%, 0%)" fill-opacity="1">
<use xlink:href="#glyph-1-1" x="80.435" y="148.437"/>
</g>
<g fill="rgb(0%, 0%, 0%)" fill-opacity="1">
<use xlink:href="#glyph-0-8" x="166.123" y="124.772"/>
</g>
<g fill="rgb(0%, 0%, 0%)" fill-opacity="1">
<use xlink:href="#glyph-1-0" x="170.793" y="126.266"/>
</g>
<g fill="rgb(0%, 0%, 0%)" fill-opacity="1">
<use xlink:href="#glyph-0-8" x="113.281" y="166.282"/>
</g>
<g fill="rgb(0%, 0%, 0%)" fill-opacity="1">
<use xlink:href="#glyph-1-1" x="117.951" y="167.777"/>
</g>
<g fill="rgb(0%, 0%, 0%)" fill-opacity="1">
<use xlink:href="#glyph-0-9" x="130.402" y="142.55"/>
</g>
<g fill="rgb(0%, 0%, 0%)" fill-opacity="1">
<use xlink:href="#glyph-1-0" x="135.28" y="144.044"/>
</g>
<g fill="rgb(0%, 0%, 0%)" fill-opacity="1">
<use xlink:href="#glyph-0-9" x="123.324" y="204.061"/>
</g>
<g fill="rgb(0%, 0%, 0%)" fill-opacity="1">
<use xlink:href="#glyph-1-1" x="128.202" y="205.555"/>
</g>
<path fill="none" stroke-width="0.29887" stroke-linecap="butt" stroke-linejoin="miter" stroke="rgb(0%, 0%, 0%)" stroke-opacity="1" stroke-miterlimit="10" d="M -31.528875 117.157375 L -34.978094 119.149563 M -30.931219 118.192531 L -34.380437 120.184719 " transform="matrix(1, 0, 0, -1, 178.732, 193.673)"/>
<path fill="none" stroke-width="0.29887" stroke-linecap="butt" stroke-linejoin="miter" stroke="rgb(0%, 0%, 0%)" stroke-opacity="1" stroke-miterlimit="10" d="M -117.224187 31.274563 L -120.677312 29.282375 M -117.821844 32.309719 L -121.274969 30.317531 " transform="matrix(1, 0, 0, -1, 178.732, 193.673)"/>
<path fill="none" stroke-width="0.29887" stroke-linecap="butt" stroke-linejoin="miter" stroke="rgb(0%, 0%, 0%)" stroke-opacity="1" stroke-miterlimit="10" d="M -85.653875 -85.881687 L -85.653875 -89.866062 M -86.849187 -85.881687 L -86.849187 -89.866062 " transform="matrix(1, 0, 0, -1, 178.732, 193.673)"/>
<path fill="none" stroke-width="0.29887" stroke-linecap="butt" stroke-linejoin="miter" stroke="rgb(0%, 0%, 0%)" stroke-opacity="1" stroke-miterlimit="10" d="M 31.525813 -117.155125 L 34.978938 -119.147312 M 30.928156 -118.190281 L 34.381281 -120.186375 " transform="matrix(1, 0, 0, -1, 178.732, 193.673)"/>
<path fill="none" stroke-width="0.29887" stroke-linecap="butt" stroke-linejoin="miter" stroke="rgb(0%, 0%, 0%)" stroke-opacity="1" stroke-miterlimit="10" d="M 117.225031 -31.272312 L 120.678156 -29.280125 M 117.822688 -32.311375 L 121.275813 -30.315281 " transform="matrix(1, 0, 0, -1, 178.732, 193.673)"/>
<path fill="none" stroke-width="0.29887" stroke-linecap="butt" stroke-linejoin="miter" stroke="rgb(0%, 0%, 0%)" stroke-opacity="1" stroke-miterlimit="10" d="M 85.650813 85.883938 L 85.650813 89.868313 M 86.846125 85.883938 L 86.846125 89.868313 " transform="matrix(1, 0, 0, -1, 178.732, 193.673)"/>
<path fill="none" stroke-width="0.29887" stroke-linecap="butt" stroke-linejoin="miter" stroke="rgb(0%, 0%, 0%)" stroke-opacity="1" stroke-miterlimit="10" d="M -85.653875 89.868313 L -85.653875 85.883938 M -86.849187 89.868313 L -86.849187 85.883938 " transform="matrix(1, 0, 0, -1, 178.732, 193.673)"/>
<path fill="none" stroke-width="0.29887" stroke-linecap="butt" stroke-linejoin="miter" stroke="rgb(0%, 0%, 0%)" stroke-opacity="1" stroke-miterlimit="10" d="M -120.677312 -29.280125 L -117.224187 -31.272312 M -121.274969 -30.315281 L -117.821844 -32.311375 " transform="matrix(1, 0, 0, -1, 178.732, 193.673)"/>
<path fill="none" stroke-width="0.29887" stroke-linecap="butt" stroke-linejoin="miter" stroke="rgb(0%, 0%, 0%)" stroke-opacity="1" stroke-miterlimit="10" d="M -34.978094 -119.147312 L -31.528875 -117.155125 M -34.380437 -120.186375 L -30.931219 -118.190281 " transform="matrix(1, 0, 0, -1, 178.732, 193.673)"/>
<path fill="none" stroke-width="0.29887" stroke-linecap="butt" stroke-linejoin="miter" stroke="rgb(0%, 0%, 0%)" stroke-opacity="1" stroke-miterlimit="10" d="M 85.650813 -89.866062 L 85.650813 -85.881687 M 86.846125 -89.866062 L 86.846125 -85.881687 " transform="matrix(1, 0, 0, -1, 178.732, 193.673)"/>
<path fill="none" stroke-width="0.29887" stroke-linecap="butt" stroke-linejoin="miter" stroke="rgb(0%, 0%, 0%)" stroke-opacity="1" stroke-miterlimit="10" d="M 120.678156 29.282375 L 117.225031 31.274563 M 121.275813 30.317531 L 117.822688 32.309719 " transform="matrix(1, 0, 0, -1, 178.732, 193.673)"/>
<path fill="none" stroke-width="0.29887" stroke-linecap="butt" stroke-linejoin="miter" stroke="rgb(0%, 0%, 0%)" stroke-opacity="1" stroke-miterlimit="10" d="M 34.978938 119.149563 L 31.525813 117.157375 M 34.381281 120.184719 L 30.928156 118.192531 " transform="matrix(1, 0, 0, -1, 178.732, 193.673)"/>
<g fill="rgb(0%, 0%, 0%)" fill-opacity="1">
<use xlink:href="#glyph-2-0" x="266.698" y="37.593"/>
</g>
<path fill="none" stroke-width="0.29887" stroke-linecap="butt" stroke-linejoin="miter" stroke="rgb(0%, 0%, 0%)" stroke-opacity="1" stroke-miterlimit="10" d="M -21.259344 138.926906 C -14.798406 135.196438 -7.462469 133.231594 -0.298406 133.231594 " transform="matrix(1, 0, 0, -1, 178.732, 193.673)"/>
<path fill="none" stroke-width="0.29887" stroke-linecap="round" stroke-linejoin="round" stroke="rgb(0%, 0%, 0%)" stroke-opacity="1" stroke-miterlimit="10" d="M -1.953664 2.212631 C -1.594289 0.884506 -0.80132 0.259506 -0.00053875 0.00169375 C -0.80132 -0.256119 -1.594289 -0.885025 -1.953664 -2.209244 " transform="matrix(1, 0, 0, -1, 178.58257, 60.4431)"/>
<g fill="rgb(0%, 0%, 0%)" fill-opacity="1">
<use xlink:href="#glyph-3-0" x="158.255" y="70.64"/>
<use xlink:href="#glyph-3-1" x="163.2363" y="70.64"/>
</g>
<g fill="rgb(0%, 0%, 0%)" fill-opacity="1">
<use xlink:href="#glyph-4-0" x="168.218" y="67.024"/>
</g>
<path fill="none" stroke-width="0.29887" stroke-linecap="butt" stroke-linejoin="miter" stroke="rgb(0%, 0%, 0%)" stroke-opacity="1" stroke-miterlimit="10" d="M -130.946844 51.051906 C -124.482 54.782375 -119.110906 60.153469 -115.532781 66.356594 " transform="matrix(1, 0, 0, -1, 178.732, 193.673)"/>
<path fill="none" stroke-width="0.29887" stroke-linecap="round" stroke-linejoin="round" stroke="rgb(0%, 0%, 0%)" stroke-opacity="1" stroke-miterlimit="10" d="M -1.954391 2.212297 C -1.594794 0.886291 -0.799319 0.258487 0.000336176 -0.00154232 C -0.79994 -0.256083 -1.597107 -0.883211 -1.953145 -2.211911 " transform="matrix(0.49998, -0.86601, -0.86601, -0.49998, 63.27584, 127.18702)"/>
<g fill="rgb(0%, 0%, 0%)" fill-opacity="1">
<use xlink:href="#glyph-3-0" x="55.337" y="145.309"/>
<use xlink:href="#glyph-3-1" x="60.3183" y="145.309"/>
</g>
<g fill="rgb(0%, 0%, 0%)" fill-opacity="1">
<use xlink:href="#glyph-4-0" x="65.3" y="141.694"/>
</g>
<path fill="none" stroke-width="0.29887" stroke-linecap="butt" stroke-linejoin="miter" stroke="rgb(0%, 0%, 0%)" stroke-opacity="1" stroke-miterlimit="10" d="M -109.685125 -87.873875 C -109.685125 -80.412937 -111.649969 -73.077 -115.232 -66.873875 " transform="matrix(1, 0, 0, -1, 178.732, 193.673)"/>
<path fill="none" stroke-width="0.29887" stroke-linecap="round" stroke-linejoin="round" stroke="rgb(0%, 0%, 0%)" stroke-opacity="1" stroke-miterlimit="10" d="M -1.953901 2.210021 C -1.59591 0.884703 -0.802125 0.259528 -0.000419094 -0.000348393 C -0.803458 -0.258425 -1.59698 -0.882846 -1.953193 -2.210805 " transform="matrix(-0.49998, -0.86601, -0.86601, 0.49998, 63.42527, 260.41778)"/>
<g fill="rgb(0%, 0%, 0%)" fill-opacity="1">
<use xlink:href="#glyph-3-0" x="68.542" y="271.772"/>
<use xlink:href="#glyph-3-1" x="73.5233" y="271.772"/>
</g>
<g fill="rgb(0%, 0%, 0%)" fill-opacity="1">
<use xlink:href="#glyph-4-0" x="78.505" y="268.157"/>
</g>
<path fill="none" stroke-width="0.29887" stroke-linecap="butt" stroke-linejoin="miter" stroke="rgb(0%, 0%, 0%)" stroke-opacity="1" stroke-miterlimit="10" d="M 21.260188 -138.928562 C 14.79925 -135.198094 7.463313 -133.229344 0.29925 -133.229344 " transform="matrix(1, 0, 0, -1, 178.732, 193.673)"/>
<path fill="none" stroke-width="0.29887" stroke-linecap="round" stroke-linejoin="round" stroke="rgb(0%, 0%, 0%)" stroke-opacity="1" stroke-miterlimit="10" d="M -1.954508 2.210381 C -1.595133 0.886162 -0.802164 0.257256 -0.0013825 -0.00055625 C -0.802164 -0.258369 -1.595133 -0.883369 -1.954508 -2.211494 " transform="matrix(-1, 0, 0, 1, 178.88143, 326.9029)"/>
<g fill="rgb(0%, 0%, 0%)" fill-opacity="1">
<use xlink:href="#glyph-3-0" x="184.666" y="323.567"/>
<use xlink:href="#glyph-3-1" x="189.6473" y="323.567"/>
</g>
<g fill="rgb(0%, 0%, 0%)" fill-opacity="1">
<use xlink:href="#glyph-4-0" x="194.628" y="319.952"/>
</g>
<path fill="none" stroke-width="0.29887" stroke-linecap="butt" stroke-linejoin="miter" stroke="rgb(0%, 0%, 0%)" stroke-opacity="1" stroke-miterlimit="10" d="M 130.943781 -51.053562 C 124.482844 -54.784031 119.11175 -60.155125 115.529719 -66.35825 " transform="matrix(1, 0, 0, -1, 178.732, 193.673)"/>
<path fill="none" stroke-width="0.29887" stroke-linecap="round" stroke-linejoin="round" stroke="rgb(0%, 0%, 0%)" stroke-opacity="1" stroke-miterlimit="10" d="M -1.951425 2.210473 C -1.597165 0.885897 -0.80169 0.258093 0.00134869 0.0000165356 C -0.800358 -0.25986 -1.594142 -0.885035 -1.952133 -2.210353 " transform="matrix(-0.49998, 0.86601, 0.86601, 0.49998, 294.18816, 260.15898)"/>
<g fill="rgb(0%, 0%, 0%)" fill-opacity="1">
<use xlink:href="#glyph-3-0" x="287.584" y="248.898"/>
<use xlink:href="#glyph-3-1" x="292.5653" y="248.898"/>
</g>
<g fill="rgb(0%, 0%, 0%)" fill-opacity="1">
<use xlink:href="#glyph-4-0" x="297.547" y="245.283"/>
</g>
<path fill="none" stroke-width="0.29887" stroke-linecap="butt" stroke-linejoin="miter" stroke="rgb(0%, 0%, 0%)" stroke-opacity="1" stroke-miterlimit="10" d="M 109.685969 87.876125 C 109.685969 80.411281 111.650813 73.07925 115.232844 66.876125 " transform="matrix(1, 0, 0, -1, 178.732, 193.673)"/>
<path fill="none" stroke-width="0.29887" stroke-linecap="round" stroke-linejoin="round" stroke="rgb(0%, 0%, 0%)" stroke-opacity="1" stroke-miterlimit="10" d="M -1.952044 2.209923 C -1.594053 0.884606 -0.800269 0.259431 0.00143718 -0.000445793 C -0.801601 -0.258522 -1.595123 -0.882943 -1.951336 -2.210902 " transform="matrix(0.49998, 0.86601, 0.86601, -0.49998, 294.03873, 126.92822)"/>
<g fill="rgb(0%, 0%, 0%)" fill-opacity="1">
<use xlink:href="#glyph-3-0" x="274.379" y="122.435"/>
<use xlink:href="#glyph-3-1" x="279.3603" y="122.435"/>
</g>
<g fill="rgb(0%, 0%, 0%)" fill-opacity="1">
<use xlink:href="#glyph-4-0" x="284.342" y="118.819"/>
</g>
<path fill="none" stroke-width="0.29887" stroke-linecap="butt" stroke-linejoin="miter" stroke="rgb(0%, 0%, 0%)" stroke-opacity="1" stroke-miterlimit="10" d="M -0.00153125 133.231594 C 7.463313 133.231594 14.79925 135.196438 21.002375 138.778469 " transform="matrix(1, 0, 0, -1, 178.732, 193.673)"/>
<path fill="none" stroke-width="0.29887" stroke-linecap="round" stroke-linejoin="round" stroke="rgb(0%, 0%, 0%)" stroke-opacity="1" stroke-miterlimit="10" d="M -1.952257 2.210028 C -1.594265 0.884711 -0.800481 0.259536 0.00122508 -0.000340658 C -0.801813 -0.258417 -1.595335 -0.882838 -1.951549 -2.210797 " transform="matrix(0.86601, -0.49998, -0.49998, -0.86601, 199.86205, 54.82063)"/>
<g fill="rgb(0%, 0%, 0%)" fill-opacity="1">
<use xlink:href="#glyph-3-0" x="184.666" y="70.64"/>
<use xlink:href="#glyph-3-1" x="189.6473" y="70.64"/>
</g>
<g fill="rgb(0%, 0%, 0%)" fill-opacity="1">
<use xlink:href="#glyph-4-0" x="194.628" y="67.024"/>
</g>
<path fill="none" stroke-width="0.29887" stroke-linecap="butt" stroke-linejoin="miter" stroke="rgb(0%, 0%, 0%)" stroke-opacity="1" stroke-miterlimit="10" d="M -115.380437 66.614406 C -111.649969 73.07925 -109.685125 80.411281 -109.685125 87.575344 " transform="matrix(1, 0, 0, -1, 178.732, 193.673)"/>
<path fill="none" stroke-width="0.29887" stroke-linecap="round" stroke-linejoin="round" stroke="rgb(0%, 0%, 0%)" stroke-opacity="1" stroke-miterlimit="10" d="M -1.950837 2.211793 C -1.595369 0.883668 -0.8024 0.258668 -0.00161875 0.000855 C -0.8024 -0.256957 -1.595369 -0.885864 -1.950837 -2.210082 " transform="matrix(0, -1, -1, 0, 69.04773, 105.9476)"/>
<g fill="rgb(0%, 0%, 0%)" fill-opacity="1">
<use xlink:href="#glyph-3-0" x="68.542" y="122.435"/>
<use xlink:href="#glyph-3-1" x="73.5233" y="122.435"/>
</g>
<g fill="rgb(0%, 0%, 0%)" fill-opacity="1">
<use xlink:href="#glyph-4-0" x="78.505" y="118.82"/>
</g>
<path fill="none" stroke-width="0.29887" stroke-linecap="butt" stroke-linejoin="miter" stroke="rgb(0%, 0%, 0%)" stroke-opacity="1" stroke-miterlimit="10" d="M -115.380437 -66.616062 C -119.110906 -60.155125 -124.482 -54.784031 -130.685125 -51.202 " transform="matrix(1, 0, 0, -1, 178.732, 193.673)"/>
<path fill="none" stroke-width="0.29887" stroke-linecap="round" stroke-linejoin="round" stroke="rgb(0%, 0%, 0%)" stroke-opacity="1" stroke-miterlimit="10" d="M -1.951411 2.212711 C -1.595198 0.884752 -0.799723 0.256948 -0.00202023 0.000301586 C -0.800343 -0.257622 -1.597511 -0.88475 -1.953549 -2.213451 " transform="matrix(-0.86601, -0.49998, -0.49998, 0.86601, 47.91637, 244.79951)"/>
<g fill="rgb(0%, 0%, 0%)" fill-opacity="1">
<use xlink:href="#glyph-3-0" x="55.337" y="248.898"/>
<use xlink:href="#glyph-3-1" x="60.3183" y="248.898"/>
</g>
<g fill="rgb(0%, 0%, 0%)" fill-opacity="1">
<use xlink:href="#glyph-4-0" x="65.3" y="245.283"/>
</g>
<path fill="none" stroke-width="0.29887" stroke-linecap="butt" stroke-linejoin="miter" stroke="rgb(0%, 0%, 0%)" stroke-opacity="1" stroke-miterlimit="10" d="M -0.00153125 -133.229344 C -7.462469 -133.229344 -14.798406 -135.198094 -21.001531 -138.776219 " transform="matrix(1, 0, 0, -1, 178.732, 193.673)"/>
<path fill="none" stroke-width="0.29887" stroke-linecap="round" stroke-linejoin="round" stroke="rgb(0%, 0%, 0%)" stroke-opacity="1" stroke-miterlimit="10" d="M -1.952159 2.211885 C -1.596121 0.883184 -0.802337 0.258009 -0.000630662 -0.00186739 C -0.801716 -0.256561 -1.597191 -0.884365 -1.953404 -2.212324 " transform="matrix(-0.86601, 0.49998, 0.49998, 0.86601, 157.60195, 332.52537)"/>
<g fill="rgb(0%, 0%, 0%)" fill-opacity="1">
<use xlink:href="#glyph-3-0" x="158.255" y="323.567"/>
<use xlink:href="#glyph-3-1" x="163.2363" y="323.567"/>
</g>
<g fill="rgb(0%, 0%, 0%)" fill-opacity="1">
<use xlink:href="#glyph-4-0" x="168.218" y="319.952"/>
</g>
<path fill="none" stroke-width="0.29887" stroke-linecap="butt" stroke-linejoin="miter" stroke="rgb(0%, 0%, 0%)" stroke-opacity="1" stroke-miterlimit="10" d="M 115.381281 -66.616062 C 111.650813 -73.077 109.685969 -80.412937 109.685969 -87.577 " transform="matrix(1, 0, 0, -1, 178.732, 193.673)"/>
<path fill="none" stroke-width="0.29887" stroke-linecap="round" stroke-linejoin="round" stroke="rgb(0%, 0%, 0%)" stroke-opacity="1" stroke-miterlimit="10" d="M -1.953088 2.212636 C -1.597619 0.884511 -0.800744 0.259511 0.0000375 0.00169875 C -0.800744 -0.256114 -1.597619 -0.88502 -1.953088 -2.209239 " transform="matrix(0, 1, 1, 0, 288.41627, 281.3984)"/>
<g fill="rgb(0%, 0%, 0%)" fill-opacity="1">
<use xlink:href="#glyph-3-0" x="274.379" y="271.772"/>
<use xlink:href="#glyph-3-1" x="279.3603" y="271.772"/>
</g>
<g fill="rgb(0%, 0%, 0%)" fill-opacity="1">
<use xlink:href="#glyph-4-0" x="284.342" y="268.157"/>
</g>
<path fill="none" stroke-width="0.29887" stroke-linecap="butt" stroke-linejoin="miter" stroke="rgb(0%, 0%, 0%)" stroke-opacity="1" stroke-miterlimit="10" d="M 115.381281 66.614406 C 119.11175 60.153469 124.482844 54.782375 130.685969 51.200344 " transform="matrix(1, 0, 0, -1, 178.732, 193.673)"/>
<path fill="none" stroke-width="0.29887" stroke-linecap="round" stroke-linejoin="round" stroke="rgb(0%, 0%, 0%)" stroke-opacity="1" stroke-miterlimit="10" d="M -1.953235 2.209745 C -1.593639 0.88374 -0.800117 0.259319 -0.000461367 -0.000710932 C -0.798785 -0.258634 -1.595952 -0.885762 -1.953943 -2.21108 " transform="matrix(0.86601, 0.49998, 0.49998, -0.86601, 309.54763, 142.54649)"/>
<g fill="rgb(0%, 0%, 0%)" fill-opacity="1">
<use xlink:href="#glyph-3-0" x="287.584" y="145.309"/>
<use xlink:href="#glyph-3-1" x="292.5653" y="145.309"/>
</g>
<g fill="rgb(0%, 0%, 0%)" fill-opacity="1">
<use xlink:href="#glyph-4-0" x="297.547" y="141.693"/>
</g>
<path fill="none" stroke-width="0.29887" stroke-linecap="butt" stroke-linejoin="miter" stroke="rgb(0%, 0%, 0%)" stroke-opacity="1" stroke-miterlimit="10" d="M -136.614812 -60.869969 C -141.353094 -58.135594 -146.732 -56.694187 -151.903875 -56.694187 " transform="matrix(1, 0, 0, -1, 178.732, 193.673)"/>
<path fill="none" stroke-width="0.29887" stroke-linecap="round" stroke-linejoin="round" stroke="rgb(0%, 0%, 0%)" stroke-opacity="1" stroke-miterlimit="10" d="M -1.951946 2.211965 C -1.596478 0.88384 -0.799603 0.25884 0.00117875 0.0010275 C -0.799603 -0.256785 -1.596478 -0.885691 -1.951946 -2.20991 " transform="matrix(-1, 0, 0, 1, 26.67696, 250.36616)"/>
<g fill="rgb(0%, 0%, 0%)" fill-opacity="1">
<use xlink:href="#glyph-3-0" x="29.749" y="245.823"/>
<use xlink:href="#glyph-3-1" x="34.7303" y="245.823"/>
</g>
<g fill="rgb(0%, 0%, 0%)" fill-opacity="1">
<use xlink:href="#glyph-4-0" x="39.712" y="242.208"/>
</g>
<path fill="none" stroke-width="0.29887" stroke-linecap="butt" stroke-linejoin="miter" stroke="rgb(0%, 0%, 0%)" stroke-opacity="1" stroke-miterlimit="10" d="M -27.005437 160.161281 C -24.267156 155.419094 -20.329656 151.481594 -15.849187 148.895656 " transform="matrix(1, 0, 0, -1, 178.732, 193.673)"/>
<path fill="none" stroke-width="0.29887" stroke-linecap="round" stroke-linejoin="round" stroke="rgb(0%, 0%, 0%)" stroke-opacity="1" stroke-miterlimit="10" d="M -1.953384 2.210471 C -1.593788 0.884465 -0.800266 0.260044 -0.00061018 0.0000143443 C -0.798933 -0.257909 -1.596101 -0.885037 -1.954092 -2.210355 " transform="matrix(0.86601, 0.49998, 0.49998, -0.86601, 163.01224, 44.85188)"/>
<g fill="rgb(0%, 0%, 0%)" fill-opacity="1">
<use xlink:href="#glyph-3-0" x="142.797" y="50.019"/>
<use xlink:href="#glyph-3-1" x="147.7783" y="50.019"/>
</g>
<g fill="rgb(0%, 0%, 0%)" fill-opacity="1">
<use xlink:href="#glyph-4-0" x="152.76" y="46.403"/>
</g>
<path fill="none" stroke-width="0.29887" stroke-linecap="butt" stroke-linejoin="miter" stroke="rgb(0%, 0%, 0%)" stroke-opacity="1" stroke-miterlimit="10" d="M -15.591375 -148.744969 C -20.329656 -151.48325 -24.267156 -155.42075 -26.853094 -159.901219 " transform="matrix(1, 0, 0, -1, 178.732, 193.673)"/>
<path fill="none" stroke-width="0.29887" stroke-linecap="round" stroke-linejoin="round" stroke="rgb(0%, 0%, 0%)" stroke-opacity="1" stroke-miterlimit="10" d="M -1.953816 2.211792 C -1.597603 0.883833 -0.798745 0.257982 -0.00104228 0.0013353 C -0.802748 -0.258541 -1.596533 -0.883716 -1.952571 -2.212417 " transform="matrix(-0.49998, 0.86601, 0.86601, 0.49998, 151.80301, 353.70336)"/>
<g fill="rgb(0%, 0%, 0%)" fill-opacity="1">
<use xlink:href="#glyph-3-0" x="142.797" y="344.188"/>
<use xlink:href="#glyph-3-1" x="147.7783" y="344.188"/>
</g>
<g fill="rgb(0%, 0%, 0%)" fill-opacity="1">
<use xlink:href="#glyph-4-0" x="152.76" y="340.573"/>
</g>
<path fill="none" stroke-width="0.29887" stroke-linecap="butt" stroke-linejoin="miter" stroke="rgb(0%, 0%, 0%)" stroke-opacity="1" stroke-miterlimit="10" d="M -152.204656 56.692531 C -146.732 56.692531 -141.353094 58.133938 -136.872625 60.719875 " transform="matrix(1, 0, 0, -1, 178.732, 193.673)"/>
<path fill="none" stroke-width="0.29887" stroke-linecap="round" stroke-linejoin="round" stroke="rgb(0%, 0%, 0%)" stroke-opacity="1" stroke-miterlimit="10" d="M -1.952854 2.211854 C -1.596816 0.883153 -0.803031 0.257979 0.000627878 0.00148506 C -0.802411 -0.256591 -1.597886 -0.884395 -1.954099 -2.212354 " transform="matrix(0.86601, -0.49998, -0.49998, -0.86601, 41.98848, 132.8766)"/>
<g fill="rgb(0%, 0%, 0%)" fill-opacity="1">
<use xlink:href="#glyph-3-0" x="29.749" y="148.384"/>
<use xlink:href="#glyph-3-1" x="34.7303" y="148.384"/>
</g>
<g fill="rgb(0%, 0%, 0%)" fill-opacity="1">
<use xlink:href="#glyph-4-0" x="39.712" y="144.768"/>
</g>
<path fill="none" stroke-width="0.29887" stroke-linecap="butt" stroke-linejoin="miter" stroke="rgb(0%, 0%, 0%)" stroke-opacity="1" stroke-miterlimit="10" d="M 121.021906 -87.873875 C 121.021906 -93.346531 122.463313 -98.725437 125.053156 -103.205906 " transform="matrix(1, 0, 0, -1, 178.732, 193.673)"/>
<path fill="none" stroke-width="0.29887" stroke-linecap="round" stroke-linejoin="round" stroke="rgb(0%, 0%, 0%)" stroke-opacity="1" stroke-miterlimit="10" d="M -1.953657 2.212 C -1.597619 0.8833 -0.800452 0.256172 -0.000175399 0.00163127 C -0.799831 -0.258398 -1.595306 -0.886202 -1.952949 -2.208825 " transform="matrix(0.49998, 0.86601, 0.86601, -0.49998, 303.85805, 297.00878)"/>
<g fill="rgb(0%, 0%, 0%)" fill-opacity="1">
<use xlink:href="#glyph-3-0" x="284.509" y="295.468"/>
<use xlink:href="#glyph-3-1" x="289.4903" y="295.468"/>
</g>
<g fill="rgb(0%, 0%, 0%)" fill-opacity="1">
<use xlink:href="#glyph-4-0" x="294.472" y="291.853"/>
</g>
<path fill="none" stroke-width="0.29887" stroke-linecap="butt" stroke-linejoin="miter" stroke="rgb(0%, 0%, 0%)" stroke-opacity="1" stroke-miterlimit="10" d="M -125.20075 -103.463719 C -122.466375 -98.725437 -121.021062 -93.346531 -121.021062 -88.174656 " transform="matrix(1, 0, 0, -1, 178.732, 193.673)"/>
<path fill="none" stroke-width="0.29887" stroke-linecap="round" stroke-linejoin="round" stroke="rgb(0%, 0%, 0%)" stroke-opacity="1" stroke-miterlimit="10" d="M -1.951177 2.20919 C -1.595709 0.884971 -0.80274 0.256065 0.0019475 -0.0017475 C -0.80274 -0.25956 -1.595709 -0.88456 -1.951177 -2.212685 " transform="matrix(0, -1, -1, 0, 57.70919, 281.69726)"/>
<g fill="rgb(0%, 0%, 0%)" fill-opacity="1">
<use xlink:href="#glyph-3-0" x="58.412" y="295.468"/>
<use xlink:href="#glyph-3-1" x="63.3933" y="295.468"/>
</g>
<g fill="rgb(0%, 0%, 0%)" fill-opacity="1">
<use xlink:href="#glyph-4-0" x="68.375" y="291.853"/>
</g>
<path fill="none" stroke-width="0.29887" stroke-linecap="butt" stroke-linejoin="miter" stroke="rgb(0%, 0%, 0%)" stroke-opacity="1" stroke-miterlimit="10" d="M 136.615656 60.872219 C 141.353938 58.133938 146.732844 56.692531 151.904719 56.692531 " transform="matrix(1, 0, 0, -1, 178.732, 193.673)"/>
<path fill="none" stroke-width="0.29887" stroke-linecap="round" stroke-linejoin="round" stroke="rgb(0%, 0%, 0%)" stroke-opacity="1" stroke-miterlimit="10" d="M -1.951103 2.210309 C -1.595634 0.88609 -0.802665 0.257184 -0.00188375 -0.00062875 C -0.802665 -0.258441 -1.595634 -0.883441 -1.951103 -2.211566 " transform="matrix(1, 0, 0, -1, 330.78704, 136.97984)"/>
<g fill="rgb(0%, 0%, 0%)" fill-opacity="1">
<use xlink:href="#glyph-3-0" x="313.172" y="148.384"/>
<use xlink:href="#glyph-3-1" x="318.1533" y="148.384"/>
</g>
<g fill="rgb(0%, 0%, 0%)" fill-opacity="1">
<use xlink:href="#glyph-4-0" x="323.135" y="144.768"/>
</g>
<path fill="none" stroke-width="0.29887" stroke-linecap="butt" stroke-linejoin="miter" stroke="rgb(0%, 0%, 0%)" stroke-opacity="1" stroke-miterlimit="10" d="M 27.002375 -160.159031 C 24.268 -155.42075 20.3305 -151.48325 15.850031 -148.897312 " transform="matrix(1, 0, 0, -1, 178.732, 193.673)"/>
<path fill="none" stroke-width="0.29887" stroke-linecap="round" stroke-linejoin="round" stroke="rgb(0%, 0%, 0%)" stroke-opacity="1" stroke-miterlimit="10" d="M -1.954943 2.211483 C -1.595347 0.885478 -0.799871 0.257673 -0.000215902 -0.00235615 C -0.800492 -0.256897 -1.59766 -0.884025 -1.953698 -2.212725 " transform="matrix(-0.86601, -0.49998, -0.49998, 0.86601, 194.45176, 342.49412)"/>
<g fill="rgb(0%, 0%, 0%)" fill-opacity="1">
<use xlink:href="#glyph-3-0" x="200.124" y="344.188"/>
<use xlink:href="#glyph-3-1" x="205.1053" y="344.188"/>
</g>
<g fill="rgb(0%, 0%, 0%)" fill-opacity="1">
<use xlink:href="#glyph-4-0" x="210.086" y="340.573"/>
</g>
<path fill="none" stroke-width="0.29887" stroke-linecap="butt" stroke-linejoin="miter" stroke="rgb(0%, 0%, 0%)" stroke-opacity="1" stroke-miterlimit="10" d="M 15.592219 148.747219 C 20.3305 151.481594 24.268 155.419094 26.853938 159.899563 " transform="matrix(1, 0, 0, -1, 178.732, 193.673)"/>
<path fill="none" stroke-width="0.29887" stroke-linecap="round" stroke-linejoin="round" stroke="rgb(0%, 0%, 0%)" stroke-opacity="1" stroke-miterlimit="10" d="M -1.951445 2.212186 C -1.595232 0.884227 -0.799757 0.256423 -0.0020548 -0.000223562 C -0.800378 -0.258147 -1.597545 -0.885275 -1.952153 -2.20864 " transform="matrix(0.49998, -0.86601, -0.86601, -0.49998, 205.66099, 33.64264)"/>
<g fill="rgb(0%, 0%, 0%)" fill-opacity="1">
<use xlink:href="#glyph-3-0" x="200.124" y="50.019"/>
<use xlink:href="#glyph-3-1" x="205.1053" y="50.019"/>
</g>
<g fill="rgb(0%, 0%, 0%)" fill-opacity="1">
<use xlink:href="#glyph-4-0" x="210.086" y="46.403"/>
</g>
<path fill="none" stroke-width="0.29887" stroke-linecap="butt" stroke-linejoin="miter" stroke="rgb(0%, 0%, 0%)" stroke-opacity="1" stroke-miterlimit="10" d="M 152.2055 -56.694187 C 146.732844 -56.694187 141.353938 -58.135594 136.873469 -60.721531 " transform="matrix(1, 0, 0, -1, 178.732, 193.673)"/>
<path fill="none" stroke-width="0.29887" stroke-linecap="round" stroke-linejoin="round" stroke="rgb(0%, 0%, 0%)" stroke-opacity="1" stroke-miterlimit="10" d="M -1.95471 2.210327 C -1.596718 0.88501 -0.799551 0.257882 -0.00122786 -0.0000416793 C -0.800883 -0.260071 -1.594405 -0.884492 -1.954001 -2.210498 " transform="matrix(-0.86601, 0.49998, 0.49998, 0.86601, 315.47552, 254.4694)"/>
<g fill="rgb(0%, 0%, 0%)" fill-opacity="1">
<use xlink:href="#glyph-3-0" x="313.172" y="245.823"/>
<use xlink:href="#glyph-3-1" x="318.1533" y="245.823"/>
</g>
<g fill="rgb(0%, 0%, 0%)" fill-opacity="1">
<use xlink:href="#glyph-4-0" x="323.135" y="242.208"/>
</g>
<path fill="none" stroke-width="0.29887" stroke-linecap="butt" stroke-linejoin="miter" stroke="rgb(0%, 0%, 0%)" stroke-opacity="1" stroke-miterlimit="10" d="M -121.021062 87.876125 C -121.021062 93.348781 -122.466375 98.727688 -125.052312 103.208156 " transform="matrix(1, 0, 0, -1, 178.732, 193.673)"/>
<path fill="none" stroke-width="0.29887" stroke-linecap="round" stroke-linejoin="round" stroke="rgb(0%, 0%, 0%)" stroke-opacity="1" stroke-miterlimit="10" d="M -1.95213 2.210145 C -1.594139 0.884827 -0.800355 0.259652 0.00135134 -0.000224468 C -0.801687 -0.258301 -1.595209 -0.882722 -1.951422 -2.210681 " transform="matrix(-0.49998, -0.86601, -0.86601, 0.49998, 53.60595, 90.33722)"/>
<g fill="rgb(0%, 0%, 0%)" fill-opacity="1">
<use xlink:href="#glyph-3-0" x="58.412" y="98.739"/>
<use xlink:href="#glyph-3-1" x="63.3933" y="98.739"/>
</g>
<g fill="rgb(0%, 0%, 0%)" fill-opacity="1">
<use xlink:href="#glyph-4-0" x="68.375" y="95.124"/>
</g>
<path fill="none" stroke-width="0.29887" stroke-linecap="butt" stroke-linejoin="miter" stroke="rgb(0%, 0%, 0%)" stroke-opacity="1" stroke-miterlimit="10" d="M 125.201594 103.465969 C 122.463313 98.727688 121.021906 93.348781 121.021906 88.173 " transform="matrix(1, 0, 0, -1, 178.732, 193.673)"/>
<path fill="none" stroke-width="0.29887" stroke-linecap="round" stroke-linejoin="round" stroke="rgb(0%, 0%, 0%)" stroke-opacity="1" stroke-miterlimit="10" d="M -1.953428 2.210034 C -1.594053 0.885815 -0.801084 0.256909 -0.0003025 -0.00090375 C -0.801084 -0.258716 -1.594053 -0.883716 -1.953428 -2.211841 " transform="matrix(0, 1, 1, 0, 299.75481, 105.64874)"/>
<g fill="rgb(0%, 0%, 0%)" fill-opacity="1">
<use xlink:href="#glyph-3-0" x="284.509" y="98.739"/>
<use xlink:href="#glyph-3-1" x="289.4903" y="98.739"/>
</g>
<g fill="rgb(0%, 0%, 0%)" fill-opacity="1">
<use xlink:href="#glyph-4-0" x="294.472" y="95.124"/>
</g>
<path fill="none" stroke-width="0.29887" stroke-linecap="butt" stroke-linejoin="miter" stroke="rgb(0%, 0%, 0%)" stroke-opacity="1" stroke-miterlimit="10" d="M -0.00153125 25.512844 C -4.478094 25.512844 -8.876531 24.333156 -12.497625 22.243313 " transform="matrix(1, 0, 0, -1, 178.732, 193.673)"/>
<path fill="none" stroke-width="0.29887" stroke-linecap="round" stroke-linejoin="round" stroke="rgb(0%, 0%, 0%)" stroke-opacity="1" stroke-miterlimit="10" d="M -1.953526 2.20957 C -1.595535 0.884253 -0.80175 0.259078 -0.0000440167 -0.00079877 C -0.803082 -0.258875 -1.596605 -0.883296 -1.952818 -2.211255 " transform="matrix(-0.86601, 0.49998, 0.49998, 0.86601, 166.10583, 171.50462)"/>
<g fill="rgb(0%, 0%, 0%)" fill-opacity="1">
<use xlink:href="#glyph-0-10" x="166.944" y="163.784"/>
</g>
<path fill="none" stroke-width="0.29887" stroke-linecap="butt" stroke-linejoin="miter" stroke="rgb(0%, 0%, 0%)" stroke-opacity="1" stroke-miterlimit="10" d="M -11.337469 19.637844 C -14.786687 17.649563 -17.649969 14.786281 -19.489812 11.598781 " transform="matrix(1, 0, 0, -1, 178.732, 193.673)"/>
<path fill="none" stroke-width="0.29887" stroke-linecap="round" stroke-linejoin="round" stroke="rgb(0%, 0%, 0%)" stroke-opacity="1" stroke-miterlimit="10" d="M -1.951322 2.211605 C -1.595109 0.883646 -0.801587 0.259225 0.00145158 0.00114838 C -0.800255 -0.258728 -1.594039 -0.883903 -1.95203 -2.209221 " transform="matrix(-0.49998, 0.86601, 0.86601, 0.49998, 159.1677, 182.2052)"/>
<g fill="rgb(0%, 0%, 0%)" fill-opacity="1">
<use xlink:href="#glyph-0-11" x="154.806" y="175.318"/>
</g>
<path fill="none" stroke-width="0.29887" stroke-linecap="butt" stroke-linejoin="miter" stroke="rgb(0%, 0%, 0%)" stroke-opacity="1" stroke-miterlimit="10" d="M 19.639094 11.337063 C 15.588313 18.352688 8.100031 22.676906 0.29925 22.676906 " transform="matrix(1, 0, 0, -1, 178.732, 193.673)"/>
<path fill="none" stroke-width="0.29887" stroke-linecap="round" stroke-linejoin="round" stroke="rgb(0%, 0%, 0%)" stroke-opacity="1" stroke-miterlimit="10" d="M -1.954508 2.211571 C -1.595133 0.883446 -0.802164 0.258446 -0.0013825 0.00063375 C -0.802164 -0.257179 -1.595133 -0.886085 -1.954508 -2.210304 " transform="matrix(-1, 0, 0, 1, 178.88143, 170.99546)"/>
<g fill="rgb(0%, 0%, 0%)" fill-opacity="1">
<use xlink:href="#glyph-3-2" x="196.3" y="174.591"/>
<use xlink:href="#glyph-3-1" x="201.2813" y="174.591"/>
</g>
<g fill="rgb(0%, 0%, 0%)" fill-opacity="1">
<use xlink:href="#glyph-4-0" x="206.263" y="170.975"/>
</g>
<path fill="none" stroke-width="0.29887" stroke-linecap="butt" stroke-linejoin="miter" stroke="rgb(0%, 0%, 0%)" stroke-opacity="1" stroke-miterlimit="10" d="M -72.614812 49.977688 L -78.653875 53.465969 L -82.142156 47.423 " transform="matrix(1, 0, 0, -1, 178.732, 193.673)"/>
<path fill="none" stroke-width="0.29887" stroke-linecap="butt" stroke-linejoin="miter" stroke="rgb(0%, 0%, 0%)" stroke-opacity="1" stroke-miterlimit="10" d="M -79.587469 -37.897312 L -85.630437 -41.385594 L -82.142156 -47.424656 " transform="matrix(1, 0, 0, -1, 178.732, 193.673)"/>
<path fill="none" stroke-width="0.29887" stroke-linecap="butt" stroke-linejoin="miter" stroke="rgb(0%, 0%, 0%)" stroke-opacity="1" stroke-miterlimit="10" d="M -6.974187 -87.873875 L -6.974187 -94.850437 L -0.00153125 -94.850437 " transform="matrix(1, 0, 0, -1, 178.732, 193.673)"/>
<path fill="none" stroke-width="0.29887" stroke-linecap="butt" stroke-linejoin="miter" stroke="rgb(0%, 0%, 0%)" stroke-opacity="1" stroke-miterlimit="10" d="M 72.615656 -49.975437 L 78.654719 -53.463719 L 82.143 -47.424656 " transform="matrix(1, 0, 0, -1, 178.732, 193.673)"/>
<path fill="none" stroke-width="0.29887" stroke-linecap="butt" stroke-linejoin="miter" stroke="rgb(0%, 0%, 0%)" stroke-opacity="1" stroke-miterlimit="10" d="M 79.588313 37.899563 L 85.627375 41.383938 L 82.143 47.423 " transform="matrix(1, 0, 0, -1, 178.732, 193.673)"/>
<path fill="none" stroke-width="0.29887" stroke-linecap="butt" stroke-linejoin="miter" stroke="rgb(0%, 0%, 0%)" stroke-opacity="1" stroke-miterlimit="10" d="M 6.975031 87.876125 L 6.975031 94.848781 L -0.00153125 94.848781 " transform="matrix(1, 0, 0, -1, 178.732, 193.673)"/>
</svg>
