<?xml version="1.0" encoding="UTF-8"?>
<svg xmlns="http://www.w3.org/2000/svg" xmlns:xlink="http://www.w3.org/1999/xlink" width="256.411pt" height="251.284pt" viewBox="0 0 256.411 251.284">
<defs>
<g>
<g id="glyph-0-0">
<path d="M 7.375 -4.34375 C 7.375 -5.953125 6.3125 -7.03125 4.828125 -7.03125 C 2.6875 -7.03125 0.484375 -4.765625 0.484375 -2.4375 C 0.484375 -0.78125 1.609375 0.21875 3.046875 0.21875 C 5.15625 0.21875 7.375 -1.96875 7.375 -4.34375 Z M 3.09375 -0.046875 C 2.109375 -0.046875 1.421875 -0.84375 1.421875 -2.15625 C 1.421875 -2.609375 1.5625 -4.0625 2.328125 -5.21875 C 3.015625 -6.265625 3.984375 -6.78125 4.78125 -6.78125 C 5.59375 -6.78125 6.484375 -6.21875 6.484375 -4.734375 C 6.484375 -4.015625 6.21875 -2.46875 5.234375 -1.234375 C 4.75 -0.625 3.9375 -0.046875 3.09375 -0.046875 Z M 3.09375 -0.046875 "/>
</g>
<g id="glyph-0-1">
<path d="M 3.015625 -3.15625 L 4.71875 -3.15625 C 6.125 -3.15625 7.515625 -4.1875 7.515625 -5.296875 C 7.515625 -6.078125 6.859375 -6.8125 5.546875 -6.8125 L 2.328125 -6.8125 C 2.140625 -6.8125 2.03125 -6.8125 2.03125 -6.625 C 2.03125 -6.5 2.109375 -6.5 2.3125 -6.5 C 2.4375 -6.5 2.625 -6.484375 2.734375 -6.484375 C 2.90625 -6.453125 2.953125 -6.4375 2.953125 -6.3125 C 2.953125 -6.28125 2.953125 -6.25 2.921875 -6.125 L 1.578125 -0.78125 C 1.484375 -0.390625 1.46875 -0.3125 0.671875 -0.3125 C 0.515625 -0.3125 0.40625 -0.3125 0.40625 -0.125 C 0.40625 0 0.515625 0 0.546875 0 C 0.828125 0 1.53125 -0.03125 1.8125 -0.03125 C 2.03125 -0.03125 2.25 -0.015625 2.453125 -0.015625 C 2.671875 -0.015625 2.890625 0 3.09375 0 C 3.171875 0 3.296875 0 3.296875 -0.203125 C 3.296875 -0.3125 3.203125 -0.3125 3.015625 -0.3125 C 2.65625 -0.3125 2.375 -0.3125 2.375 -0.484375 C 2.375 -0.546875 2.390625 -0.59375 2.40625 -0.65625 Z M 3.734375 -6.125 C 3.828125 -6.46875 3.84375 -6.5 4.28125 -6.5 L 5.234375 -6.5 C 6.0625 -6.5 6.59375 -6.234375 6.59375 -5.546875 C 6.59375 -5.15625 6.390625 -4.296875 6 -3.9375 C 5.5 -3.484375 4.90625 -3.40625 4.46875 -3.40625 L 3.0625 -3.40625 Z M 3.734375 -6.125 "/>
</g>
<g id="glyph-0-2">
<path d="M 3.953125 -3.78125 C 3.78125 -3.78125 3.65625 -3.78125 3.515625 -3.65625 C 3.34375 -3.5 3.328125 -3.328125 3.328125 -3.265625 C 3.328125 -3.015625 3.515625 -2.90625 3.703125 -2.90625 C 3.984375 -2.90625 4.25 -3.15625 4.25 -3.546875 C 4.25 -4.03125 3.78125 -4.40625 3.078125 -4.40625 C 1.734375 -4.40625 0.40625 -2.984375 0.40625 -1.578125 C 0.40625 -0.671875 0.984375 0.109375 2.03125 0.109375 C 3.453125 0.109375 4.28125 -0.953125 4.28125 -1.0625 C 4.28125 -1.125 4.234375 -1.203125 4.171875 -1.203125 C 4.109375 -1.203125 4.09375 -1.171875 4.03125 -1.09375 C 3.25 -0.109375 2.15625 -0.109375 2.046875 -0.109375 C 1.421875 -0.109375 1.140625 -0.59375 1.140625 -1.203125 C 1.140625 -1.609375 1.34375 -2.578125 1.6875 -3.1875 C 2 -3.765625 2.546875 -4.1875 3.09375 -4.1875 C 3.421875 -4.1875 3.8125 -4.0625 3.953125 -3.78125 Z M 3.953125 -3.78125 "/>
</g>
<g id="glyph-1-0">
<path d="M 2.328125 -4.4375 C 2.328125 -4.625 2.328125 -4.625 2.125 -4.625 C 1.671875 -4.1875 1.046875 -4.1875 0.765625 -4.1875 L 0.765625 -3.9375 C 0.921875 -3.9375 1.390625 -3.9375 1.765625 -4.125 L 1.765625 -0.578125 C 1.765625 -0.34375 1.765625 -0.25 1.078125 -0.25 L 0.8125 -0.25 L 0.8125 0 C 0.9375 0 1.796875 -0.03125 2.046875 -0.03125 C 2.265625 -0.03125 3.140625 0 3.296875 0 L 3.296875 -0.25 L 3.03125 -0.25 C 2.328125 -0.25 2.328125 -0.34375 2.328125 -0.578125 Z M 2.328125 -4.4375 "/>
</g>
<g id="glyph-1-1">
<path d="M 3.515625 -1.265625 L 3.28125 -1.265625 C 3.265625 -1.109375 3.1875 -0.703125 3.09375 -0.640625 C 3.046875 -0.59375 2.515625 -0.59375 2.40625 -0.59375 L 1.125 -0.59375 C 1.859375 -1.234375 2.109375 -1.4375 2.515625 -1.765625 C 3.03125 -2.171875 3.515625 -2.609375 3.515625 -3.265625 C 3.515625 -4.109375 2.78125 -4.625 1.890625 -4.625 C 1.03125 -4.625 0.4375 -4.015625 0.4375 -3.375 C 0.4375 -3.03125 0.734375 -2.984375 0.8125 -2.984375 C 0.96875 -2.984375 1.171875 -3.109375 1.171875 -3.359375 C 1.171875 -3.484375 1.125 -3.734375 0.765625 -3.734375 C 0.984375 -4.21875 1.453125 -4.375 1.78125 -4.375 C 2.484375 -4.375 2.84375 -3.828125 2.84375 -3.265625 C 2.84375 -2.65625 2.40625 -2.1875 2.1875 -1.9375 L 0.515625 -0.265625 C 0.4375 -0.203125 0.4375 -0.1875 0.4375 0 L 3.3125 0 Z M 3.515625 -1.265625 "/>
</g>
<g id="glyph-1-2">
<path d="M 1.90625 -2.328125 C 2.453125 -2.328125 2.84375 -1.953125 2.84375 -1.203125 C 2.84375 -0.34375 2.328125 -0.078125 1.9375 -0.078125 C 1.65625 -0.078125 1.03125 -0.15625 0.75 -0.578125 C 1.078125 -0.578125 1.15625 -0.8125 1.15625 -0.96875 C 1.15625 -1.1875 0.984375 -1.34375 0.765625 -1.34375 C 0.578125 -1.34375 0.375 -1.21875 0.375 -0.9375 C 0.375 -0.28125 1.09375 0.140625 1.9375 0.140625 C 2.90625 0.140625 3.578125 -0.515625 3.578125 -1.203125 C 3.578125 -1.75 3.140625 -2.296875 2.375 -2.453125 C 3.09375 -2.71875 3.359375 -3.234375 3.359375 -3.671875 C 3.359375 -4.21875 2.734375 -4.625 1.953125 -4.625 C 1.1875 -4.625 0.59375 -4.25 0.59375 -3.6875 C 0.59375 -3.453125 0.75 -3.328125 0.953125 -3.328125 C 1.171875 -3.328125 1.3125 -3.484375 1.3125 -3.671875 C 1.3125 -3.875 1.171875 -4.03125 0.953125 -4.046875 C 1.203125 -4.34375 1.671875 -4.421875 1.9375 -4.421875 C 2.25 -4.421875 2.6875 -4.265625 2.6875 -3.671875 C 2.6875 -3.375 2.59375 -3.046875 2.40625 -2.84375 C 2.1875 -2.578125 1.984375 -2.5625 1.640625 -2.53125 C 1.46875 -2.515625 1.453125 -2.515625 1.421875 -2.515625 C 1.40625 -2.515625 1.34375 -2.5 1.34375 -2.421875 C 1.34375 -2.328125 1.40625 -2.328125 1.53125 -2.328125 Z M 1.90625 -2.328125 "/>
</g>
<g id="glyph-1-3">
<path d="M 3.6875 -1.140625 L 3.6875 -1.390625 L 2.90625 -1.390625 L 2.90625 -4.5 C 2.90625 -4.640625 2.90625 -4.703125 2.765625 -4.703125 C 2.671875 -4.703125 2.640625 -4.703125 2.578125 -4.59375 L 0.265625 -1.390625 L 0.265625 -1.140625 L 2.328125 -1.140625 L 2.328125 -0.578125 C 2.328125 -0.328125 2.328125 -0.25 1.75 -0.25 L 1.5625 -0.25 L 1.5625 0 C 1.921875 -0.015625 2.359375 -0.03125 2.609375 -0.03125 C 2.875 -0.03125 3.3125 -0.015625 3.671875 0 L 3.671875 -0.25 L 3.484375 -0.25 C 2.90625 -0.25 2.90625 -0.328125 2.90625 -0.578125 L 2.90625 -1.140625 Z M 2.375 -3.9375 L 2.375 -1.390625 L 0.53125 -1.390625 Z M 2.375 -3.9375 "/>
</g>
<g id="glyph-1-4">
<path d="M 1.078125 -3.890625 C 1.4375 -3.796875 1.640625 -3.796875 1.75 -3.796875 C 2.671875 -3.796875 3.21875 -4.421875 3.21875 -4.53125 C 3.21875 -4.609375 3.171875 -4.625 3.140625 -4.625 C 3.125 -4.625 3.109375 -4.625 3.078125 -4.609375 C 2.90625 -4.546875 2.546875 -4.40625 2.03125 -4.40625 C 1.828125 -4.40625 1.46875 -4.421875 1.015625 -4.59375 C 0.9375 -4.625 0.921875 -4.625 0.921875 -4.625 C 0.828125 -4.625 0.828125 -4.546875 0.828125 -4.4375 L 0.828125 -2.390625 C 0.828125 -2.265625 0.828125 -2.1875 0.9375 -2.1875 C 1 -2.1875 1.015625 -2.1875 1.078125 -2.28125 C 1.375 -2.65625 1.8125 -2.71875 2.046875 -2.71875 C 2.46875 -2.71875 2.65625 -2.390625 2.6875 -2.328125 C 2.8125 -2.09375 2.859375 -1.828125 2.859375 -1.421875 C 2.859375 -1.21875 2.859375 -0.8125 2.640625 -0.5 C 2.46875 -0.25 2.171875 -0.078125 1.828125 -0.078125 C 1.375 -0.078125 0.90625 -0.328125 0.734375 -0.796875 C 1 -0.78125 1.140625 -0.953125 1.140625 -1.140625 C 1.140625 -1.4375 0.875 -1.484375 0.78125 -1.484375 C 0.78125 -1.484375 0.4375 -1.484375 0.4375 -1.109375 C 0.4375 -0.484375 1.015625 0.140625 1.84375 0.140625 C 2.734375 0.140625 3.515625 -0.515625 3.515625 -1.40625 C 3.515625 -2.1875 2.921875 -2.90625 2.0625 -2.90625 C 1.75 -2.90625 1.390625 -2.84375 1.078125 -2.578125 Z M 1.078125 -3.890625 "/>
</g>
<g id="glyph-1-5">
<path d="M 1.046875 -2.28125 C 1.046875 -2.84375 1.09375 -3.359375 1.359375 -3.796875 C 1.59375 -4.171875 1.96875 -4.421875 2.421875 -4.421875 C 2.625 -4.421875 2.90625 -4.375 3.046875 -4.1875 C 2.875 -4.171875 2.71875 -4.046875 2.71875 -3.84375 C 2.71875 -3.671875 2.84375 -3.515625 3.046875 -3.515625 C 3.265625 -3.515625 3.390625 -3.65625 3.390625 -3.859375 C 3.390625 -4.265625 3.09375 -4.625 2.40625 -4.625 C 1.40625 -4.625 0.375 -3.703125 0.375 -2.203125 C 0.375 -0.40625 1.21875 0.140625 2 0.140625 C 2.84375 0.140625 3.578125 -0.515625 3.578125 -1.421875 C 3.578125 -2.3125 2.875 -2.96875 2.0625 -2.96875 C 1.5 -2.96875 1.203125 -2.59375 1.046875 -2.28125 Z M 2 -0.078125 C 1.640625 -0.078125 1.375 -0.28125 1.21875 -0.59375 C 1.125 -0.796875 1.0625 -1.15625 1.0625 -1.5625 C 1.0625 -2.25 1.46875 -2.765625 2.03125 -2.765625 C 2.34375 -2.765625 2.5625 -2.640625 2.734375 -2.390625 C 2.90625 -2.125 2.90625 -1.828125 2.90625 -1.421875 C 2.90625 -1.03125 2.90625 -0.734375 2.71875 -0.453125 C 2.5625 -0.21875 2.328125 -0.078125 2 -0.078125 Z M 2 -0.078125 "/>
</g>
<g id="glyph-1-6">
<path d="M 3.734375 -4.203125 C 3.796875 -4.296875 3.796875 -4.3125 3.796875 -4.484375 L 1.96875 -4.484375 C 1.6875 -4.484375 1.609375 -4.5 1.359375 -4.515625 C 1 -4.546875 0.984375 -4.59375 0.96875 -4.703125 L 0.734375 -4.703125 L 0.484375 -3.21875 L 0.71875 -3.21875 C 0.734375 -3.328125 0.8125 -3.78125 0.921875 -3.859375 C 0.96875 -3.890625 1.546875 -3.890625 1.640625 -3.890625 L 3.15625 -3.890625 C 2.9375 -3.609375 2.578125 -3.171875 2.4375 -2.96875 C 1.53125 -1.78125 1.4375 -0.671875 1.4375 -0.265625 C 1.4375 -0.1875 1.4375 0.140625 1.765625 0.140625 C 2.109375 0.140625 2.109375 -0.171875 2.109375 -0.265625 L 2.109375 -0.546875 C 2.109375 -1.890625 2.390625 -2.515625 2.6875 -2.890625 Z M 3.734375 -4.203125 "/>
</g>
<g id="glyph-1-7">
<path d="M 2.46875 -2.515625 C 3.015625 -2.78125 3.359375 -3.109375 3.359375 -3.59375 C 3.359375 -4.265625 2.65625 -4.625 1.984375 -4.625 C 1.21875 -4.625 0.59375 -4.125 0.59375 -3.46875 C 0.59375 -3.140625 0.75 -2.90625 0.875 -2.765625 C 1 -2.609375 1.046875 -2.578125 1.453125 -2.34375 C 1.0625 -2.171875 0.375 -1.796875 0.375 -1.0625 C 0.375 -0.296875 1.171875 0.140625 1.96875 0.140625 C 2.859375 0.140625 3.578125 -0.421875 3.578125 -1.171875 C 3.578125 -1.640625 3.3125 -2.03125 2.90625 -2.265625 C 2.8125 -2.328125 2.578125 -2.453125 2.46875 -2.515625 Z M 1.34375 -3.171875 C 1.15625 -3.28125 0.96875 -3.46875 0.96875 -3.734375 C 0.96875 -4.171875 1.46875 -4.421875 1.96875 -4.421875 C 2.515625 -4.421875 3 -4.078125 3 -3.59375 C 3 -2.96875 2.265625 -2.65625 2.265625 -2.65625 C 2.25 -2.65625 2.234375 -2.65625 2.1875 -2.6875 Z M 1.671875 -2.203125 L 2.640625 -1.65625 C 2.8125 -1.546875 3.15625 -1.34375 3.15625 -0.9375 C 3.15625 -0.40625 2.578125 -0.078125 1.984375 -0.078125 C 1.34375 -0.078125 0.796875 -0.5 0.796875 -1.0625 C 0.796875 -1.578125 1.171875 -1.984375 1.671875 -2.203125 Z M 1.671875 -2.203125 "/>
</g>
<g id="glyph-2-0">
<path d="M 3.4375 -0.875 C 3.359375 -0.953125 3.3125 -1.046875 3.3125 -1.171875 C 3.3125 -1.328125 3.375 -1.546875 3.546875 -1.78125 C 3.703125 -2.015625 3.90625 -2.25 4.171875 -2.4375 C 4.390625 -2.578125 4.609375 -2.6875 4.78125 -2.6875 C 5.125 -2.6875 5.3125 -2.515625 5.328125 -2.265625 L 5.328125 -2.21875 C 5.328125 -1.90625 5.125 -1.515625 4.828125 -1.09375 C 4.625 -0.8125 4.390625 -0.53125 4.0625 -0.328125 C 3.765625 -0.125 3.4375 -0.03125 3.203125 -0.03125 C 2.609375 -0.03125 2.34375 -0.375 2.34375 -0.859375 L 2.34375 -0.96875 C 2.40625 -1.71875 2.96875 -2.65625 3.625 -3.5625 C 4.234375 -3.65625 4.890625 -3.8125 5.578125 -4.09375 C 6.375 -4.390625 7.25 -4.875 7.71875 -5.546875 C 7.953125 -5.875 8.09375 -6.203125 8.09375 -6.484375 C 8.09375 -6.53125 8.09375 -6.578125 8.078125 -6.625 C 8.03125 -6.9375 7.765625 -7.125 7.375 -7.125 C 6.703125 -7.125 5.828125 -6.625 5.09375 -6.0625 C 4.171875 -5.359375 3.40625 -4.53125 2.8125 -3.71875 C 2.703125 -3.703125 2.59375 -3.703125 2.484375 -3.703125 C 1.765625 -3.703125 1.171875 -3.875 0.890625 -4.25 C 0.8125 -4.359375 0.765625 -4.5 0.765625 -4.671875 C 0.765625 -4.921875 0.875 -5.21875 1.09375 -5.53125 C 1.28125 -5.796875 1.5625 -6.0625 1.875 -6.234375 C 2.25 -6.4375 2.625 -6.515625 2.9375 -6.515625 C 2.953125 -6.515625 2.984375 -6.53125 3 -6.546875 C 3.015625 -6.59375 3.046875 -6.625 3.046875 -6.65625 C 3.046875 -6.703125 3.015625 -6.734375 2.96875 -6.734375 C 2.5625 -6.734375 2.09375 -6.65625 1.59375 -6.421875 C 1.203125 -6.234375 0.796875 -5.96875 0.5625 -5.625 C 0.34375 -5.328125 0.265625 -5.03125 0.265625 -4.78125 C 0.265625 -4.53125 0.359375 -4.28125 0.515625 -4.109375 C 0.921875 -3.65625 1.640625 -3.484375 2.4375 -3.484375 L 2.65625 -3.484375 C 2.078125 -2.671875 1.71875 -1.84375 1.71875 -1.15625 C 1.71875 -1.078125 1.71875 -1 1.734375 -0.9375 C 1.796875 -0.25 2.296875 0.1875 3.15625 0.1875 C 3.515625 0.1875 3.9375 0.0625 4.359375 -0.15625 C 4.75 -0.375 5.109375 -0.671875 5.34375 -1 C 5.609375 -1.390625 5.765625 -1.78125 5.765625 -2.109375 C 5.765625 -2.1875 5.765625 -2.25 5.734375 -2.328125 C 5.640625 -2.703125 5.296875 -2.90625 4.8125 -2.90625 C 4.578125 -2.90625 4.28125 -2.765625 4.03125 -2.609375 C 3.734375 -2.390625 3.484375 -2.140625 3.296875 -1.875 C 3.125 -1.625 3.03125 -1.375 3.03125 -1.171875 C 3.03125 -0.984375 3.109375 -0.8125 3.28125 -0.703125 C 3.296875 -0.703125 3.296875 -0.703125 3.3125 -0.703125 C 3.3125 -0.703125 3.34375 -0.703125 3.34375 -0.703125 L 3.421875 -0.734375 L 3.453125 -0.75 C 3.453125 -0.78125 3.46875 -0.78125 3.46875 -0.8125 C 3.46875 -0.84375 3.453125 -0.859375 3.4375 -0.875 Z M 3.453125 -0.75 C 3.453125 -0.765625 3.46875 -0.78125 3.46875 -0.8125 C 3.46875 -0.8125 3.46875 -0.828125 3.453125 -0.84375 C 3.453125 -0.84375 3.453125 -0.828125 3.453125 -0.75 Z M 7.34375 -6.890625 C 7.640625 -6.890625 7.796875 -6.765625 7.828125 -6.5625 L 7.828125 -6.46875 C 7.828125 -6.234375 7.703125 -5.953125 7.484375 -5.625 C 7.046875 -5.03125 6.234375 -4.5625 5.46875 -4.265625 C 4.890625 -4.046875 4.328125 -3.890625 3.796875 -3.8125 C 4.3125 -4.53125 4.859375 -5.25 5.609375 -5.90625 C 6.1875 -6.421875 6.84375 -6.890625 7.34375 -6.890625 Z M 7.34375 -6.890625 "/>
</g>
<g id="glyph-3-0">
<path d="M 2.9375 -6.375 C 2.9375 -6.625 2.9375 -6.640625 2.703125 -6.640625 C 2.078125 -6 1.203125 -6 0.890625 -6 L 0.890625 -5.6875 C 1.09375 -5.6875 1.671875 -5.6875 2.1875 -5.953125 L 2.1875 -0.78125 C 2.1875 -0.421875 2.15625 -0.3125 1.265625 -0.3125 L 0.953125 -0.3125 L 0.953125 0 C 1.296875 -0.03125 2.15625 -0.03125 2.5625 -0.03125 C 2.953125 -0.03125 3.828125 -0.03125 4.171875 0 L 4.171875 -0.3125 L 3.859375 -0.3125 C 2.953125 -0.3125 2.9375 -0.421875 2.9375 -0.78125 Z M 2.9375 -6.375 "/>
</g>
<g id="glyph-3-1">
<path d="M 2.890625 -3.515625 C 3.703125 -3.78125 4.28125 -4.46875 4.28125 -5.265625 C 4.28125 -6.078125 3.40625 -6.640625 2.453125 -6.640625 C 1.453125 -6.640625 0.6875 -6.046875 0.6875 -5.28125 C 0.6875 -4.953125 0.90625 -4.765625 1.203125 -4.765625 C 1.5 -4.765625 1.703125 -4.984375 1.703125 -5.28125 C 1.703125 -5.765625 1.234375 -5.765625 1.09375 -5.765625 C 1.390625 -6.265625 2.046875 -6.390625 2.40625 -6.390625 C 2.828125 -6.390625 3.375 -6.171875 3.375 -5.28125 C 3.375 -5.15625 3.34375 -4.578125 3.09375 -4.140625 C 2.796875 -3.65625 2.453125 -3.625 2.203125 -3.625 C 2.125 -3.609375 1.890625 -3.59375 1.8125 -3.59375 C 1.734375 -3.578125 1.671875 -3.5625 1.671875 -3.46875 C 1.671875 -3.359375 1.734375 -3.359375 1.90625 -3.359375 L 2.34375 -3.359375 C 3.15625 -3.359375 3.53125 -2.6875 3.53125 -1.703125 C 3.53125 -0.34375 2.84375 -0.0625 2.40625 -0.0625 C 1.96875 -0.0625 1.21875 -0.234375 0.875 -0.8125 C 1.21875 -0.765625 1.53125 -0.984375 1.53125 -1.359375 C 1.53125 -1.71875 1.265625 -1.921875 0.984375 -1.921875 C 0.734375 -1.921875 0.421875 -1.78125 0.421875 -1.34375 C 0.421875 -0.4375 1.34375 0.21875 2.4375 0.21875 C 3.65625 0.21875 4.5625 -0.6875 4.5625 -1.703125 C 4.5625 -2.515625 3.921875 -3.296875 2.890625 -3.515625 Z M 2.890625 -3.515625 "/>
</g>
<g id="glyph-3-2">
<path d="M 4.46875 -2 C 4.46875 -3.1875 3.65625 -4.1875 2.578125 -4.1875 C 2.109375 -4.1875 1.671875 -4.03125 1.3125 -3.671875 L 1.3125 -5.625 C 1.515625 -5.5625 1.84375 -5.5 2.15625 -5.5 C 3.390625 -5.5 4.09375 -6.40625 4.09375 -6.53125 C 4.09375 -6.59375 4.0625 -6.640625 3.984375 -6.640625 C 3.984375 -6.640625 3.953125 -6.640625 3.90625 -6.609375 C 3.703125 -6.515625 3.21875 -6.3125 2.546875 -6.3125 C 2.15625 -6.3125 1.6875 -6.390625 1.21875 -6.59375 C 1.140625 -6.625 1.125 -6.625 1.109375 -6.625 C 1 -6.625 1 -6.546875 1 -6.390625 L 1 -3.4375 C 1 -3.265625 1 -3.1875 1.140625 -3.1875 C 1.21875 -3.1875 1.234375 -3.203125 1.28125 -3.265625 C 1.390625 -3.421875 1.75 -3.96875 2.5625 -3.96875 C 3.078125 -3.96875 3.328125 -3.515625 3.40625 -3.328125 C 3.5625 -2.953125 3.59375 -2.578125 3.59375 -2.078125 C 3.59375 -1.71875 3.59375 -1.125 3.34375 -0.703125 C 3.109375 -0.3125 2.734375 -0.0625 2.28125 -0.0625 C 1.5625 -0.0625 0.984375 -0.59375 0.8125 -1.171875 C 0.84375 -1.171875 0.875 -1.15625 0.984375 -1.15625 C 1.3125 -1.15625 1.484375 -1.40625 1.484375 -1.640625 C 1.484375 -1.890625 1.3125 -2.140625 0.984375 -2.140625 C 0.84375 -2.140625 0.5 -2.0625 0.5 -1.609375 C 0.5 -0.75 1.1875 0.21875 2.296875 0.21875 C 3.453125 0.21875 4.46875 -0.734375 4.46875 -2 Z M 4.46875 -2 "/>
</g>
<g id="glyph-4-0">
<path d="M 3.53125 -1.734375 C 3.53125 -2.578125 2.859375 -3.234375 2.03125 -3.234375 C 1.203125 -3.234375 0.53125 -2.5625 0.53125 -1.75 C 0.53125 -0.90625 1.21875 -0.25 2.03125 -0.25 C 2.875 -0.25 3.53125 -0.921875 3.53125 -1.734375 Z M 2.03125 -0.59375 C 1.375 -0.59375 0.875 -1.125 0.875 -1.734375 C 0.875 -2.390625 1.390625 -2.90625 2.03125 -2.90625 C 2.6875 -2.90625 3.1875 -2.375 3.1875 -1.75 C 3.1875 -1.09375 2.671875 -0.59375 2.03125 -0.59375 Z M 2.03125 -0.59375 "/>
</g>
</g>
</defs>
<path fill-rule="nonzero" fill="rgb(0%, 0%, 0%)" fill-opacity="1" d="M 129.339844 125.640625 C 129.339844 125.015625 128.832031 124.507812 128.207031 124.507812 C 127.578125 124.507812 127.070312 125.015625 127.070312 125.640625 C 127.070312 126.269531 127.578125 126.777344 128.207031 126.777344 C 128.832031 126.777344 129.339844 126.269531 129.339844 125.640625 Z M 129.339844 125.640625 "/>
<path fill-rule="nonzero" fill="rgb(0%, 0%, 0%)" fill-opacity="1" d="M 129.339844 17.925781 C 129.339844 17.296875 128.832031 16.789062 128.207031 16.789062 C 127.578125 16.789062 127.070312 17.296875 127.070312 17.925781 C 127.070312 18.550781 127.578125 19.058594 128.207031 19.058594 C 128.832031 19.058594 129.339844 18.550781 129.339844 17.925781 Z M 129.339844 17.925781 "/>
<path fill-rule="nonzero" fill="rgb(0%, 0%, 0%)" fill-opacity="1" d="M 53.171875 49.472656 C 53.171875 48.847656 52.664062 48.339844 52.039062 48.339844 C 51.410156 48.339844 50.90625 48.847656 50.90625 49.472656 C 50.90625 50.101562 51.410156 50.609375 52.039062 50.609375 C 52.664062 50.609375 53.171875 50.101562 53.171875 49.472656 Z M 53.171875 49.472656 "/>
<path fill-rule="nonzero" fill="rgb(0%, 0%, 0%)" fill-opacity="1" d="M 21.621094 125.640625 C 21.621094 125.015625 21.113281 124.507812 20.488281 124.507812 C 19.863281 124.507812 19.355469 125.015625 19.355469 125.640625 C 19.355469 126.269531 19.863281 126.777344 20.488281 126.777344 C 21.113281 126.777344 21.621094 126.269531 21.621094 125.640625 Z M 21.621094 125.640625 "/>
<path fill-rule="nonzero" fill="rgb(0%, 0%, 0%)" fill-opacity="1" d="M 53.171875 201.808594 C 53.171875 201.183594 52.664062 200.675781 52.039062 200.675781 C 51.410156 200.675781 50.90625 201.183594 50.90625 201.808594 C 50.90625 202.4375 51.410156 202.945312 52.039062 202.945312 C 52.664062 202.945312 53.171875 202.4375 53.171875 201.808594 Z M 53.171875 201.808594 "/>
<path fill-rule="nonzero" fill="rgb(0%, 0%, 0%)" fill-opacity="1" d="M 129.339844 233.359375 C 129.339844 232.734375 128.832031 232.226562 128.207031 232.226562 C 127.578125 232.226562 127.070312 232.734375 127.070312 233.359375 C 127.070312 233.984375 127.578125 234.492188 128.207031 234.492188 C 128.832031 234.492188 129.339844 233.984375 129.339844 233.359375 Z M 129.339844 233.359375 "/>
<path fill-rule="nonzero" fill="rgb(0%, 0%, 0%)" fill-opacity="1" d="M 205.507812 201.808594 C 205.507812 201.183594 205 200.675781 204.375 200.675781 C 203.746094 200.675781 203.238281 201.183594 203.238281 201.808594 C 203.238281 202.4375 203.746094 202.945312 204.375 202.945312 C 205 202.945312 205.507812 202.4375 205.507812 201.808594 Z M 205.507812 201.808594 "/>
<path fill-rule="nonzero" fill="rgb(0%, 0%, 0%)" fill-opacity="1" d="M 237.058594 125.640625 C 237.058594 125.015625 236.550781 124.507812 235.925781 124.507812 C 235.296875 124.507812 234.789062 125.015625 234.789062 125.640625 C 234.789062 126.269531 235.296875 126.777344 235.925781 126.777344 C 236.550781 126.777344 237.058594 126.269531 237.058594 125.640625 Z M 237.058594 125.640625 "/>
<path fill-rule="nonzero" fill="rgb(0%, 0%, 0%)" fill-opacity="1" d="M 205.507812 49.472656 C 205.507812 48.847656 205 48.339844 204.375 48.339844 C 203.746094 48.339844 203.238281 48.847656 203.238281 49.472656 C 203.238281 50.101562 203.746094 50.609375 204.375 50.609375 C 205 50.609375 205.507812 50.101562 205.507812 49.472656 Z M 205.507812 49.472656 "/>
<path fill="none" stroke-width="0.29887" stroke-linecap="butt" stroke-linejoin="miter" stroke="rgb(0%, 0%, 0%)" stroke-opacity="1" stroke-miterlimit="10" d="M 0.00103125 107.716219 L -76.166937 76.169344 L -107.717719 0.001375 L -76.166937 -76.166594 L 0.00103125 -107.717375 L 76.169 -76.166594 L 107.719781 0.001375 L 76.169 76.169344 Z M 0.00103125 107.716219 " transform="matrix(1, 0, 0, -1, 128.206, 125.642)"/>
<path fill="none" stroke-width="0.29887" stroke-linecap="butt" stroke-linejoin="miter" stroke="rgb(0%, 0%, 0%)" stroke-opacity="1" stroke-miterlimit="10" d="M 107.719781 0.001375 C 107.719781 59.493562 59.493219 107.716219 0.00103125 107.716219 C -59.491156 107.716219 -107.717719 59.493562 -107.717719 0.001375 C -107.717719 -59.490813 -59.491156 -107.717375 0.00103125 -107.717375 C 59.493219 -107.717375 107.719781 -59.490813 107.719781 0.001375 Z M 107.719781 0.001375 " transform="matrix(1, 0, 0, -1, 128.206, 125.642)"/>
<g fill="rgb(0%, 0%, 0%)" fill-opacity="1">
<use xlink:href="#glyph-0-0" x="113.216" y="124.703"/>
</g>
<g fill="rgb(0%, 0%, 0%)" fill-opacity="1">
<use xlink:href="#glyph-0-1" x="122.773" y="12.962"/>
</g>
<g fill="rgb(0%, 0%, 0%)" fill-opacity="1">
<use xlink:href="#glyph-1-0" x="129.169" y="14.456"/>
</g>
<g fill="rgb(0%, 0%, 0%)" fill-opacity="1">
<use xlink:href="#glyph-0-1" x="37.704" y="44.512"/>
</g>
<g fill="rgb(0%, 0%, 0%)" fill-opacity="1">
<use xlink:href="#glyph-1-1" x="44.1" y="46.006"/>
</g>
<g fill="rgb(0%, 0%, 0%)" fill-opacity="1">
<use xlink:href="#glyph-0-1" x="6.154" y="128.299"/>
</g>
<g fill="rgb(0%, 0%, 0%)" fill-opacity="1">
<use xlink:href="#glyph-1-2" x="12.55" y="129.793"/>
</g>
<g fill="rgb(0%, 0%, 0%)" fill-opacity="1">
<use xlink:href="#glyph-0-1" x="37.704" y="212.086"/>
</g>
<g fill="rgb(0%, 0%, 0%)" fill-opacity="1">
<use xlink:href="#glyph-1-3" x="44.1" y="213.58"/>
</g>
<g fill="rgb(0%, 0%, 0%)" fill-opacity="1">
<use xlink:href="#glyph-0-1" x="122.773" y="243.635"/>
</g>
<g fill="rgb(0%, 0%, 0%)" fill-opacity="1">
<use xlink:href="#glyph-1-4" x="129.169" y="245.13"/>
</g>
<g fill="rgb(0%, 0%, 0%)" fill-opacity="1">
<use xlink:href="#glyph-0-1" x="207.841" y="212.086"/>
</g>
<g fill="rgb(0%, 0%, 0%)" fill-opacity="1">
<use xlink:href="#glyph-1-5" x="214.238" y="213.58"/>
</g>
<g fill="rgb(0%, 0%, 0%)" fill-opacity="1">
<use xlink:href="#glyph-0-1" x="239.391" y="128.299"/>
</g>
<g fill="rgb(0%, 0%, 0%)" fill-opacity="1">
<use xlink:href="#glyph-1-6" x="245.787" y="129.793"/>
</g>
<g fill="rgb(0%, 0%, 0%)" fill-opacity="1">
<use xlink:href="#glyph-0-1" x="207.841" y="44.512"/>
</g>
<g fill="rgb(0%, 0%, 0%)" fill-opacity="1">
<use xlink:href="#glyph-1-7" x="214.238" y="46.006"/>
</g>
<g fill="rgb(0%, 0%, 0%)" fill-opacity="1">
<use xlink:href="#glyph-0-2" x="93.591" y="41.459"/>
</g>
<path fill="none" stroke-width="0.29887" stroke-linecap="butt" stroke-linejoin="miter" stroke="rgb(0%, 0%, 0%)" stroke-opacity="1" stroke-miterlimit="10" d="M -37.284125 90.118562 L -38.811469 93.79825 " transform="matrix(1, 0, 0, -1, 128.206, 125.642)"/>
<path fill="none" stroke-width="0.29887" stroke-linecap="butt" stroke-linejoin="miter" stroke="rgb(0%, 0%, 0%)" stroke-opacity="1" stroke-miterlimit="10" d="M -90.084906 37.356844 L -93.7685 38.884187 " transform="matrix(1, 0, 0, -1, 128.206, 125.642)"/>
<path fill="none" stroke-width="0.29887" stroke-linecap="butt" stroke-linejoin="miter" stroke="rgb(0%, 0%, 0%)" stroke-opacity="1" stroke-miterlimit="10" d="M -90.116156 -37.283781 L -93.79975 -38.811125 " transform="matrix(1, 0, 0, -1, 128.206, 125.642)"/>
<path fill="none" stroke-width="0.29887" stroke-linecap="butt" stroke-linejoin="miter" stroke="rgb(0%, 0%, 0%)" stroke-opacity="1" stroke-miterlimit="10" d="M -37.358344 -90.088469 L -38.881781 -93.768156 " transform="matrix(1, 0, 0, -1, 128.206, 125.642)"/>
<path fill="none" stroke-width="0.29887" stroke-linecap="butt" stroke-linejoin="miter" stroke="rgb(0%, 0%, 0%)" stroke-opacity="1" stroke-miterlimit="10" d="M 37.286188 -90.115813 L 38.809625 -93.799406 " transform="matrix(1, 0, 0, -1, 128.206, 125.642)"/>
<path fill="none" stroke-width="0.29887" stroke-linecap="butt" stroke-linejoin="miter" stroke="rgb(0%, 0%, 0%)" stroke-opacity="1" stroke-miterlimit="10" d="M 90.086969 -37.358 L 93.766656 -38.881438 " transform="matrix(1, 0, 0, -1, 128.206, 125.642)"/>
<path fill="none" stroke-width="0.29887" stroke-linecap="butt" stroke-linejoin="miter" stroke="rgb(0%, 0%, 0%)" stroke-opacity="1" stroke-miterlimit="10" d="M 90.118219 37.286531 L 93.797906 38.809969 " transform="matrix(1, 0, 0, -1, 128.206, 125.642)"/>
<path fill="none" stroke-width="0.29887" stroke-linecap="butt" stroke-linejoin="miter" stroke="rgb(0%, 0%, 0%)" stroke-opacity="1" stroke-miterlimit="10" d="M 37.3565 90.087312 L 38.883844 93.767 " transform="matrix(1, 0, 0, -1, 128.206, 125.642)"/>
<g fill="rgb(0%, 0%, 0%)" fill-opacity="1">
<use xlink:href="#glyph-2-0" x="182.156" y="28.479"/>
</g>
<path fill="none" stroke-width="0.29887" stroke-linecap="butt" stroke-linejoin="miter" stroke="rgb(0%, 0%, 0%)" stroke-opacity="1" stroke-miterlimit="10" d="M -84.846625 55.216219 C -73.276312 50.42325 -60.010687 55.919344 -55.217719 67.489656 C -52.916937 73.044344 -52.916937 79.290437 -55.104437 84.567781 " transform="matrix(1, 0, 0, -1, 128.206, 125.642)"/>
<path fill="none" stroke-width="0.29887" stroke-linecap="round" stroke-linejoin="round" stroke="rgb(0%, 0%, 0%)" stroke-opacity="1" stroke-miterlimit="10" d="M -1.953901 2.211716 C -1.595028 0.883366 -0.801006 0.258491 0.000365605 -0.00156403 C -0.799323 -0.258061 -1.595533 -0.883863 -1.951245 -2.212208 " transform="matrix(-0.38266, -0.92383, -0.92383, 0.38266, 73.04557, 40.93453)"/>
<g fill="rgb(0%, 0%, 0%)" fill-opacity="1">
<use xlink:href="#glyph-3-0" x="66.33" y="76.958"/>
<use xlink:href="#glyph-3-1" x="71.3113" y="76.958"/>
<use xlink:href="#glyph-3-2" x="76.2926" y="76.958"/>
</g>
<g fill="rgb(0%, 0%, 0%)" fill-opacity="1">
<use xlink:href="#glyph-4-0" x="81.274" y="73.343"/>
</g>
<path fill="none" stroke-width="0.29887" stroke-linecap="butt" stroke-linejoin="miter" stroke="rgb(0%, 0%, 0%)" stroke-opacity="1" stroke-miterlimit="10" d="M -99.041937 -20.95175 C -87.467719 -16.158781 -81.975531 -2.893156 -86.7685 8.677156 C -89.069281 14.231844 -93.483344 18.649812 -98.764594 20.837312 " transform="matrix(1, 0, 0, -1, 128.206, 125.642)"/>
<path fill="none" stroke-width="0.29887" stroke-linecap="round" stroke-linejoin="round" stroke="rgb(0%, 0%, 0%)" stroke-opacity="1" stroke-miterlimit="10" d="M -1.952698 2.211211 C -1.596986 0.882866 -0.800776 0.257064 -0.00108734 0.000567118 C -0.79885 -0.257993 -1.596481 -0.884363 -1.951745 -2.211218 " transform="matrix(-0.92383, -0.38266, -0.38266, 0.92383, 29.3039, 104.74906)"/>
<g fill="rgb(0%, 0%, 0%)" fill-opacity="1">
<use xlink:href="#glyph-3-0" x="44.743" y="129.072"/>
<use xlink:href="#glyph-3-1" x="49.7243" y="129.072"/>
<use xlink:href="#glyph-3-2" x="54.7056" y="129.072"/>
</g>
<g fill="rgb(0%, 0%, 0%)" fill-opacity="1">
<use xlink:href="#glyph-4-0" x="59.687" y="125.457"/>
</g>
<path fill="none" stroke-width="0.29887" stroke-linecap="butt" stroke-linejoin="miter" stroke="rgb(0%, 0%, 0%)" stroke-opacity="1" stroke-miterlimit="10" d="M -55.217719 -84.846281 C -50.42475 -73.275969 -55.920844 -60.010344 -67.491156 -55.217375 C -73.045844 -52.916594 -79.291937 -52.916594 -84.569281 -55.104094 " transform="matrix(1, 0, 0, -1, 128.206, 125.642)"/>
<path fill="none" stroke-width="0.29887" stroke-linecap="round" stroke-linejoin="round" stroke="rgb(0%, 0%, 0%)" stroke-opacity="1" stroke-miterlimit="10" d="M -1.952646 2.210824 C -1.597383 0.883969 -0.799752 0.257599 -0.00198916 -0.00096076 C -0.801678 -0.257458 -1.594279 -0.884755 -1.9536 -2.211605 " transform="matrix(-0.92383, 0.38266, 0.38266, 0.92383, 43.49853, 180.80243)"/>
<g fill="rgb(0%, 0%, 0%)" fill-opacity="1">
<use xlink:href="#glyph-3-0" x="66.33" y="181.186"/>
<use xlink:href="#glyph-3-1" x="71.3113" y="181.186"/>
<use xlink:href="#glyph-3-2" x="76.2926" y="181.186"/>
</g>
<g fill="rgb(0%, 0%, 0%)" fill-opacity="1">
<use xlink:href="#glyph-4-0" x="81.274" y="177.571"/>
</g>
<path fill="none" stroke-width="0.29887" stroke-linecap="butt" stroke-linejoin="miter" stroke="rgb(0%, 0%, 0%)" stroke-opacity="1" stroke-miterlimit="10" d="M 20.95025 -99.041594 C 16.157281 -87.471281 2.891656 -81.975188 -8.678656 -86.768156 C -14.233344 -89.068938 -18.647406 -93.483 -20.834906 -98.76425 " transform="matrix(1, 0, 0, -1, 128.206, 125.642)"/>
<path fill="none" stroke-width="0.29887" stroke-linecap="round" stroke-linejoin="round" stroke="rgb(0%, 0%, 0%)" stroke-opacity="1" stroke-miterlimit="10" d="M -1.952441 2.209694 C -1.598225 0.884958 -0.802014 0.259156 -0.000830884 -0.000950333 C -0.800088 -0.255901 -1.596225 -0.88588 -1.952983 -2.209126 " transform="matrix(-0.38266, 0.92383, 0.92383, 0.38266, 107.31306, 224.5441)"/>
<g fill="rgb(0%, 0%, 0%)" fill-opacity="1">
<use xlink:href="#glyph-3-0" x="118.444" y="202.773"/>
<use xlink:href="#glyph-3-1" x="123.4253" y="202.773"/>
<use xlink:href="#glyph-3-2" x="128.4066" y="202.773"/>
</g>
<g fill="rgb(0%, 0%, 0%)" fill-opacity="1">
<use xlink:href="#glyph-4-0" x="133.388" y="199.157"/>
</g>
<path fill="none" stroke-width="0.29887" stroke-linecap="butt" stroke-linejoin="miter" stroke="rgb(0%, 0%, 0%)" stroke-opacity="1" stroke-miterlimit="10" d="M 84.844781 -55.217375 C 73.274469 -50.424406 60.008844 -55.9205 55.215875 -67.490813 C 52.915094 -73.0455 52.915094 -79.291594 55.102594 -84.568938 " transform="matrix(1, 0, 0, -1, 128.206, 125.642)"/>
<path fill="none" stroke-width="0.29887" stroke-linecap="round" stroke-linejoin="round" stroke="rgb(0%, 0%, 0%)" stroke-opacity="1" stroke-miterlimit="10" d="M -1.953538 2.20957 C -1.59678 0.886324 -0.800643 0.256345 -0.00138588 0.001394 C -0.802569 -0.258712 -1.595171 -0.886009 -1.952996 -2.20925 " transform="matrix(0.38266, 0.92383, 0.92383, -0.38266, 183.36643, 210.34947)"/>
<g fill="rgb(0%, 0%, 0%)" fill-opacity="1">
<use xlink:href="#glyph-3-0" x="170.557" y="181.186"/>
<use xlink:href="#glyph-3-1" x="175.5383" y="181.186"/>
<use xlink:href="#glyph-3-2" x="180.5196" y="181.186"/>
</g>
<g fill="rgb(0%, 0%, 0%)" fill-opacity="1">
<use xlink:href="#glyph-4-0" x="185.501" y="177.571"/>
</g>
<path fill="none" stroke-width="0.29887" stroke-linecap="butt" stroke-linejoin="miter" stroke="rgb(0%, 0%, 0%)" stroke-opacity="1" stroke-miterlimit="10" d="M 99.040094 20.950594 C 87.469781 16.157625 81.973688 2.892 86.766656 -8.678313 C 89.067438 -14.233 93.485406 -18.650969 98.76275 -20.834563 " transform="matrix(1, 0, 0, -1, 128.206, 125.642)"/>
<path fill="none" stroke-width="0.29887" stroke-linecap="round" stroke-linejoin="round" stroke="rgb(0%, 0%, 0%)" stroke-opacity="1" stroke-miterlimit="10" d="M -1.953959 2.209437 C -1.596133 0.886197 -0.799923 0.260395 0.00126077 0.000288145 C -0.801606 -0.256158 -1.594133 -0.884642 -1.953006 -2.212992 " transform="matrix(0.92383, 0.38266, 0.38266, -0.92383, 227.1081, 146.53494)"/>
<g fill="rgb(0%, 0%, 0%)" fill-opacity="1">
<use xlink:href="#glyph-3-0" x="192.144" y="129.072"/>
<use xlink:href="#glyph-3-1" x="197.1253" y="129.072"/>
<use xlink:href="#glyph-3-2" x="202.1066" y="129.072"/>
</g>
<g fill="rgb(0%, 0%, 0%)" fill-opacity="1">
<use xlink:href="#glyph-4-0" x="207.088" y="125.457"/>
</g>
<path fill="none" stroke-width="0.29887" stroke-linecap="butt" stroke-linejoin="miter" stroke="rgb(0%, 0%, 0%)" stroke-opacity="1" stroke-miterlimit="10" d="M 55.215875 84.845125 C 50.426813 73.274812 55.919 60.009187 67.489313 55.216219 C 73.044 52.915437 79.290094 52.915437 84.571344 55.102937 " transform="matrix(1, 0, 0, -1, 128.206, 125.642)"/>
<path fill="none" stroke-width="0.29887" stroke-linecap="round" stroke-linejoin="round" stroke="rgb(0%, 0%, 0%)" stroke-opacity="1" stroke-miterlimit="10" d="M -1.954792 2.210462 C -1.594425 0.885721 -0.801898 0.257237 0.00096888 0.000790728 C -0.800215 -0.259316 -1.596425 -0.885118 -1.950642 -2.209853 " transform="matrix(0.92383, -0.38266, -0.38266, -0.92383, 212.91347, 70.48157)"/>
<g fill="rgb(0%, 0%, 0%)" fill-opacity="1">
<use xlink:href="#glyph-3-0" x="170.557" y="76.958"/>
<use xlink:href="#glyph-3-1" x="175.5383" y="76.958"/>
<use xlink:href="#glyph-3-2" x="180.5196" y="76.958"/>
</g>
<g fill="rgb(0%, 0%, 0%)" fill-opacity="1">
<use xlink:href="#glyph-4-0" x="185.501" y="73.343"/>
</g>
<path fill="none" stroke-width="0.29887" stroke-linecap="butt" stroke-linejoin="miter" stroke="rgb(0%, 0%, 0%)" stroke-opacity="1" stroke-miterlimit="10" d="M -20.948187 99.040437 C -16.159125 87.470125 -2.8935 81.974031 8.676813 86.767 C 14.2315 89.067781 18.649469 93.48575 20.836969 98.763094 " transform="matrix(1, 0, 0, -1, 128.206, 125.642)"/>
<path fill="none" stroke-width="0.29887" stroke-linecap="round" stroke-linejoin="round" stroke="rgb(0%, 0%, 0%)" stroke-opacity="1" stroke-miterlimit="10" d="M -1.954215 2.210955 C -1.594895 0.884105 -0.802293 0.256808 0.00100432 0.0018056 C -0.800367 -0.258249 -1.59439 -0.883124 -1.953262 -2.211475 " transform="matrix(0.38266, -0.92383, -0.92383, -0.38266, 149.09894, 26.7399)"/>
<g fill="rgb(0%, 0%, 0%)" fill-opacity="1">
<use xlink:href="#glyph-3-0" x="118.444" y="55.371"/>
<use xlink:href="#glyph-3-1" x="123.4253" y="55.371"/>
<use xlink:href="#glyph-3-2" x="128.4066" y="55.371"/>
</g>
<g fill="rgb(0%, 0%, 0%)" fill-opacity="1">
<use xlink:href="#glyph-4-0" x="133.388" y="51.756"/>
</g>
</svg>
