<?xml version="1.0" encoding="UTF-8"?>
<svg xmlns="http://www.w3.org/2000/svg" xmlns:xlink="http://www.w3.org/1999/xlink" width="348.314pt" height="344.059pt" viewBox="0 0 348.314 344.059">
<defs>
<g>
<g id="glyph-0-0">
<path d="M 7.375 -4.34375 C 7.375 -5.953125 6.3125 -7.03125 4.828125 -7.03125 C 2.6875 -7.03125 0.484375 -4.765625 0.484375 -2.4375 C 0.484375 -0.78125 1.609375 0.21875 3.046875 0.21875 C 5.15625 0.21875 7.375 -1.96875 7.375 -4.34375 Z M 3.09375 -0.046875 C 2.109375 -0.046875 1.421875 -0.84375 1.421875 -2.15625 C 1.421875 -2.609375 1.5625 -4.0625 2.328125 -5.21875 C 3.015625 -6.265625 3.984375 -6.78125 4.78125 -6.78125 C 5.59375 -6.78125 6.484375 -6.21875 6.484375 -4.734375 C 6.484375 -4.015625 6.21875 -2.46875 5.234375 -1.234375 C 4.75 -0.625 3.9375 -0.046875 3.09375 -0.046875 Z M 3.09375 -0.046875 "/>
</g>
<g id="glyph-0-1">
<path d="M 3.015625 -3.15625 L 4.71875 -3.15625 C 6.125 -3.15625 7.515625 -4.1875 7.515625 -5.296875 C 7.515625 -6.078125 6.859375 -6.8125 5.546875 -6.8125 L 2.328125 -6.8125 C 2.140625 -6.8125 2.03125 -6.8125 2.03125 -6.625 C 2.03125 -6.5 2.109375 -6.5 2.3125 -6.5 C 2.4375 -6.5 2.625 -6.484375 2.734375 -6.484375 C 2.90625 -6.453125 2.953125 -6.4375 2.953125 -6.3125 C 2.953125 -6.28125 2.953125 -6.25 2.921875 -6.125 L 1.578125 -0.78125 C 1.484375 -0.390625 1.46875 -0.3125 0.671875 -0.3125 C 0.515625 -0.3125 0.40625 -0.3125 0.40625 -0.125 C 0.40625 0 0.515625 0 0.546875 0 C 0.828125 0 1.53125 -0.03125 1.8125 -0.03125 C 2.03125 -0.03125 2.25 -0.015625 2.453125 -0.015625 C 2.671875 -0.015625 2.890625 0 3.09375 0 C 3.171875 0 3.296875 0 3.296875 -0.203125 C 3.296875 -0.3125 3.203125 -0.3125 3.015625 -0.3125 C 2.65625 -0.3125 2.375 -0.3125 2.375 -0.484375 C 2.375 -0.546875 2.390625 -0.59375 2.40625 -0.65625 Z M 3.734375 -6.125 C 3.828125 -6.46875 3.84375 -6.5 4.28125 -6.5 L 5.234375 -6.5 C 6.0625 -6.5 6.59375 -6.234375 6.59375 -5.546875 C 6.59375 -5.15625 6.390625 -4.296875 6 -3.9375 C 5.5 -3.484375 4.90625 -3.40625 4.46875 -3.40625 L 3.0625 -3.40625 Z M 3.734375 -6.125 "/>
</g>
<g id="glyph-0-2">
<path d="M 3.734375 -6.046875 C 3.8125 -6.40625 3.84375 -6.5 4.640625 -6.5 C 4.875 -6.5 4.953125 -6.5 4.953125 -6.6875 C 4.953125 -6.8125 4.84375 -6.8125 4.8125 -6.8125 C 4.515625 -6.8125 3.78125 -6.78125 3.484375 -6.78125 C 3.1875 -6.78125 2.46875 -6.8125 2.15625 -6.8125 C 2.09375 -6.8125 1.96875 -6.8125 1.96875 -6.609375 C 1.96875 -6.5 2.046875 -6.5 2.25 -6.5 C 2.65625 -6.5 2.9375 -6.5 2.9375 -6.3125 C 2.9375 -6.265625 2.9375 -6.234375 2.90625 -6.15625 L 1.5625 -0.78125 C 1.46875 -0.40625 1.453125 -0.3125 0.65625 -0.3125 C 0.421875 -0.3125 0.34375 -0.3125 0.34375 -0.109375 C 0.34375 0 0.453125 0 0.484375 0 C 0.78125 0 1.5 -0.03125 1.796875 -0.03125 C 2.09375 -0.03125 2.828125 0 3.125 0 C 3.203125 0 3.328125 0 3.328125 -0.1875 C 3.328125 -0.3125 3.25 -0.3125 3.03125 -0.3125 C 2.84375 -0.3125 2.796875 -0.3125 2.609375 -0.328125 C 2.390625 -0.34375 2.359375 -0.390625 2.359375 -0.5 C 2.359375 -0.578125 2.375 -0.65625 2.390625 -0.734375 Z M 3.734375 -6.046875 "/>
</g>
<g id="glyph-0-3">
<path d="M 6.4375 -6.921875 C 6.4375 -6.953125 6.40625 -7.03125 6.3125 -7.03125 C 6.265625 -7.03125 6.265625 -7.015625 6.140625 -6.875 L 5.65625 -6.3125 C 5.40625 -6.78125 4.890625 -7.03125 4.234375 -7.03125 C 2.96875 -7.03125 1.78125 -5.875 1.78125 -4.671875 C 1.78125 -3.875 2.296875 -3.40625 2.8125 -3.265625 L 3.875 -2.984375 C 4.25 -2.890625 4.796875 -2.734375 4.796875 -1.921875 C 4.796875 -1.03125 3.984375 -0.09375 3 -0.09375 C 2.359375 -0.09375 1.25 -0.3125 1.25 -1.546875 C 1.25 -1.78125 1.3125 -2.03125 1.3125 -2.078125 C 1.328125 -2.125 1.328125 -2.140625 1.328125 -2.15625 C 1.328125 -2.25 1.265625 -2.265625 1.21875 -2.265625 C 1.171875 -2.265625 1.140625 -2.25 1.109375 -2.21875 C 1.078125 -2.1875 0.515625 0.09375 0.515625 0.125 C 0.515625 0.171875 0.5625 0.21875 0.625 0.21875 C 0.671875 0.21875 0.6875 0.203125 0.8125 0.0625 L 1.296875 -0.5 C 1.71875 0.078125 2.40625 0.21875 2.984375 0.21875 C 4.34375 0.21875 5.515625 -1.109375 5.515625 -2.34375 C 5.515625 -3.03125 5.171875 -3.375 5.03125 -3.515625 C 4.796875 -3.734375 4.640625 -3.78125 3.765625 -4 C 3.53125 -4.0625 3.1875 -4.171875 3.09375 -4.1875 C 2.828125 -4.28125 2.484375 -4.5625 2.484375 -5.09375 C 2.484375 -5.90625 3.28125 -6.75 4.234375 -6.75 C 5.046875 -6.75 5.65625 -6.3125 5.65625 -5.203125 C 5.65625 -4.890625 5.625 -4.703125 5.625 -4.640625 C 5.625 -4.640625 5.625 -4.546875 5.734375 -4.546875 C 5.84375 -4.546875 5.859375 -4.578125 5.890625 -4.75 Z M 6.4375 -6.921875 "/>
</g>
<g id="glyph-0-4">
<path d="M 3.71875 -3.765625 C 3.53125 -4.140625 3.25 -4.40625 2.796875 -4.40625 C 1.640625 -4.40625 0.40625 -2.9375 0.40625 -1.484375 C 0.40625 -0.546875 0.953125 0.109375 1.71875 0.109375 C 1.921875 0.109375 2.421875 0.0625 3.015625 -0.640625 C 3.09375 -0.21875 3.453125 0.109375 3.921875 0.109375 C 4.28125 0.109375 4.5 -0.125 4.671875 -0.4375 C 4.828125 -0.796875 4.96875 -1.40625 4.96875 -1.421875 C 4.96875 -1.53125 4.875 -1.53125 4.84375 -1.53125 C 4.75 -1.53125 4.734375 -1.484375 4.703125 -1.34375 C 4.53125 -0.703125 4.359375 -0.109375 3.953125 -0.109375 C 3.671875 -0.109375 3.65625 -0.375 3.65625 -0.5625 C 3.65625 -0.78125 3.671875 -0.875 3.78125 -1.3125 C 3.890625 -1.71875 3.90625 -1.828125 4 -2.203125 L 4.359375 -3.59375 C 4.421875 -3.875 4.421875 -3.890625 4.421875 -3.9375 C 4.421875 -4.109375 4.3125 -4.203125 4.140625 -4.203125 C 3.890625 -4.203125 3.75 -3.984375 3.71875 -3.765625 Z M 3.078125 -1.1875 C 3.015625 -1 3.015625 -0.984375 2.875 -0.8125 C 2.4375 -0.265625 2.03125 -0.109375 1.75 -0.109375 C 1.25 -0.109375 1.109375 -0.65625 1.109375 -1.046875 C 1.109375 -1.546875 1.421875 -2.765625 1.65625 -3.234375 C 1.96875 -3.8125 2.40625 -4.1875 2.8125 -4.1875 C 3.453125 -4.1875 3.59375 -3.375 3.59375 -3.3125 C 3.59375 -3.25 3.578125 -3.1875 3.5625 -3.140625 Z M 3.078125 -1.1875 "/>
</g>
<g id="glyph-0-5">
<path d="M 2.375 -6.8125 C 2.375 -6.8125 2.375 -6.921875 2.25 -6.921875 C 2.03125 -6.921875 1.296875 -6.84375 1.03125 -6.8125 C 0.953125 -6.8125 0.84375 -6.796875 0.84375 -6.625 C 0.84375 -6.5 0.9375 -6.5 1.09375 -6.5 C 1.5625 -6.5 1.578125 -6.4375 1.578125 -6.328125 C 1.578125 -6.265625 1.5 -5.921875 1.453125 -5.71875 L 0.625 -2.46875 C 0.515625 -1.96875 0.46875 -1.796875 0.46875 -1.453125 C 0.46875 -0.515625 1 0.109375 1.734375 0.109375 C 2.90625 0.109375 4.140625 -1.375 4.140625 -2.8125 C 4.140625 -3.71875 3.609375 -4.40625 2.8125 -4.40625 C 2.359375 -4.40625 1.9375 -4.109375 1.640625 -3.8125 Z M 1.453125 -3.046875 C 1.5 -3.265625 1.5 -3.28125 1.59375 -3.390625 C 2.078125 -4.03125 2.53125 -4.1875 2.796875 -4.1875 C 3.15625 -4.1875 3.421875 -3.890625 3.421875 -3.25 C 3.421875 -2.65625 3.09375 -1.515625 2.90625 -1.140625 C 2.578125 -0.46875 2.125 -0.109375 1.734375 -0.109375 C 1.390625 -0.109375 1.0625 -0.375 1.0625 -1.109375 C 1.0625 -1.3125 1.0625 -1.5 1.21875 -2.125 Z M 1.453125 -3.046875 "/>
</g>
<g id="glyph-1-0">
<path d="M 2.328125 -4.4375 C 2.328125 -4.625 2.328125 -4.625 2.125 -4.625 C 1.671875 -4.1875 1.046875 -4.1875 0.765625 -4.1875 L 0.765625 -3.9375 C 0.921875 -3.9375 1.390625 -3.9375 1.765625 -4.125 L 1.765625 -0.578125 C 1.765625 -0.34375 1.765625 -0.25 1.078125 -0.25 L 0.8125 -0.25 L 0.8125 0 C 0.9375 0 1.796875 -0.03125 2.046875 -0.03125 C 2.265625 -0.03125 3.140625 0 3.296875 0 L 3.296875 -0.25 L 3.03125 -0.25 C 2.328125 -0.25 2.328125 -0.34375 2.328125 -0.578125 Z M 2.328125 -4.4375 "/>
</g>
<g id="glyph-1-1">
<path d="M 3.515625 -1.265625 L 3.28125 -1.265625 C 3.265625 -1.109375 3.1875 -0.703125 3.09375 -0.640625 C 3.046875 -0.59375 2.515625 -0.59375 2.40625 -0.59375 L 1.125 -0.59375 C 1.859375 -1.234375 2.109375 -1.4375 2.515625 -1.765625 C 3.03125 -2.171875 3.515625 -2.609375 3.515625 -3.265625 C 3.515625 -4.109375 2.78125 -4.625 1.890625 -4.625 C 1.03125 -4.625 0.4375 -4.015625 0.4375 -3.375 C 0.4375 -3.03125 0.734375 -2.984375 0.8125 -2.984375 C 0.96875 -2.984375 1.171875 -3.109375 1.171875 -3.359375 C 1.171875 -3.484375 1.125 -3.734375 0.765625 -3.734375 C 0.984375 -4.21875 1.453125 -4.375 1.78125 -4.375 C 2.484375 -4.375 2.84375 -3.828125 2.84375 -3.265625 C 2.84375 -2.65625 2.40625 -2.1875 2.1875 -1.9375 L 0.515625 -0.265625 C 0.4375 -0.203125 0.4375 -0.1875 0.4375 0 L 3.3125 0 Z M 3.515625 -1.265625 "/>
</g>
<g id="glyph-1-2">
<path d="M 1.90625 -2.328125 C 2.453125 -2.328125 2.84375 -1.953125 2.84375 -1.203125 C 2.84375 -0.34375 2.328125 -0.078125 1.9375 -0.078125 C 1.65625 -0.078125 1.03125 -0.15625 0.75 -0.578125 C 1.078125 -0.578125 1.15625 -0.8125 1.15625 -0.96875 C 1.15625 -1.1875 0.984375 -1.34375 0.765625 -1.34375 C 0.578125 -1.34375 0.375 -1.21875 0.375 -0.9375 C 0.375 -0.28125 1.09375 0.140625 1.9375 0.140625 C 2.90625 0.140625 3.578125 -0.515625 3.578125 -1.203125 C 3.578125 -1.75 3.140625 -2.296875 2.375 -2.453125 C 3.09375 -2.71875 3.359375 -3.234375 3.359375 -3.671875 C 3.359375 -4.21875 2.734375 -4.625 1.953125 -4.625 C 1.1875 -4.625 0.59375 -4.25 0.59375 -3.6875 C 0.59375 -3.453125 0.75 -3.328125 0.953125 -3.328125 C 1.171875 -3.328125 1.3125 -3.484375 1.3125 -3.671875 C 1.3125 -3.875 1.171875 -4.03125 0.953125 -4.046875 C 1.203125 -4.34375 1.671875 -4.421875 1.9375 -4.421875 C 2.25 -4.421875 2.6875 -4.265625 2.6875 -3.671875 C 2.6875 -3.375 2.59375 -3.046875 2.40625 -2.84375 C 2.1875 -2.578125 1.984375 -2.5625 1.640625 -2.53125 C 1.46875 -2.515625 1.453125 -2.515625 1.421875 -2.515625 C 1.40625 -2.515625 1.34375 -2.5 1.34375 -2.421875 C 1.34375 -2.328125 1.40625 -2.328125 1.53125 -2.328125 Z M 1.90625 -2.328125 "/>
</g>
<g id="glyph-1-3">
<path d="M 3.6875 -1.140625 L 3.6875 -1.390625 L 2.90625 -1.390625 L 2.90625 -4.5 C 2.90625 -4.640625 2.90625 -4.703125 2.765625 -4.703125 C 2.671875 -4.703125 2.640625 -4.703125 2.578125 -4.59375 L 0.265625 -1.390625 L 0.265625 -1.140625 L 2.328125 -1.140625 L 2.328125 -0.578125 C 2.328125 -0.328125 2.328125 -0.25 1.75 -0.25 L 1.5625 -0.25 L 1.5625 0 C 1.921875 -0.015625 2.359375 -0.03125 2.609375 -0.03125 C 2.875 -0.03125 3.3125 -0.015625 3.671875 0 L 3.671875 -0.25 L 3.484375 -0.25 C 2.90625 -0.25 2.90625 -0.328125 2.90625 -0.578125 L 2.90625 -1.140625 Z M 2.375 -3.9375 L 2.375 -1.390625 L 0.53125 -1.390625 Z M 2.375 -3.9375 "/>
</g>
<g id="glyph-1-4">
<path d="M 1.078125 -3.890625 C 1.4375 -3.796875 1.640625 -3.796875 1.75 -3.796875 C 2.671875 -3.796875 3.21875 -4.421875 3.21875 -4.53125 C 3.21875 -4.609375 3.171875 -4.625 3.140625 -4.625 C 3.125 -4.625 3.109375 -4.625 3.078125 -4.609375 C 2.90625 -4.546875 2.546875 -4.40625 2.03125 -4.40625 C 1.828125 -4.40625 1.46875 -4.421875 1.015625 -4.59375 C 0.9375 -4.625 0.921875 -4.625 0.921875 -4.625 C 0.828125 -4.625 0.828125 -4.546875 0.828125 -4.4375 L 0.828125 -2.390625 C 0.828125 -2.265625 0.828125 -2.1875 0.9375 -2.1875 C 1 -2.1875 1.015625 -2.1875 1.078125 -2.28125 C 1.375 -2.65625 1.8125 -2.71875 2.046875 -2.71875 C 2.46875 -2.71875 2.65625 -2.390625 2.6875 -2.328125 C 2.8125 -2.09375 2.859375 -1.828125 2.859375 -1.421875 C 2.859375 -1.21875 2.859375 -0.8125 2.640625 -0.5 C 2.46875 -0.25 2.171875 -0.078125 1.828125 -0.078125 C 1.375 -0.078125 0.90625 -0.328125 0.734375 -0.796875 C 1 -0.78125 1.140625 -0.953125 1.140625 -1.140625 C 1.140625 -1.4375 0.875 -1.484375 0.78125 -1.484375 C 0.78125 -1.484375 0.4375 -1.484375 0.4375 -1.109375 C 0.4375 -0.484375 1.015625 0.140625 1.84375 0.140625 C 2.734375 0.140625 3.515625 -0.515625 3.515625 -1.40625 C 3.515625 -2.1875 2.921875 -2.90625 2.0625 -2.90625 C 1.75 -2.90625 1.390625 -2.84375 1.078125 -2.578125 Z M 1.078125 -3.890625 "/>
</g>
<g id="glyph-2-0">
<path d="M 3.4375 -0.875 C 3.359375 -0.953125 3.3125 -1.046875 3.3125 -1.171875 C 3.3125 -1.328125 3.375 -1.546875 3.546875 -1.78125 C 3.703125 -2.015625 3.90625 -2.25 4.171875 -2.4375 C 4.390625 -2.578125 4.609375 -2.6875 4.78125 -2.6875 C 5.125 -2.6875 5.3125 -2.515625 5.328125 -2.265625 L 5.328125 -2.21875 C 5.328125 -1.90625 5.125 -1.515625 4.828125 -1.09375 C 4.625 -0.8125 4.390625 -0.53125 4.0625 -0.328125 C 3.765625 -0.125 3.4375 -0.03125 3.203125 -0.03125 C 2.609375 -0.03125 2.34375 -0.375 2.34375 -0.859375 L 2.34375 -0.96875 C 2.40625 -1.71875 2.96875 -2.65625 3.625 -3.5625 C 4.234375 -3.65625 4.890625 -3.8125 5.578125 -4.09375 C 6.375 -4.390625 7.25 -4.875 7.71875 -5.546875 C 7.953125 -5.875 8.09375 -6.203125 8.09375 -6.484375 C 8.09375 -6.53125 8.09375 -6.578125 8.078125 -6.625 C 8.03125 -6.9375 7.765625 -7.125 7.375 -7.125 C 6.703125 -7.125 5.828125 -6.625 5.09375 -6.0625 C 4.171875 -5.359375 3.40625 -4.53125 2.8125 -3.71875 C 2.703125 -3.703125 2.59375 -3.703125 2.484375 -3.703125 C 1.765625 -3.703125 1.171875 -3.875 0.890625 -4.25 C 0.8125 -4.359375 0.765625 -4.5 0.765625 -4.671875 C 0.765625 -4.921875 0.875 -5.21875 1.09375 -5.53125 C 1.28125 -5.796875 1.5625 -6.0625 1.875 -6.234375 C 2.25 -6.4375 2.625 -6.515625 2.9375 -6.515625 C 2.953125 -6.515625 2.984375 -6.53125 3 -6.546875 C 3.015625 -6.59375 3.046875 -6.625 3.046875 -6.65625 C 3.046875 -6.703125 3.015625 -6.734375 2.96875 -6.734375 C 2.5625 -6.734375 2.09375 -6.65625 1.59375 -6.421875 C 1.203125 -6.234375 0.796875 -5.96875 0.5625 -5.625 C 0.34375 -5.328125 0.265625 -5.03125 0.265625 -4.78125 C 0.265625 -4.53125 0.359375 -4.28125 0.515625 -4.109375 C 0.921875 -3.65625 1.640625 -3.484375 2.4375 -3.484375 L 2.65625 -3.484375 C 2.078125 -2.671875 1.71875 -1.84375 1.71875 -1.15625 C 1.71875 -1.078125 1.71875 -1 1.734375 -0.9375 C 1.796875 -0.25 2.296875 0.1875 3.15625 0.1875 C 3.515625 0.1875 3.9375 0.0625 4.359375 -0.15625 C 4.75 -0.375 5.109375 -0.671875 5.34375 -1 C 5.609375 -1.390625 5.765625 -1.78125 5.765625 -2.109375 C 5.765625 -2.1875 5.765625 -2.25 5.734375 -2.328125 C 5.640625 -2.703125 5.296875 -2.90625 4.8125 -2.90625 C 4.578125 -2.90625 4.28125 -2.765625 4.03125 -2.609375 C 3.734375 -2.390625 3.484375 -2.140625 3.296875 -1.875 C 3.125 -1.625 3.03125 -1.375 3.03125 -1.171875 C 3.03125 -0.984375 3.109375 -0.8125 3.28125 -0.703125 C 3.296875 -0.703125 3.296875 -0.703125 3.3125 -0.703125 C 3.3125 -0.703125 3.34375 -0.703125 3.34375 -0.703125 L 3.421875 -0.734375 L 3.453125 -0.75 C 3.453125 -0.78125 3.46875 -0.78125 3.46875 -0.8125 C 3.46875 -0.84375 3.453125 -0.859375 3.4375 -0.875 Z M 3.453125 -0.75 C 3.453125 -0.765625 3.46875 -0.78125 3.46875 -0.8125 C 3.46875 -0.8125 3.46875 -0.828125 3.453125 -0.84375 C 3.453125 -0.84375 3.453125 -0.828125 3.453125 -0.75 Z M 7.34375 -6.890625 C 7.640625 -6.890625 7.796875 -6.765625 7.828125 -6.5625 L 7.828125 -6.46875 C 7.828125 -6.234375 7.703125 -5.953125 7.484375 -5.625 C 7.046875 -5.03125 6.234375 -4.5625 5.46875 -4.265625 C 4.890625 -4.046875 4.328125 -3.890625 3.796875 -3.8125 C 4.3125 -4.53125 4.859375 -5.25 5.609375 -5.90625 C 6.1875 -6.421875 6.84375 -6.890625 7.34375 -6.890625 Z M 7.34375 -6.890625 "/>
</g>
<g id="glyph-3-0">
<path d="M 2.9375 -6.375 C 2.9375 -6.625 2.9375 -6.640625 2.703125 -6.640625 C 2.078125 -6 1.203125 -6 0.890625 -6 L 0.890625 -5.6875 C 1.09375 -5.6875 1.671875 -5.6875 2.1875 -5.953125 L 2.1875 -0.78125 C 2.1875 -0.421875 2.15625 -0.3125 1.265625 -0.3125 L 0.953125 -0.3125 L 0.953125 0 C 1.296875 -0.03125 2.15625 -0.03125 2.5625 -0.03125 C 2.953125 -0.03125 3.828125 -0.03125 4.171875 0 L 4.171875 -0.3125 L 3.859375 -0.3125 C 2.953125 -0.3125 2.9375 -0.421875 2.9375 -0.78125 Z M 2.9375 -6.375 "/>
</g>
<g id="glyph-3-1">
<path d="M 1.625 -4.5625 C 1.171875 -4.859375 1.125 -5.1875 1.125 -5.359375 C 1.125 -5.96875 1.78125 -6.390625 2.484375 -6.390625 C 3.203125 -6.390625 3.84375 -5.875 3.84375 -5.15625 C 3.84375 -4.578125 3.453125 -4.109375 2.859375 -3.765625 Z M 3.078125 -3.609375 C 3.796875 -3.984375 4.28125 -4.5 4.28125 -5.15625 C 4.28125 -6.078125 3.40625 -6.640625 2.5 -6.640625 C 1.5 -6.640625 0.6875 -5.90625 0.6875 -4.96875 C 0.6875 -4.796875 0.703125 -4.34375 1.125 -3.875 C 1.234375 -3.765625 1.609375 -3.515625 1.859375 -3.34375 C 1.28125 -3.046875 0.421875 -2.5 0.421875 -1.5 C 0.421875 -0.453125 1.4375 0.21875 2.484375 0.21875 C 3.609375 0.21875 4.5625 -0.609375 4.5625 -1.671875 C 4.5625 -2.03125 4.453125 -2.484375 4.0625 -2.90625 C 3.875 -3.109375 3.71875 -3.203125 3.078125 -3.609375 Z M 2.078125 -3.1875 L 3.3125 -2.40625 C 3.59375 -2.21875 4.0625 -1.921875 4.0625 -1.3125 C 4.0625 -0.578125 3.3125 -0.0625 2.5 -0.0625 C 1.640625 -0.0625 0.921875 -0.671875 0.921875 -1.5 C 0.921875 -2.078125 1.234375 -2.71875 2.078125 -3.1875 Z M 2.078125 -3.1875 "/>
</g>
<g id="glyph-3-2">
<path d="M 2.890625 -3.515625 C 3.703125 -3.78125 4.28125 -4.46875 4.28125 -5.265625 C 4.28125 -6.078125 3.40625 -6.640625 2.453125 -6.640625 C 1.453125 -6.640625 0.6875 -6.046875 0.6875 -5.28125 C 0.6875 -4.953125 0.90625 -4.765625 1.203125 -4.765625 C 1.5 -4.765625 1.703125 -4.984375 1.703125 -5.28125 C 1.703125 -5.765625 1.234375 -5.765625 1.09375 -5.765625 C 1.390625 -6.265625 2.046875 -6.390625 2.40625 -6.390625 C 2.828125 -6.390625 3.375 -6.171875 3.375 -5.28125 C 3.375 -5.15625 3.34375 -4.578125 3.09375 -4.140625 C 2.796875 -3.65625 2.453125 -3.625 2.203125 -3.625 C 2.125 -3.609375 1.890625 -3.59375 1.8125 -3.59375 C 1.734375 -3.578125 1.671875 -3.5625 1.671875 -3.46875 C 1.671875 -3.359375 1.734375 -3.359375 1.90625 -3.359375 L 2.34375 -3.359375 C 3.15625 -3.359375 3.53125 -2.6875 3.53125 -1.703125 C 3.53125 -0.34375 2.84375 -0.0625 2.40625 -0.0625 C 1.96875 -0.0625 1.21875 -0.234375 0.875 -0.8125 C 1.21875 -0.765625 1.53125 -0.984375 1.53125 -1.359375 C 1.53125 -1.71875 1.265625 -1.921875 0.984375 -1.921875 C 0.734375 -1.921875 0.421875 -1.78125 0.421875 -1.34375 C 0.421875 -0.4375 1.34375 0.21875 2.4375 0.21875 C 3.65625 0.21875 4.5625 -0.6875 4.5625 -1.703125 C 4.5625 -2.515625 3.921875 -3.296875 2.890625 -3.515625 Z M 2.890625 -3.515625 "/>
</g>
<g id="glyph-3-3">
<path d="M 1.3125 -3.265625 L 1.3125 -3.515625 C 1.3125 -6.03125 2.546875 -6.390625 3.0625 -6.390625 C 3.296875 -6.390625 3.71875 -6.328125 3.9375 -5.984375 C 3.78125 -5.984375 3.390625 -5.984375 3.390625 -5.546875 C 3.390625 -5.234375 3.625 -5.078125 3.84375 -5.078125 C 4 -5.078125 4.3125 -5.171875 4.3125 -5.5625 C 4.3125 -6.15625 3.875 -6.640625 3.046875 -6.640625 C 1.765625 -6.640625 0.421875 -5.359375 0.421875 -3.15625 C 0.421875 -0.484375 1.578125 0.21875 2.5 0.21875 C 3.609375 0.21875 4.5625 -0.71875 4.5625 -2.03125 C 4.5625 -3.296875 3.671875 -4.25 2.5625 -4.25 C 1.890625 -4.25 1.515625 -3.75 1.3125 -3.265625 Z M 2.5 -0.0625 C 1.875 -0.0625 1.578125 -0.65625 1.515625 -0.8125 C 1.328125 -1.28125 1.328125 -2.078125 1.328125 -2.25 C 1.328125 -3.03125 1.65625 -4.03125 2.546875 -4.03125 C 2.71875 -4.03125 3.171875 -4.03125 3.484375 -3.40625 C 3.65625 -3.046875 3.65625 -2.53125 3.65625 -2.046875 C 3.65625 -1.5625 3.65625 -1.0625 3.484375 -0.703125 C 3.1875 -0.109375 2.734375 -0.0625 2.5 -0.0625 Z M 2.5 -0.0625 "/>
</g>
<g id="glyph-4-0">
<path d="M 3.53125 -1.734375 C 3.53125 -2.578125 2.859375 -3.234375 2.03125 -3.234375 C 1.203125 -3.234375 0.53125 -2.5625 0.53125 -1.75 C 0.53125 -0.90625 1.21875 -0.25 2.03125 -0.25 C 2.875 -0.25 3.53125 -0.921875 3.53125 -1.734375 Z M 2.03125 -0.59375 C 1.375 -0.59375 0.875 -1.125 0.875 -1.734375 C 0.875 -2.390625 1.390625 -2.90625 2.03125 -2.90625 C 2.6875 -2.90625 3.1875 -2.375 3.1875 -1.75 C 3.1875 -1.09375 2.671875 -0.59375 2.03125 -0.59375 Z M 2.03125 -0.59375 "/>
</g>
</g>
<clipPath id="clip-0">
<path clip-rule="nonzero" d="M 8 13 L 340 13 L 340 344.058594 L 8 344.058594 Z M 8 13 "/>
</clipPath>
</defs>
<path fill-rule="nonzero" fill="rgb(0%, 0%, 0%)" fill-opacity="1" d="M 175.289062 179.5 C 175.289062 178.875 174.78125 178.367188 174.15625 178.367188 C 173.53125 178.367188 173.023438 178.875 173.023438 179.5 C 173.023438 180.125 173.53125 180.632812 174.15625 180.632812 C 174.78125 180.632812 175.289062 180.125 175.289062 179.5 Z M 175.289062 179.5 "/>
<path fill-rule="nonzero" fill="rgb(0%, 0%, 0%)" fill-opacity="1" d="M 175.289062 17.921875 C 175.289062 17.296875 174.78125 16.789062 174.15625 16.789062 C 173.53125 16.789062 173.023438 17.296875 173.023438 17.921875 C 173.023438 18.550781 173.53125 19.058594 174.15625 19.058594 C 174.78125 19.058594 175.289062 18.550781 175.289062 17.921875 Z M 175.289062 17.921875 "/>
<path fill-rule="nonzero" fill="rgb(0%, 0%, 0%)" fill-opacity="1" d="M 21.621094 129.570312 C 21.621094 128.941406 21.113281 128.4375 20.488281 128.4375 C 19.859375 128.4375 19.351562 128.941406 19.351562 129.570312 C 19.351562 130.195312 19.859375 130.703125 20.488281 130.703125 C 21.113281 130.703125 21.621094 130.195312 21.621094 129.570312 Z M 21.621094 129.570312 "/>
<path fill-rule="nonzero" fill="rgb(0%, 0%, 0%)" fill-opacity="1" d="M 80.320312 310.21875 C 80.320312 309.59375 79.8125 309.085938 79.183594 309.085938 C 78.558594 309.085938 78.050781 309.59375 78.050781 310.21875 C 78.050781 310.84375 78.558594 311.351562 79.183594 311.351562 C 79.8125 311.351562 80.320312 310.84375 80.320312 310.21875 Z M 80.320312 310.21875 "/>
<path fill-rule="nonzero" fill="rgb(0%, 0%, 0%)" fill-opacity="1" d="M 270.261719 310.21875 C 270.261719 309.59375 269.753906 309.085938 269.128906 309.085938 C 268.503906 309.085938 267.996094 309.59375 267.996094 310.21875 C 267.996094 310.84375 268.503906 311.351562 269.128906 311.351562 C 269.753906 311.351562 270.261719 310.84375 270.261719 310.21875 Z M 270.261719 310.21875 "/>
<path fill-rule="nonzero" fill="rgb(0%, 0%, 0%)" fill-opacity="1" d="M 328.960938 129.570312 C 328.960938 128.941406 328.453125 128.4375 327.828125 128.4375 C 327.199219 128.4375 326.691406 128.941406 326.691406 129.570312 C 326.691406 130.195312 327.199219 130.703125 327.828125 130.703125 C 328.453125 130.703125 328.960938 130.195312 328.960938 129.570312 Z M 328.960938 129.570312 "/>
<path fill-rule="nonzero" fill="rgb(0%, 0%, 0%)" fill-opacity="1" d="M 175.289062 129.570312 C 175.289062 128.941406 174.78125 128.4375 174.15625 128.4375 C 173.53125 128.4375 173.023438 128.941406 173.023438 129.570312 C 173.023438 130.195312 173.53125 130.703125 174.15625 130.703125 C 174.78125 130.703125 175.289062 130.195312 175.289062 129.570312 Z M 175.289062 129.570312 "/>
<path fill-rule="nonzero" fill="rgb(0%, 0%, 0%)" fill-opacity="1" d="M 127.804688 164.070312 C 127.804688 163.445312 127.296875 162.9375 126.671875 162.9375 C 126.042969 162.9375 125.535156 163.445312 125.535156 164.070312 C 125.535156 164.695312 126.042969 165.203125 126.671875 165.203125 C 127.296875 165.203125 127.804688 164.695312 127.804688 164.070312 Z M 127.804688 164.070312 "/>
<path fill-rule="nonzero" fill="rgb(0%, 0%, 0%)" fill-opacity="1" d="M 145.941406 219.894531 C 145.941406 219.269531 145.433594 218.761719 144.808594 218.761719 C 144.183594 218.761719 143.675781 219.269531 143.675781 219.894531 C 143.675781 220.519531 144.183594 221.027344 144.808594 221.027344 C 145.433594 221.027344 145.941406 220.519531 145.941406 219.894531 Z M 145.941406 219.894531 "/>
<path fill-rule="nonzero" fill="rgb(0%, 0%, 0%)" fill-opacity="1" d="M 204.640625 219.894531 C 204.640625 219.269531 204.132812 218.761719 203.503906 218.761719 C 202.878906 218.761719 202.371094 219.269531 202.371094 219.894531 C 202.371094 220.519531 202.878906 221.027344 203.503906 221.027344 C 204.132812 221.027344 204.640625 220.519531 204.640625 219.894531 Z M 204.640625 219.894531 "/>
<path fill-rule="nonzero" fill="rgb(0%, 0%, 0%)" fill-opacity="1" d="M 222.777344 164.070312 C 222.777344 163.445312 222.269531 162.9375 221.644531 162.9375 C 221.015625 162.9375 220.507812 163.445312 220.507812 164.070312 C 220.507812 164.695312 221.015625 165.203125 221.644531 165.203125 C 222.269531 165.203125 222.777344 164.695312 222.777344 164.070312 Z M 222.777344 164.070312 "/>
<path fill-rule="nonzero" fill="rgb(0%, 0%, 0%)" fill-opacity="1" d="M 139.015625 129.570312 C 139.015625 128.941406 138.507812 128.4375 137.882812 128.4375 C 137.253906 128.4375 136.746094 128.941406 136.746094 129.570312 C 136.746094 130.195312 137.253906 130.703125 137.882812 130.703125 C 138.507812 130.703125 139.015625 130.195312 139.015625 129.570312 Z M 139.015625 129.570312 "/>
<path fill-rule="nonzero" fill="rgb(0%, 0%, 0%)" fill-opacity="1" d="M 116.59375 198.574219 C 116.59375 197.945312 116.085938 197.4375 115.460938 197.4375 C 114.835938 197.4375 114.328125 197.945312 114.328125 198.574219 C 114.328125 199.199219 114.835938 199.707031 115.460938 199.707031 C 116.085938 199.707031 116.59375 199.199219 116.59375 198.574219 Z M 116.59375 198.574219 "/>
<path fill-rule="nonzero" fill="rgb(0%, 0%, 0%)" fill-opacity="1" d="M 175.289062 241.21875 C 175.289062 240.589844 174.78125 240.082031 174.15625 240.082031 C 173.53125 240.082031 173.023438 240.589844 173.023438 241.21875 C 173.023438 241.84375 173.53125 242.351562 174.15625 242.351562 C 174.78125 242.351562 175.289062 241.84375 175.289062 241.21875 Z M 175.289062 241.21875 "/>
<path fill-rule="nonzero" fill="rgb(0%, 0%, 0%)" fill-opacity="1" d="M 233.988281 198.574219 C 233.988281 197.945312 233.480469 197.4375 232.851562 197.4375 C 232.226562 197.4375 231.71875 197.945312 231.71875 198.574219 C 231.71875 199.199219 232.226562 199.707031 232.851562 199.707031 C 233.480469 199.707031 233.988281 199.199219 233.988281 198.574219 Z M 233.988281 198.574219 "/>
<path fill-rule="nonzero" fill="rgb(0%, 0%, 0%)" fill-opacity="1" d="M 211.566406 129.570312 C 211.566406 128.941406 211.058594 128.4375 210.433594 128.4375 C 209.808594 128.4375 209.300781 128.941406 209.300781 129.570312 C 209.300781 130.195312 209.808594 130.703125 210.433594 130.703125 C 211.058594 130.703125 211.566406 130.195312 211.566406 129.570312 Z M 211.566406 129.570312 "/>
<path fill="none" stroke-width="0.29887" stroke-linecap="butt" stroke-linejoin="miter" stroke="rgb(0%, 0%, 0%)" stroke-opacity="1" stroke-miterlimit="10" d="M -0.00075 161.578125 L -153.668719 49.929688 L -94.973406 -130.71875 L 94.971906 -130.71875 L 153.671125 49.929688 Z M -0.00075 161.578125 " transform="matrix(1, 0, 0, -1, 174.157, 179.5)"/>
<path fill="none" stroke-width="0.29887" stroke-linecap="butt" stroke-linejoin="miter" stroke="rgb(0%, 0%, 0%)" stroke-opacity="1" stroke-miterlimit="10" d="M -0.00075 161.578125 L -94.973406 -130.71875 L 153.671125 49.929688 L -153.668719 49.929688 L 94.971906 -130.71875 Z M -0.00075 161.578125 " transform="matrix(1, 0, 0, -1, 174.157, 179.5)"/>
<path fill="none" stroke-width="0.29887" stroke-linecap="butt" stroke-linejoin="miter" stroke="rgb(0%, 0%, 0%)" stroke-opacity="1" stroke-dasharray="2.98883 2.98883" stroke-miterlimit="10" d="M -0.00075 0.000000000000028422 L -0.00075 161.578125 " transform="matrix(1, 0, 0, -1, 174.157, 179.5)"/>
<path fill="none" stroke-width="0.29887" stroke-linecap="butt" stroke-linejoin="miter" stroke="rgb(0%, 0%, 0%)" stroke-opacity="1" stroke-dasharray="2.98883 2.98883" stroke-miterlimit="10" d="M -0.00075 0.000000000000028422 L -153.668719 49.929688 " transform="matrix(1, 0, 0, -1, 174.157, 179.5)"/>
<path fill="none" stroke-width="0.29887" stroke-linecap="butt" stroke-linejoin="miter" stroke="rgb(0%, 0%, 0%)" stroke-opacity="1" stroke-dasharray="2.98883 2.98883" stroke-miterlimit="10" d="M -0.00075 0.000000000000028422 L -94.973406 -130.71875 " transform="matrix(1, 0, 0, -1, 174.157, 179.5)"/>
<path fill="none" stroke-width="0.29887" stroke-linecap="butt" stroke-linejoin="miter" stroke="rgb(0%, 0%, 0%)" stroke-opacity="1" stroke-dasharray="2.98883 2.98883" stroke-miterlimit="10" d="M -0.00075 0.000000000000028422 L 94.971906 -130.71875 " transform="matrix(1, 0, 0, -1, 174.157, 179.5)"/>
<path fill="none" stroke-width="0.29887" stroke-linecap="butt" stroke-linejoin="miter" stroke="rgb(0%, 0%, 0%)" stroke-opacity="1" stroke-dasharray="2.98883 2.98883" stroke-miterlimit="10" d="M -0.00075 0.000000000000028422 L 153.671125 49.929688 " transform="matrix(1, 0, 0, -1, 174.157, 179.5)"/>
<path fill="none" stroke-width="0.29887" stroke-linecap="butt" stroke-linejoin="miter" stroke="rgb(0%, 0%, 0%)" stroke-opacity="1" stroke-dasharray="2.98883 2.98883" stroke-miterlimit="10" d="M -0.00075 0.000000000000028422 L -36.274188 49.929688 " transform="matrix(1, 0, 0, -1, 174.157, 179.5)"/>
<path fill="none" stroke-width="0.29887" stroke-linecap="butt" stroke-linejoin="miter" stroke="rgb(0%, 0%, 0%)" stroke-opacity="1" stroke-dasharray="2.98883 2.98883" stroke-miterlimit="10" d="M -0.00075 0.000000000000028422 L -58.696063 -19.074219 " transform="matrix(1, 0, 0, -1, 174.157, 179.5)"/>
<path fill="none" stroke-width="0.29887" stroke-linecap="butt" stroke-linejoin="miter" stroke="rgb(0%, 0%, 0%)" stroke-opacity="1" stroke-dasharray="2.98883 2.98883" stroke-miterlimit="10" d="M -0.00075 0.000000000000028422 L -0.00075 -61.71875 " transform="matrix(1, 0, 0, -1, 174.157, 179.5)"/>
<path fill="none" stroke-width="0.29887" stroke-linecap="butt" stroke-linejoin="miter" stroke="rgb(0%, 0%, 0%)" stroke-opacity="1" stroke-dasharray="2.98883 2.98883" stroke-miterlimit="10" d="M -0.00075 0.000000000000028422 L 58.694562 -19.074219 " transform="matrix(1, 0, 0, -1, 174.157, 179.5)"/>
<path fill="none" stroke-width="0.29887" stroke-linecap="butt" stroke-linejoin="miter" stroke="rgb(0%, 0%, 0%)" stroke-opacity="1" stroke-dasharray="2.98883 2.98883" stroke-miterlimit="10" d="M -0.00075 0.000000000000028422 L 36.276594 49.929688 " transform="matrix(1, 0, 0, -1, 174.157, 179.5)"/>
<g clip-path="url(#clip-0)">
<path fill="none" stroke-width="0.29887" stroke-linecap="butt" stroke-linejoin="miter" stroke="rgb(0%, 0%, 0%)" stroke-opacity="1" stroke-miterlimit="10" d="M 161.577375 0.000000000000028422 C 161.577375 89.238281 89.237531 161.578125 -0.00075 161.578125 C -89.239031 161.578125 -161.574969 89.238281 -161.574969 0.000000000000028422 C -161.574969 -89.238281 -89.239031 -161.578125 -0.00075 -161.578125 C 89.237531 -161.578125 161.577375 -89.238281 161.577375 0.000000000000028422 Z M 161.577375 0.000000000000028422 " transform="matrix(1, 0, 0, -1, 174.157, 179.5)"/>
</g>
<g fill="rgb(0%, 0%, 0%)" fill-opacity="1">
<use xlink:href="#glyph-0-0" x="162.812" y="182.904"/>
</g>
<g fill="rgb(0%, 0%, 0%)" fill-opacity="1">
<use xlink:href="#glyph-0-1" x="168.724" y="12.962"/>
</g>
<g fill="rgb(0%, 0%, 0%)" fill-opacity="1">
<use xlink:href="#glyph-1-0" x="175.12" y="14.456"/>
</g>
<g fill="rgb(0%, 0%, 0%)" fill-opacity="1">
<use xlink:href="#glyph-0-1" x="6.154" y="132.227"/>
</g>
<g fill="rgb(0%, 0%, 0%)" fill-opacity="1">
<use xlink:href="#glyph-1-1" x="12.55" y="133.722"/>
</g>
<g fill="rgb(0%, 0%, 0%)" fill-opacity="1">
<use xlink:href="#glyph-0-1" x="64.852" y="312.874"/>
</g>
<g fill="rgb(0%, 0%, 0%)" fill-opacity="1">
<use xlink:href="#glyph-1-2" x="71.248" y="314.368"/>
</g>
<g fill="rgb(0%, 0%, 0%)" fill-opacity="1">
<use xlink:href="#glyph-0-1" x="263.695" y="320.494"/>
</g>
<g fill="rgb(0%, 0%, 0%)" fill-opacity="1">
<use xlink:href="#glyph-1-3" x="270.091" y="321.988"/>
</g>
<g fill="rgb(0%, 0%, 0%)" fill-opacity="1">
<use xlink:href="#glyph-0-1" x="331.294" y="132.227"/>
</g>
<g fill="rgb(0%, 0%, 0%)" fill-opacity="1">
<use xlink:href="#glyph-1-4" x="337.69" y="133.722"/>
</g>
<g fill="rgb(0%, 0%, 0%)" fill-opacity="1">
<use xlink:href="#glyph-0-2" x="161.839" y="139.847"/>
</g>
<g fill="rgb(0%, 0%, 0%)" fill-opacity="1">
<use xlink:href="#glyph-1-0" x="166.218" y="141.342"/>
</g>
<g fill="rgb(0%, 0%, 0%)" fill-opacity="1">
<use xlink:href="#glyph-0-2" x="128.646" y="176.937"/>
</g>
<g fill="rgb(0%, 0%, 0%)" fill-opacity="1">
<use xlink:href="#glyph-1-1" x="133.025" y="178.431"/>
</g>
<g fill="rgb(0%, 0%, 0%)" fill-opacity="1">
<use xlink:href="#glyph-0-2" x="148.278" y="214.931"/>
</g>
<g fill="rgb(0%, 0%, 0%)" fill-opacity="1">
<use xlink:href="#glyph-1-2" x="152.658" y="216.425"/>
</g>
<g fill="rgb(0%, 0%, 0%)" fill-opacity="1">
<use xlink:href="#glyph-0-2" x="199.08" y="214.931"/>
</g>
<g fill="rgb(0%, 0%, 0%)" fill-opacity="1">
<use xlink:href="#glyph-1-3" x="203.46" y="216.425"/>
</g>
<g fill="rgb(0%, 0%, 0%)" fill-opacity="1">
<use xlink:href="#glyph-0-2" x="209.325" y="159.108"/>
</g>
<g fill="rgb(0%, 0%, 0%)" fill-opacity="1">
<use xlink:href="#glyph-1-4" x="213.704" y="160.602"/>
</g>
<g fill="rgb(0%, 0%, 0%)" fill-opacity="1">
<use xlink:href="#glyph-0-3" x="123.834" y="124.607"/>
</g>
<g fill="rgb(0%, 0%, 0%)" fill-opacity="1">
<use xlink:href="#glyph-1-0" x="129.943" y="126.101"/>
</g>
<g fill="rgb(0%, 0%, 0%)" fill-opacity="1">
<use xlink:href="#glyph-0-3" x="101.414" y="201.229"/>
</g>
<g fill="rgb(0%, 0%, 0%)" fill-opacity="1">
<use xlink:href="#glyph-1-1" x="107.523" y="202.723"/>
</g>
<g fill="rgb(0%, 0%, 0%)" fill-opacity="1">
<use xlink:href="#glyph-0-3" x="168.868" y="251.494"/>
</g>
<g fill="rgb(0%, 0%, 0%)" fill-opacity="1">
<use xlink:href="#glyph-1-2" x="174.977" y="252.988"/>
</g>
<g fill="rgb(0%, 0%, 0%)" fill-opacity="1">
<use xlink:href="#glyph-0-3" x="236.321" y="201.229"/>
</g>
<g fill="rgb(0%, 0%, 0%)" fill-opacity="1">
<use xlink:href="#glyph-1-3" x="242.43" y="202.723"/>
</g>
<g fill="rgb(0%, 0%, 0%)" fill-opacity="1">
<use xlink:href="#glyph-0-3" x="213.902" y="124.607"/>
</g>
<g fill="rgb(0%, 0%, 0%)" fill-opacity="1">
<use xlink:href="#glyph-1-4" x="220.011" y="126.101"/>
</g>
<g fill="rgb(0%, 0%, 0%)" fill-opacity="1">
<use xlink:href="#glyph-0-4" x="137.373" y="85.531"/>
</g>
<g fill="rgb(0%, 0%, 0%)" fill-opacity="1">
<use xlink:href="#glyph-1-0" x="142.64" y="87.025"/>
</g>
<g fill="rgb(0%, 0%, 0%)" fill-opacity="1">
<use xlink:href="#glyph-0-4" x="69.016" y="182.18"/>
</g>
<g fill="rgb(0%, 0%, 0%)" fill-opacity="1">
<use xlink:href="#glyph-1-1" x="74.282" y="183.674"/>
</g>
<g fill="rgb(0%, 0%, 0%)" fill-opacity="1">
<use xlink:href="#glyph-0-4" x="144.386" y="273.126"/>
</g>
<g fill="rgb(0%, 0%, 0%)" fill-opacity="1">
<use xlink:href="#glyph-1-2" x="149.652" y="274.62"/>
</g>
<g fill="rgb(0%, 0%, 0%)" fill-opacity="1">
<use xlink:href="#glyph-0-4" x="249.018" y="232.685"/>
</g>
<g fill="rgb(0%, 0%, 0%)" fill-opacity="1">
<use xlink:href="#glyph-1-3" x="254.284" y="234.18"/>
</g>
<g fill="rgb(0%, 0%, 0%)" fill-opacity="1">
<use xlink:href="#glyph-0-4" x="246.653" y="124.607"/>
</g>
<g fill="rgb(0%, 0%, 0%)" fill-opacity="1">
<use xlink:href="#glyph-1-4" x="251.919" y="126.101"/>
</g>
<g fill="rgb(0%, 0%, 0%)" fill-opacity="1">
<use xlink:href="#glyph-0-5" x="201.205" y="85.531"/>
</g>
<g fill="rgb(0%, 0%, 0%)" fill-opacity="1">
<use xlink:href="#glyph-1-0" x="205.481" y="87.025"/>
</g>
<g fill="rgb(0%, 0%, 0%)" fill-opacity="1">
<use xlink:href="#glyph-0-5" x="92.421" y="124.607"/>
</g>
<g fill="rgb(0%, 0%, 0%)" fill-opacity="1">
<use xlink:href="#glyph-1-1" x="96.696" y="126.101"/>
</g>
<g fill="rgb(0%, 0%, 0%)" fill-opacity="1">
<use xlink:href="#glyph-0-5" x="90.551" y="232.685"/>
</g>
<g fill="rgb(0%, 0%, 0%)" fill-opacity="1">
<use xlink:href="#glyph-1-2" x="94.827" y="234.18"/>
</g>
<g fill="rgb(0%, 0%, 0%)" fill-opacity="1">
<use xlink:href="#glyph-0-5" x="195.183" y="275.755"/>
</g>
<g fill="rgb(0%, 0%, 0%)" fill-opacity="1">
<use xlink:href="#glyph-1-3" x="199.459" y="277.249"/>
</g>
<g fill="rgb(0%, 0%, 0%)" fill-opacity="1">
<use xlink:href="#glyph-0-5" x="269.562" y="184.809"/>
</g>
<g fill="rgb(0%, 0%, 0%)" fill-opacity="1">
<use xlink:href="#glyph-1-4" x="273.838" y="186.303"/>
</g>
<path fill="none" stroke-width="0.29887" stroke-linecap="butt" stroke-linejoin="miter" stroke="rgb(0%, 0%, 0%)" stroke-opacity="1" stroke-miterlimit="10" d="M -76.141375 103.796875 L -78.481219 107.019531 M -75.172625 104.5 L -77.516375 107.722656 " transform="matrix(1, 0, 0, -1, 174.157, 179.5)"/>
<path fill="none" stroke-width="0.29887" stroke-linecap="butt" stroke-linejoin="miter" stroke="rgb(0%, 0%, 0%)" stroke-opacity="1" stroke-miterlimit="10" d="M -122.242938 -40.34375 L -126.035906 -41.574219 M -122.614031 -39.207031 L -126.403094 -40.4375 " transform="matrix(1, 0, 0, -1, 174.157, 179.5)"/>
<path fill="none" stroke-width="0.29887" stroke-linecap="butt" stroke-linejoin="miter" stroke="rgb(0%, 0%, 0%)" stroke-opacity="1" stroke-miterlimit="10" d="M 0.596906 -128.726562 L 0.596906 -132.710937 M -0.598406 -128.726562 L -0.598406 -132.710937 " transform="matrix(1, 0, 0, -1, 174.157, 179.5)"/>
<path fill="none" stroke-width="0.29887" stroke-linecap="butt" stroke-linejoin="miter" stroke="rgb(0%, 0%, 0%)" stroke-opacity="1" stroke-miterlimit="10" d="M 122.608625 -39.214844 L 126.397687 -40.445312 M 122.237531 -40.351562 L 126.026594 -41.582031 " transform="matrix(1, 0, 0, -1, 174.157, 179.5)"/>
<path fill="none" stroke-width="0.29887" stroke-linecap="butt" stroke-linejoin="miter" stroke="rgb(0%, 0%, 0%)" stroke-opacity="1" stroke-miterlimit="10" d="M 75.18675 104.488281 L 77.5305 107.710938 M 76.1555 103.785156 L 78.495344 107.007813 " transform="matrix(1, 0, 0, -1, 174.157, 179.5)"/>
<g fill="rgb(0%, 0%, 0%)" fill-opacity="1">
<use xlink:href="#glyph-2-0" x="255.036" y="35.694"/>
</g>
<path fill="none" stroke-width="0.29887" stroke-linecap="butt" stroke-linejoin="miter" stroke="rgb(0%, 0%, 0%)" stroke-opacity="1" stroke-miterlimit="10" d="M -13.137469 121.136719 C -8.895281 119.757813 -4.461688 119.054688 -0.297625 119.054688 " transform="matrix(1, 0, 0, -1, 174.157, 179.5)"/>
<path fill="none" stroke-width="0.29887" stroke-linecap="round" stroke-linejoin="round" stroke="rgb(0%, 0%, 0%)" stroke-opacity="1" stroke-miterlimit="10" d="M -1.952883 2.209135 C -1.597414 0.884916 -0.800539 0.25601 0.0002425 -0.0018025 C -0.800539 -0.259615 -1.597414 -0.884615 -1.952883 -2.21274 " transform="matrix(1, 0, 0, -1, 174.00757, 60.44351)"/>
<g fill="rgb(0%, 0%, 0%)" fill-opacity="1">
<use xlink:href="#glyph-3-0" x="158.904" y="71.751"/>
<use xlink:href="#glyph-3-1" x="163.8853" y="71.751"/>
</g>
<g fill="rgb(0%, 0%, 0%)" fill-opacity="1">
<use xlink:href="#glyph-4-0" x="168.866" y="68.135"/>
</g>
<path fill="none" stroke-width="0.29887" stroke-linecap="butt" stroke-linejoin="miter" stroke="rgb(0%, 0%, 0%)" stroke-opacity="1" stroke-miterlimit="10" d="M -119.270281 24.9375 C -116.649188 28.546875 -114.610125 32.550781 -113.324969 36.507813 " transform="matrix(1, 0, 0, -1, 174.157, 179.5)"/>
<path fill="none" stroke-width="0.29887" stroke-linecap="round" stroke-linejoin="round" stroke="rgb(0%, 0%, 0%)" stroke-opacity="1" stroke-miterlimit="10" d="M -1.952082 2.212982 C -1.594096 0.883547 -0.799623 0.258609 -0.00111904 0.000523597 C -0.799862 -0.258977 -1.595206 -0.882916 -1.952443 -2.210607 " transform="matrix(0.30899, -0.95107, -0.95107, -0.30899, 60.87975, 142.85066)"/>
<g fill="rgb(0%, 0%, 0%)" fill-opacity="1">
<use xlink:href="#glyph-3-0" x="58.679" y="156.164"/>
<use xlink:href="#glyph-3-1" x="63.6603" y="156.164"/>
</g>
<g fill="rgb(0%, 0%, 0%)" fill-opacity="1">
<use xlink:href="#glyph-4-0" x="68.642" y="152.549"/>
</g>
<path fill="none" stroke-width="0.29887" stroke-linecap="butt" stroke-linejoin="miter" stroke="rgb(0%, 0%, 0%)" stroke-opacity="1" stroke-miterlimit="10" d="M -60.571063 -105.726562 C -63.196063 -102.117187 -66.371844 -98.941406 -69.739031 -96.496094 " transform="matrix(1, 0, 0, -1, 174.157, 179.5)"/>
<path fill="none" stroke-width="0.29887" stroke-linecap="round" stroke-linejoin="round" stroke="rgb(0%, 0%, 0%)" stroke-opacity="1" stroke-miterlimit="10" d="M -1.953049 2.211565 C -1.595836 0.88252 -0.799731 0.258628 0.00114529 0.000337657 C -0.800554 -0.258619 -1.59611 -0.884907 -1.951438 -2.210163 " transform="matrix(-0.809, -0.58777, -0.58777, 0.809, 104.298, 275.90665)"/>
<g fill="rgb(0%, 0%, 0%)" fill-opacity="1">
<use xlink:href="#glyph-3-0" x="107.993" y="277.568"/>
<use xlink:href="#glyph-3-1" x="112.9743" y="277.568"/>
</g>
<g fill="rgb(0%, 0%, 0%)" fill-opacity="1">
<use xlink:href="#glyph-4-0" x="117.956" y="273.953"/>
</g>
<path fill="none" stroke-width="0.29887" stroke-linecap="butt" stroke-linejoin="miter" stroke="rgb(0%, 0%, 0%)" stroke-opacity="1" stroke-miterlimit="10" d="M 81.831281 -90.28125 C 77.593 -91.65625 73.589094 -93.699219 70.221906 -96.144531 " transform="matrix(1, 0, 0, -1, 174.157, 179.5)"/>
<path fill="none" stroke-width="0.29887" stroke-linecap="round" stroke-linejoin="round" stroke="rgb(0%, 0%, 0%)" stroke-opacity="1" stroke-miterlimit="10" d="M -1.95293 2.210096 C -1.597602 0.88484 -0.802046 0.258552 -0.000346651 -0.000404819 C -0.801223 -0.258695 -1.594168 -0.884884 -1.954541 -2.211632 " transform="matrix(-0.809, 0.58777, 0.58777, 0.809, 244.25777, 275.731)"/>
<g fill="rgb(0%, 0%, 0%)" fill-opacity="1">
<use xlink:href="#glyph-3-0" x="238.693" y="268.186"/>
<use xlink:href="#glyph-3-1" x="243.6743" y="268.186"/>
</g>
<g fill="rgb(0%, 0%, 0%)" fill-opacity="1">
<use xlink:href="#glyph-4-0" x="248.655" y="264.57"/>
</g>
<path fill="none" stroke-width="0.29887" stroke-linecap="butt" stroke-linejoin="miter" stroke="rgb(0%, 0%, 0%)" stroke-opacity="1" stroke-miterlimit="10" d="M 111.151594 49.929688 C 111.151594 45.46875 111.850812 41.035156 113.139875 37.074219 " transform="matrix(1, 0, 0, -1, 174.157, 179.5)"/>
<path fill="none" stroke-width="0.29887" stroke-linecap="round" stroke-linejoin="round" stroke="rgb(0%, 0%, 0%)" stroke-opacity="1" stroke-miterlimit="10" d="M -1.951972 2.209179 C -1.597244 0.886411 -0.799391 0.25755 0.000558549 0.00176371 C -0.802868 -0.25883 -1.597341 -0.883768 -1.95412 -2.209488 " transform="matrix(0.30899, 0.95107, 0.95107, -0.30899, 287.3419, 142.56642)"/>
<g fill="rgb(0%, 0%, 0%)" fill-opacity="1">
<use xlink:href="#glyph-3-0" x="270.159" y="140.981"/>
<use xlink:href="#glyph-3-1" x="275.1403" y="140.981"/>
</g>
<g fill="rgb(0%, 0%, 0%)" fill-opacity="1">
<use xlink:href="#glyph-4-0" x="280.122" y="137.366"/>
</g>
<path fill="none" stroke-width="0.29887" stroke-linecap="butt" stroke-linejoin="miter" stroke="rgb(0%, 0%, 0%)" stroke-opacity="1" stroke-miterlimit="10" d="M -0.00075 119.054688 C 4.460187 119.054688 8.897687 119.757813 12.854719 121.046875 " transform="matrix(1, 0, 0, -1, 174.157, 179.5)"/>
<path fill="none" stroke-width="0.29887" stroke-linecap="round" stroke-linejoin="round" stroke="rgb(0%, 0%, 0%)" stroke-opacity="1" stroke-miterlimit="10" d="M -1.95332 2.209827 C -1.594877 0.885852 -0.80074 0.258198 -0.00199658 -0.00130309 C -0.800501 -0.259389 -1.594974 -0.884327 -1.951753 -2.210047 " transform="matrix(0.95107, -0.30899, -0.30899, -0.95107, 187.15384, 58.4083)"/>
<g fill="rgb(0%, 0%, 0%)" fill-opacity="1">
<use xlink:href="#glyph-3-0" x="174.867" y="71.75"/>
<use xlink:href="#glyph-3-1" x="179.8483" y="71.75"/>
</g>
<g fill="rgb(0%, 0%, 0%)" fill-opacity="1">
<use xlink:href="#glyph-4-0" x="184.829" y="68.135"/>
</g>
<path fill="none" stroke-width="0.29887" stroke-linecap="butt" stroke-linejoin="miter" stroke="rgb(0%, 0%, 0%)" stroke-opacity="1" stroke-miterlimit="10" d="M -113.231219 36.792969 C -111.852313 41.035156 -111.149188 45.46875 -111.149188 49.632813 " transform="matrix(1, 0, 0, -1, 174.157, 179.5)"/>
<path fill="none" stroke-width="0.29887" stroke-linecap="round" stroke-linejoin="round" stroke="rgb(0%, 0%, 0%)" stroke-opacity="1" stroke-miterlimit="10" d="M -1.952875 2.210425 C -1.597406 0.886206 -0.800531 0.2573 0.00025 -0.0005125 C -0.800531 -0.258325 -1.597406 -0.883325 -1.952875 -2.21145 " transform="matrix(0, -1, -1, 0, 63.0073, 129.719)"/>
<g fill="rgb(0%, 0%, 0%)" fill-opacity="1">
<use xlink:href="#glyph-3-0" x="63.613" y="140.982"/>
<use xlink:href="#glyph-3-1" x="68.5943" y="140.982"/>
</g>
<g fill="rgb(0%, 0%, 0%)" fill-opacity="1">
<use xlink:href="#glyph-4-0" x="73.575" y="137.367"/>
</g>
<path fill="none" stroke-width="0.29887" stroke-linecap="butt" stroke-linejoin="miter" stroke="rgb(0%, 0%, 0%)" stroke-opacity="1" stroke-miterlimit="10" d="M -69.981219 -96.320312 C -73.586688 -93.699219 -77.590594 -91.65625 -81.547625 -90.371094 " transform="matrix(1, 0, 0, -1, 174.157, 179.5)"/>
<path fill="none" stroke-width="0.29887" stroke-linecap="round" stroke-linejoin="round" stroke="rgb(0%, 0%, 0%)" stroke-opacity="1" stroke-miterlimit="10" d="M -1.952875 2.210059 C -1.596096 0.884339 -0.801623 0.259401 0.00180294 -0.00119251 C -0.801862 -0.258185 -1.595999 -0.885839 -1.954443 -2.209815 " transform="matrix(-0.95107, -0.30899, -0.30899, 0.95107, 92.46619, 269.82591)"/>
<g fill="rgb(0%, 0%, 0%)" fill-opacity="1">
<use xlink:href="#glyph-3-0" x="95.078" y="268.186"/>
<use xlink:href="#glyph-3-1" x="100.0593" y="268.186"/>
</g>
<g fill="rgb(0%, 0%, 0%)" fill-opacity="1">
<use xlink:href="#glyph-4-0" x="105.041" y="264.57"/>
</g>
<path fill="none" stroke-width="0.29887" stroke-linecap="butt" stroke-linejoin="miter" stroke="rgb(0%, 0%, 0%)" stroke-opacity="1" stroke-miterlimit="10" d="M 69.979719 -96.320312 C 66.370344 -98.941406 63.194562 -102.117187 60.74925 -105.484375 " transform="matrix(1, 0, 0, -1, 174.157, 179.5)"/>
<path fill="none" stroke-width="0.29887" stroke-linecap="round" stroke-linejoin="round" stroke="rgb(0%, 0%, 0%)" stroke-opacity="1" stroke-miterlimit="10" d="M -1.953093 2.210454 C -1.598167 0.88458 -0.799765 0.257537 0.0011081 -0.000744665 C -0.800584 -0.259706 -1.596131 -0.885997 -1.951446 -2.211248 " transform="matrix(-0.58778, 0.809, 0.809, 0.58778, 234.81766, 285.10501)"/>
<g fill="rgb(0%, 0%, 0%)" fill-opacity="1">
<use xlink:href="#glyph-3-0" x="225.778" y="277.569"/>
<use xlink:href="#glyph-3-1" x="230.7593" y="277.569"/>
</g>
<g fill="rgb(0%, 0%, 0%)" fill-opacity="1">
<use xlink:href="#glyph-4-0" x="235.741" y="273.954"/>
</g>
<path fill="none" stroke-width="0.29887" stroke-linecap="butt" stroke-linejoin="miter" stroke="rgb(0%, 0%, 0%)" stroke-opacity="1" stroke-miterlimit="10" d="M 113.229719 36.792969 C 114.608625 32.550781 116.647687 28.546875 119.096906 25.179688 " transform="matrix(1, 0, 0, -1, 174.157, 179.5)"/>
<path fill="none" stroke-width="0.29887" stroke-linecap="round" stroke-linejoin="round" stroke="rgb(0%, 0%, 0%)" stroke-opacity="1" stroke-miterlimit="10" d="M -1.952613 2.210378 C -1.597298 0.885126 -0.801751 0.258836 -0.0000588508 -0.00012566 C -0.800932 -0.258408 -1.593878 -0.884586 -1.95426 -2.211324 " transform="matrix(0.58778, 0.809, 0.809, -0.58778, 293.33998, 154.44138)"/>
<g fill="rgb(0%, 0%, 0%)" fill-opacity="1">
<use xlink:href="#glyph-3-0" x="275.092" y="156.164"/>
<use xlink:href="#glyph-3-1" x="280.0733" y="156.164"/>
</g>
<g fill="rgb(0%, 0%, 0%)" fill-opacity="1">
<use xlink:href="#glyph-4-0" x="285.055" y="152.549"/>
</g>
<path fill="none" stroke-width="0.29887" stroke-linecap="butt" stroke-linejoin="miter" stroke="rgb(0%, 0%, 0%)" stroke-opacity="1" stroke-miterlimit="10" d="M -85.336688 -101.0625 C -91.598406 -99.027344 -98.3445 -99.027344 -104.321063 -100.972656 " transform="matrix(1, 0, 0, -1, 174.157, 179.5)"/>
<path fill="none" stroke-width="0.29887" stroke-linecap="round" stroke-linejoin="round" stroke="rgb(0%, 0%, 0%)" stroke-opacity="1" stroke-miterlimit="10" d="M -1.951307 2.209584 C -1.597785 0.883101 -0.802441 0.259162 0.0000169203 -0.00154587 C -0.802202 -0.258425 -1.596675 -0.883362 -1.953454 -2.209083 " transform="matrix(-0.95107, 0.30899, 0.30899, 0.95107, 69.6919, 280.51709)"/>
<g fill="rgb(0%, 0%, 0%)" fill-opacity="1">
<use xlink:href="#glyph-3-2" x="71.915" y="273.112"/>
<use xlink:href="#glyph-3-3" x="76.8963" y="273.112"/>
</g>
<g fill="rgb(0%, 0%, 0%)" fill-opacity="1">
<use xlink:href="#glyph-4-0" x="81.878" y="269.497"/>
</g>
<path fill="none" stroke-width="0.29887" stroke-linecap="butt" stroke-linejoin="miter" stroke="rgb(0%, 0%, 0%)" stroke-opacity="1" stroke-miterlimit="10" d="M -25.227313 143.25 C -21.356219 137.921875 -15.895281 133.957031 -9.918719 132.015625 " transform="matrix(1, 0, 0, -1, 174.157, 179.5)"/>
<path fill="none" stroke-width="0.29887" stroke-linecap="round" stroke-linejoin="round" stroke="rgb(0%, 0%, 0%)" stroke-opacity="1" stroke-miterlimit="10" d="M -1.950765 2.209667 C -1.593986 0.883947 -0.799513 0.259009 -0.00100847 0.000923583 C -0.799752 -0.258577 -1.595096 -0.882516 -1.952332 -2.210207 " transform="matrix(0.95107, 0.30899, 0.30899, -0.95107, 164.37958, 47.53244)"/>
<g fill="rgb(0%, 0%, 0%)" fill-opacity="1">
<use xlink:href="#glyph-3-2" x="143.06" y="54.149"/>
<use xlink:href="#glyph-3-3" x="148.0413" y="54.149"/>
</g>
<g fill="rgb(0%, 0%, 0%)" fill-opacity="1">
<use xlink:href="#glyph-4-0" x="153.023" y="50.534"/>
</g>
<path fill="none" stroke-width="0.29887" stroke-linecap="butt" stroke-linejoin="miter" stroke="rgb(0%, 0%, 0%)" stroke-opacity="1" stroke-miterlimit="10" d="M 69.745344 -112.390625 C 65.87425 -117.714844 63.788312 -124.136719 63.788312 -130.417969 " transform="matrix(1, 0, 0, -1, 174.157, 179.5)"/>
<path fill="none" stroke-width="0.29887" stroke-linecap="round" stroke-linejoin="round" stroke="rgb(0%, 0%, 0%)" stroke-opacity="1" stroke-miterlimit="10" d="M -1.951963 2.212906 C -1.596494 0.884781 -0.799619 0.259781 0.0011625 -0.0019375 C -0.799619 -0.25975 -1.596494 -0.88475 -1.951963 -2.212875 " transform="matrix(0, 1, 1, 0, 237.94725, 310.06915)"/>
<g fill="rgb(0%, 0%, 0%)" fill-opacity="1">
<use xlink:href="#glyph-3-2" x="223.305" y="301.121"/>
<use xlink:href="#glyph-3-3" x="228.2863" y="301.121"/>
</g>
<g fill="rgb(0%, 0%, 0%)" fill-opacity="1">
<use xlink:href="#glyph-4-0" x="233.267" y="297.506"/>
</g>
<path fill="none" stroke-width="0.29887" stroke-linecap="butt" stroke-linejoin="miter" stroke="rgb(0%, 0%, 0%)" stroke-opacity="1" stroke-miterlimit="10" d="M -144.035906 20.273438 C -137.774188 22.308594 -132.31325 26.277344 -128.617938 31.359375 " transform="matrix(1, 0, 0, -1, 174.157, 179.5)"/>
<path fill="none" stroke-width="0.29887" stroke-linecap="round" stroke-linejoin="round" stroke="rgb(0%, 0%, 0%)" stroke-opacity="1" stroke-miterlimit="10" d="M -1.952066 2.21322 C -1.594844 0.884186 -0.801899 0.258007 -0.00102531 -0.000275226 C -0.799557 -0.256941 -1.595104 -0.883231 -1.95358 -2.210779 " transform="matrix(0.58778, -0.809, -0.809, -0.58778, 45.62538, 148.01854)"/>
<g fill="rgb(0%, 0%, 0%)" fill-opacity="1">
<use xlink:href="#glyph-3-2" x="37.043" y="165.794"/>
<use xlink:href="#glyph-3-3" x="42.0243" y="165.794"/>
</g>
<g fill="rgb(0%, 0%, 0%)" fill-opacity="1">
<use xlink:href="#glyph-4-0" x="47.006" y="162.179"/>
</g>
<path fill="none" stroke-width="0.29887" stroke-linecap="butt" stroke-linejoin="miter" stroke="rgb(0%, 0%, 0%)" stroke-opacity="1" stroke-miterlimit="10" d="M 128.444562 31.601563 C 132.31175 26.277344 137.772687 22.308594 143.74925 20.367188 " transform="matrix(1, 0, 0, -1, 174.157, 179.5)"/>
<path fill="none" stroke-width="0.29887" stroke-linecap="round" stroke-linejoin="round" stroke="rgb(0%, 0%, 0%)" stroke-opacity="1" stroke-miterlimit="10" d="M -1.953158 2.210718 C -1.596379 0.884998 -0.800699 0.256345 0.00152058 -0.000533773 C -0.802145 -0.257527 -1.596282 -0.885181 -1.953518 -2.212871 " transform="matrix(0.95107, 0.30899, 0.30899, -0.95107, 318.0495, 159.17871)"/>
<g fill="rgb(0%, 0%, 0%)" fill-opacity="1">
<use xlink:href="#glyph-3-2" x="296.728" y="165.794"/>
<use xlink:href="#glyph-3-3" x="301.7093" y="165.794"/>
</g>
<g fill="rgb(0%, 0%, 0%)" fill-opacity="1">
<use xlink:href="#glyph-4-0" x="306.691" y="162.179"/>
</g>
<path fill="none" stroke-width="0.29887" stroke-linecap="butt" stroke-linejoin="miter" stroke="rgb(0%, 0%, 0%)" stroke-opacity="1" stroke-miterlimit="10" d="M -63.789813 -130.71875 C -63.789813 -124.136719 -65.87575 -117.714844 -69.571063 -112.632812 " transform="matrix(1, 0, 0, -1, 174.157, 179.5)"/>
<path fill="none" stroke-width="0.29887" stroke-linecap="round" stroke-linejoin="round" stroke="rgb(0%, 0%, 0%)" stroke-opacity="1" stroke-miterlimit="10" d="M -1.953375 2.20995 C -1.59806 0.884699 -0.802513 0.258408 -0.000820712 -0.000553278 C -0.801694 -0.258835 -1.59464 -0.885014 -1.955022 -2.211752 " transform="matrix(-0.58778, -0.809, -0.809, 0.58778, 104.49907, 292.01138)"/>
<g fill="rgb(0%, 0%, 0%)" fill-opacity="1">
<use xlink:href="#glyph-3-2" x="110.466" y="301.121"/>
<use xlink:href="#glyph-3-3" x="115.4473" y="301.121"/>
</g>
<g fill="rgb(0%, 0%, 0%)" fill-opacity="1">
<use xlink:href="#glyph-4-0" x="120.429" y="297.506"/>
</g>
<path fill="none" stroke-width="0.29887" stroke-linecap="butt" stroke-linejoin="miter" stroke="rgb(0%, 0%, 0%)" stroke-opacity="1" stroke-miterlimit="10" d="M 9.635969 131.921875 C 15.897687 133.957031 21.358625 137.921875 25.050031 143.007813 " transform="matrix(1, 0, 0, -1, 174.157, 179.5)"/>
<path fill="none" stroke-width="0.29887" stroke-linecap="round" stroke-linejoin="round" stroke="rgb(0%, 0%, 0%)" stroke-opacity="1" stroke-miterlimit="10" d="M -1.953015 2.210755 C -1.598099 0.884871 -0.799697 0.257818 0.00117899 -0.000472217 C -0.80052 -0.259429 -1.596077 -0.885717 -1.951405 -2.210973 " transform="matrix(0.58777, -0.809, -0.809, -0.58777, 199.2958, 36.37177)"/>
<g fill="rgb(0%, 0%, 0%)" fill-opacity="1">
<use xlink:href="#glyph-3-2" x="190.712" y="54.149"/>
<use xlink:href="#glyph-3-3" x="195.6933" y="54.149"/>
</g>
<g fill="rgb(0%, 0%, 0%)" fill-opacity="1">
<use xlink:href="#glyph-4-0" x="200.675" y="50.534"/>
</g>
<path fill="none" stroke-width="0.29887" stroke-linecap="butt" stroke-linejoin="miter" stroke="rgb(0%, 0%, 0%)" stroke-opacity="1" stroke-miterlimit="10" d="M 104.608625 -101.0625 C 98.346906 -99.027344 91.596906 -99.027344 85.620344 -100.972656 " transform="matrix(1, 0, 0, -1, 174.157, 179.5)"/>
<path fill="none" stroke-width="0.29887" stroke-linecap="round" stroke-linejoin="round" stroke="rgb(0%, 0%, 0%)" stroke-opacity="1" stroke-miterlimit="10" d="M -1.952707 2.210039 C -1.595471 0.882349 -0.800127 0.25841 -0.00138352 -0.00109088 C -0.799888 -0.259177 -1.594361 -0.884114 -1.95114 -2.209835 " transform="matrix(-0.95107, 0.30899, 0.30899, 0.95107, 259.63574, 280.51709)"/>
<g fill="rgb(0%, 0%, 0%)" fill-opacity="1">
<use xlink:href="#glyph-3-2" x="261.856" y="273.112"/>
<use xlink:href="#glyph-3-3" x="266.8373" y="273.112"/>
</g>
<g fill="rgb(0%, 0%, 0%)" fill-opacity="1">
<use xlink:href="#glyph-4-0" x="271.819" y="269.497"/>
</g>
<path fill="none" stroke-width="0.29887" stroke-linecap="butt" stroke-linejoin="miter" stroke="rgb(0%, 0%, 0%)" stroke-opacity="1" stroke-miterlimit="10" d="M -122.489031 49.929688 C -122.489031 56.515625 -124.574969 62.933594 -128.266375 68.015625 " transform="matrix(1, 0, 0, -1, 174.157, 179.5)"/>
<path fill="none" stroke-width="0.29887" stroke-linecap="round" stroke-linejoin="round" stroke="rgb(0%, 0%, 0%)" stroke-opacity="1" stroke-miterlimit="10" d="M -1.952498 2.211352 C -1.59401 0.8838 -0.801614 0.259808 0.0000853377 0.000851163 C -0.800791 -0.257439 -1.593736 -0.883628 -1.954109 -2.210376 " transform="matrix(-0.58777, -0.809, -0.809, 0.58777, 45.80152, 111.36285)"/>
<g fill="rgb(0%, 0%, 0%)" fill-opacity="1">
<use xlink:href="#glyph-3-2" x="51.769" y="120.475"/>
<use xlink:href="#glyph-3-3" x="56.7503" y="120.475"/>
</g>
<g fill="rgb(0%, 0%, 0%)" fill-opacity="1">
<use xlink:href="#glyph-4-0" x="61.732" y="116.859"/>
</g>
<path fill="none" stroke-width="0.29887" stroke-linecap="butt" stroke-linejoin="miter" stroke="rgb(0%, 0%, 0%)" stroke-opacity="1" stroke-miterlimit="10" d="M 128.444562 68.257813 C 124.573469 62.933594 122.487531 56.515625 122.487531 50.230469 " transform="matrix(1, 0, 0, -1, 174.157, 179.5)"/>
<path fill="none" stroke-width="0.29887" stroke-linecap="round" stroke-linejoin="round" stroke="rgb(0%, 0%, 0%)" stroke-opacity="1" stroke-miterlimit="10" d="M -1.95139 2.210219 C -1.595921 0.886 -0.799046 0.257094 0.001735 -0.00071875 C -0.799046 -0.258531 -1.595921 -0.883531 -1.95139 -2.211656 " transform="matrix(0, 1, 1, 0, 296.64525, 129.42014)"/>
<g fill="rgb(0%, 0%, 0%)" fill-opacity="1">
<use xlink:href="#glyph-3-2" x="282.002" y="120.475"/>
<use xlink:href="#glyph-3-3" x="286.9833" y="120.475"/>
</g>
<g fill="rgb(0%, 0%, 0%)" fill-opacity="1">
<use xlink:href="#glyph-4-0" x="291.965" y="116.859"/>
</g>
<path fill="none" stroke-width="0.29887" stroke-linecap="butt" stroke-linejoin="miter" stroke="rgb(0%, 0%, 0%)" stroke-opacity="1" stroke-miterlimit="10" d="M -40.852313 13.273438 L -38.699969 19.90625 L -45.332781 22.0625 " transform="matrix(1, 0, 0, -1, 174.157, 179.5)"/>
<path fill="none" stroke-width="0.29887" stroke-linecap="butt" stroke-linejoin="miter" stroke="rgb(0%, 0%, 0%)" stroke-opacity="1" stroke-miterlimit="10" d="M -25.25075 -34.753906 L -30.891375 -30.652344 L -34.989031 -36.296875 " transform="matrix(1, 0, 0, -1, 174.157, 179.5)"/>
<path fill="none" stroke-width="0.29887" stroke-linecap="butt" stroke-linejoin="miter" stroke="rgb(0%, 0%, 0%)" stroke-opacity="1" stroke-miterlimit="10" d="M 25.24925 -34.753906 L 19.608625 -38.851562 L 23.706281 -44.492187 " transform="matrix(1, 0, 0, -1, 174.157, 179.5)"/>
<path fill="none" stroke-width="0.29887" stroke-linecap="butt" stroke-linejoin="miter" stroke="rgb(0%, 0%, 0%)" stroke-opacity="1" stroke-miterlimit="10" d="M 40.854719 13.273438 L 43.007062 6.640625 L 49.639875 8.796875 " transform="matrix(1, 0, 0, -1, 174.157, 179.5)"/>
<path fill="none" stroke-width="0.29887" stroke-linecap="butt" stroke-linejoin="miter" stroke="rgb(0%, 0%, 0%)" stroke-opacity="1" stroke-miterlimit="10" d="M -0.00075 42.957031 L 6.975812 42.957031 L 6.975812 49.929688 " transform="matrix(1, 0, 0, -1, 174.157, 179.5)"/>
</svg>
