<?xml version="1.0" encoding="UTF-8"?>
<svg xmlns="http://www.w3.org/2000/svg" xmlns:xlink="http://www.w3.org/1999/xlink" width="310.571pt" height="304.374pt" viewBox="0 0 310.571 304.374">
<defs>
<g>
<g id="glyph-0-0">
<path d="M 7.375 -4.34375 C 7.375 -5.953125 6.3125 -7.03125 4.828125 -7.03125 C 2.6875 -7.03125 0.484375 -4.765625 0.484375 -2.4375 C 0.484375 -0.78125 1.609375 0.21875 3.046875 0.21875 C 5.15625 0.21875 7.375 -1.96875 7.375 -4.34375 Z M 3.09375 -0.046875 C 2.109375 -0.046875 1.421875 -0.84375 1.421875 -2.15625 C 1.421875 -2.609375 1.5625 -4.0625 2.328125 -5.21875 C 3.015625 -6.265625 3.984375 -6.78125 4.78125 -6.78125 C 5.59375 -6.78125 6.484375 -6.21875 6.484375 -4.734375 C 6.484375 -4.015625 6.21875 -2.46875 5.234375 -1.234375 C 4.75 -0.625 3.9375 -0.046875 3.09375 -0.046875 Z M 3.09375 -0.046875 "/>
</g>
<g id="glyph-0-1">
<path d="M 3.015625 -3.15625 L 4.71875 -3.15625 C 6.125 -3.15625 7.515625 -4.1875 7.515625 -5.296875 C 7.515625 -6.078125 6.859375 -6.8125 5.546875 -6.8125 L 2.328125 -6.8125 C 2.140625 -6.8125 2.03125 -6.8125 2.03125 -6.625 C 2.03125 -6.5 2.109375 -6.5 2.3125 -6.5 C 2.4375 -6.5 2.625 -6.484375 2.734375 -6.484375 C 2.90625 -6.453125 2.953125 -6.4375 2.953125 -6.3125 C 2.953125 -6.28125 2.953125 -6.25 2.921875 -6.125 L 1.578125 -0.78125 C 1.484375 -0.390625 1.46875 -0.3125 0.671875 -0.3125 C 0.515625 -0.3125 0.40625 -0.3125 0.40625 -0.125 C 0.40625 0 0.515625 0 0.546875 0 C 0.828125 0 1.53125 -0.03125 1.8125 -0.03125 C 2.03125 -0.03125 2.25 -0.015625 2.453125 -0.015625 C 2.671875 -0.015625 2.890625 0 3.09375 0 C 3.171875 0 3.296875 0 3.296875 -0.203125 C 3.296875 -0.3125 3.203125 -0.3125 3.015625 -0.3125 C 2.65625 -0.3125 2.375 -0.3125 2.375 -0.484375 C 2.375 -0.546875 2.390625 -0.59375 2.40625 -0.65625 Z M 3.734375 -6.125 C 3.828125 -6.46875 3.84375 -6.5 4.28125 -6.5 L 5.234375 -6.5 C 6.0625 -6.5 6.59375 -6.234375 6.59375 -5.546875 C 6.59375 -5.15625 6.390625 -4.296875 6 -3.9375 C 5.5 -3.484375 4.90625 -3.40625 4.46875 -3.40625 L 3.0625 -3.40625 Z M 3.734375 -6.125 "/>
</g>
<g id="glyph-0-2">
<path d="M 3.734375 -6.046875 C 3.8125 -6.40625 3.84375 -6.5 4.640625 -6.5 C 4.875 -6.5 4.953125 -6.5 4.953125 -6.6875 C 4.953125 -6.8125 4.84375 -6.8125 4.8125 -6.8125 C 4.515625 -6.8125 3.78125 -6.78125 3.484375 -6.78125 C 3.1875 -6.78125 2.46875 -6.8125 2.15625 -6.8125 C 2.09375 -6.8125 1.96875 -6.8125 1.96875 -6.609375 C 1.96875 -6.5 2.046875 -6.5 2.25 -6.5 C 2.65625 -6.5 2.9375 -6.5 2.9375 -6.3125 C 2.9375 -6.265625 2.9375 -6.234375 2.90625 -6.15625 L 1.5625 -0.78125 C 1.46875 -0.40625 1.453125 -0.3125 0.65625 -0.3125 C 0.421875 -0.3125 0.34375 -0.3125 0.34375 -0.109375 C 0.34375 0 0.453125 0 0.484375 0 C 0.78125 0 1.5 -0.03125 1.796875 -0.03125 C 2.09375 -0.03125 2.828125 0 3.125 0 C 3.203125 0 3.328125 0 3.328125 -0.1875 C 3.328125 -0.3125 3.25 -0.3125 3.03125 -0.3125 C 2.84375 -0.3125 2.796875 -0.3125 2.609375 -0.328125 C 2.390625 -0.34375 2.359375 -0.390625 2.359375 -0.5 C 2.359375 -0.578125 2.375 -0.65625 2.390625 -0.734375 Z M 3.734375 -6.046875 "/>
</g>
<g id="glyph-0-3">
<path d="M 6.4375 -6.921875 C 6.4375 -6.953125 6.40625 -7.03125 6.3125 -7.03125 C 6.265625 -7.03125 6.265625 -7.015625 6.140625 -6.875 L 5.65625 -6.3125 C 5.40625 -6.78125 4.890625 -7.03125 4.234375 -7.03125 C 2.96875 -7.03125 1.78125 -5.875 1.78125 -4.671875 C 1.78125 -3.875 2.296875 -3.40625 2.8125 -3.265625 L 3.875 -2.984375 C 4.25 -2.890625 4.796875 -2.734375 4.796875 -1.921875 C 4.796875 -1.03125 3.984375 -0.09375 3 -0.09375 C 2.359375 -0.09375 1.25 -0.3125 1.25 -1.546875 C 1.25 -1.78125 1.3125 -2.03125 1.3125 -2.078125 C 1.328125 -2.125 1.328125 -2.140625 1.328125 -2.15625 C 1.328125 -2.25 1.265625 -2.265625 1.21875 -2.265625 C 1.171875 -2.265625 1.140625 -2.25 1.109375 -2.21875 C 1.078125 -2.1875 0.515625 0.09375 0.515625 0.125 C 0.515625 0.171875 0.5625 0.21875 0.625 0.21875 C 0.671875 0.21875 0.6875 0.203125 0.8125 0.0625 L 1.296875 -0.5 C 1.71875 0.078125 2.40625 0.21875 2.984375 0.21875 C 4.34375 0.21875 5.515625 -1.109375 5.515625 -2.34375 C 5.515625 -3.03125 5.171875 -3.375 5.03125 -3.515625 C 4.796875 -3.734375 4.640625 -3.78125 3.765625 -4 C 3.53125 -4.0625 3.1875 -4.171875 3.09375 -4.1875 C 2.828125 -4.28125 2.484375 -4.5625 2.484375 -5.09375 C 2.484375 -5.90625 3.28125 -6.75 4.234375 -6.75 C 5.046875 -6.75 5.65625 -6.3125 5.65625 -5.203125 C 5.65625 -4.890625 5.625 -4.703125 5.625 -4.640625 C 5.625 -4.640625 5.625 -4.546875 5.734375 -4.546875 C 5.84375 -4.546875 5.859375 -4.578125 5.890625 -4.75 Z M 6.4375 -6.921875 "/>
</g>
<g id="glyph-1-0">
<path d="M 2.328125 -4.4375 C 2.328125 -4.625 2.328125 -4.625 2.125 -4.625 C 1.671875 -4.1875 1.046875 -4.1875 0.765625 -4.1875 L 0.765625 -3.9375 C 0.921875 -3.9375 1.390625 -3.9375 1.765625 -4.125 L 1.765625 -0.578125 C 1.765625 -0.34375 1.765625 -0.25 1.078125 -0.25 L 0.8125 -0.25 L 0.8125 0 C 0.9375 0 1.796875 -0.03125 2.046875 -0.03125 C 2.265625 -0.03125 3.140625 0 3.296875 0 L 3.296875 -0.25 L 3.03125 -0.25 C 2.328125 -0.25 2.328125 -0.34375 2.328125 -0.578125 Z M 2.328125 -4.4375 "/>
</g>
<g id="glyph-1-1">
<path d="M 3.515625 -1.265625 L 3.28125 -1.265625 C 3.265625 -1.109375 3.1875 -0.703125 3.09375 -0.640625 C 3.046875 -0.59375 2.515625 -0.59375 2.40625 -0.59375 L 1.125 -0.59375 C 1.859375 -1.234375 2.109375 -1.4375 2.515625 -1.765625 C 3.03125 -2.171875 3.515625 -2.609375 3.515625 -3.265625 C 3.515625 -4.109375 2.78125 -4.625 1.890625 -4.625 C 1.03125 -4.625 0.4375 -4.015625 0.4375 -3.375 C 0.4375 -3.03125 0.734375 -2.984375 0.8125 -2.984375 C 0.96875 -2.984375 1.171875 -3.109375 1.171875 -3.359375 C 1.171875 -3.484375 1.125 -3.734375 0.765625 -3.734375 C 0.984375 -4.21875 1.453125 -4.375 1.78125 -4.375 C 2.484375 -4.375 2.84375 -3.828125 2.84375 -3.265625 C 2.84375 -2.65625 2.40625 -2.1875 2.1875 -1.9375 L 0.515625 -0.265625 C 0.4375 -0.203125 0.4375 -0.1875 0.4375 0 L 3.3125 0 Z M 3.515625 -1.265625 "/>
</g>
<g id="glyph-1-2">
<path d="M 1.90625 -2.328125 C 2.453125 -2.328125 2.84375 -1.953125 2.84375 -1.203125 C 2.84375 -0.34375 2.328125 -0.078125 1.9375 -0.078125 C 1.65625 -0.078125 1.03125 -0.15625 0.75 -0.578125 C 1.078125 -0.578125 1.15625 -0.8125 1.15625 -0.96875 C 1.15625 -1.1875 0.984375 -1.34375 0.765625 -1.34375 C 0.578125 -1.34375 0.375 -1.21875 0.375 -0.9375 C 0.375 -0.28125 1.09375 0.140625 1.9375 0.140625 C 2.90625 0.140625 3.578125 -0.515625 3.578125 -1.203125 C 3.578125 -1.75 3.140625 -2.296875 2.375 -2.453125 C 3.09375 -2.71875 3.359375 -3.234375 3.359375 -3.671875 C 3.359375 -4.21875 2.734375 -4.625 1.953125 -4.625 C 1.1875 -4.625 0.59375 -4.25 0.59375 -3.6875 C 0.59375 -3.453125 0.75 -3.328125 0.953125 -3.328125 C 1.171875 -3.328125 1.3125 -3.484375 1.3125 -3.671875 C 1.3125 -3.875 1.171875 -4.03125 0.953125 -4.046875 C 1.203125 -4.34375 1.671875 -4.421875 1.9375 -4.421875 C 2.25 -4.421875 2.6875 -4.265625 2.6875 -3.671875 C 2.6875 -3.375 2.59375 -3.046875 2.40625 -2.84375 C 2.1875 -2.578125 1.984375 -2.5625 1.640625 -2.53125 C 1.46875 -2.515625 1.453125 -2.515625 1.421875 -2.515625 C 1.40625 -2.515625 1.34375 -2.5 1.34375 -2.421875 C 1.34375 -2.328125 1.40625 -2.328125 1.53125 -2.328125 Z M 1.90625 -2.328125 "/>
</g>
<g id="glyph-1-3">
<path d="M 3.6875 -1.140625 L 3.6875 -1.390625 L 2.90625 -1.390625 L 2.90625 -4.5 C 2.90625 -4.640625 2.90625 -4.703125 2.765625 -4.703125 C 2.671875 -4.703125 2.640625 -4.703125 2.578125 -4.59375 L 0.265625 -1.390625 L 0.265625 -1.140625 L 2.328125 -1.140625 L 2.328125 -0.578125 C 2.328125 -0.328125 2.328125 -0.25 1.75 -0.25 L 1.5625 -0.25 L 1.5625 0 C 1.921875 -0.015625 2.359375 -0.03125 2.609375 -0.03125 C 2.875 -0.03125 3.3125 -0.015625 3.671875 0 L 3.671875 -0.25 L 3.484375 -0.25 C 2.90625 -0.25 2.90625 -0.328125 2.90625 -0.578125 L 2.90625 -1.140625 Z M 2.375 -3.9375 L 2.375 -1.390625 L 0.53125 -1.390625 Z M 2.375 -3.9375 "/>
</g>
<g id="glyph-1-4">
<path d="M 1.078125 -3.890625 C 1.4375 -3.796875 1.640625 -3.796875 1.75 -3.796875 C 2.671875 -3.796875 3.21875 -4.421875 3.21875 -4.53125 C 3.21875 -4.609375 3.171875 -4.625 3.140625 -4.625 C 3.125 -4.625 3.109375 -4.625 3.078125 -4.609375 C 2.90625 -4.546875 2.546875 -4.40625 2.03125 -4.40625 C 1.828125 -4.40625 1.46875 -4.421875 1.015625 -4.59375 C 0.9375 -4.625 0.921875 -4.625 0.921875 -4.625 C 0.828125 -4.625 0.828125 -4.546875 0.828125 -4.4375 L 0.828125 -2.390625 C 0.828125 -2.265625 0.828125 -2.1875 0.9375 -2.1875 C 1 -2.1875 1.015625 -2.1875 1.078125 -2.28125 C 1.375 -2.65625 1.8125 -2.71875 2.046875 -2.71875 C 2.46875 -2.71875 2.65625 -2.390625 2.6875 -2.328125 C 2.8125 -2.09375 2.859375 -1.828125 2.859375 -1.421875 C 2.859375 -1.21875 2.859375 -0.8125 2.640625 -0.5 C 2.46875 -0.25 2.171875 -0.078125 1.828125 -0.078125 C 1.375 -0.078125 0.90625 -0.328125 0.734375 -0.796875 C 1 -0.78125 1.140625 -0.953125 1.140625 -1.140625 C 1.140625 -1.4375 0.875 -1.484375 0.78125 -1.484375 C 0.78125 -1.484375 0.4375 -1.484375 0.4375 -1.109375 C 0.4375 -0.484375 1.015625 0.140625 1.84375 0.140625 C 2.734375 0.140625 3.515625 -0.515625 3.515625 -1.40625 C 3.515625 -2.1875 2.921875 -2.90625 2.0625 -2.90625 C 1.75 -2.90625 1.390625 -2.84375 1.078125 -2.578125 Z M 1.078125 -3.890625 "/>
</g>
<g id="glyph-2-0">
<path d="M 3.4375 -0.875 C 3.359375 -0.953125 3.3125 -1.046875 3.3125 -1.171875 C 3.3125 -1.328125 3.375 -1.546875 3.546875 -1.78125 C 3.703125 -2.015625 3.90625 -2.25 4.171875 -2.4375 C 4.390625 -2.578125 4.609375 -2.6875 4.78125 -2.6875 C 5.125 -2.6875 5.3125 -2.515625 5.328125 -2.265625 L 5.328125 -2.21875 C 5.328125 -1.90625 5.125 -1.515625 4.828125 -1.09375 C 4.625 -0.8125 4.390625 -0.53125 4.0625 -0.328125 C 3.765625 -0.125 3.4375 -0.03125 3.203125 -0.03125 C 2.609375 -0.03125 2.34375 -0.375 2.34375 -0.859375 L 2.34375 -0.96875 C 2.40625 -1.71875 2.96875 -2.65625 3.625 -3.5625 C 4.234375 -3.65625 4.890625 -3.8125 5.578125 -4.09375 C 6.375 -4.390625 7.25 -4.875 7.71875 -5.546875 C 7.953125 -5.875 8.09375 -6.203125 8.09375 -6.484375 C 8.09375 -6.53125 8.09375 -6.578125 8.078125 -6.625 C 8.03125 -6.9375 7.765625 -7.125 7.375 -7.125 C 6.703125 -7.125 5.828125 -6.625 5.09375 -6.0625 C 4.171875 -5.359375 3.40625 -4.53125 2.8125 -3.71875 C 2.703125 -3.703125 2.59375 -3.703125 2.484375 -3.703125 C 1.765625 -3.703125 1.171875 -3.875 0.890625 -4.25 C 0.8125 -4.359375 0.765625 -4.5 0.765625 -4.671875 C 0.765625 -4.921875 0.875 -5.21875 1.09375 -5.53125 C 1.28125 -5.796875 1.5625 -6.0625 1.875 -6.234375 C 2.25 -6.4375 2.625 -6.515625 2.9375 -6.515625 C 2.953125 -6.515625 2.984375 -6.53125 3 -6.546875 C 3.015625 -6.59375 3.046875 -6.625 3.046875 -6.65625 C 3.046875 -6.703125 3.015625 -6.734375 2.96875 -6.734375 C 2.5625 -6.734375 2.09375 -6.65625 1.59375 -6.421875 C 1.203125 -6.234375 0.796875 -5.96875 0.5625 -5.625 C 0.34375 -5.328125 0.265625 -5.03125 0.265625 -4.78125 C 0.265625 -4.53125 0.359375 -4.28125 0.515625 -4.109375 C 0.921875 -3.65625 1.640625 -3.484375 2.4375 -3.484375 L 2.65625 -3.484375 C 2.078125 -2.671875 1.71875 -1.84375 1.71875 -1.15625 C 1.71875 -1.078125 1.71875 -1 1.734375 -0.9375 C 1.796875 -0.25 2.296875 0.1875 3.15625 0.1875 C 3.515625 0.1875 3.9375 0.0625 4.359375 -0.15625 C 4.75 -0.375 5.109375 -0.671875 5.34375 -1 C 5.609375 -1.390625 5.765625 -1.78125 5.765625 -2.109375 C 5.765625 -2.1875 5.765625 -2.25 5.734375 -2.328125 C 5.640625 -2.703125 5.296875 -2.90625 4.8125 -2.90625 C 4.578125 -2.90625 4.28125 -2.765625 4.03125 -2.609375 C 3.734375 -2.390625 3.484375 -2.140625 3.296875 -1.875 C 3.125 -1.625 3.03125 -1.375 3.03125 -1.171875 C 3.03125 -0.984375 3.109375 -0.8125 3.28125 -0.703125 C 3.296875 -0.703125 3.296875 -0.703125 3.3125 -0.703125 C 3.3125 -0.703125 3.34375 -0.703125 3.34375 -0.703125 L 3.421875 -0.734375 L 3.453125 -0.75 C 3.453125 -0.78125 3.46875 -0.78125 3.46875 -0.8125 C 3.46875 -0.84375 3.453125 -0.859375 3.4375 -0.875 Z M 3.453125 -0.75 C 3.453125 -0.765625 3.46875 -0.78125 3.46875 -0.8125 C 3.46875 -0.8125 3.46875 -0.828125 3.453125 -0.84375 C 3.453125 -0.84375 3.453125 -0.828125 3.453125 -0.75 Z M 7.34375 -6.890625 C 7.640625 -6.890625 7.796875 -6.765625 7.828125 -6.5625 L 7.828125 -6.46875 C 7.828125 -6.234375 7.703125 -5.953125 7.484375 -5.625 C 7.046875 -5.03125 6.234375 -4.5625 5.46875 -4.265625 C 4.890625 -4.046875 4.328125 -3.890625 3.796875 -3.8125 C 4.3125 -4.53125 4.859375 -5.25 5.609375 -5.90625 C 6.1875 -6.421875 6.84375 -6.890625 7.34375 -6.890625 Z M 7.34375 -6.890625 "/>
</g>
<g id="glyph-3-0">
<path d="M 2.9375 -6.375 C 2.9375 -6.625 2.9375 -6.640625 2.703125 -6.640625 C 2.078125 -6 1.203125 -6 0.890625 -6 L 0.890625 -5.6875 C 1.09375 -5.6875 1.671875 -5.6875 2.1875 -5.953125 L 2.1875 -0.78125 C 2.1875 -0.421875 2.15625 -0.3125 1.265625 -0.3125 L 0.953125 -0.3125 L 0.953125 0 C 1.296875 -0.03125 2.15625 -0.03125 2.5625 -0.03125 C 2.953125 -0.03125 3.828125 -0.03125 4.171875 0 L 4.171875 -0.3125 L 3.859375 -0.3125 C 2.953125 -0.3125 2.9375 -0.421875 2.9375 -0.78125 Z M 2.9375 -6.375 "/>
</g>
<g id="glyph-3-1">
<path d="M 1.625 -4.5625 C 1.171875 -4.859375 1.125 -5.1875 1.125 -5.359375 C 1.125 -5.96875 1.78125 -6.390625 2.484375 -6.390625 C 3.203125 -6.390625 3.84375 -5.875 3.84375 -5.15625 C 3.84375 -4.578125 3.453125 -4.109375 2.859375 -3.765625 Z M 3.078125 -3.609375 C 3.796875 -3.984375 4.28125 -4.5 4.28125 -5.15625 C 4.28125 -6.078125 3.40625 -6.640625 2.5 -6.640625 C 1.5 -6.640625 0.6875 -5.90625 0.6875 -4.96875 C 0.6875 -4.796875 0.703125 -4.34375 1.125 -3.875 C 1.234375 -3.765625 1.609375 -3.515625 1.859375 -3.34375 C 1.28125 -3.046875 0.421875 -2.5 0.421875 -1.5 C 0.421875 -0.453125 1.4375 0.21875 2.484375 0.21875 C 3.609375 0.21875 4.5625 -0.609375 4.5625 -1.671875 C 4.5625 -2.03125 4.453125 -2.484375 4.0625 -2.90625 C 3.875 -3.109375 3.71875 -3.203125 3.078125 -3.609375 Z M 2.078125 -3.1875 L 3.3125 -2.40625 C 3.59375 -2.21875 4.0625 -1.921875 4.0625 -1.3125 C 4.0625 -0.578125 3.3125 -0.0625 2.5 -0.0625 C 1.640625 -0.0625 0.921875 -0.671875 0.921875 -1.5 C 0.921875 -2.078125 1.234375 -2.71875 2.078125 -3.1875 Z M 2.078125 -3.1875 "/>
</g>
<g id="glyph-3-2">
<path d="M 2.890625 -3.515625 C 3.703125 -3.78125 4.28125 -4.46875 4.28125 -5.265625 C 4.28125 -6.078125 3.40625 -6.640625 2.453125 -6.640625 C 1.453125 -6.640625 0.6875 -6.046875 0.6875 -5.28125 C 0.6875 -4.953125 0.90625 -4.765625 1.203125 -4.765625 C 1.5 -4.765625 1.703125 -4.984375 1.703125 -5.28125 C 1.703125 -5.765625 1.234375 -5.765625 1.09375 -5.765625 C 1.390625 -6.265625 2.046875 -6.390625 2.40625 -6.390625 C 2.828125 -6.390625 3.375 -6.171875 3.375 -5.28125 C 3.375 -5.15625 3.34375 -4.578125 3.09375 -4.140625 C 2.796875 -3.65625 2.453125 -3.625 2.203125 -3.625 C 2.125 -3.609375 1.890625 -3.59375 1.8125 -3.59375 C 1.734375 -3.578125 1.671875 -3.5625 1.671875 -3.46875 C 1.671875 -3.359375 1.734375 -3.359375 1.90625 -3.359375 L 2.34375 -3.359375 C 3.15625 -3.359375 3.53125 -2.6875 3.53125 -1.703125 C 3.53125 -0.34375 2.84375 -0.0625 2.40625 -0.0625 C 1.96875 -0.0625 1.21875 -0.234375 0.875 -0.8125 C 1.21875 -0.765625 1.53125 -0.984375 1.53125 -1.359375 C 1.53125 -1.71875 1.265625 -1.921875 0.984375 -1.921875 C 0.734375 -1.921875 0.421875 -1.78125 0.421875 -1.34375 C 0.421875 -0.4375 1.34375 0.21875 2.4375 0.21875 C 3.65625 0.21875 4.5625 -0.6875 4.5625 -1.703125 C 4.5625 -2.515625 3.921875 -3.296875 2.890625 -3.515625 Z M 2.890625 -3.515625 "/>
</g>
<g id="glyph-3-3">
<path d="M 1.3125 -3.265625 L 1.3125 -3.515625 C 1.3125 -6.03125 2.546875 -6.390625 3.0625 -6.390625 C 3.296875 -6.390625 3.71875 -6.328125 3.9375 -5.984375 C 3.78125 -5.984375 3.390625 -5.984375 3.390625 -5.546875 C 3.390625 -5.234375 3.625 -5.078125 3.84375 -5.078125 C 4 -5.078125 4.3125 -5.171875 4.3125 -5.5625 C 4.3125 -6.15625 3.875 -6.640625 3.046875 -6.640625 C 1.765625 -6.640625 0.421875 -5.359375 0.421875 -3.15625 C 0.421875 -0.484375 1.578125 0.21875 2.5 0.21875 C 3.609375 0.21875 4.5625 -0.71875 4.5625 -2.03125 C 4.5625 -3.296875 3.671875 -4.25 2.5625 -4.25 C 1.890625 -4.25 1.515625 -3.75 1.3125 -3.265625 Z M 2.5 -0.0625 C 1.875 -0.0625 1.578125 -0.65625 1.515625 -0.8125 C 1.328125 -1.28125 1.328125 -2.078125 1.328125 -2.25 C 1.328125 -3.03125 1.65625 -4.03125 2.546875 -4.03125 C 2.71875 -4.03125 3.171875 -4.03125 3.484375 -3.40625 C 3.65625 -3.046875 3.65625 -2.53125 3.65625 -2.046875 C 3.65625 -1.5625 3.65625 -1.0625 3.484375 -0.703125 C 3.1875 -0.109375 2.734375 -0.0625 2.5 -0.0625 Z M 2.5 -0.0625 "/>
</g>
<g id="glyph-4-0">
<path d="M 3.53125 -1.734375 C 3.53125 -2.578125 2.859375 -3.234375 2.03125 -3.234375 C 1.203125 -3.234375 0.53125 -2.5625 0.53125 -1.75 C 0.53125 -0.90625 1.21875 -0.25 2.03125 -0.25 C 2.875 -0.25 3.53125 -0.921875 3.53125 -1.734375 Z M 2.03125 -0.59375 C 1.375 -0.59375 0.875 -1.125 0.875 -1.734375 C 0.875 -2.390625 1.390625 -2.90625 2.03125 -2.90625 C 2.6875 -2.90625 3.1875 -2.375 3.1875 -1.75 C 3.1875 -1.09375 2.671875 -0.59375 2.03125 -0.59375 Z M 2.03125 -0.59375 "/>
</g>
</g>
<clipPath id="clip-0">
<path clip-rule="nonzero" d="M 9 13 L 302 13 L 302 304.375 L 9 304.375 Z M 9 13 "/>
</clipPath>
</defs>
<path fill-rule="nonzero" fill="rgb(0%, 0%, 0%)" fill-opacity="1" d="M 156.417969 159.65625 C 156.417969 159.03125 155.914062 158.523438 155.285156 158.523438 C 154.660156 158.523438 154.152344 159.03125 154.152344 159.65625 C 154.152344 160.285156 154.660156 160.792969 155.285156 160.792969 C 155.914062 160.792969 156.417969 160.285156 156.417969 159.65625 Z M 156.417969 159.65625 "/>
<path fill-rule="nonzero" fill="rgb(0%, 0%, 0%)" fill-opacity="1" d="M 156.417969 17.925781 C 156.417969 17.296875 155.914062 16.789062 155.285156 16.789062 C 154.660156 16.789062 154.152344 17.296875 154.152344 17.925781 C 154.152344 18.550781 154.660156 19.058594 155.285156 19.058594 C 155.914062 19.058594 156.417969 18.550781 156.417969 17.925781 Z M 156.417969 17.925781 "/>
<path fill-rule="nonzero" fill="rgb(0%, 0%, 0%)" fill-opacity="1" d="M 21.621094 115.859375 C 21.621094 115.234375 21.113281 114.726562 20.488281 114.726562 C 19.863281 114.726562 19.355469 115.234375 19.355469 115.859375 C 19.355469 116.484375 19.863281 116.992188 20.488281 116.992188 C 21.113281 116.992188 21.621094 116.484375 21.621094 115.859375 Z M 21.621094 115.859375 "/>
<path fill-rule="nonzero" fill="rgb(0%, 0%, 0%)" fill-opacity="1" d="M 73.109375 274.324219 C 73.109375 273.699219 72.601562 273.191406 71.976562 273.191406 C 71.351562 273.191406 70.84375 273.699219 70.84375 274.324219 C 70.84375 274.949219 71.351562 275.457031 71.976562 275.457031 C 72.601562 275.457031 73.109375 274.949219 73.109375 274.324219 Z M 73.109375 274.324219 "/>
<path fill-rule="nonzero" fill="rgb(0%, 0%, 0%)" fill-opacity="1" d="M 239.730469 274.324219 C 239.730469 273.699219 239.222656 273.191406 238.59375 273.191406 C 237.96875 273.191406 237.460938 273.699219 237.460938 274.324219 C 237.460938 274.949219 237.96875 275.457031 238.59375 275.457031 C 239.222656 275.457031 239.730469 274.949219 239.730469 274.324219 Z M 239.730469 274.324219 "/>
<path fill-rule="nonzero" fill="rgb(0%, 0%, 0%)" fill-opacity="1" d="M 291.21875 115.859375 C 291.21875 115.234375 290.710938 114.726562 290.085938 114.726562 C 289.457031 114.726562 288.949219 115.234375 288.949219 115.859375 C 288.949219 116.484375 289.457031 116.992188 290.085938 116.992188 C 290.710938 116.992188 291.21875 116.484375 291.21875 115.859375 Z M 291.21875 115.859375 "/>
<path fill-rule="nonzero" fill="rgb(0%, 0%, 0%)" fill-opacity="1" d="M 156.417969 115.859375 C 156.417969 115.234375 155.914062 114.726562 155.285156 114.726562 C 154.660156 114.726562 154.152344 115.234375 154.152344 115.859375 C 154.152344 116.484375 154.660156 116.992188 155.285156 116.992188 C 155.914062 116.992188 156.417969 116.484375 156.417969 115.859375 Z M 156.417969 115.859375 "/>
<path fill-rule="nonzero" fill="rgb(0%, 0%, 0%)" fill-opacity="1" d="M 114.765625 146.125 C 114.765625 145.496094 114.257812 144.988281 113.632812 144.988281 C 113.003906 144.988281 112.496094 145.496094 112.496094 146.125 C 112.496094 146.75 113.003906 147.257812 113.632812 147.257812 C 114.257812 147.257812 114.765625 146.75 114.765625 146.125 Z M 114.765625 146.125 "/>
<path fill-rule="nonzero" fill="rgb(0%, 0%, 0%)" fill-opacity="1" d="M 130.675781 195.09375 C 130.675781 194.464844 130.167969 193.957031 129.542969 193.957031 C 128.914062 193.957031 128.410156 194.464844 128.410156 195.09375 C 128.410156 195.71875 128.914062 196.226562 129.542969 196.226562 C 130.167969 196.226562 130.675781 195.71875 130.675781 195.09375 Z M 130.675781 195.09375 "/>
<path fill-rule="nonzero" fill="rgb(0%, 0%, 0%)" fill-opacity="1" d="M 182.164062 195.09375 C 182.164062 194.464844 181.65625 193.957031 181.03125 193.957031 C 180.402344 193.957031 179.894531 194.464844 179.894531 195.09375 C 179.894531 195.71875 180.402344 196.226562 181.03125 196.226562 C 181.65625 196.226562 182.164062 195.71875 182.164062 195.09375 Z M 182.164062 195.09375 "/>
<path fill-rule="nonzero" fill="rgb(0%, 0%, 0%)" fill-opacity="1" d="M 198.074219 146.125 C 198.074219 145.496094 197.566406 144.988281 196.941406 144.988281 C 196.316406 144.988281 195.808594 145.496094 195.808594 146.125 C 195.808594 146.75 196.316406 147.257812 196.941406 147.257812 C 197.566406 147.257812 198.074219 146.75 198.074219 146.125 Z M 198.074219 146.125 "/>
<path fill-rule="nonzero" fill="rgb(0%, 0%, 0%)" fill-opacity="1" d="M 124.597656 115.859375 C 124.597656 115.234375 124.089844 114.726562 123.464844 114.726562 C 122.839844 114.726562 122.332031 115.234375 122.332031 115.859375 C 122.332031 116.484375 122.839844 116.992188 123.464844 116.992188 C 124.089844 116.992188 124.597656 116.484375 124.597656 115.859375 Z M 124.597656 115.859375 "/>
<path fill-rule="nonzero" fill="rgb(0%, 0%, 0%)" fill-opacity="1" d="M 104.933594 176.386719 C 104.933594 175.761719 104.425781 175.253906 103.796875 175.253906 C 103.171875 175.253906 102.664062 175.761719 102.664062 176.386719 C 102.664062 177.015625 103.171875 177.523438 103.796875 177.523438 C 104.425781 177.523438 104.933594 177.015625 104.933594 176.386719 Z M 104.933594 176.386719 "/>
<path fill-rule="nonzero" fill="rgb(0%, 0%, 0%)" fill-opacity="1" d="M 156.417969 213.796875 C 156.417969 213.171875 155.914062 212.664062 155.285156 212.664062 C 154.660156 212.664062 154.152344 213.171875 154.152344 213.796875 C 154.152344 214.421875 154.660156 214.929688 155.285156 214.929688 C 155.914062 214.929688 156.417969 214.421875 156.417969 213.796875 Z M 156.417969 213.796875 "/>
<path fill-rule="nonzero" fill="rgb(0%, 0%, 0%)" fill-opacity="1" d="M 207.90625 176.386719 C 207.90625 175.761719 207.398438 175.253906 206.773438 175.253906 C 206.148438 175.253906 205.640625 175.761719 205.640625 176.386719 C 205.640625 177.015625 206.148438 177.523438 206.773438 177.523438 C 207.398438 177.523438 207.90625 177.015625 207.90625 176.386719 Z M 207.90625 176.386719 "/>
<path fill-rule="nonzero" fill="rgb(0%, 0%, 0%)" fill-opacity="1" d="M 188.242188 115.859375 C 188.242188 115.234375 187.734375 114.726562 187.105469 114.726562 C 186.480469 114.726562 185.972656 115.234375 185.972656 115.859375 C 185.972656 116.484375 186.480469 116.992188 187.105469 116.992188 C 187.734375 116.992188 188.242188 116.484375 188.242188 115.859375 Z M 188.242188 115.859375 "/>
<path fill="none" stroke-width="0.29887" stroke-linecap="butt" stroke-linejoin="miter" stroke="rgb(0%, 0%, 0%)" stroke-opacity="1" stroke-miterlimit="10" d="M -0.00084375 141.732219 L -134.797719 43.798625 L -83.309438 -114.666219 L 83.30775 -114.666219 L 134.799937 43.798625 Z M -0.00084375 141.732219 " transform="matrix(1, 0, 0, -1, 155.286, 159.658)"/>
<path fill="none" stroke-width="0.29887" stroke-linecap="butt" stroke-linejoin="miter" stroke="rgb(0%, 0%, 0%)" stroke-opacity="1" stroke-miterlimit="10" d="M -0.00084375 141.732219 L -83.309438 -114.666219 L 134.799937 43.798625 L -134.797719 43.798625 L 83.30775 -114.666219 Z M -0.00084375 141.732219 " transform="matrix(1, 0, 0, -1, 155.286, 159.658)"/>
<path fill="none" stroke-width="0.29887" stroke-linecap="butt" stroke-linejoin="miter" stroke="rgb(0%, 0%, 0%)" stroke-opacity="1" stroke-dasharray="2.98883 2.98883" stroke-miterlimit="10" d="M -0.00084375 0.00175 L -0.00084375 141.732219 " transform="matrix(1, 0, 0, -1, 155.286, 159.658)"/>
<path fill="none" stroke-width="0.29887" stroke-linecap="butt" stroke-linejoin="miter" stroke="rgb(0%, 0%, 0%)" stroke-opacity="1" stroke-dasharray="2.98883 2.98883" stroke-miterlimit="10" d="M -0.00084375 0.00175 L -134.797719 43.798625 " transform="matrix(1, 0, 0, -1, 155.286, 159.658)"/>
<path fill="none" stroke-width="0.29887" stroke-linecap="butt" stroke-linejoin="miter" stroke="rgb(0%, 0%, 0%)" stroke-opacity="1" stroke-dasharray="2.98883 2.98883" stroke-miterlimit="10" d="M -0.00084375 0.00175 L -83.309438 -114.666219 " transform="matrix(1, 0, 0, -1, 155.286, 159.658)"/>
<path fill="none" stroke-width="0.29887" stroke-linecap="butt" stroke-linejoin="miter" stroke="rgb(0%, 0%, 0%)" stroke-opacity="1" stroke-dasharray="2.98883 2.98883" stroke-miterlimit="10" d="M -0.00084375 0.00175 L 83.30775 -114.666219 " transform="matrix(1, 0, 0, -1, 155.286, 159.658)"/>
<path fill="none" stroke-width="0.29887" stroke-linecap="butt" stroke-linejoin="miter" stroke="rgb(0%, 0%, 0%)" stroke-opacity="1" stroke-dasharray="2.98883 2.98883" stroke-miterlimit="10" d="M -0.00084375 0.00175 L 134.799937 43.798625 " transform="matrix(1, 0, 0, -1, 155.286, 159.658)"/>
<g clip-path="url(#clip-0)">
<path fill="none" stroke-width="0.29887" stroke-linecap="butt" stroke-linejoin="miter" stroke="rgb(0%, 0%, 0%)" stroke-opacity="1" stroke-miterlimit="10" d="M 141.733531 0.00175 C 141.733531 78.279094 78.280406 141.732219 -0.00084375 141.732219 C -78.278188 141.732219 -141.735219 78.279094 -141.735219 0.00175 C -141.735219 -78.2795 -78.278188 -141.732625 -0.00084375 -141.732625 C 78.280406 -141.732625 141.733531 -78.2795 141.733531 0.00175 Z M 141.733531 0.00175 " transform="matrix(1, 0, 0, -1, 155.286, 159.658)"/>
</g>
<g fill="rgb(0%, 0%, 0%)" fill-opacity="1">
<use xlink:href="#glyph-0-0" x="140.888" y="165.623"/>
</g>
<g fill="rgb(0%, 0%, 0%)" fill-opacity="1">
<use xlink:href="#glyph-0-1" x="149.853" y="12.962"/>
</g>
<g fill="rgb(0%, 0%, 0%)" fill-opacity="1">
<use xlink:href="#glyph-1-0" x="156.249" y="14.456"/>
</g>
<g fill="rgb(0%, 0%, 0%)" fill-opacity="1">
<use xlink:href="#glyph-0-1" x="6.154" y="118.516"/>
</g>
<g fill="rgb(0%, 0%, 0%)" fill-opacity="1">
<use xlink:href="#glyph-1-1" x="12.55" y="120.011"/>
</g>
<g fill="rgb(0%, 0%, 0%)" fill-opacity="1">
<use xlink:href="#glyph-0-1" x="57.643" y="276.979"/>
</g>
<g fill="rgb(0%, 0%, 0%)" fill-opacity="1">
<use xlink:href="#glyph-1-2" x="64.039" y="278.473"/>
</g>
<g fill="rgb(0%, 0%, 0%)" fill-opacity="1">
<use xlink:href="#glyph-0-1" x="233.161" y="284.599"/>
</g>
<g fill="rgb(0%, 0%, 0%)" fill-opacity="1">
<use xlink:href="#glyph-1-3" x="239.557" y="286.093"/>
</g>
<g fill="rgb(0%, 0%, 0%)" fill-opacity="1">
<use xlink:href="#glyph-0-1" x="293.551" y="118.516"/>
</g>
<g fill="rgb(0%, 0%, 0%)" fill-opacity="1">
<use xlink:href="#glyph-1-4" x="299.947" y="120.011"/>
</g>
<g fill="rgb(0%, 0%, 0%)" fill-opacity="1">
<use xlink:href="#glyph-0-2" x="142.968" y="110.896"/>
</g>
<g fill="rgb(0%, 0%, 0%)" fill-opacity="1">
<use xlink:href="#glyph-1-0" x="147.347" y="112.39"/>
</g>
<g fill="rgb(0%, 0%, 0%)" fill-opacity="1">
<use xlink:href="#glyph-0-2" x="99.819" y="151.368"/>
</g>
<g fill="rgb(0%, 0%, 0%)" fill-opacity="1">
<use xlink:href="#glyph-1-1" x="104.198" y="152.863"/>
</g>
<g fill="rgb(0%, 0%, 0%)" fill-opacity="1">
<use xlink:href="#glyph-0-2" x="117.224" y="197.748"/>
</g>
<g fill="rgb(0%, 0%, 0%)" fill-opacity="1">
<use xlink:href="#glyph-1-2" x="121.604" y="199.242"/>
</g>
<g fill="rgb(0%, 0%, 0%)" fill-opacity="1">
<use xlink:href="#glyph-0-2" x="184.498" y="197.748"/>
</g>
<g fill="rgb(0%, 0%, 0%)" fill-opacity="1">
<use xlink:href="#glyph-1-3" x="188.878" y="199.242"/>
</g>
<g fill="rgb(0%, 0%, 0%)" fill-opacity="1">
<use xlink:href="#glyph-0-2" x="200.409" y="156.4"/>
</g>
<g fill="rgb(0%, 0%, 0%)" fill-opacity="1">
<use xlink:href="#glyph-1-4" x="204.788" y="157.895"/>
</g>
<g fill="rgb(0%, 0%, 0%)" fill-opacity="1">
<use xlink:href="#glyph-0-3" x="109.417" y="110.896"/>
</g>
<g fill="rgb(0%, 0%, 0%)" fill-opacity="1">
<use xlink:href="#glyph-1-0" x="115.526" y="112.39"/>
</g>
<g fill="rgb(0%, 0%, 0%)" fill-opacity="1">
<use xlink:href="#glyph-0-3" x="89.751" y="179.044"/>
</g>
<g fill="rgb(0%, 0%, 0%)" fill-opacity="1">
<use xlink:href="#glyph-1-1" x="95.86" y="180.539"/>
</g>
<g fill="rgb(0%, 0%, 0%)" fill-opacity="1">
<use xlink:href="#glyph-0-3" x="149.996" y="224.072"/>
</g>
<g fill="rgb(0%, 0%, 0%)" fill-opacity="1">
<use xlink:href="#glyph-1-2" x="156.105" y="225.566"/>
</g>
<g fill="rgb(0%, 0%, 0%)" fill-opacity="1">
<use xlink:href="#glyph-0-3" x="210.242" y="179.044"/>
</g>
<g fill="rgb(0%, 0%, 0%)" fill-opacity="1">
<use xlink:href="#glyph-1-3" x="216.351" y="180.539"/>
</g>
<g fill="rgb(0%, 0%, 0%)" fill-opacity="1">
<use xlink:href="#glyph-0-3" x="190.575" y="110.896"/>
</g>
<g fill="rgb(0%, 0%, 0%)" fill-opacity="1">
<use xlink:href="#glyph-1-4" x="196.684" y="112.39"/>
</g>
<path fill="none" stroke-width="0.29887" stroke-linecap="butt" stroke-linejoin="miter" stroke="rgb(0%, 0%, 0%)" stroke-opacity="1" stroke-miterlimit="10" d="M -66.707875 90.806438 L -69.051625 94.029094 M -65.743031 91.509563 L -68.082875 94.732219 " transform="matrix(1, 0, 0, -1, 155.286, 159.658)"/>
<path fill="none" stroke-width="0.29887" stroke-linecap="butt" stroke-linejoin="miter" stroke="rgb(0%, 0%, 0%)" stroke-opacity="1" stroke-miterlimit="10" d="M -106.977406 -35.381062 L -110.766469 -36.615437 M -107.344594 -34.244344 L -111.137563 -35.474812 " transform="matrix(1, 0, 0, -1, 155.286, 159.658)"/>
<path fill="none" stroke-width="0.29887" stroke-linecap="butt" stroke-linejoin="miter" stroke="rgb(0%, 0%, 0%)" stroke-opacity="1" stroke-miterlimit="10" d="M 0.596812 -112.674031 L 0.596812 -116.658406 M -0.5985 -112.674031 L -0.5985 -116.658406 " transform="matrix(1, 0, 0, -1, 155.286, 159.658)"/>
<path fill="none" stroke-width="0.29887" stroke-linecap="butt" stroke-linejoin="miter" stroke="rgb(0%, 0%, 0%)" stroke-opacity="1" stroke-miterlimit="10" d="M 107.339 -34.252156 L 111.131969 -35.486531 M 106.971812 -35.388875 L 110.760875 -36.62325 " transform="matrix(1, 0, 0, -1, 155.286, 159.658)"/>
<path fill="none" stroke-width="0.29887" stroke-linecap="butt" stroke-linejoin="miter" stroke="rgb(0%, 0%, 0%)" stroke-opacity="1" stroke-miterlimit="10" d="M 65.749156 91.50175 L 68.089 94.728313 M 66.714 90.798625 L 69.05775 94.025188 " transform="matrix(1, 0, 0, -1, 155.286, 159.658)"/>
<g fill="rgb(0%, 0%, 0%)" fill-opacity="1">
<use xlink:href="#glyph-2-0" x="226.244" y="33.036"/>
</g>
<path fill="none" stroke-width="0.29887" stroke-linecap="butt" stroke-linejoin="miter" stroke="rgb(0%, 0%, 0%)" stroke-opacity="1" stroke-miterlimit="10" d="M -13.137563 101.294719 C -8.895375 99.915813 -4.461781 99.212688 -0.297719 99.212688 " transform="matrix(1, 0, 0, -1, 155.286, 159.658)"/>
<path fill="none" stroke-width="0.29887" stroke-linecap="round" stroke-linejoin="round" stroke="rgb(0%, 0%, 0%)" stroke-opacity="1" stroke-miterlimit="10" d="M -1.952976 2.209805 C -1.597508 0.885586 -0.800633 0.25668 0.00014875 -0.0011325 C -0.800633 -0.258945 -1.597508 -0.883945 -1.952976 -2.21207 " transform="matrix(1, 0, 0, -1, 155.13657, 60.44418)"/>
<g fill="rgb(0%, 0%, 0%)" fill-opacity="1">
<use xlink:href="#glyph-3-0" x="140.032" y="71.751"/>
<use xlink:href="#glyph-3-1" x="145.0133" y="71.751"/>
</g>
<g fill="rgb(0%, 0%, 0%)" fill-opacity="1">
<use xlink:href="#glyph-4-0" x="149.995" y="68.135"/>
</g>
<path fill="none" stroke-width="0.29887" stroke-linecap="butt" stroke-linejoin="miter" stroke="rgb(0%, 0%, 0%)" stroke-opacity="1" stroke-miterlimit="10" d="M -100.399281 18.806438 C -97.778188 22.415813 -95.739125 26.419719 -94.450063 30.37675 " transform="matrix(1, 0, 0, -1, 155.286, 159.658)"/>
<path fill="none" stroke-width="0.29887" stroke-linecap="round" stroke-linejoin="round" stroke="rgb(0%, 0%, 0%)" stroke-opacity="1" stroke-miterlimit="10" d="M -1.950495 2.210064 C -1.597431 0.883137 -0.802958 0.258199 -0.000739023 0.00131999 C -0.799482 -0.258181 -1.594826 -0.88212 -1.952063 -2.20981 " transform="matrix(0.30899, -0.95107, -0.95107, -0.30899, 60.88039, 129.14033)"/>
<g fill="rgb(0%, 0%, 0%)" fill-opacity="1">
<use xlink:href="#glyph-3-0" x="58.679" y="142.453"/>
<use xlink:href="#glyph-3-1" x="63.6603" y="142.453"/>
</g>
<g fill="rgb(0%, 0%, 0%)" fill-opacity="1">
<use xlink:href="#glyph-4-0" x="68.642" y="138.838"/>
</g>
<path fill="none" stroke-width="0.29887" stroke-linecap="butt" stroke-linejoin="miter" stroke="rgb(0%, 0%, 0%)" stroke-opacity="1" stroke-miterlimit="10" d="M -48.911 -89.674031 C -51.532094 -86.064656 -54.707875 -82.888875 -58.075063 -80.443562 " transform="matrix(1, 0, 0, -1, 155.286, 159.658)"/>
<path fill="none" stroke-width="0.29887" stroke-linecap="round" stroke-linejoin="round" stroke="rgb(0%, 0%, 0%)" stroke-opacity="1" stroke-miterlimit="10" d="M -1.954006 2.211166 C -1.593632 0.884417 -0.800687 0.258228 0.000188833 -0.0000621258 C -0.80151 -0.259019 -1.597067 -0.885307 -1.952395 -2.210563 " transform="matrix(-0.809, -0.58777, -0.58777, 0.809, 97.08996, 240.01188)"/>
<g fill="rgb(0%, 0%, 0%)" fill-opacity="1">
<use xlink:href="#glyph-3-0" x="100.785" y="241.673"/>
<use xlink:href="#glyph-3-1" x="105.7663" y="241.673"/>
</g>
<g fill="rgb(0%, 0%, 0%)" fill-opacity="1">
<use xlink:href="#glyph-4-0" x="110.747" y="238.058"/>
</g>
<path fill="none" stroke-width="0.29887" stroke-linecap="butt" stroke-linejoin="miter" stroke="rgb(0%, 0%, 0%)" stroke-opacity="1" stroke-miterlimit="10" d="M 70.171031 -74.228719 C 65.928844 -75.603719 61.924937 -77.642781 58.55775 -80.092 " transform="matrix(1, 0, 0, -1, 155.286, 159.658)"/>
<path fill="none" stroke-width="0.29887" stroke-linecap="round" stroke-linejoin="round" stroke="rgb(0%, 0%, 0%)" stroke-opacity="1" stroke-miterlimit="10" d="M -1.951836 2.209584 C -1.596508 0.884327 -0.800951 0.258039 0.000747527 -0.000917026 C -0.800129 -0.259207 -1.596234 -0.8831 -1.953447 -2.212145 " transform="matrix(-0.809, 0.58777, 0.58777, 0.809, 213.7238, 239.83624)"/>
<g fill="rgb(0%, 0%, 0%)" fill-opacity="1">
<use xlink:href="#glyph-3-0" x="208.158" y="232.291"/>
<use xlink:href="#glyph-3-1" x="213.1393" y="232.291"/>
</g>
<g fill="rgb(0%, 0%, 0%)" fill-opacity="1">
<use xlink:href="#glyph-4-0" x="218.121" y="228.675"/>
</g>
<path fill="none" stroke-width="0.29887" stroke-linecap="butt" stroke-linejoin="miter" stroke="rgb(0%, 0%, 0%)" stroke-opacity="1" stroke-miterlimit="10" d="M 92.2765 43.798625 C 92.2765 39.337688 92.979625 34.900188 94.268687 30.943156 " transform="matrix(1, 0, 0, -1, 155.286, 159.658)"/>
<path fill="none" stroke-width="0.29887" stroke-linecap="round" stroke-linejoin="round" stroke="rgb(0%, 0%, 0%)" stroke-opacity="1" stroke-miterlimit="10" d="M -1.952397 2.209772 C -1.593954 0.885797 -0.799817 0.258142 -0.00107354 -0.00135851 C -0.799578 -0.259444 -1.594051 -0.884382 -1.95083 -2.210102 " transform="matrix(0.30899, 0.95107, 0.95107, -0.30899, 249.59928, 128.85607)"/>
<g fill="rgb(0%, 0%, 0%)" fill-opacity="1">
<use xlink:href="#glyph-3-0" x="232.416" y="127.271"/>
<use xlink:href="#glyph-3-1" x="237.3973" y="127.271"/>
</g>
<g fill="rgb(0%, 0%, 0%)" fill-opacity="1">
<use xlink:href="#glyph-4-0" x="242.379" y="123.655"/>
</g>
<path fill="none" stroke-width="0.29887" stroke-linecap="butt" stroke-linejoin="miter" stroke="rgb(0%, 0%, 0%)" stroke-opacity="1" stroke-miterlimit="10" d="M -0.00084375 99.212688 C 4.460094 99.212688 8.897594 99.915813 12.854625 101.200969 " transform="matrix(1, 0, 0, -1, 155.286, 159.658)"/>
<path fill="none" stroke-width="0.29887" stroke-linecap="round" stroke-linejoin="round" stroke="rgb(0%, 0%, 0%)" stroke-opacity="1" stroke-miterlimit="10" d="M -1.953199 2.210503 C -1.595963 0.882813 -0.800619 0.258874 -0.00187563 -0.000627396 C -0.80038 -0.258713 -1.594853 -0.883651 -1.951632 -2.209371 " transform="matrix(0.95107, -0.30899, -0.30899, -0.95107, 168.28284, 58.40898)"/>
<g fill="rgb(0%, 0%, 0%)" fill-opacity="1">
<use xlink:href="#glyph-3-0" x="155.995" y="71.75"/>
<use xlink:href="#glyph-3-1" x="160.9763" y="71.75"/>
</g>
<g fill="rgb(0%, 0%, 0%)" fill-opacity="1">
<use xlink:href="#glyph-4-0" x="165.958" y="68.135"/>
</g>
<path fill="none" stroke-width="0.29887" stroke-linecap="butt" stroke-linejoin="miter" stroke="rgb(0%, 0%, 0%)" stroke-opacity="1" stroke-miterlimit="10" d="M -94.360219 30.658 C -92.981313 34.900188 -92.278188 39.337688 -92.278188 43.50175 " transform="matrix(1, 0, 0, -1, 155.286, 159.658)"/>
<path fill="none" stroke-width="0.29887" stroke-linecap="round" stroke-linejoin="round" stroke="rgb(0%, 0%, 0%)" stroke-opacity="1" stroke-miterlimit="10" d="M -1.952277 2.211045 C -1.596809 0.88292 -0.799934 0.25792 0.0008475 0.0001075 C -0.799934 -0.257705 -1.596809 -0.882705 -1.952277 -2.21083 " transform="matrix(0, -1, -1, 0, 63.00792, 116.00866)"/>
<g fill="rgb(0%, 0%, 0%)" fill-opacity="1">
<use xlink:href="#glyph-3-0" x="63.613" y="127.271"/>
<use xlink:href="#glyph-3-1" x="68.5943" y="127.271"/>
</g>
<g fill="rgb(0%, 0%, 0%)" fill-opacity="1">
<use xlink:href="#glyph-4-0" x="73.575" y="123.656"/>
</g>
<path fill="none" stroke-width="0.29887" stroke-linecap="butt" stroke-linejoin="miter" stroke="rgb(0%, 0%, 0%)" stroke-opacity="1" stroke-miterlimit="10" d="M -58.31725 -80.267781 C -61.926625 -77.642781 -65.926625 -75.603719 -69.887563 -74.318562 " transform="matrix(1, 0, 0, -1, 155.286, 159.658)"/>
<path fill="none" stroke-width="0.29887" stroke-linecap="round" stroke-linejoin="round" stroke="rgb(0%, 0%, 0%)" stroke-opacity="1" stroke-miterlimit="10" d="M -1.953921 2.209981 C -1.597142 0.884261 -0.802669 0.259323 0.000757187 -0.00127071 C -0.799193 -0.257057 -1.597045 -0.885918 -1.950566 -2.212401 " transform="matrix(-0.95107, -0.30899, -0.30899, 0.95107, 85.25814, 233.93113)"/>
<g fill="rgb(0%, 0%, 0%)" fill-opacity="1">
<use xlink:href="#glyph-3-0" x="87.87" y="232.291"/>
<use xlink:href="#glyph-3-1" x="92.8513" y="232.291"/>
</g>
<g fill="rgb(0%, 0%, 0%)" fill-opacity="1">
<use xlink:href="#glyph-4-0" x="97.833" y="228.675"/>
</g>
<path fill="none" stroke-width="0.29887" stroke-linecap="butt" stroke-linejoin="miter" stroke="rgb(0%, 0%, 0%)" stroke-opacity="1" stroke-miterlimit="10" d="M 58.315562 -80.267781 C 54.710094 -82.888875 51.530406 -86.064656 49.085094 -89.431844 " transform="matrix(1, 0, 0, -1, 155.286, 159.658)"/>
<path fill="none" stroke-width="0.29887" stroke-linecap="round" stroke-linejoin="round" stroke="rgb(0%, 0%, 0%)" stroke-opacity="1" stroke-miterlimit="10" d="M -1.952188 2.209633 C -1.597263 0.883759 -0.801157 0.259876 -0.000283597 0.00159401 C -0.801976 -0.257367 -1.597523 -0.883658 -1.952838 -2.20891 " transform="matrix(-0.58778, 0.809, 0.809, 0.58778, 204.2837, 249.21023)"/>
<g fill="rgb(0%, 0%, 0%)" fill-opacity="1">
<use xlink:href="#glyph-3-0" x="195.244" y="241.674"/>
<use xlink:href="#glyph-3-1" x="200.2253" y="241.674"/>
</g>
<g fill="rgb(0%, 0%, 0%)" fill-opacity="1">
<use xlink:href="#glyph-4-0" x="205.206" y="238.058"/>
</g>
<path fill="none" stroke-width="0.29887" stroke-linecap="butt" stroke-linejoin="miter" stroke="rgb(0%, 0%, 0%)" stroke-opacity="1" stroke-miterlimit="10" d="M 94.358531 30.658 C 95.737437 26.419719 97.7765 22.415813 100.221812 19.048625 " transform="matrix(1, 0, 0, -1, 155.286, 159.658)"/>
<path fill="none" stroke-width="0.29887" stroke-linecap="round" stroke-linejoin="round" stroke="rgb(0%, 0%, 0%)" stroke-opacity="1" stroke-miterlimit="10" d="M -1.952834 2.211073 C -1.594359 0.883526 -0.801972 0.259531 -0.000279931 0.000569577 C -0.801153 -0.257712 -1.594099 -0.883891 -1.954481 -2.210629 " transform="matrix(0.58778, 0.809, 0.809, -0.58778, 255.59736, 140.73103)"/>
<g fill="rgb(0%, 0%, 0%)" fill-opacity="1">
<use xlink:href="#glyph-3-0" x="237.349" y="142.453"/>
<use xlink:href="#glyph-3-1" x="242.3303" y="142.453"/>
</g>
<g fill="rgb(0%, 0%, 0%)" fill-opacity="1">
<use xlink:href="#glyph-4-0" x="247.312" y="138.838"/>
</g>
<path fill="none" stroke-width="0.29887" stroke-linecap="butt" stroke-linejoin="miter" stroke="rgb(0%, 0%, 0%)" stroke-opacity="1" stroke-miterlimit="10" d="M -73.672719 -85.009969 C -79.934438 -82.974812 -86.684438 -82.974812 -92.661 -84.916219 " transform="matrix(1, 0, 0, -1, 155.286, 159.658)"/>
<path fill="none" stroke-width="0.29887" stroke-linecap="round" stroke-linejoin="round" stroke="rgb(0%, 0%, 0%)" stroke-opacity="1" stroke-miterlimit="10" d="M -1.952192 2.210123 C -1.594956 0.882433 -0.799612 0.258494 -0.000868692 -0.00100711 C -0.799373 -0.259093 -1.593846 -0.884031 -1.950625 -2.209751 " transform="matrix(-0.95107, 0.30899, 0.30899, 0.95107, 62.48386, 244.62232)"/>
<g fill="rgb(0%, 0%, 0%)" fill-opacity="1">
<use xlink:href="#glyph-3-2" x="64.706" y="237.217"/>
<use xlink:href="#glyph-3-3" x="69.6873" y="237.217"/>
</g>
<g fill="rgb(0%, 0%, 0%)" fill-opacity="1">
<use xlink:href="#glyph-4-0" x="74.669" y="233.602"/>
</g>
<path fill="none" stroke-width="0.29887" stroke-linecap="butt" stroke-linejoin="miter" stroke="rgb(0%, 0%, 0%)" stroke-opacity="1" stroke-miterlimit="10" d="M -25.227406 123.408 C -21.356313 118.079875 -15.895375 114.115031 -9.918813 112.169719 " transform="matrix(1, 0, 0, -1, 155.286, 159.658)"/>
<path fill="none" stroke-width="0.29887" stroke-linecap="round" stroke-linejoin="round" stroke="rgb(0%, 0%, 0%)" stroke-opacity="1" stroke-miterlimit="10" d="M -1.951058 2.210266 C -1.594279 0.884546 -0.799806 0.259608 -0.00130157 0.00152232 C -0.800045 -0.257979 -1.594182 -0.885633 -1.952625 -2.209608 " transform="matrix(0.95107, 0.30899, 0.30899, -0.95107, 145.50858, 47.5331)"/>
<g fill="rgb(0%, 0%, 0%)" fill-opacity="1">
<use xlink:href="#glyph-3-2" x="124.189" y="54.149"/>
<use xlink:href="#glyph-3-3" x="129.1703" y="54.149"/>
</g>
<g fill="rgb(0%, 0%, 0%)" fill-opacity="1">
<use xlink:href="#glyph-4-0" x="134.151" y="50.534"/>
</g>
<path fill="none" stroke-width="0.29887" stroke-linecap="butt" stroke-linejoin="miter" stroke="rgb(0%, 0%, 0%)" stroke-opacity="1" stroke-miterlimit="10" d="M 58.081187 -96.338094 C 54.214 -101.662312 52.128062 -108.084187 52.128062 -114.365437 " transform="matrix(1, 0, 0, -1, 155.286, 159.658)"/>
<path fill="none" stroke-width="0.29887" stroke-linecap="round" stroke-linejoin="round" stroke="rgb(0%, 0%, 0%)" stroke-opacity="1" stroke-miterlimit="10" d="M -1.951714 2.21171 C -1.596245 0.883585 -0.79937 0.258585 0.00141125 0.0007725 C -0.79937 -0.25704 -1.596245 -0.885946 -1.951714 -2.210165 " transform="matrix(0, 1, 1, 0, 207.41329, 274.17437)"/>
<g fill="rgb(0%, 0%, 0%)" fill-opacity="1">
<use xlink:href="#glyph-3-2" x="192.771" y="265.226"/>
<use xlink:href="#glyph-3-3" x="197.7523" y="265.226"/>
</g>
<g fill="rgb(0%, 0%, 0%)" fill-opacity="1">
<use xlink:href="#glyph-4-0" x="202.733" y="261.611"/>
</g>
<path fill="none" stroke-width="0.29887" stroke-linecap="butt" stroke-linejoin="miter" stroke="rgb(0%, 0%, 0%)" stroke-opacity="1" stroke-miterlimit="10" d="M -125.164906 14.142375 C -118.903188 16.177531 -113.44225 20.146281 -109.746938 25.228313 " transform="matrix(1, 0, 0, -1, 155.286, 159.658)"/>
<path fill="none" stroke-width="0.29887" stroke-linecap="round" stroke-linejoin="round" stroke="rgb(0%, 0%, 0%)" stroke-opacity="1" stroke-miterlimit="10" d="M -1.952837 2.208635 C -1.594751 0.885057 -0.801806 0.258878 -0.000932079 0.000595974 C -0.802624 -0.258365 -1.598171 -0.884656 -1.953486 -2.209908 " transform="matrix(0.58778, -0.809, -0.809, -0.58778, 45.62603, 134.30819)"/>
<g fill="rgb(0%, 0%, 0%)" fill-opacity="1">
<use xlink:href="#glyph-3-2" x="37.043" y="152.083"/>
<use xlink:href="#glyph-3-3" x="42.0243" y="152.083"/>
</g>
<g fill="rgb(0%, 0%, 0%)" fill-opacity="1">
<use xlink:href="#glyph-4-0" x="47.006" y="148.468"/>
</g>
<path fill="none" stroke-width="0.29887" stroke-linecap="butt" stroke-linejoin="miter" stroke="rgb(0%, 0%, 0%)" stroke-opacity="1" stroke-miterlimit="10" d="M 109.573375 25.4705 C 113.440562 20.146281 118.9015 16.177531 124.878062 14.236125 " transform="matrix(1, 0, 0, -1, 155.286, 159.658)"/>
<path fill="none" stroke-width="0.29887" stroke-linecap="round" stroke-linejoin="round" stroke="rgb(0%, 0%, 0%)" stroke-opacity="1" stroke-miterlimit="10" d="M -1.952915 2.211436 C -1.596136 0.885715 -0.800456 0.257063 0.00176323 0.000183814 C -0.801902 -0.256809 -1.596039 -0.884463 -1.953276 -2.212153 " transform="matrix(0.95107, 0.30899, 0.30899, -0.95107, 280.30686, 145.46838)"/>
<g fill="rgb(0%, 0%, 0%)" fill-opacity="1">
<use xlink:href="#glyph-3-2" x="258.985" y="152.083"/>
<use xlink:href="#glyph-3-3" x="263.9663" y="152.083"/>
</g>
<g fill="rgb(0%, 0%, 0%)" fill-opacity="1">
<use xlink:href="#glyph-4-0" x="268.948" y="148.468"/>
</g>
<path fill="none" stroke-width="0.29887" stroke-linecap="butt" stroke-linejoin="miter" stroke="rgb(0%, 0%, 0%)" stroke-opacity="1" stroke-miterlimit="10" d="M -52.125844 -114.666219 C -52.125844 -108.084187 -54.211781 -101.662312 -57.907094 -96.580281 " transform="matrix(1, 0, 0, -1, 155.286, 159.658)"/>
<path fill="none" stroke-width="0.29887" stroke-linecap="round" stroke-linejoin="round" stroke="rgb(0%, 0%, 0%)" stroke-opacity="1" stroke-miterlimit="10" d="M -1.951863 2.212421 C -1.593387 0.884873 -0.803297 0.257718 -0.0016046 -0.00124302 C -0.800182 -0.256365 -1.595424 -0.885704 -1.953509 -2.209282 " transform="matrix(-0.58778, -0.809, -0.809, 0.58778, 97.29102, 256.11662)"/>
<g fill="rgb(0%, 0%, 0%)" fill-opacity="1">
<use xlink:href="#glyph-3-2" x="103.258" y="265.226"/>
<use xlink:href="#glyph-3-3" x="108.2393" y="265.226"/>
</g>
<g fill="rgb(0%, 0%, 0%)" fill-opacity="1">
<use xlink:href="#glyph-4-0" x="113.22" y="261.611"/>
</g>
<path fill="none" stroke-width="0.29887" stroke-linecap="butt" stroke-linejoin="miter" stroke="rgb(0%, 0%, 0%)" stroke-opacity="1" stroke-miterlimit="10" d="M 9.635875 112.079875 C 15.897594 114.115031 21.358531 118.079875 25.049937 123.165813 " transform="matrix(1, 0, 0, -1, 155.286, 159.658)"/>
<path fill="none" stroke-width="0.29887" stroke-linecap="round" stroke-linejoin="round" stroke="rgb(0%, 0%, 0%)" stroke-opacity="1" stroke-miterlimit="10" d="M -1.95252 2.211231 C -1.597604 0.885346 -0.799202 0.258293 0.00167403 0.00000333196 C -0.800025 -0.258953 -1.595582 -0.885241 -1.95091 -2.210497 " transform="matrix(0.58777, -0.809, -0.809, -0.58777, 180.4248, 36.37245)"/>
<g fill="rgb(0%, 0%, 0%)" fill-opacity="1">
<use xlink:href="#glyph-3-2" x="171.84" y="54.149"/>
<use xlink:href="#glyph-3-3" x="176.8213" y="54.149"/>
</g>
<g fill="rgb(0%, 0%, 0%)" fill-opacity="1">
<use xlink:href="#glyph-4-0" x="181.803" y="50.534"/>
</g>
<path fill="none" stroke-width="0.29887" stroke-linecap="butt" stroke-linejoin="miter" stroke="rgb(0%, 0%, 0%)" stroke-opacity="1" stroke-miterlimit="10" d="M 92.944469 -85.009969 C 86.68275 -82.974812 79.936656 -82.974812 73.956187 -84.916219 " transform="matrix(1, 0, 0, -1, 155.286, 159.658)"/>
<path fill="none" stroke-width="0.29887" stroke-linecap="round" stroke-linejoin="round" stroke="rgb(0%, 0%, 0%)" stroke-opacity="1" stroke-miterlimit="10" d="M -1.951496 2.209897 C -1.597974 0.883413 -0.798915 0.258268 -0.00017204 -0.00123344 C -0.802391 -0.258112 -1.596864 -0.88305 -1.953643 -2.20877 " transform="matrix(-0.95107, 0.30899, 0.30899, 0.95107, 229.10178, 244.62232)"/>
<g fill="rgb(0%, 0%, 0%)" fill-opacity="1">
<use xlink:href="#glyph-3-2" x="231.322" y="237.217"/>
<use xlink:href="#glyph-3-3" x="236.3033" y="237.217"/>
</g>
<g fill="rgb(0%, 0%, 0%)" fill-opacity="1">
<use xlink:href="#glyph-4-0" x="241.285" y="233.602"/>
</g>
<path fill="none" stroke-width="0.29887" stroke-linecap="butt" stroke-linejoin="miter" stroke="rgb(0%, 0%, 0%)" stroke-opacity="1" stroke-miterlimit="10" d="M -103.618031 43.798625 C -103.618031 50.380656 -105.703969 56.798625 -109.395375 61.884563 " transform="matrix(1, 0, 0, -1, 155.286, 159.658)"/>
<path fill="none" stroke-width="0.29887" stroke-linecap="round" stroke-linejoin="round" stroke="rgb(0%, 0%, 0%)" stroke-opacity="1" stroke-miterlimit="10" d="M -1.951659 2.211508 C -1.596331 0.886252 -0.800774 0.259964 0.000925081 0.00100744 C -0.799951 -0.257282 -1.595192 -0.886632 -1.953269 -2.21022 " transform="matrix(-0.58777, -0.809, -0.809, 0.58777, 45.80214, 97.6525)"/>
<g fill="rgb(0%, 0%, 0%)" fill-opacity="1">
<use xlink:href="#glyph-3-2" x="51.769" y="106.764"/>
<use xlink:href="#glyph-3-3" x="56.7503" y="106.764"/>
</g>
<g fill="rgb(0%, 0%, 0%)" fill-opacity="1">
<use xlink:href="#glyph-4-0" x="61.732" y="103.148"/>
</g>
<path fill="none" stroke-width="0.29887" stroke-linecap="butt" stroke-linejoin="miter" stroke="rgb(0%, 0%, 0%)" stroke-opacity="1" stroke-miterlimit="10" d="M 109.573375 62.12675 C 105.702281 56.798625 103.616344 50.380656 103.616344 44.099406 " transform="matrix(1, 0, 0, -1, 155.286, 159.658)"/>
<path fill="none" stroke-width="0.29887" stroke-linecap="round" stroke-linejoin="round" stroke="rgb(0%, 0%, 0%)" stroke-opacity="1" stroke-miterlimit="10" d="M -1.951978 2.210661 C -1.596509 0.882536 -0.799634 0.257536 0.0011475 -0.00027625 C -0.799634 -0.258089 -1.596509 -0.883089 -1.951978 -2.211214 " transform="matrix(0, 1, 1, 0, 258.90262, 115.70979)"/>
<g fill="rgb(0%, 0%, 0%)" fill-opacity="1">
<use xlink:href="#glyph-3-2" x="244.259" y="106.764"/>
<use xlink:href="#glyph-3-3" x="249.2403" y="106.764"/>
</g>
<g fill="rgb(0%, 0%, 0%)" fill-opacity="1">
<use xlink:href="#glyph-4-0" x="254.222" y="103.148"/>
</g>
<path fill="none" stroke-width="0.29887" stroke-linecap="butt" stroke-linejoin="miter" stroke="rgb(0%, 0%, 0%)" stroke-opacity="1" stroke-miterlimit="10" d="M -73.672719 -85.009969 C -79.934438 -82.974812 -86.684438 -82.974812 -92.661 -84.916219 " transform="matrix(1, 0, 0, -1, 155.286, 159.658)"/>
<path fill="none" stroke-width="0.29887" stroke-linecap="round" stroke-linejoin="round" stroke="rgb(0%, 0%, 0%)" stroke-opacity="1" stroke-miterlimit="10" d="M -1.952192 2.210123 C -1.594956 0.882433 -0.799612 0.258494 -0.000868692 -0.00100711 C -0.799373 -0.259093 -1.593846 -0.884031 -1.950625 -2.209751 " transform="matrix(-0.95107, 0.30899, 0.30899, 0.95107, 62.48386, 244.62232)"/>
<g fill="rgb(0%, 0%, 0%)" fill-opacity="1">
<use xlink:href="#glyph-3-2" x="64.706" y="237.217"/>
<use xlink:href="#glyph-3-3" x="69.6873" y="237.217"/>
</g>
<g fill="rgb(0%, 0%, 0%)" fill-opacity="1">
<use xlink:href="#glyph-4-0" x="74.669" y="233.602"/>
</g>
<path fill="none" stroke-width="0.29887" stroke-linecap="butt" stroke-linejoin="miter" stroke="rgb(0%, 0%, 0%)" stroke-opacity="1" stroke-miterlimit="10" d="M -25.227406 123.408 C -21.356313 118.079875 -15.895375 114.115031 -9.918813 112.169719 " transform="matrix(1, 0, 0, -1, 155.286, 159.658)"/>
<path fill="none" stroke-width="0.29887" stroke-linecap="round" stroke-linejoin="round" stroke="rgb(0%, 0%, 0%)" stroke-opacity="1" stroke-miterlimit="10" d="M -1.951058 2.210266 C -1.594279 0.884546 -0.799806 0.259608 -0.00130157 0.00152232 C -0.800045 -0.257979 -1.594182 -0.885633 -1.952625 -2.209608 " transform="matrix(0.95107, 0.30899, 0.30899, -0.95107, 145.50858, 47.5331)"/>
<g fill="rgb(0%, 0%, 0%)" fill-opacity="1">
<use xlink:href="#glyph-3-2" x="124.189" y="54.149"/>
<use xlink:href="#glyph-3-3" x="129.1703" y="54.149"/>
</g>
<g fill="rgb(0%, 0%, 0%)" fill-opacity="1">
<use xlink:href="#glyph-4-0" x="134.151" y="50.534"/>
</g>
<path fill="none" stroke-width="0.29887" stroke-linecap="butt" stroke-linejoin="miter" stroke="rgb(0%, 0%, 0%)" stroke-opacity="1" stroke-miterlimit="10" d="M 58.081187 -96.338094 C 54.214 -101.662312 52.128062 -108.084187 52.128062 -114.365437 " transform="matrix(1, 0, 0, -1, 155.286, 159.658)"/>
<path fill="none" stroke-width="0.29887" stroke-linecap="round" stroke-linejoin="round" stroke="rgb(0%, 0%, 0%)" stroke-opacity="1" stroke-miterlimit="10" d="M -1.951714 2.21171 C -1.596245 0.883585 -0.79937 0.258585 0.00141125 0.0007725 C -0.79937 -0.25704 -1.596245 -0.885946 -1.951714 -2.210165 " transform="matrix(0, 1, 1, 0, 207.41329, 274.17437)"/>
<g fill="rgb(0%, 0%, 0%)" fill-opacity="1">
<use xlink:href="#glyph-3-2" x="192.771" y="265.226"/>
<use xlink:href="#glyph-3-3" x="197.7523" y="265.226"/>
</g>
<g fill="rgb(0%, 0%, 0%)" fill-opacity="1">
<use xlink:href="#glyph-4-0" x="202.733" y="261.611"/>
</g>
<path fill="none" stroke-width="0.29887" stroke-linecap="butt" stroke-linejoin="miter" stroke="rgb(0%, 0%, 0%)" stroke-opacity="1" stroke-miterlimit="10" d="M -125.164906 14.142375 C -118.903188 16.177531 -113.44225 20.146281 -109.746938 25.228313 " transform="matrix(1, 0, 0, -1, 155.286, 159.658)"/>
<path fill="none" stroke-width="0.29887" stroke-linecap="round" stroke-linejoin="round" stroke="rgb(0%, 0%, 0%)" stroke-opacity="1" stroke-miterlimit="10" d="M -1.952837 2.208635 C -1.594751 0.885057 -0.801806 0.258878 -0.000932079 0.000595974 C -0.802624 -0.258365 -1.598171 -0.884656 -1.953486 -2.209908 " transform="matrix(0.58778, -0.809, -0.809, -0.58778, 45.62603, 134.30819)"/>
<g fill="rgb(0%, 0%, 0%)" fill-opacity="1">
<use xlink:href="#glyph-3-2" x="37.043" y="152.083"/>
<use xlink:href="#glyph-3-3" x="42.0243" y="152.083"/>
</g>
<g fill="rgb(0%, 0%, 0%)" fill-opacity="1">
<use xlink:href="#glyph-4-0" x="47.006" y="148.468"/>
</g>
<path fill="none" stroke-width="0.29887" stroke-linecap="butt" stroke-linejoin="miter" stroke="rgb(0%, 0%, 0%)" stroke-opacity="1" stroke-miterlimit="10" d="M 109.573375 25.4705 C 113.440562 20.146281 118.9015 16.177531 124.878062 14.236125 " transform="matrix(1, 0, 0, -1, 155.286, 159.658)"/>
<path fill="none" stroke-width="0.29887" stroke-linecap="round" stroke-linejoin="round" stroke="rgb(0%, 0%, 0%)" stroke-opacity="1" stroke-miterlimit="10" d="M -1.952915 2.211436 C -1.596136 0.885715 -0.800456 0.257063 0.00176323 0.000183814 C -0.801902 -0.256809 -1.596039 -0.884463 -1.953276 -2.212153 " transform="matrix(0.95107, 0.30899, 0.30899, -0.95107, 280.30686, 145.46838)"/>
<g fill="rgb(0%, 0%, 0%)" fill-opacity="1">
<use xlink:href="#glyph-3-2" x="258.985" y="152.083"/>
<use xlink:href="#glyph-3-3" x="263.9663" y="152.083"/>
</g>
<g fill="rgb(0%, 0%, 0%)" fill-opacity="1">
<use xlink:href="#glyph-4-0" x="268.948" y="148.468"/>
</g>
<path fill="none" stroke-width="0.29887" stroke-linecap="butt" stroke-linejoin="miter" stroke="rgb(0%, 0%, 0%)" stroke-opacity="1" stroke-miterlimit="10" d="M -52.125844 -114.666219 C -52.125844 -108.084187 -54.211781 -101.662312 -57.907094 -96.580281 " transform="matrix(1, 0, 0, -1, 155.286, 159.658)"/>
<path fill="none" stroke-width="0.29887" stroke-linecap="round" stroke-linejoin="round" stroke="rgb(0%, 0%, 0%)" stroke-opacity="1" stroke-miterlimit="10" d="M -1.951863 2.212421 C -1.593387 0.884873 -0.803297 0.257718 -0.0016046 -0.00124302 C -0.800182 -0.256365 -1.595424 -0.885704 -1.953509 -2.209282 " transform="matrix(-0.58778, -0.809, -0.809, 0.58778, 97.29102, 256.11662)"/>
<g fill="rgb(0%, 0%, 0%)" fill-opacity="1">
<use xlink:href="#glyph-3-2" x="103.258" y="265.226"/>
<use xlink:href="#glyph-3-3" x="108.2393" y="265.226"/>
</g>
<g fill="rgb(0%, 0%, 0%)" fill-opacity="1">
<use xlink:href="#glyph-4-0" x="113.22" y="261.611"/>
</g>
<path fill="none" stroke-width="0.29887" stroke-linecap="butt" stroke-linejoin="miter" stroke="rgb(0%, 0%, 0%)" stroke-opacity="1" stroke-miterlimit="10" d="M 9.635875 112.079875 C 15.897594 114.115031 21.358531 118.079875 25.049937 123.165813 " transform="matrix(1, 0, 0, -1, 155.286, 159.658)"/>
<path fill="none" stroke-width="0.29887" stroke-linecap="round" stroke-linejoin="round" stroke="rgb(0%, 0%, 0%)" stroke-opacity="1" stroke-miterlimit="10" d="M -1.95252 2.211231 C -1.597604 0.885346 -0.799202 0.258293 0.00167403 0.00000333196 C -0.800025 -0.258953 -1.595582 -0.885241 -1.95091 -2.210497 " transform="matrix(0.58777, -0.809, -0.809, -0.58777, 180.4248, 36.37245)"/>
<g fill="rgb(0%, 0%, 0%)" fill-opacity="1">
<use xlink:href="#glyph-3-2" x="171.84" y="54.149"/>
<use xlink:href="#glyph-3-3" x="176.8213" y="54.149"/>
</g>
<g fill="rgb(0%, 0%, 0%)" fill-opacity="1">
<use xlink:href="#glyph-4-0" x="181.803" y="50.534"/>
</g>
<path fill="none" stroke-width="0.29887" stroke-linecap="butt" stroke-linejoin="miter" stroke="rgb(0%, 0%, 0%)" stroke-opacity="1" stroke-miterlimit="10" d="M 92.944469 -85.009969 C 86.68275 -82.974812 79.936656 -82.974812 73.956187 -84.916219 " transform="matrix(1, 0, 0, -1, 155.286, 159.658)"/>
<path fill="none" stroke-width="0.29887" stroke-linecap="round" stroke-linejoin="round" stroke="rgb(0%, 0%, 0%)" stroke-opacity="1" stroke-miterlimit="10" d="M -1.951496 2.209897 C -1.597974 0.883413 -0.798915 0.258268 -0.00017204 -0.00123344 C -0.802391 -0.258112 -1.596864 -0.88305 -1.953643 -2.20877 " transform="matrix(-0.95107, 0.30899, 0.30899, 0.95107, 229.10178, 244.62232)"/>
<g fill="rgb(0%, 0%, 0%)" fill-opacity="1">
<use xlink:href="#glyph-3-2" x="231.322" y="237.217"/>
<use xlink:href="#glyph-3-3" x="236.3033" y="237.217"/>
</g>
<g fill="rgb(0%, 0%, 0%)" fill-opacity="1">
<use xlink:href="#glyph-4-0" x="241.285" y="233.602"/>
</g>
<path fill="none" stroke-width="0.29887" stroke-linecap="butt" stroke-linejoin="miter" stroke="rgb(0%, 0%, 0%)" stroke-opacity="1" stroke-miterlimit="10" d="M -103.618031 43.798625 C -103.618031 50.380656 -105.703969 56.798625 -109.395375 61.884563 " transform="matrix(1, 0, 0, -1, 155.286, 159.658)"/>
<path fill="none" stroke-width="0.29887" stroke-linecap="round" stroke-linejoin="round" stroke="rgb(0%, 0%, 0%)" stroke-opacity="1" stroke-miterlimit="10" d="M -1.951659 2.211508 C -1.596331 0.886252 -0.800774 0.259964 0.000925081 0.00100744 C -0.799951 -0.257282 -1.595192 -0.886632 -1.953269 -2.21022 " transform="matrix(-0.58777, -0.809, -0.809, 0.58777, 45.80214, 97.6525)"/>
<g fill="rgb(0%, 0%, 0%)" fill-opacity="1">
<use xlink:href="#glyph-3-2" x="51.769" y="106.764"/>
<use xlink:href="#glyph-3-3" x="56.7503" y="106.764"/>
</g>
<g fill="rgb(0%, 0%, 0%)" fill-opacity="1">
<use xlink:href="#glyph-4-0" x="61.732" y="103.148"/>
</g>
<path fill="none" stroke-width="0.29887" stroke-linecap="butt" stroke-linejoin="miter" stroke="rgb(0%, 0%, 0%)" stroke-opacity="1" stroke-miterlimit="10" d="M 109.573375 62.12675 C 105.702281 56.798625 103.616344 50.380656 103.616344 44.099406 " transform="matrix(1, 0, 0, -1, 155.286, 159.658)"/>
<path fill="none" stroke-width="0.29887" stroke-linecap="round" stroke-linejoin="round" stroke="rgb(0%, 0%, 0%)" stroke-opacity="1" stroke-miterlimit="10" d="M -1.951978 2.210661 C -1.596509 0.882536 -0.799634 0.257536 0.0011475 -0.00027625 C -0.799634 -0.258089 -1.596509 -0.883089 -1.951978 -2.211214 " transform="matrix(0, 1, 1, 0, 258.90262, 115.70979)"/>
<g fill="rgb(0%, 0%, 0%)" fill-opacity="1">
<use xlink:href="#glyph-3-2" x="244.259" y="106.764"/>
<use xlink:href="#glyph-3-3" x="249.2403" y="106.764"/>
</g>
<g fill="rgb(0%, 0%, 0%)" fill-opacity="1">
<use xlink:href="#glyph-4-0" x="254.222" y="103.148"/>
</g>
<path fill="none" stroke-width="0.29887" stroke-linecap="butt" stroke-linejoin="miter" stroke="rgb(0%, 0%, 0%)" stroke-opacity="1" stroke-miterlimit="10" d="M -0.00084375 36.825969 L -6.9735 36.825969 L -6.9735 43.798625 " transform="matrix(1, 0, 0, -1, 155.286, 159.658)"/>
<path fill="none" stroke-width="0.29887" stroke-linecap="butt" stroke-linejoin="miter" stroke="rgb(0%, 0%, 0%)" stroke-opacity="1" stroke-miterlimit="10" d="M -35.020375 11.380656 L -37.176625 4.747844 L -43.809438 6.900188 " transform="matrix(1, 0, 0, -1, 155.286, 159.658)"/>
<path fill="none" stroke-width="0.29887" stroke-linecap="butt" stroke-linejoin="miter" stroke="rgb(0%, 0%, 0%)" stroke-opacity="1" stroke-miterlimit="10" d="M -21.645375 -29.791219 L -16.000844 -33.892781 L -20.102406 -39.533406 " transform="matrix(1, 0, 0, -1, 155.286, 159.658)"/>
<path fill="none" stroke-width="0.29887" stroke-linecap="butt" stroke-linejoin="miter" stroke="rgb(0%, 0%, 0%)" stroke-opacity="1" stroke-miterlimit="10" d="M 21.643687 -29.791219 L 27.288219 -25.693562 L 31.385875 -31.334187 " transform="matrix(1, 0, 0, -1, 155.286, 159.658)"/>
<path fill="none" stroke-width="0.29887" stroke-linecap="butt" stroke-linejoin="miter" stroke="rgb(0%, 0%, 0%)" stroke-opacity="1" stroke-miterlimit="10" d="M 35.022594 11.380656 L 32.866344 18.013469 L 39.499156 20.165813 " transform="matrix(1, 0, 0, -1, 155.286, 159.658)"/>
</svg>
