<?xml version="1.0" encoding="UTF-8"?>
<svg xmlns="http://www.w3.org/2000/svg" xmlns:xlink="http://www.w3.org/1999/xlink" width="264.756pt" height="208.063pt" viewBox="0 0 264.756 208.063">
<defs>
<clipPath id="clip-0">
<path clip-rule="nonzero" d="M 0 0 L 264.757812 0 L 264.757812 208.0625 L 0 208.0625 Z M 0 0 "/>
</clipPath>
<clipPath id="clip-1">
<path clip-rule="nonzero" d="M 0 84 L 264.757812 84 L 264.757812 124 L 0 124 Z M 0 84 "/>
</clipPath>
<clipPath id="clip-2">
<path clip-rule="nonzero" d="M 55 112 L 264.757812 112 L 264.757812 208.0625 L 55 208.0625 Z M 55 112 "/>
</clipPath>
<clipPath id="clip-3">
<path clip-rule="nonzero" d="M 97 180 L 113 180 L 113 208.0625 L 97 208.0625 Z M 97 180 "/>
</clipPath>
<clipPath id="clip-4">
<path clip-rule="nonzero" d="M 146 174 L 197 174 L 197 208.0625 L 146 208.0625 Z M 146 174 "/>
</clipPath>
</defs>
<g clip-path="url(#clip-0)">
<path fill="none" stroke-width="0.3985" stroke-linecap="butt" stroke-linejoin="miter" stroke="rgb(0%, 0%, 0%)" stroke-opacity="1" stroke-miterlimit="10" d="M -0.00028125 0.0018125 L -56.691688 113.388531 L 56.695031 198.427594 L 141.734094 170.079937 L 198.429406 85.040875 L 113.386437 0.0018125 Z M -0.00028125 0.0018125 " transform="matrix(1, 0, 0, -1, 61.512, 203.244)"/>
</g>
<path fill="none" stroke-width="0.3985" stroke-linecap="butt" stroke-linejoin="miter" stroke="rgb(0%, 0%, 0%)" stroke-opacity="1" stroke-dasharray="2.98883 2.98883" stroke-miterlimit="10" d="M -56.691688 113.388531 L 141.734094 170.079937 " transform="matrix(1, 0, 0, -1, 61.512, 203.244)"/>
<g clip-path="url(#clip-1)">
<path fill="none" stroke-width="0.3985" stroke-linecap="butt" stroke-linejoin="miter" stroke="rgb(0%, 0%, 0%)" stroke-opacity="1" stroke-dasharray="2.98883 2.98883" stroke-miterlimit="10" d="M -56.691688 113.388531 L 198.429406 85.040875 " transform="matrix(1, 0, 0, -1, 61.512, 203.244)"/>
</g>
<g clip-path="url(#clip-2)">
<path fill="none" stroke-width="0.3985" stroke-linecap="butt" stroke-linejoin="miter" stroke="rgb(0%, 0%, 0%)" stroke-opacity="1" stroke-dasharray="2.98883 2.98883" stroke-miterlimit="10" d="M -0.00028125 0.0018125 L 198.429406 85.040875 " transform="matrix(1, 0, 0, -1, 61.512, 203.244)"/>
</g>
<path fill-rule="nonzero" fill="rgb(0%, 0%, 0%)" fill-opacity="1" d="M 63.496094 203.242188 C 63.496094 202.148438 62.609375 201.257812 61.511719 201.257812 C 60.417969 201.257812 59.527344 202.148438 59.527344 203.242188 C 59.527344 204.339844 60.417969 205.226562 61.511719 205.226562 C 62.609375 205.226562 63.496094 204.339844 63.496094 203.242188 Z M 63.496094 203.242188 "/>
<path fill-rule="nonzero" fill="rgb(0%, 0%, 0%)" fill-opacity="1" d="M 6.800781 89.855469 C 6.800781 88.761719 5.914062 87.871094 4.820312 87.871094 C 3.722656 87.871094 2.835938 88.761719 2.835938 89.855469 C 2.835938 90.953125 3.722656 91.839844 4.820312 91.839844 C 5.914062 91.839844 6.800781 90.953125 6.800781 89.855469 Z M 6.800781 89.855469 "/>
<path fill-rule="nonzero" fill="rgb(0%, 0%, 0%)" fill-opacity="1" d="M 120.191406 4.816406 C 120.191406 3.71875 119.300781 2.832031 118.207031 2.832031 C 117.109375 2.832031 116.222656 3.71875 116.222656 4.816406 C 116.222656 5.914062 117.109375 6.800781 118.207031 6.800781 C 119.300781 6.800781 120.191406 5.914062 120.191406 4.816406 Z M 120.191406 4.816406 "/>
<path fill-rule="nonzero" fill="rgb(0%, 0%, 0%)" fill-opacity="1" d="M 205.230469 33.164062 C 205.230469 32.066406 204.34375 31.179688 203.246094 31.179688 C 202.148438 31.179688 201.261719 32.066406 201.261719 33.164062 C 201.261719 34.257812 202.148438 35.148438 203.246094 35.148438 C 204.34375 35.148438 205.230469 34.257812 205.230469 33.164062 Z M 205.230469 33.164062 "/>
<path fill-rule="nonzero" fill="rgb(0%, 0%, 0%)" fill-opacity="1" d="M 261.925781 118.203125 C 261.925781 117.109375 261.035156 116.21875 259.941406 116.21875 C 258.84375 116.21875 257.957031 117.109375 257.957031 118.203125 C 257.957031 119.300781 258.84375 120.1875 259.941406 120.1875 C 261.035156 120.1875 261.925781 119.300781 261.925781 118.203125 Z M 261.925781 118.203125 "/>
<path fill-rule="nonzero" fill="rgb(0%, 0%, 0%)" fill-opacity="1" d="M 176.882812 203.242188 C 176.882812 202.148438 175.996094 201.257812 174.898438 201.257812 C 173.804688 201.257812 172.914062 202.148438 172.914062 203.242188 C 172.914062 204.339844 173.804688 205.226562 174.898438 205.226562 C 175.996094 205.226562 176.882812 204.339844 176.882812 203.242188 Z M 176.882812 203.242188 "/>
<g clip-path="url(#clip-3)">
<path fill="none" stroke-width="0.3985" stroke-linecap="butt" stroke-linejoin="miter" stroke="rgb(0%, 0%, 0%)" stroke-opacity="1" stroke-miterlimit="10" d="M 45.355187 0.40025 C 45.355187 6.138531 44.105187 12.220562 41.843469 17.497906 " transform="matrix(1, 0, 0, -1, 61.512, 203.244)"/>
</g>
<path fill="none" stroke-width="0.3985" stroke-linecap="round" stroke-linejoin="round" stroke="rgb(0%, 0%, 0%)" stroke-opacity="1" stroke-miterlimit="10" d="M -2.072094 2.390723 C -1.693187 0.957129 -0.849437 0.277441 -0.00178125 0.0000975 C -0.849437 -0.277246 -1.693187 -0.956934 -2.072094 -2.390527 " transform="matrix(0, 1, 1, 0, 106.86709, 203.04475)"/>
<path fill="none" stroke-width="0.3985" stroke-linecap="round" stroke-linejoin="round" stroke="rgb(0%, 0%, 0%)" stroke-opacity="1" stroke-miterlimit="10" d="M -2.073269 2.392541 C -1.694687 0.955291 -0.84986 0.278741 -0.000424298 -0.000279213 C -0.85036 -0.277799 -1.694132 -0.957463 -2.070085 -2.390114 " transform="matrix(-0.39388, -0.91911, -0.91911, 0.39388, 103.27692, 185.56222)"/>
<path fill="none" stroke-width="0.3985" stroke-linecap="butt" stroke-linejoin="miter" stroke="rgb(0%, 0%, 0%)" stroke-opacity="1" stroke-miterlimit="10" d="M 36.320031 15.997906 C 30.890344 28.661969 18.777062 37.724469 4.698937 39.404156 C -3.004188 40.322125 -10.808875 38.96275 -17.390906 35.669781 " transform="matrix(1, 0, 0, -1, 61.512, 203.244)"/>
<path fill="none" stroke-width="0.3985" stroke-linecap="round" stroke-linejoin="round" stroke="rgb(0%, 0%, 0%)" stroke-opacity="1" stroke-miterlimit="10" d="M -2.073421 2.390238 C -1.6933 0.956578 -0.848473 0.280029 0.000962664 0.00100867 C -0.850512 -0.280102 -1.692745 -0.956176 -2.073827 -2.390878 " transform="matrix(0.39388, 0.91911, 0.91911, -0.39388, 97.90885, 187.4292)"/>
<path fill="none" stroke-width="0.3985" stroke-linecap="round" stroke-linejoin="round" stroke="rgb(0%, 0%, 0%)" stroke-opacity="1" stroke-miterlimit="10" d="M -2.072243 2.392556 C -1.693096 0.958243 -0.849255 0.278666 -0.00193151 -0.000838633 C -0.84924 -0.280388 -1.693044 -0.95477 -2.070367 -2.39085 " transform="matrix(-0.89438, 0.44716, 0.44716, 0.89438, 43.94396, 167.66177)"/>
<path fill="none" stroke-width="0.3985" stroke-linecap="butt" stroke-linejoin="miter" stroke="rgb(0%, 0%, 0%)" stroke-opacity="1" stroke-miterlimit="10" d="M -38.590125 78.072125 C -26.910438 83.911969 -18.738563 95.630719 -17.297156 108.611187 " transform="matrix(1, 0, 0, -1, 61.512, 203.244)"/>
<path fill="none" stroke-width="0.3985" stroke-linecap="round" stroke-linejoin="round" stroke="rgb(0%, 0%, 0%)" stroke-opacity="1" stroke-miterlimit="10" d="M -2.071015 2.390407 C -1.691882 0.956097 -0.851546 0.278262 0.00101243 0.000498692 C -0.849789 -0.277295 -1.691848 -0.956907 -2.072676 -2.391231 " transform="matrix(-0.89438, 0.44717, 0.44717, 0.89438, 22.74287, 125.26082)"/>
<path fill="none" stroke-width="0.3985" stroke-linecap="round" stroke-linejoin="round" stroke="rgb(0%, 0%, 0%)" stroke-opacity="1" stroke-miterlimit="10" d="M -2.070562 2.391129 C -1.694898 0.954994 -0.849403 0.27852 -0.00086462 -0.000640624 C -0.850297 -0.279705 -1.695006 -0.955222 -2.073852 -2.392608 " transform="matrix(0.11037, -0.99384, -0.99384, -0.11037, 44.23774, 94.43657)"/>
<path fill="none" stroke-width="0.3985" stroke-linecap="butt" stroke-linejoin="miter" stroke="rgb(0%, 0%, 0%)" stroke-opacity="1" stroke-miterlimit="10" d="M -11.5745 108.77525 C -10.965125 114.240094 -11.465125 120.177594 -12.976844 125.46275 " transform="matrix(1, 0, 0, -1, 61.512, 203.244)"/>
<path fill="none" stroke-width="0.3985" stroke-linecap="round" stroke-linejoin="round" stroke="rgb(0%, 0%, 0%)" stroke-opacity="1" stroke-miterlimit="10" d="M -2.072268 2.392922 C -1.692722 0.957218 -0.851108 0.280312 0.00131208 0.00158332 C -0.852003 -0.277912 -1.692398 -0.956881 -2.071675 -2.390384 " transform="matrix(-0.11037, 0.99384, 0.99384, 0.11037, 49.91654, 94.66649)"/>
<path fill="none" stroke-width="0.3985" stroke-linecap="round" stroke-linejoin="round" stroke="rgb(0%, 0%, 0%)" stroke-opacity="1" stroke-miterlimit="10" d="M -2.071676 2.392604 C -1.693889 0.956184 -0.850904 0.280647 -0.000415383 0.00110801 C -0.848744 -0.280617 -1.692235 -0.957803 -2.073711 -2.392631 " transform="matrix(-0.27469, -0.9615, -0.9615, 0.27469, 48.48142, 77.58914)"/>
<path fill="none" stroke-width="0.3985" stroke-linecap="butt" stroke-linejoin="miter" stroke="rgb(0%, 0%, 0%)" stroke-opacity="1" stroke-miterlimit="10" d="M -7.742469 127.786969 C -9.344031 133.392437 -12.140906 139.021344 -15.637 143.6815 " transform="matrix(1, 0, 0, -1, 61.512, 203.244)"/>
<path fill="none" stroke-width="0.3985" stroke-linecap="round" stroke-linejoin="round" stroke="rgb(0%, 0%, 0%)" stroke-opacity="1" stroke-miterlimit="10" d="M -2.072113 2.389095 C -1.693268 0.956416 -0.850285 0.280864 0.000206034 0.0013127 C -0.851888 -0.279331 -1.695393 -0.956511 -2.073133 -2.392417 " transform="matrix(0.2747, 0.96149, 0.96149, -0.2747, 53.8229, 75.6486)"/>
<path fill="none" stroke-width="0.3985" stroke-linecap="round" stroke-linejoin="round" stroke="rgb(0%, 0%, 0%)" stroke-opacity="1" stroke-miterlimit="10" d="M -2.073248 2.392603 C -1.695126 0.956618 -0.850576 0.279246 -0.00133455 -0.00123977 C -0.849019 -0.278583 -1.695145 -0.957502 -2.070952 -2.389572 " transform="matrix(-0.59999, -0.79997, -0.79997, 0.59999, 45.75602, 59.40202)"/>
<path fill="none" stroke-width="0.3985" stroke-linecap="butt" stroke-linejoin="miter" stroke="rgb(0%, 0%, 0%)" stroke-opacity="1" stroke-miterlimit="10" d="M 38.792687 184.501812 C 46.066125 174.802594 60.280969 172.771344 70.3005 180.286969 C 73.988 183.052594 76.749719 186.880719 78.08175 190.880719 " transform="matrix(1, 0, 0, -1, 61.512, 203.244)"/>
<path fill="none" stroke-width="0.3985" stroke-linecap="round" stroke-linejoin="round" stroke="rgb(0%, 0%, 0%)" stroke-opacity="1" stroke-miterlimit="10" d="M -2.074164 2.390843 C -1.693698 0.957984 -0.849149 0.280611 0.000092754 0.000125753 C -0.849936 -0.280343 -1.693718 -0.956136 -2.071868 -2.391332 " transform="matrix(-0.59999, -0.79997, -0.79997, 0.59999, 100.18375, 18.58203)"/>
<path fill="none" stroke-width="0.3985" stroke-linecap="round" stroke-linejoin="round" stroke="rgb(0%, 0%, 0%)" stroke-opacity="1" stroke-miterlimit="10" d="M -2.073451 2.392157 C -1.694224 0.957939 -0.850505 0.279734 0.000631292 -0.000696139 C -0.849277 -0.279869 -1.694248 -0.956817 -2.072276 -2.392262 " transform="matrix(0.3162, -0.94864, -0.94864, -0.3162, 139.65539, 12.17616)"/>
<path fill="none" stroke-width="0.3985" stroke-linecap="butt" stroke-linejoin="miter" stroke="rgb(0%, 0%, 0%)" stroke-opacity="1" stroke-miterlimit="10" d="M 103.960656 182.251812 C 101.558312 175.044781 101.378625 166.869 103.468469 159.560406 " transform="matrix(1, 0, 0, -1, 61.512, 203.244)"/>
<path fill="none" stroke-width="0.3985" stroke-linecap="round" stroke-linejoin="round" stroke="rgb(0%, 0%, 0%)" stroke-opacity="1" stroke-miterlimit="10" d="M -2.070693 2.390701 C -1.69516 0.955255 -0.847731 0.278296 -0.00153575 0.000345895 C -0.851438 -0.278834 -1.692695 -0.954553 -2.070708 -2.389996 " transform="matrix(0.31621, -0.94864, -0.94864, -0.31621, 165.53597, 20.80334)"/>
<path fill="none" stroke-width="0.3985" stroke-linecap="round" stroke-linejoin="round" stroke="rgb(0%, 0%, 0%)" stroke-opacity="1" stroke-miterlimit="10" d="M -2.073138 2.39285 C -1.695351 0.95643 -0.848609 0.27982 0.00187949 0.000280783 C -0.850206 -0.280371 -1.693696 -0.957557 -2.070343 -2.389702 " transform="matrix(0.27469, 0.9615, 0.9615, -0.27469, 165.03437, 43.87327)"/>
<path fill="none" stroke-width="0.3985" stroke-linecap="butt" stroke-linejoin="miter" stroke="rgb(0%, 0%, 0%)" stroke-opacity="1" stroke-miterlimit="10" d="M 111.863 161.130719 C 114.812219 150.8065 123.359094 142.536969 134.163781 139.833844 C 142.687219 137.701031 151.718469 139.263531 158.698937 143.915875 " transform="matrix(1, 0, 0, -1, 61.512, 203.244)"/>
<path fill="none" stroke-width="0.3985" stroke-linecap="round" stroke-linejoin="round" stroke="rgb(0%, 0%, 0%)" stroke-opacity="1" stroke-miterlimit="10" d="M -2.072698 2.391582 C -1.694911 0.955161 -0.848169 0.278552 -0.00143684 0.0000854761 C -0.848693 -0.277884 -1.692183 -0.955069 -2.073659 -2.389898 " transform="matrix(-0.27469, -0.9615, -0.9615, 0.27469, 173.32, 41.92047)"/>
<path fill="none" stroke-width="0.3985" stroke-linecap="round" stroke-linejoin="round" stroke="rgb(0%, 0%, 0%)" stroke-opacity="1" stroke-miterlimit="10" d="M -2.074195 2.390419 C -1.691713 0.957021 -0.848777 0.277711 -0.00151439 -0.00072117 C -0.849851 -0.280265 -1.694931 -0.956353 -2.073032 -2.389764 " transform="matrix(0.83202, -0.55466, -0.55466, -0.83202, 220.37586, 59.21731)"/>
<path fill="none" stroke-width="0.3985" stroke-linecap="butt" stroke-linejoin="miter" stroke="rgb(0%, 0%, 0%)" stroke-opacity="1" stroke-miterlimit="10" d="M 176.085656 117.83775 C 166.663781 111.5565 160.280969 101.072125 159.030969 89.818219 " transform="matrix(1, 0, 0, -1, 61.512, 203.244)"/>
<path fill="none" stroke-width="0.3985" stroke-linecap="round" stroke-linejoin="round" stroke="rgb(0%, 0%, 0%)" stroke-opacity="1" stroke-miterlimit="10" d="M -2.073413 2.389664 C -1.694182 0.958432 -0.851246 0.279123 -0.000733255 -0.00147628 C -0.84907 -0.281021 -1.69415 -0.957108 -2.07225 -2.390519 " transform="matrix(0.83202, -0.55466, -0.55466, -0.83202, 237.76151, 85.29524)"/>
<path fill="none" stroke-width="0.3985" stroke-linecap="round" stroke-linejoin="round" stroke="rgb(0%, 0%, 0%)" stroke-opacity="1" stroke-miterlimit="10" d="M -2.072293 2.390708 C -1.692746 0.955004 -0.851133 0.278099 0.00128752 -0.00063053 C -0.848145 -0.279695 -1.692854 -0.955212 -2.071699 -2.392598 " transform="matrix(-0.11037, 0.99384, 0.99384, 0.11037, 220.5203, 113.62379)"/>
<path fill="none" stroke-width="0.3985" stroke-linecap="butt" stroke-linejoin="miter" stroke="rgb(0%, 0%, 0%)" stroke-opacity="1" stroke-miterlimit="10" d="M 153.308312 89.65025 C 152.488 82.259625 153.655969 74.376812 156.585656 67.540875 " transform="matrix(1, 0, 0, -1, 61.512, 203.244)"/>
<path fill="none" stroke-width="0.3985" stroke-linecap="round" stroke-linejoin="round" stroke="rgb(0%, 0%, 0%)" stroke-opacity="1" stroke-miterlimit="10" d="M -2.070117 2.389459 C -1.694884 0.957207 -0.849388 0.280732 -0.000850001 0.00157212 C -0.850282 -0.277492 -1.69456 -0.956892 -2.073837 -2.390395 " transform="matrix(0.11037, -0.99384, -0.99384, -0.11037, 214.8415, 113.39386)"/>
<path fill="none" stroke-width="0.3985" stroke-linecap="round" stroke-linejoin="round" stroke="rgb(0%, 0%, 0%)" stroke-opacity="1" stroke-miterlimit="10" d="M -2.07272 2.38966 C -1.6926 0.956001 -0.847772 0.279452 0.00166307 0.000431071 C -0.849811 -0.280679 -1.692044 -0.956753 -2.073127 -2.391455 " transform="matrix(0.39388, 0.91911, 0.91911, -0.39388, 218.17473, 135.88536)"/>
<path fill="none" stroke-width="0.3985" stroke-linecap="butt" stroke-linejoin="miter" stroke="rgb(0%, 0%, 0%)" stroke-opacity="1" stroke-miterlimit="10" d="M 151.687219 64.576031 C 154.085656 58.978375 157.761437 53.548687 162.066125 49.244 " transform="matrix(1, 0, 0, -1, 61.512, 203.244)"/>
<path fill="none" stroke-width="0.3985" stroke-linecap="round" stroke-linejoin="round" stroke="rgb(0%, 0%, 0%)" stroke-opacity="1" stroke-miterlimit="10" d="M -2.072534 2.392607 C -1.693967 0.95536 -0.849149 0.278805 0.00028019 -0.000222078 C -0.849655 -0.277733 -1.693429 -0.957387 -2.074523 -2.39208 " transform="matrix(-0.39389, -0.91911, -0.91911, 0.39389, 213.121, 138.48472)"/>
<path fill="none" stroke-width="0.3985" stroke-linecap="round" stroke-linejoin="round" stroke="rgb(0%, 0%, 0%)" stroke-opacity="1" stroke-miterlimit="10" d="M -2.070327 2.390299 C -1.691911 0.956737 -0.849451 0.280007 -0.00146726 0.00102885 C -0.849451 -0.27795 -1.694673 -0.957441 -2.073089 -2.391004 " transform="matrix(0.7071, 0.7071, 0.7071, -0.7071, 223.71906, 154.14239)"/>
<g clip-path="url(#clip-4)">
<path fill="none" stroke-width="0.3985" stroke-linecap="butt" stroke-linejoin="miter" stroke="rgb(0%, 0%, 0%)" stroke-opacity="1" stroke-miterlimit="10" d="M 129.140344 16.318219 C 120.566125 24.892437 106.20675 24.892437 97.351281 16.036969 C 93.101281 11.783062 90.710656 6.013531 90.710656 0.40025 " transform="matrix(1, 0, 0, -1, 61.512, 203.244)"/>
</g>
<path fill="none" stroke-width="0.3985" stroke-linecap="round" stroke-linejoin="round" stroke="rgb(0%, 0%, 0%)" stroke-opacity="1" stroke-miterlimit="10" d="M -2.073089 2.392353 C -1.691911 0.956028 -0.849451 0.279298 -0.00146726 0.000319969 C -0.849451 -0.278658 -1.691911 -0.955388 -2.073089 -2.391713 " transform="matrix(0.7071, 0.7071, 0.7071, -0.7071, 190.79378, 187.06767)"/>
<path fill="none" stroke-width="0.3985" stroke-linecap="round" stroke-linejoin="round" stroke="rgb(0%, 0%, 0%)" stroke-opacity="1" stroke-miterlimit="10" d="M -2.072094 2.391581 C -1.693187 0.957988 -0.849437 0.2783 -0.00178125 0.00095625 C -0.849437 -0.280294 -1.693187 -0.956075 -2.072094 -2.389669 " transform="matrix(0, 1, 1, 0, 152.2217, 203.04475)"/>
</svg>
