<?xml version="1.0" encoding="UTF-8"?>
<svg xmlns="http://www.w3.org/2000/svg" xmlns:xlink="http://www.w3.org/1999/xlink" width="232.841pt" height="172.065pt" viewBox="0 0 232.841 172.065">
<defs>
<g>
<g id="glyph-0-0">
<path d="M 1.78125 -1.140625 C 1.390625 -0.484375 1 -0.34375 0.5625 -0.3125 C 0.4375 -0.296875 0.34375 -0.296875 0.34375 -0.109375 C 0.34375 -0.046875 0.40625 0 0.484375 0 C 0.75 0 1.0625 -0.03125 1.328125 -0.03125 C 1.671875 -0.03125 2.015625 0 2.328125 0 C 2.390625 0 2.515625 0 2.515625 -0.1875 C 2.515625 -0.296875 2.4375 -0.3125 2.359375 -0.3125 C 2.140625 -0.328125 1.890625 -0.40625 1.890625 -0.65625 C 1.890625 -0.78125 1.953125 -0.890625 2.03125 -1.03125 L 2.796875 -2.296875 L 5.296875 -2.296875 C 5.3125 -2.09375 5.453125 -0.734375 5.453125 -0.640625 C 5.453125 -0.34375 4.9375 -0.3125 4.734375 -0.3125 C 4.59375 -0.3125 4.5 -0.3125 4.5 -0.109375 C 4.5 0 4.609375 0 4.640625 0 C 5.046875 0 5.46875 -0.03125 5.875 -0.03125 C 6.125 -0.03125 6.765625 0 7.015625 0 C 7.0625 0 7.1875 0 7.1875 -0.203125 C 7.1875 -0.3125 7.09375 -0.3125 6.953125 -0.3125 C 6.34375 -0.3125 6.34375 -0.375 6.3125 -0.671875 L 5.703125 -6.890625 C 5.6875 -7.09375 5.6875 -7.140625 5.515625 -7.140625 C 5.359375 -7.140625 5.3125 -7.0625 5.25 -6.96875 Z M 2.984375 -2.609375 L 4.9375 -5.90625 L 5.265625 -2.609375 Z M 2.984375 -2.609375 "/>
</g>
<g id="glyph-0-1">
<path d="M 1.59375 -0.78125 C 1.5 -0.390625 1.46875 -0.3125 0.6875 -0.3125 C 0.515625 -0.3125 0.421875 -0.3125 0.421875 -0.109375 C 0.421875 0 0.515625 0 0.6875 0 L 4.25 0 C 5.828125 0 7 -1.171875 7 -2.15625 C 7 -2.875 6.421875 -3.453125 5.453125 -3.5625 C 6.484375 -3.75 7.53125 -4.484375 7.53125 -5.4375 C 7.53125 -6.171875 6.875 -6.8125 5.6875 -6.8125 L 2.328125 -6.8125 C 2.140625 -6.8125 2.046875 -6.8125 2.046875 -6.609375 C 2.046875 -6.5 2.140625 -6.5 2.328125 -6.5 C 2.34375 -6.5 2.53125 -6.5 2.703125 -6.484375 C 2.875 -6.453125 2.96875 -6.453125 2.96875 -6.3125 C 2.96875 -6.28125 2.953125 -6.25 2.9375 -6.125 Z M 3.09375 -3.65625 L 3.71875 -6.125 C 3.8125 -6.46875 3.828125 -6.5 4.25 -6.5 L 5.546875 -6.5 C 6.421875 -6.5 6.625 -5.90625 6.625 -5.46875 C 6.625 -4.59375 5.765625 -3.65625 4.5625 -3.65625 Z M 2.65625 -0.3125 C 2.515625 -0.3125 2.5 -0.3125 2.4375 -0.3125 C 2.328125 -0.328125 2.296875 -0.34375 2.296875 -0.421875 C 2.296875 -0.453125 2.296875 -0.46875 2.359375 -0.640625 L 3.046875 -3.421875 L 4.921875 -3.421875 C 5.875 -3.421875 6.078125 -2.6875 6.078125 -2.265625 C 6.078125 -1.28125 5.1875 -0.3125 4 -0.3125 Z M 2.65625 -0.3125 "/>
</g>
<g id="glyph-0-2">
<path d="M 7.578125 -6.921875 C 7.578125 -6.953125 7.5625 -7.03125 7.46875 -7.03125 C 7.4375 -7.03125 7.421875 -7.015625 7.3125 -6.90625 L 6.625 -6.140625 C 6.53125 -6.28125 6.078125 -7.03125 4.96875 -7.03125 C 2.734375 -7.03125 0.5 -4.828125 0.5 -2.515625 C 0.5 -0.875 1.671875 0.21875 3.203125 0.21875 C 4.0625 0.21875 4.828125 -0.171875 5.359375 -0.640625 C 6.28125 -1.453125 6.453125 -2.359375 6.453125 -2.390625 C 6.453125 -2.5 6.34375 -2.5 6.328125 -2.5 C 6.265625 -2.5 6.21875 -2.46875 6.203125 -2.390625 C 6.109375 -2.109375 5.875 -1.390625 5.1875 -0.8125 C 4.5 -0.265625 3.875 -0.09375 3.359375 -0.09375 C 2.46875 -0.09375 1.40625 -0.609375 1.40625 -2.15625 C 1.40625 -2.734375 1.609375 -4.34375 2.609375 -5.515625 C 3.21875 -6.21875 4.15625 -6.71875 5.046875 -6.71875 C 6.0625 -6.71875 6.65625 -5.953125 6.65625 -4.796875 C 6.65625 -4.390625 6.625 -4.390625 6.625 -4.28125 C 6.625 -4.1875 6.734375 -4.1875 6.765625 -4.1875 C 6.890625 -4.1875 6.890625 -4.203125 6.953125 -4.390625 Z M 7.578125 -6.921875 "/>
</g>
<g id="glyph-0-3">
<path d="M 1.578125 -0.78125 C 1.484375 -0.390625 1.46875 -0.3125 0.671875 -0.3125 C 0.515625 -0.3125 0.40625 -0.3125 0.40625 -0.125 C 0.40625 0 0.484375 0 0.671875 0 L 3.984375 0 C 6.046875 0 8.015625 -2.109375 8.015625 -4.28125 C 8.015625 -5.6875 7.171875 -6.8125 5.671875 -6.8125 L 2.328125 -6.8125 C 2.140625 -6.8125 2.03125 -6.8125 2.03125 -6.625 C 2.03125 -6.5 2.109375 -6.5 2.3125 -6.5 C 2.4375 -6.5 2.625 -6.484375 2.734375 -6.484375 C 2.90625 -6.453125 2.953125 -6.4375 2.953125 -6.3125 C 2.953125 -6.28125 2.953125 -6.25 2.921875 -6.125 Z M 3.734375 -6.125 C 3.828125 -6.46875 3.84375 -6.5 4.28125 -6.5 L 5.34375 -6.5 C 6.3125 -6.5 7.140625 -5.96875 7.140625 -4.65625 C 7.140625 -4.171875 6.953125 -2.53125 6.09375 -1.4375 C 5.8125 -1.0625 5.03125 -0.3125 3.796875 -0.3125 L 2.671875 -0.3125 C 2.53125 -0.3125 2.515625 -0.3125 2.453125 -0.3125 C 2.359375 -0.328125 2.328125 -0.34375 2.328125 -0.421875 C 2.328125 -0.453125 2.328125 -0.46875 2.375 -0.640625 Z M 3.734375 -6.125 "/>
</g>
<g id="glyph-0-4">
<path d="M 7.0625 -2.328125 C 7.078125 -2.375 7.109375 -2.4375 7.109375 -2.46875 C 7.109375 -2.46875 7.109375 -2.578125 6.984375 -2.578125 C 6.890625 -2.578125 6.875 -2.515625 6.859375 -2.453125 C 6.203125 -0.984375 5.84375 -0.3125 4.140625 -0.3125 L 2.6875 -0.3125 C 2.546875 -0.3125 2.515625 -0.3125 2.46875 -0.3125 C 2.359375 -0.328125 2.328125 -0.34375 2.328125 -0.421875 C 2.328125 -0.453125 2.328125 -0.46875 2.375 -0.640625 L 3.0625 -3.375 L 4.046875 -3.375 C 4.890625 -3.375 4.890625 -3.15625 4.890625 -2.90625 C 4.890625 -2.84375 4.890625 -2.71875 4.828125 -2.421875 C 4.8125 -2.375 4.796875 -2.34375 4.796875 -2.3125 C 4.796875 -2.265625 4.828125 -2.203125 4.921875 -2.203125 C 5 -2.203125 5.03125 -2.25 5.078125 -2.40625 L 5.640625 -4.734375 C 5.640625 -4.796875 5.59375 -4.84375 5.515625 -4.84375 C 5.4375 -4.84375 5.40625 -4.78125 5.390625 -4.671875 C 5.171875 -3.90625 5 -3.671875 4.078125 -3.671875 L 3.140625 -3.671875 L 3.734375 -6.078125 C 3.828125 -6.4375 3.84375 -6.46875 4.28125 -6.46875 L 5.6875 -6.46875 C 6.890625 -6.46875 7.203125 -6.1875 7.203125 -5.359375 C 7.203125 -5.125 7.203125 -5.109375 7.15625 -4.828125 C 7.15625 -4.78125 7.140625 -4.703125 7.140625 -4.65625 C 7.140625 -4.609375 7.171875 -4.53125 7.265625 -4.53125 C 7.375 -4.53125 7.390625 -4.59375 7.40625 -4.78125 L 7.609375 -6.515625 C 7.640625 -6.78125 7.59375 -6.78125 7.34375 -6.78125 L 2.296875 -6.78125 C 2.109375 -6.78125 2 -6.78125 2 -6.578125 C 2 -6.46875 2.09375 -6.46875 2.28125 -6.46875 C 2.65625 -6.46875 2.9375 -6.46875 2.9375 -6.296875 C 2.9375 -6.25 2.9375 -6.234375 2.875 -6.046875 L 1.5625 -0.78125 C 1.46875 -0.390625 1.453125 -0.3125 0.65625 -0.3125 C 0.484375 -0.3125 0.375 -0.3125 0.375 -0.125 C 0.375 0 0.46875 0 0.65625 0 L 5.828125 0 C 6.0625 0 6.078125 -0.015625 6.140625 -0.171875 Z M 7.0625 -2.328125 "/>
</g>
<g id="glyph-0-5">
<path d="M 4.75 -2.359375 C 4.75 -3.921875 3.828125 -4.40625 3.09375 -4.40625 C 1.71875 -4.40625 0.40625 -2.984375 0.40625 -1.578125 C 0.40625 -0.640625 1 0.109375 2.03125 0.109375 C 2.65625 0.109375 3.375 -0.125 4.125 -0.734375 C 4.25 -0.203125 4.578125 0.109375 5.03125 0.109375 C 5.5625 0.109375 5.875 -0.4375 5.875 -0.59375 C 5.875 -0.671875 5.8125 -0.703125 5.75 -0.703125 C 5.6875 -0.703125 5.65625 -0.671875 5.625 -0.59375 C 5.4375 -0.109375 5.078125 -0.109375 5.0625 -0.109375 C 4.75 -0.109375 4.75 -0.890625 4.75 -1.125 C 4.75 -1.328125 4.75 -1.359375 4.859375 -1.46875 C 5.796875 -2.65625 6 -3.8125 6 -3.8125 C 6 -3.84375 5.984375 -3.921875 5.875 -3.921875 C 5.78125 -3.921875 5.78125 -3.890625 5.734375 -3.703125 C 5.546875 -3.078125 5.21875 -2.328125 4.75 -1.734375 Z M 4.09375 -0.984375 C 3.203125 -0.21875 2.4375 -0.109375 2.046875 -0.109375 C 1.453125 -0.109375 1.140625 -0.5625 1.140625 -1.203125 C 1.140625 -1.6875 1.40625 -2.765625 1.71875 -3.265625 C 2.1875 -4 2.734375 -4.1875 3.078125 -4.1875 C 4.0625 -4.1875 4.0625 -2.875 4.0625 -2.109375 C 4.0625 -1.734375 4.0625 -1.15625 4.09375 -0.984375 Z M 4.09375 -0.984375 "/>
</g>
<g id="glyph-0-6">
<path d="M 5.734375 -5.671875 C 5.734375 -6.421875 5.1875 -7.03125 4.375 -7.03125 C 3.796875 -7.03125 3.515625 -6.875 3.171875 -6.625 C 2.625 -6.21875 2.078125 -5.25 1.890625 -4.5 L 0.296875 1.828125 C 0.296875 1.875 0.34375 1.9375 0.421875 1.9375 C 0.5 1.9375 0.53125 1.90625 0.53125 1.890625 L 1.234375 -0.875 C 1.421875 -0.265625 1.859375 0.09375 2.59375 0.09375 C 3.3125 0.09375 4.0625 -0.25 4.515625 -0.6875 C 5 -1.140625 5.3125 -1.78125 5.3125 -2.515625 C 5.3125 -3.234375 4.9375 -3.765625 4.578125 -4 C 5.15625 -4.34375 5.734375 -4.953125 5.734375 -5.671875 Z M 3.9375 -4.015625 C 3.8125 -3.96875 3.703125 -3.953125 3.453125 -3.953125 C 3.3125 -3.953125 3.125 -3.9375 3.015625 -3.984375 C 3.046875 -4.09375 3.40625 -4.0625 3.515625 -4.0625 C 3.71875 -4.0625 3.8125 -4.0625 3.9375 -4.015625 Z M 5.171875 -5.90625 C 5.171875 -5.203125 4.796875 -4.484375 4.28125 -4.171875 C 4 -4.28125 3.8125 -4.296875 3.515625 -4.296875 C 3.296875 -4.296875 2.734375 -4.3125 2.734375 -3.984375 C 2.734375 -3.703125 3.25 -3.734375 3.421875 -3.734375 C 3.796875 -3.734375 3.953125 -3.734375 4.25 -3.859375 C 4.625 -3.5 4.671875 -3.1875 4.6875 -2.734375 C 4.703125 -2.15625 4.46875 -1.40625 4.1875 -1.015625 C 3.796875 -0.484375 3.125 -0.125 2.5625 -0.125 C 1.796875 -0.125 1.421875 -0.703125 1.421875 -1.40625 C 1.421875 -1.5 1.421875 -1.65625 1.46875 -1.84375 L 2.109375 -4.359375 C 2.328125 -5.21875 3.046875 -6.8125 4.25 -6.8125 C 4.828125 -6.8125 5.171875 -6.5 5.171875 -5.90625 Z M 5.171875 -5.90625 "/>
</g>
</g>
<clipPath id="clip-0">
<path clip-rule="nonzero" d="M 40 0 L 163 0 L 163 172.066406 L 40 172.066406 Z M 40 0 "/>
</clipPath>
<clipPath id="clip-1">
<path clip-rule="nonzero" d="M 124 0 L 191 0 L 191 172.066406 L 124 172.066406 Z M 124 0 "/>
</clipPath>
</defs>
<path fill-rule="nonzero" fill="rgb(0%, 0%, 0%)" fill-opacity="1" d="M 140.230469 30.246094 C 140.230469 29.621094 139.722656 29.113281 139.097656 29.113281 C 138.472656 29.113281 137.964844 29.621094 137.964844 30.246094 C 137.964844 30.871094 138.472656 31.378906 139.097656 31.378906 C 139.722656 31.378906 140.230469 30.871094 140.230469 30.246094 Z M 140.230469 30.246094 "/>
<path fill-rule="nonzero" fill="rgb(0%, 0%, 0%)" fill-opacity="1" d="M 94.875 98.277344 C 94.875 97.652344 94.367188 97.144531 93.742188 97.144531 C 93.117188 97.144531 92.609375 97.652344 92.609375 98.277344 C 92.609375 98.90625 93.117188 99.414062 93.742188 99.414062 C 94.367188 99.414062 94.875 98.90625 94.875 98.277344 Z M 94.875 98.277344 "/>
<path fill-rule="nonzero" fill="rgb(0%, 0%, 0%)" fill-opacity="1" d="M 162.910156 98.277344 C 162.910156 97.652344 162.402344 97.144531 161.777344 97.144531 C 161.148438 97.144531 160.640625 97.652344 160.640625 98.277344 C 160.640625 98.90625 161.148438 99.414062 161.777344 99.414062 C 162.402344 99.414062 162.910156 98.90625 162.910156 98.277344 Z M 162.910156 98.277344 "/>
<path fill-rule="nonzero" fill="rgb(0%, 0%, 0%)" fill-opacity="1" d="M 63.128906 145.902344 C 63.128906 145.277344 62.621094 144.769531 61.992188 144.769531 C 61.367188 144.769531 60.859375 145.277344 60.859375 145.902344 C 60.859375 146.527344 61.367188 147.035156 61.992188 147.035156 C 62.621094 147.035156 63.128906 146.527344 63.128906 145.902344 Z M 63.128906 145.902344 "/>
<path fill-rule="nonzero" fill="rgb(0%, 0%, 0%)" fill-opacity="1" d="M 178.785156 145.902344 C 178.785156 145.277344 178.277344 144.769531 177.648438 144.769531 C 177.023438 144.769531 176.515625 145.277344 176.515625 145.902344 C 176.515625 146.527344 177.023438 147.035156 177.648438 147.035156 C 178.277344 147.035156 178.785156 146.527344 178.785156 145.902344 Z M 178.785156 145.902344 "/>
<g clip-path="url(#clip-0)">
<path fill="none" stroke-width="0.3985" stroke-linecap="butt" stroke-linejoin="miter" stroke="rgb(0%, 0%, 0%)" stroke-opacity="1" stroke-miterlimit="10" d="M 18.140281 27.21475 L -92.523781 -138.78525 " transform="matrix(1, 0, 0, -1, 139.098, 30.246)"/>
</g>
<g clip-path="url(#clip-1)">
<path fill="none" stroke-width="0.3985" stroke-linecap="butt" stroke-linejoin="miter" stroke="rgb(0%, 0%, 0%)" stroke-opacity="1" stroke-miterlimit="10" d="M -9.070656 27.21475 L 46.261375 -138.78525 " transform="matrix(1, 0, 0, -1, 139.098, 30.246)"/>
</g>
<path fill="none" stroke-width="0.3985" stroke-linecap="butt" stroke-linejoin="miter" stroke="rgb(0%, 0%, 0%)" stroke-opacity="1" stroke-miterlimit="10" d="M -136.06675 -68.031344 L 90.710594 -68.031344 " transform="matrix(1, 0, 0, -1, 139.098, 30.246)"/>
<path fill="none" stroke-width="0.3985" stroke-linecap="butt" stroke-linejoin="miter" stroke="rgb(0%, 0%, 0%)" stroke-opacity="1" stroke-miterlimit="10" d="M -113.387063 -115.656344 L 74.835594 -115.656344 " transform="matrix(1, 0, 0, -1, 139.098, 30.246)"/>
<g fill="rgb(0%, 0%, 0%)" fill-opacity="1">
<use xlink:href="#glyph-0-0" x="128.106" y="33.65"/>
</g>
<g fill="rgb(0%, 0%, 0%)" fill-opacity="1">
<use xlink:href="#glyph-0-1" x="82.167" y="94.759"/>
</g>
<g fill="rgb(0%, 0%, 0%)" fill-opacity="1">
<use xlink:href="#glyph-0-2" x="165.295" y="94.759"/>
</g>
<g fill="rgb(0%, 0%, 0%)" fill-opacity="1">
<use xlink:href="#glyph-0-3" x="49.95" y="142.382"/>
</g>
<g fill="rgb(0%, 0%, 0%)" fill-opacity="1">
<use xlink:href="#glyph-0-4" x="181.169" y="142.382"/>
</g>
<path fill="none" stroke-width="0.3985" stroke-linecap="butt" stroke-linejoin="miter" stroke="rgb(0%, 0%, 0%)" stroke-opacity="1" stroke-miterlimit="10" d="M -12.578469 -18.867281 C -6.758156 -22.750094 0.534812 -23.726656 6.792625 -21.640719 " transform="matrix(1, 0, 0, -1, 139.098, 30.246)"/>
<path fill="none" stroke-width="0.3985" stroke-linecap="round" stroke-linejoin="round" stroke="rgb(0%, 0%, 0%)" stroke-opacity="1" stroke-miterlimit="10" d="M -2.070279 2.392258 C -1.692265 0.956814 -0.851009 0.281096 -0.00110606 0.00191564 C -0.848536 -0.279741 -1.692259 -0.957935 -2.071499 -2.392146 " transform="matrix(0.94864, -0.31621, -0.31621, -0.94864, 146.07978, 51.82178)"/>
<g fill="rgb(0%, 0%, 0%)" fill-opacity="1">
<use xlink:href="#glyph-0-5" x="131.98" y="61.609"/>
</g>
<path fill="none" stroke-width="0.3985" stroke-linecap="butt" stroke-linejoin="miter" stroke="rgb(0%, 0%, 0%)" stroke-opacity="1" stroke-miterlimit="10" d="M -22.676125 -68.031344 C -22.676125 -60.453219 -26.469094 -53.367281 -32.445656 -49.386812 " transform="matrix(1, 0, 0, -1, 139.098, 30.246)"/>
<path fill="none" stroke-width="0.3985" stroke-linecap="round" stroke-linejoin="round" stroke="rgb(0%, 0%, 0%)" stroke-opacity="1" stroke-miterlimit="10" d="M -2.073666 2.390515 C -1.695566 0.957104 -0.848319 0.277767 0.0000176523 -0.00177755 C -0.849412 -0.27696 -1.692348 -0.956269 -2.072663 -2.392918 " transform="matrix(-0.83202, -0.55466, -0.55466, 0.83202, 106.48731, 79.52102)"/>
<g fill="rgb(0%, 0%, 0%)" fill-opacity="1">
<use xlink:href="#glyph-0-6" x="116.654" y="86.859"/>
</g>
<path fill="none" stroke-width="0.3985" stroke-linecap="butt" stroke-linejoin="miter" stroke="rgb(0%, 0%, 0%)" stroke-opacity="1" stroke-miterlimit="10" d="M -54.426125 -115.656344 C -54.426125 -108.074312 -58.219094 -100.992281 -64.195656 -97.007906 " transform="matrix(1, 0, 0, -1, 139.098, 30.246)"/>
<path fill="none" stroke-width="0.3985" stroke-linecap="round" stroke-linejoin="round" stroke="rgb(0%, 0%, 0%)" stroke-opacity="1" stroke-miterlimit="10" d="M -2.073661 2.392382 C -1.693394 0.95572 -0.848314 0.279633 0.0000232307 0.0000891026 C -0.85049 -0.28051 -1.695592 -0.956569 -2.072657 -2.391051 " transform="matrix(-0.83202, -0.55466, -0.55466, 0.83202, 74.73835, 127.14447)"/>
<g fill="rgb(0%, 0%, 0%)" fill-opacity="1">
<use xlink:href="#glyph-0-6" x="84.906" y="134.482"/>
</g>
</svg>
