<?xml version="1.0" encoding="UTF-8"?>
<svg xmlns="http://www.w3.org/2000/svg" xmlns:xlink="http://www.w3.org/1999/xlink" width="263.055pt" height="50.457pt" viewBox="0 0 263.055 50.457">
<defs>
<clipPath id="clip-0">
<path clip-rule="nonzero" d="M 0 0 L 263.054688 0 L 263.054688 50.457031 L 0 50.457031 Z M 0 0 "/>
</clipPath>
</defs>
<path fill-rule="nonzero" fill="rgb(0%, 0%, 0%)" fill-opacity="1" d="M 5.101562 46.488281 C 5.101562 45.863281 4.59375 45.355469 3.96875 45.355469 C 3.34375 45.355469 2.835938 45.863281 2.835938 46.488281 C 2.835938 47.113281 3.34375 47.621094 3.96875 47.621094 C 4.59375 47.621094 5.101562 47.113281 5.101562 46.488281 Z M 5.101562 46.488281 "/>
<path fill-rule="nonzero" fill="rgb(0%, 0%, 0%)" fill-opacity="1" d="M 260.222656 46.488281 C 260.222656 45.863281 259.714844 45.355469 259.089844 45.355469 C 258.464844 45.355469 257.957031 45.863281 257.957031 46.488281 C 257.957031 47.113281 258.464844 47.621094 259.089844 47.621094 C 259.714844 47.621094 260.222656 47.113281 260.222656 46.488281 Z M 260.222656 46.488281 "/>
<path fill-rule="nonzero" fill="rgb(0%, 0%, 0%)" fill-opacity="1" d="M 90.140625 3.96875 C 90.140625 3.34375 89.632812 2.835938 89.007812 2.835938 C 88.382812 2.835938 87.875 3.34375 87.875 3.96875 C 87.875 4.59375 88.382812 5.101562 89.007812 5.101562 C 89.632812 5.101562 90.140625 4.59375 90.140625 3.96875 Z M 90.140625 3.96875 "/>
<g clip-path="url(#clip-0)">
<path fill="none" stroke-width="0.29887" stroke-linecap="butt" stroke-linejoin="miter" stroke="rgb(0%, 0%, 0%)" stroke-opacity="1" stroke-miterlimit="10" d="M 0.00075 0.00071875 L 255.121844 0.00071875 L 85.039812 42.52025 Z M 0.00075 0.00071875 " transform="matrix(1, 0, 0, -1, 3.968, 46.489)"/>
</g>
</svg>
