<?xml version="1.0" encoding="UTF-8"?>
<svg xmlns="http://www.w3.org/2000/svg" xmlns:xlink="http://www.w3.org/1999/xlink" width="135.496pt" height="92.976pt" viewBox="0 0 135.496 92.976">
<path fill-rule="nonzero" fill="rgb(0%, 0%, 0%)" fill-opacity="1" d="M 5.101562 89.007812 C 5.101562 88.382812 4.59375 87.875 3.96875 87.875 C 3.34375 87.875 2.835938 88.382812 2.835938 89.007812 C 2.835938 89.632812 3.34375 90.140625 3.96875 90.140625 C 4.59375 90.140625 5.101562 89.632812 5.101562 89.007812 Z M 5.101562 89.007812 "/>
<path fill-rule="nonzero" fill="rgb(0%, 0%, 0%)" fill-opacity="1" d="M 132.664062 89.007812 C 132.664062 88.382812 132.15625 87.875 131.527344 87.875 C 130.902344 87.875 130.394531 88.382812 130.394531 89.007812 C 130.394531 89.632812 130.902344 90.140625 131.527344 90.140625 C 132.15625 90.140625 132.664062 89.632812 132.664062 89.007812 Z M 132.664062 89.007812 "/>
<path fill-rule="nonzero" fill="rgb(0%, 0%, 0%)" fill-opacity="1" d="M 75.96875 3.96875 C 75.96875 3.339844 75.460938 2.832031 74.835938 2.832031 C 74.207031 2.832031 73.699219 3.339844 73.699219 3.96875 C 73.699219 4.59375 74.207031 5.101562 74.835938 5.101562 C 75.460938 5.101562 75.96875 4.59375 75.96875 3.96875 Z M 75.96875 3.96875 "/>
<path fill="none" stroke-width="0.29887" stroke-linecap="butt" stroke-linejoin="miter" stroke="rgb(0%, 0%, 0%)" stroke-opacity="1" stroke-miterlimit="10" d="M 0.00075 0.0001875 L 127.559344 0.0001875 L 70.867937 85.03925 Z M 0.00075 0.0001875 " transform="matrix(1, 0, 0, -1, 3.968, 89.008)"/>
</svg>
