<?xml version="1.0" encoding="UTF-8"?>
<svg xmlns="http://www.w3.org/2000/svg" xmlns:xlink="http://www.w3.org/1999/xlink" width="263.055pt" height="78.803pt" viewBox="0 0 263.055 78.803">
<defs>
<clipPath id="clip-0">
<path clip-rule="nonzero" d="M 0 0 L 263.054688 0 L 263.054688 78.804688 L 0 78.804688 Z M 0 0 "/>
</clipPath>
</defs>
<path fill-rule="nonzero" fill="rgb(0%, 0%, 0%)" fill-opacity="1" d="M 5.101562 74.835938 C 5.101562 74.207031 4.59375 73.699219 3.96875 73.699219 C 3.34375 73.699219 2.835938 74.207031 2.835938 74.835938 C 2.835938 75.460938 3.34375 75.96875 3.96875 75.96875 C 4.59375 75.96875 5.101562 75.460938 5.101562 74.835938 Z M 5.101562 74.835938 "/>
<path fill-rule="nonzero" fill="rgb(0%, 0%, 0%)" fill-opacity="1" d="M 260.222656 74.835938 C 260.222656 74.207031 259.714844 73.699219 259.089844 73.699219 C 258.464844 73.699219 257.957031 74.207031 257.957031 74.835938 C 257.957031 75.460938 258.464844 75.96875 259.089844 75.96875 C 259.714844 75.96875 260.222656 75.460938 260.222656 74.835938 Z M 260.222656 74.835938 "/>
<path fill-rule="nonzero" fill="rgb(0%, 0%, 0%)" fill-opacity="1" d="M 90.140625 3.96875 C 90.140625 3.339844 89.632812 2.835938 89.007812 2.835938 C 88.382812 2.835938 87.875 3.339844 87.875 3.96875 C 87.875 4.59375 88.382812 5.101562 89.007812 5.101562 C 89.632812 5.101562 90.140625 4.59375 90.140625 3.96875 Z M 90.140625 3.96875 "/>
<g clip-path="url(#clip-0)">
<path fill="none" stroke-width="0.3985" stroke-linecap="butt" stroke-linejoin="miter" stroke="rgb(0%, 0%, 0%)" stroke-opacity="1" stroke-miterlimit="10" d="M 0.00075 -0.0009375 L 255.121844 -0.0009375 L 85.039812 70.86625 Z M 0.00075 -0.0009375 " transform="matrix(1, 0, 0, -1, 3.968, 74.835)"/>
</g>
</svg>
