<?xml version="1.0" encoding="UTF-8"?>
<svg xmlns="http://www.w3.org/2000/svg" xmlns:xlink="http://www.w3.org/1999/xlink" width="164.807pt" height="164.807pt" viewBox="0 0 164.807 164.807">
<defs>
<clipPath id="clip-0">
<path clip-rule="nonzero" d="M 8 0 L 157 0 L 157 164.808594 L 8 164.808594 Z M 8 0 "/>
</clipPath>
<clipPath id="clip-1">
<path clip-rule="nonzero" d="M 8 37 L 157 37 L 157 164.808594 L 8 164.808594 Z M 8 37 "/>
</clipPath>
</defs>
<path fill="none" stroke-width="0.3985" stroke-linecap="butt" stroke-linejoin="miter" stroke="rgb(0%, 0%, 0%)" stroke-opacity="1" stroke-miterlimit="10" d="M 79.369437 0.00065625 C 79.369437 43.836594 43.834281 79.37175 -0.00165625 79.37175 C -43.837594 79.37175 -79.368844 43.836594 -79.368844 0.00065625 C -79.368844 -43.835281 -43.837594 -79.370437 -0.00165625 -79.370437 C 43.834281 -79.370437 79.369437 -43.835281 79.369437 0.00065625 Z M 79.369437 0.00065625 " transform="matrix(1, 0, 0, -1, 82.404, 82.403)"/>
<g clip-path="url(#clip-0)">
<path fill="none" stroke-width="0.3985" stroke-linecap="butt" stroke-linejoin="miter" stroke="rgb(0%, 0%, 0%)" stroke-opacity="1" stroke-miterlimit="10" d="M -0.00165625 79.360031 L -68.728219 39.680344 L -68.728219 -39.679031 L -0.00165625 -79.362625 L 68.728812 -39.679031 L 68.728812 39.680344 Z M -0.00165625 79.360031 " transform="matrix(1, 0, 0, -1, 82.404, 82.403)"/>
</g>
<path fill="none" stroke-width="0.3985" stroke-linecap="butt" stroke-linejoin="miter" stroke="rgb(0%, 0%, 0%)" stroke-opacity="1" stroke-miterlimit="10" d="M -0.00165625 0.00065625 L -0.00165625 79.360031 " transform="matrix(1, 0, 0, -1, 82.404, 82.403)"/>
<path fill="none" stroke-width="0.3985" stroke-linecap="butt" stroke-linejoin="miter" stroke="rgb(0%, 0%, 0%)" stroke-opacity="1" stroke-miterlimit="10" d="M -0.00165625 0.00065625 L -68.728219 39.680344 " transform="matrix(1, 0, 0, -1, 82.404, 82.403)"/>
<path fill="none" stroke-width="0.3985" stroke-linecap="butt" stroke-linejoin="miter" stroke="rgb(0%, 0%, 0%)" stroke-opacity="1" stroke-miterlimit="10" d="M -0.00165625 0.00065625 L -68.728219 -39.679031 " transform="matrix(1, 0, 0, -1, 82.404, 82.403)"/>
<path fill="none" stroke-width="0.3985" stroke-linecap="butt" stroke-linejoin="miter" stroke="rgb(0%, 0%, 0%)" stroke-opacity="1" stroke-miterlimit="10" d="M -0.00165625 0.00065625 L -0.00165625 -79.362625 " transform="matrix(1, 0, 0, -1, 82.404, 82.403)"/>
<path fill="none" stroke-width="0.3985" stroke-linecap="butt" stroke-linejoin="miter" stroke="rgb(0%, 0%, 0%)" stroke-opacity="1" stroke-miterlimit="10" d="M -0.00165625 0.00065625 L 68.728812 -39.679031 " transform="matrix(1, 0, 0, -1, 82.404, 82.403)"/>
<path fill="none" stroke-width="0.3985" stroke-linecap="butt" stroke-linejoin="miter" stroke="rgb(0%, 0%, 0%)" stroke-opacity="1" stroke-miterlimit="10" d="M -0.00165625 0.00065625 L 68.728812 39.680344 " transform="matrix(1, 0, 0, -1, 82.404, 82.403)"/>
<path fill="none" stroke-width="0.3985" stroke-linecap="butt" stroke-linejoin="miter" stroke="rgb(0%, 0%, 0%)" stroke-opacity="1" stroke-miterlimit="10" d="M -0.00165625 79.360031 L -68.728219 -39.679031 L 68.728812 -39.679031 Z M -0.00165625 79.360031 " transform="matrix(1, 0, 0, -1, 82.404, 82.403)"/>
<g clip-path="url(#clip-1)">
<path fill="none" stroke-width="0.3985" stroke-linecap="butt" stroke-linejoin="miter" stroke="rgb(0%, 0%, 0%)" stroke-opacity="1" stroke-miterlimit="10" d="M -68.728219 39.680344 L -0.00165625 -79.362625 L 68.728812 39.680344 Z M -68.728219 39.680344 " transform="matrix(1, 0, 0, -1, 82.404, 82.403)"/>
</g>
</svg>
