<?xml version="1.0" encoding="UTF-8"?>
<svg xmlns="http://www.w3.org/2000/svg" xmlns:xlink="http://www.w3.org/1999/xlink" width="119.454pt" height="119.454pt" viewBox="0 0 119.454 119.454">
<defs>
<clipPath id="clip-0">
<path clip-rule="nonzero" d="M 0 0 L 119.453125 0 L 119.453125 119.453125 L 0 119.453125 Z M 0 0 "/>
</clipPath>
<clipPath id="clip-1">
<path clip-rule="nonzero" d="M 0 0 L 119.453125 0 L 119.453125 112 L 0 112 Z M 0 0 "/>
</clipPath>
<clipPath id="clip-2">
<path clip-rule="nonzero" d="M 54 36 L 119.453125 36 L 119.453125 66 L 54 66 Z M 54 36 "/>
</clipPath>
</defs>
<g clip-path="url(#clip-0)">
<path fill="none" stroke-width="0.3985" stroke-linecap="butt" stroke-linejoin="miter" stroke="rgb(0%, 0%, 0%)" stroke-opacity="1" stroke-miterlimit="10" d="M 56.694875 0.0004375 C 56.694875 31.312938 31.312062 56.691844 -0.0004375 56.691844 C -31.312938 56.691844 -56.691844 31.312938 -56.691844 0.0004375 C -56.691844 -31.312062 -31.312938 -56.694875 -0.0004375 -56.694875 C 31.312062 -56.694875 56.694875 -31.312062 56.694875 0.0004375 Z M 56.694875 0.0004375 " transform="matrix(1, 0, 0, -1, 59.727, 59.727)"/>
</g>
<g clip-path="url(#clip-1)">
<path fill="none" stroke-width="0.3985" stroke-linecap="butt" stroke-linejoin="miter" stroke="rgb(0%, 0%, 0%)" stroke-opacity="1" stroke-miterlimit="10" d="M -0.0004375 56.691844 L -53.918406 17.519969 L -33.324656 -45.86675 L 33.323781 -45.86675 L 53.917531 17.519969 Z M -0.0004375 56.691844 " transform="matrix(1, 0, 0, -1, 59.727, 59.727)"/>
</g>
<path fill="none" stroke-width="0.3985" stroke-linecap="butt" stroke-linejoin="miter" stroke="rgb(0%, 0%, 0%)" stroke-opacity="1" stroke-miterlimit="10" d="M -0.0004375 0.0004375 L -0.0004375 56.691844 " transform="matrix(1, 0, 0, -1, 59.727, 59.727)"/>
<path fill="none" stroke-width="0.3985" stroke-linecap="butt" stroke-linejoin="miter" stroke="rgb(0%, 0%, 0%)" stroke-opacity="1" stroke-miterlimit="10" d="M -0.0004375 0.0004375 L -53.918406 17.519969 " transform="matrix(1, 0, 0, -1, 59.727, 59.727)"/>
<path fill="none" stroke-width="0.3985" stroke-linecap="butt" stroke-linejoin="miter" stroke="rgb(0%, 0%, 0%)" stroke-opacity="1" stroke-miterlimit="10" d="M -0.0004375 0.0004375 L -33.324656 -45.86675 " transform="matrix(1, 0, 0, -1, 59.727, 59.727)"/>
<path fill="none" stroke-width="0.3985" stroke-linecap="butt" stroke-linejoin="miter" stroke="rgb(0%, 0%, 0%)" stroke-opacity="1" stroke-miterlimit="10" d="M -0.0004375 0.0004375 L 33.323781 -45.86675 " transform="matrix(1, 0, 0, -1, 59.727, 59.727)"/>
<g clip-path="url(#clip-2)">
<path fill="none" stroke-width="0.3985" stroke-linecap="butt" stroke-linejoin="miter" stroke="rgb(0%, 0%, 0%)" stroke-opacity="1" stroke-miterlimit="10" d="M -0.0004375 0.0004375 L 53.917531 17.519969 " transform="matrix(1, 0, 0, -1, 59.727, 59.727)"/>
</g>
</svg>
