<?xml version="1.0" encoding="UTF-8"?>
<svg xmlns="http://www.w3.org/2000/svg" xmlns:xlink="http://www.w3.org/1999/xlink" width="135.212pt" height="106.866pt" viewBox="0 0 135.212 106.866">
<defs>
<clipPath id="clip-0">
<path clip-rule="nonzero" d="M 0 0 L 135.210938 0 L 135.210938 106.867188 L 0 106.867188 Z M 0 0 "/>
</clipPath>
</defs>
<g clip-path="url(#clip-0)">
<path fill="none" stroke-width="0.3985" stroke-linecap="butt" stroke-linejoin="miter" stroke="rgb(0%, 0%, 0%)" stroke-opacity="1" stroke-miterlimit="10" d="M -0.001125 -0.0000625 L -28.344875 56.69525 L 28.346531 99.214781 L 70.866062 85.039 L 99.213719 42.519469 L 56.694187 -0.0000625 Z M -0.001125 -0.0000625 " transform="matrix(1, 0, 0, -1, 32.173, 103.039)"/>
</g>
<path fill-rule="nonzero" fill="rgb(0%, 0%, 0%)" fill-opacity="1" d="M 33.164062 103.039062 C 33.164062 102.492188 32.722656 102.046875 32.171875 102.046875 C 31.625 102.046875 31.179688 102.492188 31.179688 103.039062 C 31.179688 103.585938 31.625 104.03125 32.171875 104.03125 C 32.722656 104.03125 33.164062 103.585938 33.164062 103.039062 Z M 33.164062 103.039062 "/>
<path fill-rule="nonzero" fill="rgb(0%, 0%, 0%)" fill-opacity="1" d="M 4.816406 46.34375 C 4.816406 45.796875 4.375 45.351562 3.828125 45.351562 C 3.277344 45.351562 2.835938 45.796875 2.835938 46.34375 C 2.835938 46.894531 3.277344 47.335938 3.828125 47.335938 C 4.375 47.335938 4.816406 46.894531 4.816406 46.34375 Z M 4.816406 46.34375 "/>
<path fill-rule="nonzero" fill="rgb(0%, 0%, 0%)" fill-opacity="1" d="M 61.511719 3.824219 C 61.511719 3.277344 61.066406 2.832031 60.519531 2.832031 C 59.972656 2.832031 59.527344 3.277344 59.527344 3.824219 C 59.527344 4.375 59.972656 4.816406 60.519531 4.816406 C 61.066406 4.816406 61.511719 4.375 61.511719 3.824219 Z M 61.511719 3.824219 "/>
<path fill-rule="nonzero" fill="rgb(0%, 0%, 0%)" fill-opacity="1" d="M 104.03125 18 C 104.03125 17.449219 103.589844 17.007812 103.039062 17.007812 C 102.492188 17.007812 102.046875 17.449219 102.046875 18 C 102.046875 18.546875 102.492188 18.992188 103.039062 18.992188 C 103.589844 18.992188 104.03125 18.546875 104.03125 18 Z M 104.03125 18 "/>
<path fill-rule="nonzero" fill="rgb(0%, 0%, 0%)" fill-opacity="1" d="M 132.378906 60.519531 C 132.378906 59.972656 131.933594 59.527344 131.386719 59.527344 C 130.839844 59.527344 130.394531 59.972656 130.394531 60.519531 C 130.394531 61.066406 130.839844 61.511719 131.386719 61.511719 C 131.933594 61.511719 132.378906 61.066406 132.378906 60.519531 Z M 132.378906 60.519531 "/>
<path fill-rule="nonzero" fill="rgb(0%, 0%, 0%)" fill-opacity="1" d="M 89.859375 103.039062 C 89.859375 102.492188 89.414062 102.046875 88.867188 102.046875 C 88.320312 102.046875 87.875 102.492188 87.875 103.039062 C 87.875 103.585938 88.320312 104.03125 88.867188 104.03125 C 89.414062 104.03125 89.859375 103.585938 89.859375 103.039062 Z M 89.859375 103.039062 "/>
</svg>
