<?xml version="1.0" encoding="UTF-8"?>
<svg xmlns="http://www.w3.org/2000/svg" xmlns:xlink="http://www.w3.org/1999/xlink" width="521.574pt" height="408.189pt" viewBox="0 0 521.574 408.189">
<defs>
<clipPath id="clip-0">
<path clip-rule="nonzero" d="M 0 0 L 521.574219 0 L 521.574219 408.1875 L 0 408.1875 Z M 0 0 "/>
</clipPath>
<clipPath id="clip-1">
<path clip-rule="nonzero" d="M 0 164 L 521.574219 164 L 521.574219 301 L 0 301 Z M 0 164 "/>
</clipPath>
<clipPath id="clip-2">
<path clip-rule="nonzero" d="M 107 277 L 521.574219 277 L 521.574219 408.1875 L 107 408.1875 Z M 107 277 "/>
</clipPath>
</defs>
<g clip-path="url(#clip-0)">
<path fill="none" stroke-width="0.79701" stroke-linecap="butt" stroke-linejoin="miter" stroke="rgb(0%, 0%, 0%)" stroke-opacity="1" stroke-miterlimit="10" d="M -0.0003125 0.00046875 L -113.387031 226.773906 L 113.386406 396.855938 L 283.468437 283.469219 L 396.855156 113.387188 L 226.773125 0.00046875 Z M -0.0003125 0.00046875 " transform="matrix(1, 0, 0, -1, 119.055, 402.52)"/>
</g>
<path fill="none" stroke-width="0.79701" stroke-linecap="butt" stroke-linejoin="miter" stroke="rgb(0%, 0%, 0%)" stroke-opacity="1" stroke-miterlimit="10" d="M -113.387031 226.773906 L 283.468437 283.469219 " transform="matrix(1, 0, 0, -1, 119.055, 402.52)"/>
<g clip-path="url(#clip-1)">
<path fill="none" stroke-width="0.79701" stroke-linecap="butt" stroke-linejoin="miter" stroke="rgb(0%, 0%, 0%)" stroke-opacity="1" stroke-miterlimit="10" d="M -113.387031 226.773906 L 396.855156 113.387188 " transform="matrix(1, 0, 0, -1, 119.055, 402.52)"/>
</g>
<g clip-path="url(#clip-2)">
<path fill="none" stroke-width="0.79701" stroke-linecap="butt" stroke-linejoin="miter" stroke="rgb(0%, 0%, 0%)" stroke-opacity="1" stroke-miterlimit="10" d="M -0.0003125 0.00046875 L 396.855156 113.387188 " transform="matrix(1, 0, 0, -1, 119.055, 402.52)"/>
</g>
<path fill-rule="nonzero" fill="rgb(0%, 0%, 0%)" fill-opacity="1" d="M 121.890625 402.519531 C 121.890625 400.953125 120.621094 399.683594 119.054688 399.683594 C 117.488281 399.683594 116.21875 400.953125 116.21875 402.519531 C 116.21875 404.085938 117.488281 405.355469 119.054688 405.355469 C 120.621094 405.355469 121.890625 404.085938 121.890625 402.519531 Z M 121.890625 402.519531 "/>
<path fill-rule="nonzero" fill="rgb(0%, 0%, 0%)" fill-opacity="1" d="M 8.503906 175.746094 C 8.503906 174.179688 7.234375 172.910156 5.667969 172.910156 C 4.101562 172.910156 2.832031 174.179688 2.832031 175.746094 C 2.832031 177.3125 4.101562 178.582031 5.667969 178.582031 C 7.234375 178.582031 8.503906 177.3125 8.503906 175.746094 Z M 8.503906 175.746094 "/>
<path fill-rule="nonzero" fill="rgb(0%, 0%, 0%)" fill-opacity="1" d="M 235.277344 5.664062 C 235.277344 4.097656 234.007812 2.828125 232.441406 2.828125 C 230.875 2.828125 229.609375 4.097656 229.609375 5.664062 C 229.609375 7.230469 230.875 8.5 232.441406 8.5 C 234.007812 8.5 235.277344 7.230469 235.277344 5.664062 Z M 235.277344 5.664062 "/>
<path fill-rule="nonzero" fill="rgb(0%, 0%, 0%)" fill-opacity="1" d="M 405.359375 119.050781 C 405.359375 117.488281 404.089844 116.21875 402.523438 116.21875 C 400.957031 116.21875 399.6875 117.488281 399.6875 119.050781 C 399.6875 120.617188 400.957031 121.886719 402.523438 121.886719 C 404.089844 121.886719 405.359375 120.617188 405.359375 119.050781 Z M 405.359375 119.050781 "/>
<path fill-rule="nonzero" fill="rgb(0%, 0%, 0%)" fill-opacity="1" d="M 518.746094 289.132812 C 518.746094 287.566406 517.476562 286.296875 515.910156 286.296875 C 514.34375 286.296875 513.074219 287.566406 513.074219 289.132812 C 513.074219 290.699219 514.34375 291.96875 515.910156 291.96875 C 517.476562 291.96875 518.746094 290.699219 518.746094 289.132812 Z M 518.746094 289.132812 "/>
<path fill-rule="nonzero" fill="rgb(0%, 0%, 0%)" fill-opacity="1" d="M 348.664062 402.519531 C 348.664062 400.953125 347.394531 399.683594 345.828125 399.683594 C 344.265625 399.683594 342.996094 400.953125 342.996094 402.519531 C 342.996094 404.085938 344.265625 405.355469 345.828125 405.355469 C 347.394531 405.355469 348.664062 404.085938 348.664062 402.519531 Z M 348.664062 402.519531 "/>
</svg>
